<?xml version="1.0" encoding="UTF-8" standalone="no"?><svg xmlns="http://www.w3.org/2000/svg" xmlns:xlink="http://www.w3.org/1999/xlink" contentStyleType="text/css" height="429px" preserveAspectRatio="none" style="width:893px;height:429px;background:#FFFFFF;" version="1.1" viewBox="0 0 893 429" width="893px" zoomAndPan="magnify"><defs/><g><!--MD5=[7d61a013d1ed55ec04421f31c55a24ee]
entity Estudiante--><g id="elem_Estudiante"><ellipse cx="323" cy="12.5" fill="#F1F1F1" rx="4.5" ry="4.5" style="stroke:#181818;stroke-width:0.5;"/><path d="M310.5,19 L310.5,24 L320,24 L320,26.2574 L310.5,35.7574 L314.7426,40 L323,31.7426 L331.2574,40 L335.5,35.7574 L326,26.2574 L326,24 L335.5,24 L335.5,19 L310.5,19 " fill="#F1F1F1" style="stroke:#181818;stroke-width:0.5;"/><text fill="#000000" font-family="sans-serif" font-size="14" lengthAdjust="spacing" textLength="67" x="289.5" y="55.0332">Estudiante</text></g><g id="elem_Consultar horarios"><ellipse cx="297.097" cy="146.6194" fill="#F1F1F1" rx="81.097" ry="18.6194" style="stroke:#181818;stroke-width:0.5;"/><text fill="#000000" font-family="sans-serif" font-size="14" lengthAdjust="spacing" textLength="117" x="238.0843" y="150.4982">Consultar horarios</text></g><!--MD5=[a2832ad60df5520720a9858f61ea6d39]
entity PDI--><g id="elem_PDI"><ellipse cx="168" cy="126" fill="#F1F1F1" rx="4.5" ry="4.5" style="stroke:#181818;stroke-width:0.5;"/><path d="M155.5,132.5 L155.5,137.5 L165,137.5 L165,139.7574 L155.5,149.2574 L159.7426,153.5 L168,145.2426 L176.2574,153.5 L180.5,149.2574 L171,139.7574 L171,137.5 L180.5,137.5 L180.5,132.5 L155.5,132.5 " fill="#F1F1F1" style="stroke:#181818;stroke-width:0.5;"/><text fill="#000000" font-family="sans-serif" font-size="14" lengthAdjust="spacing" textLength="22" x="157" y="168.5332">PDI</text></g><g id="elem_Proponer cambios en los horarios"><ellipse cx="129.8069" cy="33.1614" fill="#F1F1F1" rx="123.8069" ry="27.1614" style="stroke:#181818;stroke-width:0.5;"/><text fill="#000000" font-family="sans-serif" font-size="14" lengthAdjust="spacing" textLength="213" x="23.3069" y="36.8899">Proponer cambios en los horarios</text></g><!--MD5=[fa2d2e0c4b22d86b46e39d4cb03bb372]
entity PAS--><g id="elem_PAS"><ellipse cx="621" cy="126" fill="#F1F1F1" rx="4.5" ry="4.5" style="stroke:#181818;stroke-width:0.5;"/><path d="M608.5,132.5 L608.5,137.5 L618,137.5 L618,139.7574 L608.5,149.2574 L612.7426,153.5 L621,145.2426 L629.2574,153.5 L633.5,149.2574 L624,139.7574 L624,137.5 L633.5,137.5 L633.5,132.5 L608.5,132.5 " fill="#F1F1F1" style="stroke:#181818;stroke-width:0.5;"/><text fill="#000000" font-family="sans-serif" font-size="14" lengthAdjust="spacing" textLength="27" x="607.5" y="168.5332">PAS</text></g><g id="elem_Modificar horarios"><ellipse cx="492.9775" cy="146.2955" fill="#F1F1F1" rx="79.4775" ry="18.2955" style="stroke:#181818;stroke-width:0.5;"/><text fill="#000000" font-family="sans-serif" font-size="14" lengthAdjust="spacing" textLength="113" x="435.256" y="150.3709">Modificar horarios</text></g><g id="elem_Dar de alta estudiantes"><ellipse cx="543.8753" cy="254.1751" fill="#F1F1F1" rx="93.8753" ry="21.1751" style="stroke:#181818;stroke-width:0.5;"/><text fill="#000000" font-family="sans-serif" font-size="14" lengthAdjust="spacing" textLength="147" x="470.3753" y="257.9036">Dar de alta estudiantes</text></g><g id="elem_Validar datos"><ellipse cx="797.9277" cy="254.0855" fill="#F1F1F1" rx="68.4277" ry="16.0855" style="stroke:#181818;stroke-width:0.5;"/><text fill="#000000" font-family="sans-serif" font-size="14" lengthAdjust="spacing" textLength="83" x="753.4277" y="258.6021">Validar datos</text></g><g id="elem_UC1"><ellipse cx="341.11" cy="379.7381" fill="#F1F1F1" rx="173.11" ry="43.7381" style="stroke:#181818;stroke-width:0.5;"/><text fill="#000000" font-family="sans-serif" font-size="14" lengthAdjust="spacing" textLength="183" x="235.7787" y="361.8584">Dar de alta estudiantes (PDI)</text><line style="stroke:#181818;stroke-width:1.0;" x1="179.2167" x2="503.0033" y1="364.9346" y2="364.9346"/><text fill="#000000" font-family="sans-serif" font-size="14" font-weight="bold" lengthAdjust="spacing" textLength="118" x="268.2787" y="383.4678">extension points</text><text fill="#000000" font-family="sans-serif" font-size="14" lengthAdjust="spacing" textLength="242" x="206.2787" y="401.0771">Buscar estudiantes en la lista de clase</text></g><g id="elem_Buscar estudiantes en la lista de clase"><ellipse cx="749.9138" cy="379.3828" fill="#F1F1F1" rx="137.4138" ry="29.8828" style="stroke:#181818;stroke-width:0.5;"/><text fill="#000000" font-family="sans-serif" font-size="14" lengthAdjust="spacing" textLength="242" x="628.9138" y="383.1113">Buscar estudiantes en la lista de clase</text></g><!--MD5=[9a537460b9fb397400611ae931fd4ba8]
link Estudiante to Consultar horarios--><g id="link_Estudiante_Consultar horarios"><path d="M317.23,58.75 C312.77,77.86 306.65,104.11 302.31,122.72 " fill="none" id="Estudiante-to-Consultar horarios" style="stroke:#181818;stroke-width:1.0;"/><polygon fill="#181818" points="301.14,127.75,307.0899,119.9015,302.282,122.8822,299.3014,118.0743,301.14,127.75" style="stroke:#181818;stroke-width:1.0;"/></g><!--MD5=[fd72b8770dbef4d3356063e328293408]
reverse link Proponer cambios en los horarios to PDI--><g id="link_Proponer cambios en los horarios_PDI"><path d="M140.56,64.98 C146.54,82.55 153.94,104.23 159.54,120.67 " fill="none" id="Proponer cambios en los horarios-backto-PDI" style="stroke:#181818;stroke-width:1.0;"/><polygon fill="#181818" points="138.91,60.14,138.0322,69.9497,140.5254,64.8719,145.6032,67.365,138.91,60.14" style="stroke:#181818;stroke-width:1.0;"/></g><!--MD5=[b3a0b5a1f11cbef807e2956a5eab0217]
reverse link Modificar horarios to PAS--><g id="link_Modificar horarios_PAS"><path d="M577.67,146.5 C587.57,146.5 597.46,146.5 607.36,146.5 " fill="none" id="Modificar horarios-backto-PAS" style="stroke:#181818;stroke-width:1.0;"/><polygon fill="#181818" points="572.5,146.5,581.5,150.5,577.5,146.5,581.5,142.5,572.5,146.5" style="stroke:#181818;stroke-width:1.0;"/></g><!--MD5=[f424063fbea26a1fec3cafd3c127c110]
link PAS to Dar de alta estudiantes--><g id="link_PAS_Dar de alta estudiantes"><path d="M607.23,166.36 C594.45,183.88 575.34,210.06 561.48,229.05 " fill="none" id="PAS-to-Dar de alta estudiantes" style="stroke:#181818;stroke-width:1.0;"/><polygon fill="#181818" points="558.43,233.23,566.9688,228.322,561.3794,229.1925,560.5089,223.603,558.43,233.23" style="stroke:#181818;stroke-width:1.0;"/></g><!--MD5=[75bb5d4a5e931041d784ddc38e17fb38]
reverse link Estudiante to PAS--><g id="link_Estudiante_PAS"><path d="M376.12,45.42 C431.66,58.68 520.27,83.64 590,121 C596.05,124.24 602.1,128.69 607.23,132.9 " fill="none" id="Estudiante-backto-PAS" style="stroke:#181818;stroke-width:1.0;"/><polygon fill="none" points="374.48,52.23,356.57,40.91,377.63,38.58,374.48,52.23" style="stroke:#181818;stroke-width:1.0;"/></g><!--MD5=[87bbaa7e2badf95a325fe4c108f1470b]
reverse link Estudiante to PDI--><g id="link_Estudiante_PDI"><path d="M272.71,67.7 C249.65,83.49 222.13,102.79 198,121 C192.42,125.21 186.42,130.05 181.27,134.3 " fill="none" id="Estudiante-backto-PDI" style="stroke:#181818;stroke-width:1.0;"/><polygon fill="none" points="268.87,61.85,289.34,56.4,276.74,73.43,268.87,61.85" style="stroke:#181818;stroke-width:1.0;"/></g><!--MD5=[1359620610b88eb1ae3d4d11b52fb1dd]
link Dar de alta estudiantes to Validar datos--><g id="link_Dar de alta estudiantes_Validar datos"><path d="M638.22,254 C666.54,254 697.2,254 724.02,254 " fill="none" id="Dar de alta estudiantes-to-Validar datos" style="stroke:#181818;stroke-width:1.0;stroke-dasharray:7.0,7.0;"/><polygon fill="#181818" points="729.33,254,720.33,250,724.33,254,720.33,258,729.33,254" style="stroke:#181818;stroke-width:1.0;"/><text fill="#000000" font-family="sans-serif" font-size="13" lengthAdjust="spacing" textLength="55" x="656.25" y="247.4951">«include»</text></g><!--MD5=[cd627f090e05cff6358ddcf18ce63c54]
link PDI to UC1--><g id="link_PDI_UC1"><path d="M181,164.86 C207.37,200.07 267.9,280.9 306.49,332.42 " fill="none" id="PDI-to-UC1" style="stroke:#181818;stroke-width:1.0;"/><polygon fill="#181818" points="309.69,336.69,307.49,327.09,306.69,332.69,301.09,331.89,309.69,336.69" style="stroke:#181818;stroke-width:1.0;"/></g><!--MD5=[4e2b973784ebbd00a1315e557170be2c]
reverse link UC1 to Buscar estudiantes en la lista de clase--><g id="link_UC1_Buscar estudiantes en la lista de clase"><path d="M519.16,379.5 C550.38,379.5 582.44,379.5 612.35,379.5 " fill="none" id="UC1-backto-Buscar estudiantes en la lista de clase" style="stroke:#181818;stroke-width:1.0;stroke-dasharray:7.0,7.0;"/><polygon fill="#181818" points="514.16,379.5,523.16,383.5,519.16,379.5,523.16,375.5,514.16,379.5" style="stroke:#181818;stroke-width:1.0;"/><text fill="#000000" font-family="sans-serif" font-size="13" lengthAdjust="spacing" textLength="62" x="532.25" y="372.9951">«Extends»</text></g><!--MD5=[d1c64114b92321e4f66f17f8ace7ae53]
reverse link Dar de alta estudiantes to UC1--><g id="link_Dar de alta estudiantes_UC1"><path d="M495.4,284.57 C468.6,300.87 434.96,321.34 405.93,339 " fill="none" id="Dar de alta estudiantes-backto-UC1" style="stroke:#181818;stroke-width:1.0;"/><polygon fill="none" points="492,278.44,512.73,274.03,499.28,290.4,492,278.44" style="stroke:#181818;stroke-width:1.0;"/></g><!--MD5=[8b822d47682b034797a37dd37e879861]
@startuml	
skinparam actorStyle Hollow
:Estudiante: - -> (Consultar horarios)
:PDI: -up-> (Proponer cambios en los horarios)
:PAS: -left-> (Modificar horarios)
:PAS: -down-> (Dar de alta estudiantes)
Estudiante <|- - PAS
Estudiante <|- - PDI
:Dar de alta estudiantes: .right.>(Validar datos) : <<include>>
usecase UC1 as "Dar de alta estudiantes (PDI)
- -
**extension points**
Buscar estudiantes en la lista de clase"
:PDI: - -> (UC1)
(Buscar estudiantes en la lista de clase) .left.> (UC1) : <<Extends>>
(Dar de alta estudiantes) <|- - UC1
@enduml

PlantUML version 1.2022.7(Mon Aug 22 19:01:30 CEST 2022)
(GPL source distribution)
Java Runtime: OpenJDK Runtime Environment
JVM: OpenJDK 64-Bit Server VM
Default Encoding: Cp1252
Language: es
Country: ES
--></g></svg>