<?xml version="1.0" encoding="UTF-8" standalone="no"?><svg xmlns="http://www.w3.org/2000/svg" xmlns:xlink="http://www.w3.org/1999/xlink" contentStyleType="text/css" height="350px" preserveAspectRatio="none" style="width:854px;height:350px;background:#FFFFFF;" version="1.1" viewBox="0 0 854 350" width="854px" zoomAndPan="magnify"><defs/><g><!--MD5=[7d61a013d1ed55ec04421f31c55a24ee]
entity Estudiante--><g id="elem_Estudiante"><ellipse cx="332.5" cy="12.5" fill="#F1F1F1" rx="4.5" ry="4.5" style="stroke:#181818;stroke-width:0.5;"/><path d="M320,19 L320,24 L329.5,24 L329.5,26.2574 L320,35.7574 L324.2426,40 L332.5,31.7426 L340.7574,40 L345,35.7574 L335.5,26.2574 L335.5,24 L345,24 L345,19 L320,19 " fill="#F1F1F1" style="stroke:#181818;stroke-width:0.5;"/><text fill="#000000" font-family="sans-serif" font-size="14" lengthAdjust="spacing" textLength="67" x="299" y="55.0332">Estudiante</text></g><g id="elem_Consultar horarios"><ellipse cx="343.597" cy="151.1194" fill="#F1F1F1" rx="81.097" ry="18.6194" style="stroke:#181818;stroke-width:0.5;"/><text fill="#000000" font-family="sans-serif" font-size="14" lengthAdjust="spacing" textLength="117" x="284.5843" y="154.9982">Consultar horarios</text></g><!--MD5=[a2832ad60df5520720a9858f61ea6d39]
entity PDI--><g id="elem_PDI"><ellipse cx="504.5" cy="130.5" fill="#F1F1F1" rx="4.5" ry="4.5" style="stroke:#181818;stroke-width:0.5;"/><path d="M492,137 L492,142 L501.5,142 L501.5,144.2574 L492,153.7574 L496.2426,158 L504.5,149.7426 L512.7574,158 L517,153.7574 L507.5,144.2574 L507.5,142 L517,142 L517,137 L492,137 " fill="#F1F1F1" style="stroke:#181818;stroke-width:0.5;"/><text fill="#000000" font-family="sans-serif" font-size="14" lengthAdjust="spacing" textLength="22" x="493.5" y="173.0332">PDI</text></g><g id="elem_Proponer cambios en los horarios"><ellipse cx="525.3069" cy="33.1614" fill="#F1F1F1" rx="123.8069" ry="27.1614" style="stroke:#181818;stroke-width:0.5;"/><text fill="#000000" font-family="sans-serif" font-size="14" lengthAdjust="spacing" textLength="213" x="418.8069" y="36.8899">Proponer cambios en los horarios</text></g><!--MD5=[fa2d2e0c4b22d86b46e39d4cb03bb372]
entity PAS--><g id="elem_PAS"><ellipse cx="213.5" cy="130.5" fill="#F1F1F1" rx="4.5" ry="4.5" style="stroke:#181818;stroke-width:0.5;"/><path d="M201,137 L201,142 L210.5,142 L210.5,144.2574 L201,153.7574 L205.2426,158 L213.5,149.7426 L221.7574,158 L226,153.7574 L216.5,144.2574 L216.5,142 L226,142 L226,137 L201,137 " fill="#F1F1F1" style="stroke:#181818;stroke-width:0.5;"/><text fill="#000000" font-family="sans-serif" font-size="14" lengthAdjust="spacing" textLength="27" x="200" y="173.0332">PAS</text></g><g id="elem_Modificar horarios"><ellipse cx="85.4775" cy="150.7955" fill="#F1F1F1" rx="79.4775" ry="18.2955" style="stroke:#181818;stroke-width:0.5;"/><text fill="#000000" font-family="sans-serif" font-size="14" lengthAdjust="spacing" textLength="113" x="27.756" y="154.8709">Modificar horarios</text></g><g id="elem_Dar de alta estudiantes"><ellipse cx="191.3753" cy="301.6751" fill="#F1F1F1" rx="93.8753" ry="21.1751" style="stroke:#181818;stroke-width:0.5;"/><text fill="#000000" font-family="sans-serif" font-size="14" lengthAdjust="spacing" textLength="147" x="117.8753" y="305.4036">Dar de alta estudiantes</text></g><g id="elem_Validar datos"><ellipse cx="389.4277" cy="301.5855" fill="#F1F1F1" rx="68.4277" ry="16.0855" style="stroke:#181818;stroke-width:0.5;"/><text fill="#000000" font-family="sans-serif" font-size="14" lengthAdjust="spacing" textLength="83" x="344.9277" y="306.1021">Validar datos</text></g><g id="elem_UC1"><ellipse cx="680.2873" cy="301.5831" fill="#F1F1F1" rx="168.2873" ry="42.5831" style="stroke:#181818;stroke-width:0.5;"/><text fill="#000000" font-family="sans-serif" font-size="14" lengthAdjust="spacing" textLength="147" x="593.6294" y="281.9858">Dar de alta estudiantes</text><line style="stroke:#181818;stroke-width:1.0;" x1="526.1819" x2="834.3926" y1="285.062" y2="285.062"/><text fill="#000000" font-family="sans-serif" font-size="14" font-weight="bold" lengthAdjust="spacing" textLength="118" x="608.1294" y="303.5952">extension points</text><text fill="#000000" font-family="sans-serif" font-size="14" lengthAdjust="spacing" textLength="242" x="546.1294" y="321.2046">Buscar estudiantes en la lista de clase</text></g><g id="elem_Buscar estudiantes en la lista de clase"><ellipse cx="690.4138" cy="150.8828" fill="#F1F1F1" rx="137.4138" ry="29.8828" style="stroke:#181818;stroke-width:0.5;"/><text fill="#000000" font-family="sans-serif" font-size="14" lengthAdjust="spacing" textLength="242" x="569.4138" y="154.6113">Buscar estudiantes en la lista de clase</text></g><!--MD5=[9a537460b9fb397400611ae931fd4ba8]
link Estudiante to Consultar horarios--><g id="link_Estudiante_Consultar horarios"><path d="M334.83,58.6 C336.75,78.87 339.46,107.39 341.33,127.16 " fill="none" id="Estudiante-to-Consultar horarios" style="stroke:#181818;stroke-width:1.0;"/><polygon fill="#181818" points="341.82,132.24,344.955,122.9034,341.3493,127.2622,336.9905,123.6565,341.82,132.24" style="stroke:#181818;stroke-width:1.0;"/></g><!--MD5=[fd72b8770dbef4d3356063e328293408]
reverse link Proponer cambios en los horarios to PDI--><g id="link_Proponer cambios en los horarios_PDI"><path d="M519.85,65.21 C516.44,84.04 512.16,107.71 508.98,125.25 " fill="none" id="Proponer cambios en los horarios-backto-PDI" style="stroke:#181818;stroke-width:1.0;"/><polygon fill="#181818" points="520.79,60.03,515.2612,68.1806,519.9056,64.9512,523.135,69.5956,520.79,60.03" style="stroke:#181818;stroke-width:1.0;"/></g><!--MD5=[b3a0b5a1f11cbef807e2956a5eab0217]
reverse link Modificar horarios to PAS--><g id="link_Modificar horarios_PAS"><path d="M170.17,151 C180.07,151 189.96,151 199.86,151 " fill="none" id="Modificar horarios-backto-PAS" style="stroke:#181818;stroke-width:1.0;"/><polygon fill="#181818" points="165,151,174,155,170,151,174,147,165,151" style="stroke:#181818;stroke-width:1.0;"/></g><!--MD5=[f424063fbea26a1fec3cafd3c127c110]
link PAS to Dar de alta estudiantes--><g id="link_PAS_Dar de alta estudiantes"><path d="M209.87,176.52 C205.82,203.82 199.32,247.72 195.23,275.29 " fill="none" id="PAS-to-Dar de alta estudiantes" style="stroke:#181818;stroke-width:1.0;"/><polygon fill="#181818" points="194.5,280.24,199.7662,271.9173,195.2271,275.2931,191.8512,270.754,194.5,280.24" style="stroke:#181818;stroke-width:1.0;"/></g><!--MD5=[75bb5d4a5e931041d784ddc38e17fb38]
reverse link Estudiante to PAS--><g id="link_Estudiante_PAS"><path d="M292.8,72.7 C270.14,94.79 243.15,121.1 227.22,136.63 " fill="none" id="Estudiante-backto-PAS" style="stroke:#181818;stroke-width:1.0;"/><polygon fill="none" points="288.06,67.55,307.26,58.6,297.83,77.57,288.06,67.55" style="stroke:#181818;stroke-width:1.0;"/></g><!--MD5=[87bbaa7e2badf95a325fe4c108f1470b]
reverse link Estudiante to PDI--><g id="link_Estudiante_PDI"><path d="M382.81,67.93 C420.07,93.06 468.2,125.52 491.16,141 " fill="none" id="Estudiante-backto-PDI" style="stroke:#181818;stroke-width:1.0;"/><polygon fill="none" points="378.74,73.63,366.07,56.64,386.57,62.02,378.74,73.63" style="stroke:#181818;stroke-width:1.0;"/></g><!--MD5=[528a8620ba364c40ada6b27345b3aa08]
link PAS to Validar datos--><g id="link_PAS_Validar datos"><path d="M227.22,165.18 C232.55,170.21 238.74,175.94 244.5,181 C286.78,218.14 337.93,259.49 366.79,282.51 " fill="none" id="PAS-to-Validar datos" style="stroke:#181818;stroke-width:1.0;stroke-dasharray:7.0,7.0;"/><polygon fill="#181818" points="370.88,285.77,366.3431,277.0283,366.9729,282.65,361.3512,283.2797,370.88,285.77" style="stroke:#181818;stroke-width:1.0;"/><text fill="#000000" font-family="sans-serif" font-size="13" lengthAdjust="spacing" textLength="55" x="301.5" y="225.4951">«include»</text></g><!--MD5=[cd627f090e05cff6358ddcf18ce63c54]
link PDI to UC1--><g id="link_PDI_UC1"><path d="M517.61,164.6 C523.07,169.77 529.52,175.75 535.5,181 C565.17,207.06 599.2,235.19 626.83,257.61 " fill="none" id="PDI-to-UC1" style="stroke:#181818;stroke-width:1.0;"/><polygon fill="#181818" points="630.86,260.88,626.3779,252.1101,626.9724,257.7357,621.3469,258.3302,630.86,260.88" style="stroke:#181818;stroke-width:1.0;"/></g><!--MD5=[fc7f151f6418afce2d3b4c9241c584b0]
link Buscar estudiantes en la lista de clase to UC1--><g id="link_Buscar estudiantes en la lista de clase_UC1"><path d="M688.52,181.34 C687.13,202.01 685.24,230.13 683.64,253.86 " fill="none" id="Buscar estudiantes en la lista de clase-to-UC1" style="stroke:#181818;stroke-width:1.0;stroke-dasharray:7.0,7.0;"/><polygon fill="#181818" points="683.3,258.85,687.8815,250.1317,683.6279,253.8608,679.8988,249.6071,683.3,258.85" style="stroke:#181818;stroke-width:1.0;"/><text fill="#000000" font-family="sans-serif" font-size="13" lengthAdjust="spacing" textLength="62" x="686.5" y="225.4951">«Extends»</text></g><!--MD5=[020fa680c59101e438e361122b99bc74]
@startuml	
skinparam actorStyle Hollow
:Estudiante: - -> (Consultar horarios)
:PDI: -up-> (Proponer cambios en los horarios)
:PAS: -left-> (Modificar horarios)
:PAS: -down-> (Dar de alta estudiantes)
Estudiante <|- - PAS
Estudiante <|- - PDI
:PAS: ..>(Validar datos) : <<include>>
usecase UC1 as "Dar de alta estudiantes
- -
**extension points**
Buscar estudiantes en la lista de clase"
:PDI: - -> (UC1)
(Buscar estudiantes en la lista de clase) ..> (UC1) : <<Extends>>
@enduml

PlantUML version 1.2022.7(Mon Aug 22 19:01:30 CEST 2022)
(GPL source distribution)
Java Runtime: OpenJDK Runtime Environment
JVM: OpenJDK 64-Bit Server VM
Default Encoding: Cp1252
Language: es
Country: ES
--></g></svg>