<?xml version="1.0" encoding="UTF-8" standalone="no"?><svg xmlns="http://www.w3.org/2000/svg" xmlns:xlink="http://www.w3.org/1999/xlink" contentStyleType="text/css" height="542px" preserveAspectRatio="none" style="width:1084px;height:542px;background:#FFFFFF;" version="1.1" viewBox="0 0 1084 542" width="1084px" zoomAndPan="magnify"><defs/><g><!--MD5=[9231e5b138909734b576f3545e846cfa]
class Productos--><g id="elem_Productos"><rect codeLine="2" fill="#F1F1F1" height="100.8281" id="Productos" rx="2.5" ry="2.5" style="stroke:#181818;stroke-width:0.5;" width="150" x="490.5" y="7"/><ellipse cx="529.8" cy="23" fill="#ADD1B2" rx="11" ry="11" style="stroke:#181818;stroke-width:1.0;"/><path d="M528.6594,23.7969 L528.6594,26.2969 L532.9875,26.2969 L532.9875,25.375 Q532.9875,24.7656 533.2297,24.5 Q533.4719,24.2344 533.8469,24.2344 Q534.2219,24.2344 534.4563,24.5 Q534.6906,24.7656 534.6906,25.375 L534.6906,28 L526.6906,28 Q526.0656,28 525.8078,27.7656 Q525.55,27.5313 525.55,27.1406 Q525.55,26.7656 525.8156,26.5313 Q526.0813,26.2969 526.6906,26.2969 L526.9563,26.2969 L526.9563,19.6406 L526.6906,19.6406 Q526.0656,19.6406 525.8078,19.4063 Q525.55,19.1719 525.55,18.7813 Q525.55,18.4063 525.8078,18.1719 Q526.0656,17.9375 526.6906,17.9375 L534.3156,17.9375 L534.3156,20.5313 Q534.3156,21.1406 534.0891,21.3984 Q533.8625,21.6563 533.4719,21.6563 Q533.0969,21.6563 532.8625,21.3984 Q532.6281,21.1406 532.6281,20.5313 L532.6281,19.6406 L528.6594,19.6406 L528.6594,22.0938 L530.1438,22.0938 Q530.1438,21.4375 530.2688,21.25 Q530.5344,20.8438 531.0031,20.8438 Q531.3781,20.8438 531.6125,21.1016 Q531.8469,21.3594 531.8469,21.9688 L531.8469,23.9375 Q531.8469,24.4844 531.7219,24.6719 Q531.4563,25.0625 531.0031,25.0625 Q530.5344,25.0625 530.2688,24.6563 Q530.1438,24.4688 530.1438,23.7969 L528.6594,23.7969 Z " fill="#000000"/><text fill="#000000" font-family="sans-serif" font-size="14" lengthAdjust="spacing" textLength="64" x="549.2" y="28.7285">Productos</text><line style="stroke:#181818;stroke-width:0.5;" x1="491.5" x2="639.5" y1="39" y2="39"/><ellipse cx="501.5" cy="53.3047" fill="#000000" rx="3" ry="3" style="stroke:#000000;stroke-width:1.0;"/><text fill="#000000" font-family="sans-serif" font-size="14" lengthAdjust="spacing" textLength="124" x="510.5" y="57.5332">idProducto: number</text><text fill="#000000" font-family="sans-serif" font-size="14" lengthAdjust="spacing" textLength="86" x="510.5" y="75.1426">nombre: texto</text><text fill="#000000" font-family="sans-serif" font-size="14" lengthAdjust="spacing" textLength="95" x="510.5" y="92.752">precio: number</text><line style="stroke:#181818;stroke-width:0.5;" x1="491.5" x2="639.5" y1="99.8281" y2="99.8281"/></g><!--MD5=[07a1d77cdeb991336268507770c77bf1]
class Compradores--><g id="elem_Compradores"><rect codeLine="8" fill="#F1F1F1" height="83.2188" id="Compradores" rx="2.5" ry="2.5" style="stroke:#181818;stroke-width:0.5;" width="164" x="157.5" y="417.5"/><ellipse cx="193.2" cy="433.5" fill="#ADD1B2" rx="11" ry="11" style="stroke:#181818;stroke-width:1.0;"/><path d="M192.0594,434.2969 L192.0594,436.7969 L196.3875,436.7969 L196.3875,435.875 Q196.3875,435.2656 196.6297,435 Q196.8719,434.7344 197.2469,434.7344 Q197.6219,434.7344 197.8563,435 Q198.0906,435.2656 198.0906,435.875 L198.0906,438.5 L190.0906,438.5 Q189.4656,438.5 189.2078,438.2656 Q188.95,438.0313 188.95,437.6406 Q188.95,437.2656 189.2156,437.0313 Q189.4813,436.7969 190.0906,436.7969 L190.3563,436.7969 L190.3563,430.1406 L190.0906,430.1406 Q189.4656,430.1406 189.2078,429.9063 Q188.95,429.6719 188.95,429.2813 Q188.95,428.9063 189.2078,428.6719 Q189.4656,428.4375 190.0906,428.4375 L197.7156,428.4375 L197.7156,431.0313 Q197.7156,431.6406 197.4891,431.8984 Q197.2625,432.1563 196.8719,432.1563 Q196.4969,432.1563 196.2625,431.8984 Q196.0281,431.6406 196.0281,431.0313 L196.0281,430.1406 L192.0594,430.1406 L192.0594,432.5938 L193.5438,432.5938 Q193.5438,431.9375 193.6688,431.75 Q193.9344,431.3438 194.4031,431.3438 Q194.7781,431.3438 195.0125,431.6016 Q195.2469,431.8594 195.2469,432.4688 L195.2469,434.4375 Q195.2469,434.9844 195.1219,435.1719 Q194.8563,435.5625 194.4031,435.5625 Q193.9344,435.5625 193.6688,435.1563 Q193.5438,434.9688 193.5438,434.2969 L192.0594,434.2969 Z " fill="#000000"/><text fill="#000000" font-family="sans-serif" font-size="14" lengthAdjust="spacing" textLength="86" x="211.8" y="439.2285">Compradores</text><line style="stroke:#181818;stroke-width:0.5;" x1="158.5" x2="320.5" y1="449.5" y2="449.5"/><ellipse cx="168.5" cy="463.8047" fill="#000000" rx="3" ry="3" style="stroke:#000000;stroke-width:1.0;"/><text fill="#000000" font-family="sans-serif" font-size="14" lengthAdjust="spacing" textLength="138" x="177.5" y="468.0332">idComprador: number</text><text fill="#000000" font-family="sans-serif" font-size="14" lengthAdjust="spacing" textLength="86" x="177.5" y="485.6426">nombre: texto</text><line style="stroke:#181818;stroke-width:0.5;" x1="158.5" x2="320.5" y1="492.7188" y2="492.7188"/></g><!--MD5=[9a054b9eb50041a41e0239ea25a8e446]
class Comprador_agrega_Producto--><g id="elem_Comprador_agrega_Producto"><rect codeLine="13" fill="#F1F1F1" height="83.2188" id="Comprador_agrega_Producto" rx="2.5" ry="2.5" style="stroke:#181818;stroke-width:0.5;" width="221" x="7" y="203.5"/><ellipse cx="22" cy="219.5" fill="#ADD1B2" rx="11" ry="11" style="stroke:#181818;stroke-width:1.0;"/><path d="M20.8594,220.2969 L20.8594,222.7969 L25.1875,222.7969 L25.1875,221.875 Q25.1875,221.2656 25.4297,221 Q25.6719,220.7344 26.0469,220.7344 Q26.4219,220.7344 26.6563,221 Q26.8906,221.2656 26.8906,221.875 L26.8906,224.5 L18.8906,224.5 Q18.2656,224.5 18.0078,224.2656 Q17.75,224.0313 17.75,223.6406 Q17.75,223.2656 18.0156,223.0313 Q18.2813,222.7969 18.8906,222.7969 L19.1563,222.7969 L19.1563,216.1406 L18.8906,216.1406 Q18.2656,216.1406 18.0078,215.9063 Q17.75,215.6719 17.75,215.2813 Q17.75,214.9063 18.0078,214.6719 Q18.2656,214.4375 18.8906,214.4375 L26.5156,214.4375 L26.5156,217.0313 Q26.5156,217.6406 26.2891,217.8984 Q26.0625,218.1563 25.6719,218.1563 Q25.2969,218.1563 25.0625,217.8984 Q24.8281,217.6406 24.8281,217.0313 L24.8281,216.1406 L20.8594,216.1406 L20.8594,218.5938 L22.3438,218.5938 Q22.3438,217.9375 22.4688,217.75 Q22.7344,217.3438 23.2031,217.3438 Q23.5781,217.3438 23.8125,217.6016 Q24.0469,217.8594 24.0469,218.4688 L24.0469,220.4375 Q24.0469,220.9844 23.9219,221.1719 Q23.6563,221.5625 23.2031,221.5625 Q22.7344,221.5625 22.4688,221.1563 Q22.3438,220.9688 22.3438,220.2969 L20.8594,220.2969 Z " fill="#000000"/><text fill="#000000" font-family="sans-serif" font-size="14" lengthAdjust="spacing" textLength="189" x="36" y="225.2285">Comprador_agrega_Producto</text><line style="stroke:#181818;stroke-width:0.5;" x1="8" x2="227" y1="235.5" y2="235.5"/><ellipse cx="18" cy="249.8047" fill="#000000" rx="3" ry="3" style="stroke:#000000;stroke-width:1.0;"/><text fill="#000000" font-family="sans-serif" font-size="14" lengthAdjust="spacing" textLength="124" x="27" y="254.0332">idProducto: number</text><ellipse cx="18" cy="267.4141" fill="#000000" rx="3" ry="3" style="stroke:#000000;stroke-width:1.0;"/><text fill="#000000" font-family="sans-serif" font-size="14" lengthAdjust="spacing" textLength="138" x="27" y="271.6426">idComprador: number</text><line style="stroke:#181818;stroke-width:0.5;" x1="8" x2="227" y1="278.7188" y2="278.7188"/></g><!--MD5=[c6728bdd038d87ae77afde2a951e9e51]
class Vendedor_vende_Producto--><g id="elem_Vendedor_vende_Producto"><rect codeLine="18" fill="#F1F1F1" height="83.2188" id="Vendedor_vende_Producto" rx="2.5" ry="2.5" style="stroke:#181818;stroke-width:0.5;" width="206" x="462.5" y="203.5"/><ellipse cx="477.5" cy="219.5" fill="#ADD1B2" rx="11" ry="11" style="stroke:#181818;stroke-width:1.0;"/><path d="M476.3594,220.2969 L476.3594,222.7969 L480.6875,222.7969 L480.6875,221.875 Q480.6875,221.2656 480.9297,221 Q481.1719,220.7344 481.5469,220.7344 Q481.9219,220.7344 482.1563,221 Q482.3906,221.2656 482.3906,221.875 L482.3906,224.5 L474.3906,224.5 Q473.7656,224.5 473.5078,224.2656 Q473.25,224.0313 473.25,223.6406 Q473.25,223.2656 473.5156,223.0313 Q473.7813,222.7969 474.3906,222.7969 L474.6563,222.7969 L474.6563,216.1406 L474.3906,216.1406 Q473.7656,216.1406 473.5078,215.9063 Q473.25,215.6719 473.25,215.2813 Q473.25,214.9063 473.5078,214.6719 Q473.7656,214.4375 474.3906,214.4375 L482.0156,214.4375 L482.0156,217.0313 Q482.0156,217.6406 481.7891,217.8984 Q481.5625,218.1563 481.1719,218.1563 Q480.7969,218.1563 480.5625,217.8984 Q480.3281,217.6406 480.3281,217.0313 L480.3281,216.1406 L476.3594,216.1406 L476.3594,218.5938 L477.8438,218.5938 Q477.8438,217.9375 477.9688,217.75 Q478.2344,217.3438 478.7031,217.3438 Q479.0781,217.3438 479.3125,217.6016 Q479.5469,217.8594 479.5469,218.4688 L479.5469,220.4375 Q479.5469,220.9844 479.4219,221.1719 Q479.1563,221.5625 478.7031,221.5625 Q478.2344,221.5625 477.9688,221.1563 Q477.8438,220.9688 477.8438,220.2969 L476.3594,220.2969 Z " fill="#000000"/><text fill="#000000" font-family="sans-serif" font-size="14" lengthAdjust="spacing" textLength="174" x="491.5" y="225.2285">Vendedor_vende_Producto</text><line style="stroke:#181818;stroke-width:0.5;" x1="463.5" x2="667.5" y1="235.5" y2="235.5"/><ellipse cx="473.5" cy="249.8047" fill="#000000" rx="3" ry="3" style="stroke:#000000;stroke-width:1.0;"/><text fill="#000000" font-family="sans-serif" font-size="14" lengthAdjust="spacing" textLength="124" x="482.5" y="254.0332">idProducto: number</text><ellipse cx="473.5" cy="267.4141" fill="#000000" rx="3" ry="3" style="stroke:#000000;stroke-width:1.0;"/><text fill="#000000" font-family="sans-serif" font-size="14" lengthAdjust="spacing" textLength="129" x="482.5" y="271.6426">idVendedor: number</text><line style="stroke:#181818;stroke-width:0.5;" x1="463.5" x2="667.5" y1="278.7188" y2="278.7188"/></g><!--MD5=[d33efa58269530308f6acc0e268aea17]
class Oferta_tiene_Producto--><g id="elem_Oferta_tiene_Producto"><rect codeLine="23" fill="#F1F1F1" height="83.2188" id="Oferta_tiene_Producto" rx="2.5" ry="2.5" style="stroke:#181818;stroke-width:0.5;" width="176" x="703.5" y="203.5"/><ellipse cx="718.5" cy="219.5" fill="#ADD1B2" rx="11" ry="11" style="stroke:#181818;stroke-width:1.0;"/><path d="M717.3594,220.2969 L717.3594,222.7969 L721.6875,222.7969 L721.6875,221.875 Q721.6875,221.2656 721.9297,221 Q722.1719,220.7344 722.5469,220.7344 Q722.9219,220.7344 723.1563,221 Q723.3906,221.2656 723.3906,221.875 L723.3906,224.5 L715.3906,224.5 Q714.7656,224.5 714.5078,224.2656 Q714.25,224.0313 714.25,223.6406 Q714.25,223.2656 714.5156,223.0313 Q714.7813,222.7969 715.3906,222.7969 L715.6563,222.7969 L715.6563,216.1406 L715.3906,216.1406 Q714.7656,216.1406 714.5078,215.9063 Q714.25,215.6719 714.25,215.2813 Q714.25,214.9063 714.5078,214.6719 Q714.7656,214.4375 715.3906,214.4375 L723.0156,214.4375 L723.0156,217.0313 Q723.0156,217.6406 722.7891,217.8984 Q722.5625,218.1563 722.1719,218.1563 Q721.7969,218.1563 721.5625,217.8984 Q721.3281,217.6406 721.3281,217.0313 L721.3281,216.1406 L717.3594,216.1406 L717.3594,218.5938 L718.8438,218.5938 Q718.8438,217.9375 718.9688,217.75 Q719.2344,217.3438 719.7031,217.3438 Q720.0781,217.3438 720.3125,217.6016 Q720.5469,217.8594 720.5469,218.4688 L720.5469,220.4375 Q720.5469,220.9844 720.4219,221.1719 Q720.1563,221.5625 719.7031,221.5625 Q719.2344,221.5625 718.9688,221.1563 Q718.8438,220.9688 718.8438,220.2969 L717.3594,220.2969 Z " fill="#000000"/><text fill="#000000" font-family="sans-serif" font-size="14" lengthAdjust="spacing" textLength="144" x="732.5" y="225.2285">Oferta_tiene_Producto</text><line style="stroke:#181818;stroke-width:0.5;" x1="704.5" x2="878.5" y1="235.5" y2="235.5"/><ellipse cx="714.5" cy="249.8047" fill="#000000" rx="3" ry="3" style="stroke:#000000;stroke-width:1.0;"/><text fill="#000000" font-family="sans-serif" font-size="14" lengthAdjust="spacing" textLength="124" x="723.5" y="254.0332">idProducto: number</text><ellipse cx="714.5" cy="267.4141" fill="#000000" rx="3" ry="3" style="stroke:#000000;stroke-width:1.0;"/><text fill="#000000" font-family="sans-serif" font-size="14" lengthAdjust="spacing" textLength="107" x="723.5" y="271.6426">idOferta: number</text><line style="stroke:#181818;stroke-width:0.5;" x1="704.5" x2="878.5" y1="278.7188" y2="278.7188"/></g><!--MD5=[da9daf59039586f77bf824c7cef46e69]
class Vendedores--><g id="elem_Vendedores"><rect codeLine="28" fill="#F1F1F1" height="83.2188" id="Vendedores" rx="2.5" ry="2.5" style="stroke:#181818;stroke-width:0.5;" width="155" x="373" y="417.5"/><ellipse cx="408.7" cy="433.5" fill="#ADD1B2" rx="11" ry="11" style="stroke:#181818;stroke-width:1.0;"/><path d="M407.5594,434.2969 L407.5594,436.7969 L411.8875,436.7969 L411.8875,435.875 Q411.8875,435.2656 412.1297,435 Q412.3719,434.7344 412.7469,434.7344 Q413.1219,434.7344 413.3563,435 Q413.5906,435.2656 413.5906,435.875 L413.5906,438.5 L405.5906,438.5 Q404.9656,438.5 404.7078,438.2656 Q404.45,438.0313 404.45,437.6406 Q404.45,437.2656 404.7156,437.0313 Q404.9813,436.7969 405.5906,436.7969 L405.8563,436.7969 L405.8563,430.1406 L405.5906,430.1406 Q404.9656,430.1406 404.7078,429.9063 Q404.45,429.6719 404.45,429.2813 Q404.45,428.9063 404.7078,428.6719 Q404.9656,428.4375 405.5906,428.4375 L413.2156,428.4375 L413.2156,431.0313 Q413.2156,431.6406 412.9891,431.8984 Q412.7625,432.1563 412.3719,432.1563 Q411.9969,432.1563 411.7625,431.8984 Q411.5281,431.6406 411.5281,431.0313 L411.5281,430.1406 L407.5594,430.1406 L407.5594,432.5938 L409.0438,432.5938 Q409.0438,431.9375 409.1688,431.75 Q409.4344,431.3438 409.9031,431.3438 Q410.2781,431.3438 410.5125,431.6016 Q410.7469,431.8594 410.7469,432.4688 L410.7469,434.4375 Q410.7469,434.9844 410.6219,435.1719 Q410.3563,435.5625 409.9031,435.5625 Q409.4344,435.5625 409.1688,435.1563 Q409.0438,434.9688 409.0438,434.2969 L407.5594,434.2969 Z " fill="#000000"/><text fill="#000000" font-family="sans-serif" font-size="14" lengthAdjust="spacing" textLength="77" x="427.3" y="439.2285">Vendedores</text><line style="stroke:#181818;stroke-width:0.5;" x1="374" x2="527" y1="449.5" y2="449.5"/><ellipse cx="384" cy="463.8047" fill="#000000" rx="3" ry="3" style="stroke:#000000;stroke-width:1.0;"/><text fill="#000000" font-family="sans-serif" font-size="14" lengthAdjust="spacing" textLength="129" x="393" y="468.0332">idVendedor: number</text><text fill="#000000" font-family="sans-serif" font-size="14" lengthAdjust="spacing" textLength="86" x="393" y="485.6426">nombre: texto</text><line style="stroke:#181818;stroke-width:0.5;" x1="374" x2="527" y1="492.7188" y2="492.7188"/></g><!--MD5=[88becdc98b51807b865ce75e208c9604]
class Proveedores--><g id="elem_Proveedores"><rect codeLine="33" fill="#F1F1F1" height="83.2188" id="Proveedores" rx="2.5" ry="2.5" style="stroke:#181818;stroke-width:0.5;" width="159" x="915" y="203.5"/><ellipse cx="950.7" cy="219.5" fill="#ADD1B2" rx="11" ry="11" style="stroke:#181818;stroke-width:1.0;"/><path d="M949.5594,220.2969 L949.5594,222.7969 L953.8875,222.7969 L953.8875,221.875 Q953.8875,221.2656 954.1297,221 Q954.3719,220.7344 954.7469,220.7344 Q955.1219,220.7344 955.3563,221 Q955.5906,221.2656 955.5906,221.875 L955.5906,224.5 L947.5906,224.5 Q946.9656,224.5 946.7078,224.2656 Q946.45,224.0313 946.45,223.6406 Q946.45,223.2656 946.7156,223.0313 Q946.9813,222.7969 947.5906,222.7969 L947.8563,222.7969 L947.8563,216.1406 L947.5906,216.1406 Q946.9656,216.1406 946.7078,215.9063 Q946.45,215.6719 946.45,215.2813 Q946.45,214.9063 946.7078,214.6719 Q946.9656,214.4375 947.5906,214.4375 L955.2156,214.4375 L955.2156,217.0313 Q955.2156,217.6406 954.9891,217.8984 Q954.7625,218.1563 954.3719,218.1563 Q953.9969,218.1563 953.7625,217.8984 Q953.5281,217.6406 953.5281,217.0313 L953.5281,216.1406 L949.5594,216.1406 L949.5594,218.5938 L951.0438,218.5938 Q951.0438,217.9375 951.1688,217.75 Q951.4344,217.3438 951.9031,217.3438 Q952.2781,217.3438 952.5125,217.6016 Q952.7469,217.8594 952.7469,218.4688 L952.7469,220.4375 Q952.7469,220.9844 952.6219,221.1719 Q952.3563,221.5625 951.9031,221.5625 Q951.4344,221.5625 951.1688,221.1563 Q951.0438,220.9688 951.0438,220.2969 L949.5594,220.2969 Z " fill="#000000"/><text fill="#000000" font-family="sans-serif" font-size="14" lengthAdjust="spacing" textLength="81" x="969.3" y="225.2285">Proveedores</text><line style="stroke:#181818;stroke-width:0.5;" x1="916" x2="1073" y1="235.5" y2="235.5"/><ellipse cx="926" cy="249.8047" fill="#000000" rx="3" ry="3" style="stroke:#000000;stroke-width:1.0;"/><text fill="#000000" font-family="sans-serif" font-size="14" lengthAdjust="spacing" textLength="133" x="935" y="254.0332">idProveedor: number</text><text fill="#000000" font-family="sans-serif" font-size="14" lengthAdjust="spacing" textLength="86" x="935" y="271.6426">nombre: texto</text><line style="stroke:#181818;stroke-width:0.5;" x1="916" x2="1073" y1="278.7188" y2="278.7188"/></g><!--MD5=[f1bb1dd1304d20aae45885461e08742c]
class Ofertas--><g id="elem_Ofertas"><rect codeLine="38" fill="#F1F1F1" height="153.6563" id="Ofertas" rx="2.5" ry="2.5" style="stroke:#181818;stroke-width:0.5;" width="133" x="725" y="382"/><ellipse cx="764.3" cy="398" fill="#ADD1B2" rx="11" ry="11" style="stroke:#181818;stroke-width:1.0;"/><path d="M763.1594,398.7969 L763.1594,401.2969 L767.4875,401.2969 L767.4875,400.375 Q767.4875,399.7656 767.7297,399.5 Q767.9719,399.2344 768.3469,399.2344 Q768.7219,399.2344 768.9563,399.5 Q769.1906,399.7656 769.1906,400.375 L769.1906,403 L761.1906,403 Q760.5656,403 760.3078,402.7656 Q760.05,402.5313 760.05,402.1406 Q760.05,401.7656 760.3156,401.5313 Q760.5813,401.2969 761.1906,401.2969 L761.4563,401.2969 L761.4563,394.6406 L761.1906,394.6406 Q760.5656,394.6406 760.3078,394.4063 Q760.05,394.1719 760.05,393.7813 Q760.05,393.4063 760.3078,393.1719 Q760.5656,392.9375 761.1906,392.9375 L768.8156,392.9375 L768.8156,395.5313 Q768.8156,396.1406 768.5891,396.3984 Q768.3625,396.6563 767.9719,396.6563 Q767.5969,396.6563 767.3625,396.3984 Q767.1281,396.1406 767.1281,395.5313 L767.1281,394.6406 L763.1594,394.6406 L763.1594,397.0938 L764.6438,397.0938 Q764.6438,396.4375 764.7688,396.25 Q765.0344,395.8438 765.5031,395.8438 Q765.8781,395.8438 766.1125,396.1016 Q766.3469,396.3594 766.3469,396.9688 L766.3469,398.9375 Q766.3469,399.4844 766.2219,399.6719 Q765.9563,400.0625 765.5031,400.0625 Q765.0344,400.0625 764.7688,399.6563 Q764.6438,399.4688 764.6438,398.7969 L763.1594,398.7969 Z " fill="#000000"/><text fill="#000000" font-family="sans-serif" font-size="14" lengthAdjust="spacing" textLength="47" x="783.7" y="403.7285">Ofertas</text><line style="stroke:#181818;stroke-width:0.5;" x1="726" x2="857" y1="414" y2="414"/><ellipse cx="736" cy="428.3047" fill="#000000" rx="3" ry="3" style="stroke:#000000;stroke-width:1.0;"/><text fill="#000000" font-family="sans-serif" font-size="14" lengthAdjust="spacing" textLength="107" x="745" y="432.5332">idOferta: number</text><text fill="#000000" font-family="sans-serif" font-size="14" lengthAdjust="spacing" textLength="86" x="745" y="450.1426">nombre: texto</text><text fill="#000000" font-family="sans-serif" font-size="14" lengthAdjust="spacing" textLength="103" x="745" y="467.752">fechaInicio: date</text><text fill="#000000" font-family="sans-serif" font-size="14" lengthAdjust="spacing" textLength="91" x="745" y="485.3613">fechaFin: date</text><text fill="#000000" font-family="sans-serif" font-size="14" lengthAdjust="spacing" textLength="96" x="745" y="502.9707">activa: boolean</text><text fill="#000000" font-family="sans-serif" font-size="14" lengthAdjust="spacing" textLength="101" x="745" y="520.5801">productos: texto</text><line style="stroke:#181818;stroke-width:0.5;" x1="726" x2="857" y1="527.6563" y2="527.6563"/></g><!--MD5=[8dafa48c8927729db58016516a739c58]
class Notificaciones--><g id="elem_Notificaciones"><rect codeLine="47" fill="#F1F1F1" height="83.2188" id="Notificaciones" rx="2.5" ry="2.5" style="stroke:#181818;stroke-width:0.5;" width="165" x="912" y="417.5"/><ellipse cx="947.7" cy="433.5" fill="#ADD1B2" rx="11" ry="11" style="stroke:#181818;stroke-width:1.0;"/><path d="M946.5594,434.2969 L946.5594,436.7969 L950.8875,436.7969 L950.8875,435.875 Q950.8875,435.2656 951.1297,435 Q951.3719,434.7344 951.7469,434.7344 Q952.1219,434.7344 952.3563,435 Q952.5906,435.2656 952.5906,435.875 L952.5906,438.5 L944.5906,438.5 Q943.9656,438.5 943.7078,438.2656 Q943.45,438.0313 943.45,437.6406 Q943.45,437.2656 943.7156,437.0313 Q943.9813,436.7969 944.5906,436.7969 L944.8563,436.7969 L944.8563,430.1406 L944.5906,430.1406 Q943.9656,430.1406 943.7078,429.9063 Q943.45,429.6719 943.45,429.2813 Q943.45,428.9063 943.7078,428.6719 Q943.9656,428.4375 944.5906,428.4375 L952.2156,428.4375 L952.2156,431.0313 Q952.2156,431.6406 951.9891,431.8984 Q951.7625,432.1563 951.3719,432.1563 Q950.9969,432.1563 950.7625,431.8984 Q950.5281,431.6406 950.5281,431.0313 L950.5281,430.1406 L946.5594,430.1406 L946.5594,432.5938 L948.0438,432.5938 Q948.0438,431.9375 948.1688,431.75 Q948.4344,431.3438 948.9031,431.3438 Q949.2781,431.3438 949.5125,431.6016 Q949.7469,431.8594 949.7469,432.4688 L949.7469,434.4375 Q949.7469,434.9844 949.6219,435.1719 Q949.3563,435.5625 948.9031,435.5625 Q948.4344,435.5625 948.1688,435.1563 Q948.0438,434.9688 948.0438,434.2969 L946.5594,434.2969 Z " fill="#000000"/><text fill="#000000" font-family="sans-serif" font-size="14" lengthAdjust="spacing" textLength="87" x="966.3" y="439.2285">Notificaciones</text><line style="stroke:#181818;stroke-width:0.5;" x1="913" x2="1076" y1="449.5" y2="449.5"/><ellipse cx="923" cy="463.8047" fill="#000000" rx="3" ry="3" style="stroke:#000000;stroke-width:1.0;"/><text fill="#000000" font-family="sans-serif" font-size="14" lengthAdjust="spacing" textLength="139" x="932" y="468.0332">idNotificacion: number</text><text fill="#000000" font-family="sans-serif" font-size="14" lengthAdjust="spacing" textLength="68" x="932" y="485.6426">texto: texto</text><line style="stroke:#181818;stroke-width:0.5;" x1="913" x2="1076" y1="492.7188" y2="492.7188"/></g><!--MD5=[1c5be1afcacb244c6e9e84203a165aa3]
class Ventas--><g id="elem_Ventas"><rect codeLine="52" fill="#F1F1F1" height="153.6563" id="Ventas" rx="2.5" ry="2.5" style="stroke:#181818;stroke-width:0.5;" width="164" x="263.5" y="168"/><ellipse cx="319.25" cy="184" fill="#ADD1B2" rx="11" ry="11" style="stroke:#181818;stroke-width:1.0;"/><path d="M318.1094,184.7969 L318.1094,187.2969 L322.4375,187.2969 L322.4375,186.375 Q322.4375,185.7656 322.6797,185.5 Q322.9219,185.2344 323.2969,185.2344 Q323.6719,185.2344 323.9063,185.5 Q324.1406,185.7656 324.1406,186.375 L324.1406,189 L316.1406,189 Q315.5156,189 315.2578,188.7656 Q315,188.5313 315,188.1406 Q315,187.7656 315.2656,187.5313 Q315.5313,187.2969 316.1406,187.2969 L316.4063,187.2969 L316.4063,180.6406 L316.1406,180.6406 Q315.5156,180.6406 315.2578,180.4063 Q315,180.1719 315,179.7813 Q315,179.4063 315.2578,179.1719 Q315.5156,178.9375 316.1406,178.9375 L323.7656,178.9375 L323.7656,181.5313 Q323.7656,182.1406 323.5391,182.3984 Q323.3125,182.6563 322.9219,182.6563 Q322.5469,182.6563 322.3125,182.3984 Q322.0781,182.1406 322.0781,181.5313 L322.0781,180.6406 L318.1094,180.6406 L318.1094,183.0938 L319.5938,183.0938 Q319.5938,182.4375 319.7188,182.25 Q319.9844,181.8438 320.4531,181.8438 Q320.8281,181.8438 321.0625,182.1016 Q321.2969,182.3594 321.2969,182.9688 L321.2969,184.9375 Q321.2969,185.4844 321.1719,185.6719 Q320.9063,186.0625 320.4531,186.0625 Q319.9844,186.0625 319.7188,185.6563 Q319.5938,185.4688 319.5938,184.7969 L318.1094,184.7969 Z " fill="#000000"/><text fill="#000000" font-family="sans-serif" font-size="14" lengthAdjust="spacing" textLength="44" x="339.75" y="189.7285">Ventas</text><line style="stroke:#181818;stroke-width:0.5;" x1="264.5" x2="426.5" y1="200" y2="200"/><ellipse cx="274.5" cy="214.3047" fill="#000000" rx="3" ry="3" style="stroke:#000000;stroke-width:1.0;"/><text fill="#000000" font-family="sans-serif" font-size="14" lengthAdjust="spacing" textLength="104" x="283.5" y="218.5332">idVenta: number</text><text fill="#000000" font-family="sans-serif" font-size="14" lengthAdjust="spacing" textLength="101" x="283.5" y="236.1426">productos: texto</text><text fill="#000000" font-family="sans-serif" font-size="14" lengthAdjust="spacing" textLength="138" x="283.5" y="253.752">idComprador: number</text><text fill="#000000" font-family="sans-serif" font-size="14" lengthAdjust="spacing" textLength="129" x="283.5" y="271.3613">idVendedor: number</text><text fill="#000000" font-family="sans-serif" font-size="14" lengthAdjust="spacing" textLength="108" x="283.5" y="288.9707">fechaVenta: date</text><text fill="#000000" font-family="sans-serif" font-size="14" lengthAdjust="spacing" textLength="132" x="283.5" y="306.5801">precioVenta: number</text><line style="stroke:#181818;stroke-width:0.5;" x1="264.5" x2="426.5" y1="313.6563" y2="313.6563"/></g><!--MD5=[009961a9f162c3467c75280ad22ca294]
link Productos to Comprador_agrega_Producto--><g id="link_Productos_Comprador_agrega_Producto"><path codeLine="62" d="M482.54,81.74 C416.85,101.36 323.49,131.97 245.5,168 C226.03,176.99 205.73,188.14 187.19,199.1 " fill="none" id="Productos-Comprador_agrega_Producto" style="stroke:#181818;stroke-width:1.0;stroke-dasharray:7.0,7.0;"/><line style="stroke:#181818;stroke-width:1.0;" x1="185.3946" x2="181.2954" y1="204.8354" y2="197.9654"/><line style="stroke:#181818;stroke-width:1.0;" x1="187.9708" x2="183.8717" y1="203.2982" y2="196.4282"/><line style="stroke:#181818;stroke-width:1.0;" x1="186.78" x2="179.91" y1="199.3508" y2="203.45"/><line style="stroke:#181818;stroke-width:1.0;" x1="482.7392" x2="488.7066" y1="81.6712" y2="73.6469"/><line style="stroke:#181818;stroke-width:1.0;" x1="482.7392" x2="492.1134" y1="81.6712" y2="85.1531"/><line style="stroke:#181818;stroke-width:1.0;" x1="482.7392" x2="490.41" y1="81.6712" y2="79.4"/><line style="stroke:#181818;stroke-width:1.0;" x1="479.6859" x2="481.9571" y1="78.4037" y2="86.0745"/></g><!--MD5=[14e6470d8da9830acb7ab809aa927a32]
link Comprador_agrega_Producto to Compradores--><g id="link_Comprador_agrega_Producto_Compradores"><path codeLine="63" d="M145.19,294.11 C165.15,328.8 191.97,375.4 211.9,410.05 " fill="none" id="Comprador_agrega_Producto-Compradores" style="stroke:#181818;stroke-width:1.0;stroke-dasharray:7.0,7.0;"/><line style="stroke:#181818;stroke-width:1.0;" x1="212.0671" x2="221.2535" y1="410.312" y2="414.2628"/><line style="stroke:#181818;stroke-width:1.0;" x1="212.0671" x2="210.8465" y1="410.312" y2="420.2372"/><line style="stroke:#181818;stroke-width:1.0;" x1="212.0671" x2="216.05" y1="410.312" y2="417.25"/><line style="stroke:#181818;stroke-width:1.0;" x1="214.5403" x2="207.6023" y1="406.586" y2="410.5689"/><line style="stroke:#181818;stroke-width:1.0;" x1="139.5558" x2="146.4841" y1="292.3441" y2="288.3442"/><line style="stroke:#181818;stroke-width:1.0;" x1="141.0557" x2="147.984" y1="294.9422" y2="290.9423"/><line style="stroke:#181818;stroke-width:1.0;" x1="145.0198" x2="141.02" y1="293.8083" y2="286.88"/></g><!--MD5=[ec4b25b871fbda44437d557e3e7d6fb2]
link Productos to Oferta_tiene_Producto--><g id="link_Productos_Oferta_tiene_Producto"><path codeLine="65" d="M632.52,113.51 C665.24,140.37 704.16,172.31 735.3,197.88 " fill="none" id="Productos-Oferta_tiene_Producto" style="stroke:#181818;stroke-width:1.0;stroke-dasharray:7.0,7.0;"/><line style="stroke:#181818;stroke-width:1.0;" x1="741.2728" x2="736.2007" y1="197.6007" y2="203.7872"/><line style="stroke:#181818;stroke-width:1.0;" x1="738.9528" x2="733.8807" y1="195.6986" y2="201.8852"/><line style="stroke:#181818;stroke-width:1.0;" x1="735.6434" x2="741.83" y1="198.1579" y2="203.23"/><line style="stroke:#181818;stroke-width:1.0;" x1="632.2466" x2="622.2559" y1="113.2821" y2="112.8499"/><line style="stroke:#181818;stroke-width:1.0;" x1="632.2466" x2="629.8641" y1="113.2821" y2="103.5701"/><line style="stroke:#181818;stroke-width:1.0;" x1="632.2466" x2="626.06" y1="113.2821" y2="108.21"/><line style="stroke:#181818;stroke-width:1.0;" x1="631.2571" x2="636.3293" y1="117.6434" y2="111.4569"/></g><!--MD5=[a80d8c8958b1987c992b0d1e62750540]
link Oferta_tiene_Producto to Ofertas--><g id="link_Oferta_tiene_Producto_Ofertas"><path codeLine="66" d="M791.5,294.98 C791.5,318.28 791.5,346.8 791.5,373.43 " fill="none" id="Oferta_tiene_Producto-Ofertas" style="stroke:#181818;stroke-width:1.0;stroke-dasharray:7.0,7.0;"/><line style="stroke:#181818;stroke-width:1.0;" x1="791.5" x2="797.5" y1="373.63" y2="381.63"/><line style="stroke:#181818;stroke-width:1.0;" x1="791.5" x2="785.5" y1="373.63" y2="381.63"/><line style="stroke:#181818;stroke-width:1.0;" x1="791.5" x2="791.5" y1="373.63" y2="381.63"/><line style="stroke:#181818;stroke-width:1.0;" x1="795.5" x2="787.5" y1="371.63" y2="371.63"/><line style="stroke:#181818;stroke-width:1.0;" x1="787.5" x2="795.5" y1="290.88" y2="290.88"/><line style="stroke:#181818;stroke-width:1.0;" x1="787.5" x2="795.5" y1="293.88" y2="293.88"/><line style="stroke:#181818;stroke-width:1.0;" x1="791.5" x2="791.5" y1="294.88" y2="286.88"/></g><!--MD5=[8630e41d2f6ef8b3f6b195abba1e8334]
link Productos to Vendedor_vende_Producto--><g id="link_Productos_Vendedor_vende_Producto"><path codeLine="68" d="M565.5,116.39 C565.5,141.6 565.5,170.81 565.5,194.93 " fill="none" id="Productos-Vendedor_vende_Producto" style="stroke:#181818;stroke-width:1.0;stroke-dasharray:7.0,7.0;"/><line style="stroke:#181818;stroke-width:1.0;" x1="569.5" x2="561.5" y1="199.23" y2="199.23"/><line style="stroke:#181818;stroke-width:1.0;" x1="569.5" x2="561.5" y1="196.23" y2="196.23"/><line style="stroke:#181818;stroke-width:1.0;" x1="565.5" x2="565.5" y1="195.23" y2="203.23"/><line style="stroke:#181818;stroke-width:1.0;" x1="565.5" x2="559.5" y1="116.21" y2="108.21"/><line style="stroke:#181818;stroke-width:1.0;" x1="565.5" x2="571.5" y1="116.21" y2="108.21"/><line style="stroke:#181818;stroke-width:1.0;" x1="565.5" x2="565.5" y1="116.21" y2="108.21"/><line style="stroke:#181818;stroke-width:1.0;" x1="561.5" x2="569.5" y1="118.21" y2="118.21"/></g><!--MD5=[d59818b61f7119975335ce45a64d613f]
link Vendedor_vende_Producto to Vendedores--><g id="link_Vendedor_vende_Producto_Vendedores"><path codeLine="69" d="M539.4,294.11 C520.59,328.8 495.31,375.4 476.51,410.05 " fill="none" id="Vendedor_vende_Producto-Vendedores" style="stroke:#181818;stroke-width:1.0;stroke-dasharray:7.0,7.0;"/><line style="stroke:#181818;stroke-width:1.0;" x1="476.4258" x2="477.8835" y1="410.2187" y2="420.1118"/><line style="stroke:#181818;stroke-width:1.0;" x1="476.4258" x2="467.3365" y1="410.2187" y2="414.3882"/><line style="stroke:#181818;stroke-width:1.0;" x1="476.4258" x2="472.61" y1="410.2187" y2="417.25"/><line style="stroke:#181818;stroke-width:1.0;" x1="480.8954" x2="473.8641" y1="410.3687" y2="406.5529"/><line style="stroke:#181818;stroke-width:1.0;" x1="537.9064" x2="544.9378" y1="288.4878" y2="292.3036"/><line style="stroke:#181818;stroke-width:1.0;" x1="536.4755" x2="543.5069" y1="291.1245" y2="294.9403"/><line style="stroke:#181818;stroke-width:1.0;" x1="539.5142" x2="543.33" y1="293.9113" y2="286.88"/></g><!--MD5=[180c6cb9c59ada448f98731a752e1712]
link Productos to Proveedores--><g id="link_Productos_Proveedores"><path codeLine="71" d="M648.55,77.35 C717.74,95.02 817.51,125.17 897.5,168 C913.2,176.41 928.95,187.38 943.05,198.37 " fill="none" id="Productos-Proveedores" style="stroke:#181818;stroke-width:1.0;stroke-dasharray:7.0,7.0;"/><line style="stroke:#181818;stroke-width:1.0;" x1="948.7602" x2="943.7906" y1="197.7906" y2="204.0598"/><line style="stroke:#181818;stroke-width:1.0;" x1="946.4093" x2="941.4396" y1="195.927" y2="202.1961"/><line style="stroke:#181818;stroke-width:1.0;" x1="943.1408" x2="949.41" y1="198.4404" y2="203.41"/><line style="stroke:#181818;stroke-width:1.0;" x1="648.4435" x2="639.2121" y1="77.3305" y2="81.1751"/><line style="stroke:#181818;stroke-width:1.0;" x1="648.4435" x2="642.1679" y1="77.3305" y2="69.5449"/><line style="stroke:#181818;stroke-width:1.0;" x1="648.4435" x2="640.69" y1="77.3305" y2="75.36"/><line style="stroke:#181818;stroke-width:1.0;" x1="649.3966" x2="651.3672" y1="81.6999" y2="73.9464"/></g><!--MD5=[608e173f7334720e79232a40a87c5eda]
link Proveedores to Notificaciones--><g id="link_Proveedores_Notificaciones"><path codeLine="72" d="M994.5,295.05 C994.5,329.36 994.5,375 994.5,409.24 " fill="none" id="Proveedores-Notificaciones" style="stroke:#181818;stroke-width:1.0;stroke-dasharray:7.0,7.0;"/><line style="stroke:#181818;stroke-width:1.0;" x1="994.5" x2="1000.5" y1="409.25" y2="417.25"/><line style="stroke:#181818;stroke-width:1.0;" x1="994.5" x2="988.5" y1="409.25" y2="417.25"/><line style="stroke:#181818;stroke-width:1.0;" x1="994.5" x2="994.5" y1="409.25" y2="417.25"/><line style="stroke:#181818;stroke-width:1.0;" x1="998.5" x2="990.5" y1="407.25" y2="407.25"/><line style="stroke:#181818;stroke-width:1.0;" x1="990.5" x2="998.5" y1="290.88" y2="290.88"/><line style="stroke:#181818;stroke-width:1.0;" x1="990.5" x2="998.5" y1="293.88" y2="293.88"/><line style="stroke:#181818;stroke-width:1.0;" x1="994.5" x2="994.5" y1="294.88" y2="286.88"/></g><!--MD5=[4c0a41912d0524c75844d74e3fe15acd]
link Productos to Ventas--><g id="link_Productos_Ventas"><path codeLine="74" d="M500.22,113.54 C479.45,131.06 456.11,150.74 433.98,169.39 " fill="none" id="Productos-Ventas" style="stroke:#181818;stroke-width:1.0;stroke-dasharray:7.0,7.0;"/><line style="stroke:#181818;stroke-width:1.0;" x1="433.4166" x2="428.2586" y1="175.1086" y2="168.9934"/><line style="stroke:#181818;stroke-width:1.0;" x1="435.7098" x2="430.5518" y1="173.1744" y2="167.0592"/><line style="stroke:#181818;stroke-width:1.0;" x1="433.8952" x2="427.78" y1="169.4721" y2="174.63"/><line style="stroke:#181818;stroke-width:1.0;" x1="500.4248" x2="502.6716" y1="113.3679" y2="103.6236"/><line style="stroke:#181818;stroke-width:1.0;" x1="500.4248" x2="510.4084" y1="113.3679" y2="112.7964"/><line style="stroke:#181818;stroke-width:1.0;" x1="500.4248" x2="506.54" y1="113.3679" y2="108.21"/><line style="stroke:#181818;stroke-width:1.0;" x1="496.317" x2="501.4749" y1="111.5998" y2="117.715"/></g><!--MD5=[ab0f1ae7583f03b856e0e343108ad4a4]
link Ventas to Vendedores--><g id="link_Ventas_Vendedores"><path codeLine="75" d="M386.84,329.46 C400.42,356.89 415.05,386.42 426.85,410.26 " fill="none" id="Ventas-Vendedores" style="stroke:#181818;stroke-width:1.0;stroke-dasharray:7.0,7.0;"/><line style="stroke:#181818;stroke-width:1.0;" x1="426.8766" x2="435.7994" y1="410.2875" y2="414.8025"/><line style="stroke:#181818;stroke-width:1.0;" x1="426.8766" x2="425.0406" y1="410.2875" y2="420.1175"/><line style="stroke:#181818;stroke-width:1.0;" x1="426.8766" x2="430.42" y1="410.2875" y2="417.46"/><line style="stroke:#181818;stroke-width:1.0;" x1="429.577" x2="422.4045" y1="406.7227" y2="410.2661"/><line style="stroke:#181818;stroke-width:1.0;" x1="381.454" x2="388.6208" y1="327.6008" y2="324.046"/><line style="stroke:#181818;stroke-width:1.0;" x1="382.7871" x2="389.9539" y1="330.2884" y2="326.7335"/><line style="stroke:#181818;stroke-width:1.0;" x1="386.8148" x2="383.26" y1="329.4068" y2="322.24"/></g><!--MD5=[5169631ec708239983d1dc0333aa8b0d]
link Ventas to Compradores--><g id="link_Ventas_Compradores"><path codeLine="76" d="M303.77,329.46 C290.06,356.89 275.29,386.42 263.37,410.26 " fill="none" id="Ventas-Compradores" style="stroke:#181818;stroke-width:1.0;stroke-dasharray:7.0,7.0;"/><line style="stroke:#181818;stroke-width:1.0;" x1="263.3534" x2="265.1344" y1="410.3074" y2="420.1476"/><line style="stroke:#181818;stroke-width:1.0;" x1="263.3534" x2="254.4056" y1="410.3074" y2="414.7724"/><line style="stroke:#181818;stroke-width:1.0;" x1="263.3534" x2="259.77" y1="410.3074" y2="417.46"/><line style="stroke:#181818;stroke-width:1.0;" x1="267.8256" x2="260.673" y1="410.311" y2="406.7276"/><line style="stroke:#181818;stroke-width:1.0;" x1="302.0149" x2="309.1731" y1="324.0331" y2="327.6051"/><line style="stroke:#181818;stroke-width:1.0;" x1="300.6754" x2="307.8336" y1="326.7175" y2="330.2895"/><line style="stroke:#181818;stroke-width:1.0;" x1="303.808" x2="307.38" y1="329.3983" y2="322.24"/></g><!--MD5=[97728615a81fbc46e82b54d85e9e5c54]
@startuml

entity "Productos"{
    * idProducto: number
    nombre: texto
    precio: number
}

entity "Compradores"{
    * idComprador: number
    nombre: texto
}

entity "Comprador_agrega_Producto"{
    * idProducto: number
    * idComprador: number
}

entity "Vendedor_vende_Producto"{
    * idProducto: number
    * idVendedor: number
}

entity "Oferta_tiene_Producto"{
    * idProducto: number
    * idOferta: number
}

entity "Vendedores"{
    * idVendedor: number
    nombre: texto
}

entity "Proveedores"{
    * idProveedor: number
    nombre: texto
}

entity "Ofertas"{
    * idOferta: number
    nombre: texto
    fechaInicio: date 
    fechaFin: date 
    activa: boolean
    productos: texto
}

entity "Notificaciones"{
    * idNotificacion: number
    texto: texto
}

entity "Ventas" {
    * idVenta: number
    productos: texto
    idComprador: number
    idVendedor: number
    fechaVenta: date
    precioVenta: number
}


Productos }|..|| Comprador_agrega_Producto
Comprador_agrega_Producto ||..|{ Compradores

Productos }|..|| Oferta_tiene_Producto
Oferta_tiene_Producto ||..|{ Ofertas

Productos }|..|| Vendedor_vende_Producto
Vendedor_vende_Producto ||..|{ Vendedores

Productos }|..|| Proveedores
Proveedores ||..|{ Notificaciones

Productos }|..|| Ventas
Ventas ||..|{ Vendedores
Ventas ||..|{ Compradores
@end

PlantUML version 1.2022.7(Mon Aug 22 19:01:30 CEST 2022)
(GPL source distribution)
Java Runtime: Java(TM) SE Runtime Environment
JVM: Java HotSpot(TM) Client VM
Default Encoding: Cp1252
Language: es
Country: ES
--></g></svg>