<?xml version="1.0" encoding="UTF-8" standalone="no"?><svg xmlns="http://www.w3.org/2000/svg" xmlns:xlink="http://www.w3.org/1999/xlink" contentStyleType="text/css" height="1183px" preserveAspectRatio="none" style="width:943px;height:1183px;background:#FFFFFF;" version="1.1" viewBox="0 0 943 1183" width="943px" zoomAndPan="magnify"><defs/><g><!--MD5=[9884e166d189446fe4825863c8acf943]
class Producto--><g id="elem_Producto"><rect codeLine="2" fill="#F1F1F1" height="224.0938" id="Producto" rx="2.5" ry="2.5" style="stroke:#181818;stroke-width:0.5;" width="201" x="459" y="328"/><ellipse cx="526.75" cy="344" fill="#ADD1B2" rx="11" ry="11" style="stroke:#181818;stroke-width:1.0;"/><path d="M525.6094,344.7969 L525.6094,347.2969 L529.9375,347.2969 L529.9375,346.375 Q529.9375,345.7656 530.1719,345.5 Q530.4219,345.2344 530.7969,345.2344 Q531.1719,345.2344 531.4063,345.5 Q531.6406,345.7656 531.6406,346.375 L531.6406,349 L523.6406,349 Q523.0156,349 522.75,348.7656 Q522.5,348.5313 522.5,348.1406 Q522.5,347.7656 522.7656,347.5313 Q523.0313,347.2969 523.6406,347.2969 L523.9063,347.2969 L523.9063,340.6406 L523.6406,340.6406 Q523.0156,340.6406 522.75,340.4063 Q522.5,340.1719 522.5,339.7813 Q522.5,339.4063 522.75,339.1719 Q523.0156,338.9375 523.6406,338.9375 L531.2656,338.9375 L531.2656,341.5313 Q531.2656,342.1406 531.0313,342.4063 Q530.8125,342.6563 530.4219,342.6563 Q530.0469,342.6563 529.8125,342.4063 Q529.5781,342.1406 529.5781,341.5313 L529.5781,340.6406 L525.6094,340.6406 L525.6094,343.0938 L527.0938,343.0938 Q527.0938,342.4375 527.2188,342.25 Q527.4844,341.8438 527.9531,341.8438 Q528.3281,341.8438 528.5625,342.1094 Q528.7969,342.3594 528.7969,342.9688 L528.7969,344.9375 Q528.7969,345.4844 528.6719,345.6719 Q528.4063,346.0625 527.9531,346.0625 Q527.4844,346.0625 527.2188,345.6563 Q527.0938,345.4688 527.0938,344.7969 L525.6094,344.7969 Z " fill="#000000"/><text fill="#000000" font-family="sans-serif" font-size="14" lengthAdjust="spacing" textLength="57" x="547.25" y="349.7285">Producto</text><line style="stroke:#181818;stroke-width:0.5;" x1="460" x2="659" y1="360" y2="360"/><ellipse cx="470" cy="374.3047" fill="#000000" rx="3" ry="3" style="stroke:#000000;stroke-width:1.0;"/><text fill="#000000" font-family="sans-serif" font-size="14" lengthAdjust="spacing" textLength="124" x="479" y="378.5332">idProducto: number</text><text fill="#000000" font-family="sans-serif" font-size="14" lengthAdjust="spacing" textLength="86" x="479" y="396.1426">nombre: texto</text><text fill="#000000" font-family="sans-serif" font-size="14" lengthAdjust="spacing" textLength="95" x="479" y="413.752">precio: number</text><text fill="#000000" font-family="sans-serif" font-size="14" lengthAdjust="spacing" textLength="161" x="479" y="431.3613">fechaIncorporacion : date</text><text fill="#000000" font-family="sans-serif" font-size="14" lengthAdjust="spacing" textLength="159" x="479" y="448.9707">stockDisponible : number</text><text fill="#000000" font-family="sans-serif" font-size="14" lengthAdjust="spacing" textLength="99" x="479" y="466.5801">precio : number</text><text fill="#000000" font-family="sans-serif" font-size="14" lengthAdjust="spacing" textLength="119" x="479" y="484.1895">enOferta : boolean</text><text fill="#000000" font-family="sans-serif" font-size="14" lengthAdjust="spacing" textLength="97" x="479" y="501.7988">fabricante : text</text><text fill="#000000" font-family="sans-serif" font-size="14" lengthAdjust="spacing" textLength="80" x="479" y="519.4082">modelo : text</text><text fill="#000000" font-family="sans-serif" font-size="14" lengthAdjust="spacing" textLength="175" x="479" y="537.0176">idProveedor : number «FK»</text><line style="stroke:#181818;stroke-width:0.5;" x1="460" x2="659" y1="544.0938" y2="544.0938"/></g><!--MD5=[42ab3172323ec0cd54427087d08fabe5]
class Comprador--><g id="elem_Comprador"><rect codeLine="15" fill="#F1F1F1" height="118.4375" id="Comprador" rx="2.5" ry="2.5" style="stroke:#181818;stroke-width:0.5;" width="164" x="530.5" y="844"/><ellipse cx="572.95" cy="860" fill="#ADD1B2" rx="11" ry="11" style="stroke:#181818;stroke-width:1.0;"/><path d="M571.8094,860.7969 L571.8094,863.2969 L576.1375,863.2969 L576.1375,862.375 Q576.1375,861.7656 576.3719,861.5 Q576.6219,861.2344 576.9969,861.2344 Q577.3719,861.2344 577.6063,861.5 Q577.8406,861.7656 577.8406,862.375 L577.8406,865 L569.8406,865 Q569.2156,865 568.95,864.7656 Q568.7,864.5313 568.7,864.1406 Q568.7,863.7656 568.9656,863.5313 Q569.2313,863.2969 569.8406,863.2969 L570.1063,863.2969 L570.1063,856.6406 L569.8406,856.6406 Q569.2156,856.6406 568.95,856.4063 Q568.7,856.1719 568.7,855.7813 Q568.7,855.4063 568.95,855.1719 Q569.2156,854.9375 569.8406,854.9375 L577.4656,854.9375 L577.4656,857.5313 Q577.4656,858.1406 577.2313,858.4063 Q577.0125,858.6563 576.6219,858.6563 Q576.2469,858.6563 576.0125,858.4063 Q575.7781,858.1406 575.7781,857.5313 L575.7781,856.6406 L571.8094,856.6406 L571.8094,859.0938 L573.2938,859.0938 Q573.2938,858.4375 573.4188,858.25 Q573.6844,857.8438 574.1531,857.8438 Q574.5281,857.8438 574.7625,858.1094 Q574.9969,858.3594 574.9969,858.9688 L574.9969,860.9375 Q574.9969,861.4844 574.8719,861.6719 Q574.6063,862.0625 574.1531,862.0625 Q573.6844,862.0625 573.4188,861.6563 Q573.2938,861.4688 573.2938,860.7969 L571.8094,860.7969 Z " fill="#000000"/><text fill="#000000" font-family="sans-serif" font-size="14" lengthAdjust="spacing" textLength="71" x="593.05" y="865.7285">Comprador</text><line style="stroke:#181818;stroke-width:0.5;" x1="531.5" x2="693.5" y1="876" y2="876"/><ellipse cx="541.5" cy="890.3047" fill="#000000" rx="3" ry="3" style="stroke:#000000;stroke-width:1.0;"/><text fill="#000000" font-family="sans-serif" font-size="14" lengthAdjust="spacing" textLength="138" x="550.5" y="894.5332">idComprador: number</text><text fill="#000000" font-family="sans-serif" font-size="14" lengthAdjust="spacing" textLength="86" x="550.5" y="912.1426">nombre: texto</text><text fill="#000000" font-family="sans-serif" font-size="14" lengthAdjust="spacing" textLength="75" x="550.5" y="929.752">email : texto</text><text fill="#000000" font-family="sans-serif" font-size="14" lengthAdjust="spacing" textLength="93" x="550.5" y="947.3613">telefono : texto</text><line style="stroke:#181818;stroke-width:0.5;" x1="531.5" x2="693.5" y1="954.4375" y2="954.4375"/></g><!--MD5=[4d7d2bc55e011e544338acbcb7a17dc7]
class Cesta_de_la_compra--><g id="elem_Cesta_de_la_compra"><rect codeLine="22" fill="#F1F1F1" height="100.8281" id="Cesta_de_la_compra" rx="2.5" ry="2.5" style="stroke:#181818;stroke-width:0.5;" width="202" x="458.5" y="638.5"/><ellipse cx="489.25" cy="654.5" fill="#ADD1B2" rx="11" ry="11" style="stroke:#181818;stroke-width:1.0;"/><path d="M488.1094,655.2969 L488.1094,657.7969 L492.4375,657.7969 L492.4375,656.875 Q492.4375,656.2656 492.6719,656 Q492.9219,655.7344 493.2969,655.7344 Q493.6719,655.7344 493.9063,656 Q494.1406,656.2656 494.1406,656.875 L494.1406,659.5 L486.1406,659.5 Q485.5156,659.5 485.25,659.2656 Q485,659.0313 485,658.6406 Q485,658.2656 485.2656,658.0313 Q485.5313,657.7969 486.1406,657.7969 L486.4063,657.7969 L486.4063,651.1406 L486.1406,651.1406 Q485.5156,651.1406 485.25,650.9063 Q485,650.6719 485,650.2813 Q485,649.9063 485.25,649.6719 Q485.5156,649.4375 486.1406,649.4375 L493.7656,649.4375 L493.7656,652.0313 Q493.7656,652.6406 493.5313,652.9063 Q493.3125,653.1563 492.9219,653.1563 Q492.5469,653.1563 492.3125,652.9063 Q492.0781,652.6406 492.0781,652.0313 L492.0781,651.1406 L488.1094,651.1406 L488.1094,653.5938 L489.5938,653.5938 Q489.5938,652.9375 489.7188,652.75 Q489.9844,652.3438 490.4531,652.3438 Q490.8281,652.3438 491.0625,652.6094 Q491.2969,652.8594 491.2969,653.4688 L491.2969,655.4375 Q491.2969,655.9844 491.1719,656.1719 Q490.9063,656.5625 490.4531,656.5625 Q489.9844,656.5625 489.7188,656.1563 Q489.5938,655.9688 489.5938,655.2969 L488.1094,655.2969 Z " fill="#000000"/><text fill="#000000" font-family="sans-serif" font-size="14" lengthAdjust="spacing" textLength="135" x="506.75" y="660.2285">Cesta_de_la_compra</text><line style="stroke:#181818;stroke-width:0.5;" x1="459.5" x2="659.5" y1="670.5" y2="670.5"/><ellipse cx="469.5" cy="684.8047" fill="#000000" rx="3" ry="3" style="stroke:#000000;stroke-width:1.0;"/><text fill="#000000" font-family="sans-serif" font-size="14" lengthAdjust="spacing" textLength="162" x="478.5" y="689.0332">idProducto: number «FK»</text><ellipse cx="469.5" cy="702.4141" fill="#000000" rx="3" ry="3" style="stroke:#000000;stroke-width:1.0;"/><text fill="#000000" font-family="sans-serif" font-size="14" lengthAdjust="spacing" textLength="176" x="478.5" y="706.6426">idComprador: number «FK»</text><text fill="#000000" font-family="sans-serif" font-size="14" lengthAdjust="spacing" textLength="118" x="478.5" y="724.252">unidades : number</text><line style="stroke:#181818;stroke-width:0.5;" x1="459.5" x2="659.5" y1="731.3281" y2="731.3281"/></g><!--MD5=[6ded3e394240aab93c138ddb6c342b84]
class Productos_ofertados--><g id="elem_Productos_ofertados"><rect codeLine="28" fill="#F1F1F1" height="83.2188" id="Productos_ofertados" rx="2.5" ry="2.5" style="stroke:#181818;stroke-width:0.5;" width="188" x="32.5" y="647.5"/><ellipse cx="58.3" cy="663.5" fill="#ADD1B2" rx="11" ry="11" style="stroke:#181818;stroke-width:1.0;"/><path d="M57.1594,664.2969 L57.1594,666.7969 L61.4875,666.7969 L61.4875,665.875 Q61.4875,665.2656 61.7219,665 Q61.9719,664.7344 62.3469,664.7344 Q62.7219,664.7344 62.9563,665 Q63.1906,665.2656 63.1906,665.875 L63.1906,668.5 L55.1906,668.5 Q54.5656,668.5 54.3,668.2656 Q54.05,668.0313 54.05,667.6406 Q54.05,667.2656 54.3156,667.0313 Q54.5813,666.7969 55.1906,666.7969 L55.4563,666.7969 L55.4563,660.1406 L55.1906,660.1406 Q54.5656,660.1406 54.3,659.9063 Q54.05,659.6719 54.05,659.2813 Q54.05,658.9063 54.3,658.6719 Q54.5656,658.4375 55.1906,658.4375 L62.8156,658.4375 L62.8156,661.0313 Q62.8156,661.6406 62.5813,661.9063 Q62.3625,662.1563 61.9719,662.1563 Q61.5969,662.1563 61.3625,661.9063 Q61.1281,661.6406 61.1281,661.0313 L61.1281,660.1406 L57.1594,660.1406 L57.1594,662.5938 L58.6438,662.5938 Q58.6438,661.9375 58.7688,661.75 Q59.0344,661.3438 59.5031,661.3438 Q59.8781,661.3438 60.1125,661.6094 Q60.3469,661.8594 60.3469,662.4688 L60.3469,664.4375 Q60.3469,664.9844 60.2219,665.1719 Q59.9563,665.5625 59.5031,665.5625 Q59.0344,665.5625 58.7688,665.1563 Q58.6438,664.9688 58.6438,664.2969 L57.1594,664.2969 Z " fill="#000000"/><text fill="#000000" font-family="sans-serif" font-size="14" lengthAdjust="spacing" textLength="132" x="74.7" y="669.2285">Productos_ofertados</text><line style="stroke:#181818;stroke-width:0.5;" x1="33.5" x2="219.5" y1="679.5" y2="679.5"/><ellipse cx="43.5" cy="693.8047" fill="#000000" rx="3" ry="3" style="stroke:#000000;stroke-width:1.0;"/><text fill="#000000" font-family="sans-serif" font-size="14" lengthAdjust="spacing" textLength="162" x="52.5" y="698.0332">idProducto: number «FK»</text><ellipse cx="43.5" cy="711.4141" fill="#000000" rx="3" ry="3" style="stroke:#000000;stroke-width:1.0;"/><text fill="#000000" font-family="sans-serif" font-size="14" lengthAdjust="spacing" textLength="145" x="52.5" y="715.6426">idOferta: number «FK»</text><line style="stroke:#181818;stroke-width:0.5;" x1="33.5" x2="219.5" y1="722.7188" y2="722.7188"/></g><!--MD5=[e363550a3c76349e2d25d63e24111731]
class Vendedor--><g id="elem_Vendedor"><rect codeLine="33" fill="#F1F1F1" height="118.4375" id="Vendedor" rx="2.5" ry="2.5" style="stroke:#181818;stroke-width:0.5;" width="155" x="730" y="844"/><ellipse cx="772.45" cy="860" fill="#ADD1B2" rx="11" ry="11" style="stroke:#181818;stroke-width:1.0;"/><path d="M771.3094,860.7969 L771.3094,863.2969 L775.6375,863.2969 L775.6375,862.375 Q775.6375,861.7656 775.8719,861.5 Q776.1219,861.2344 776.4969,861.2344 Q776.8719,861.2344 777.1063,861.5 Q777.3406,861.7656 777.3406,862.375 L777.3406,865 L769.3406,865 Q768.7156,865 768.45,864.7656 Q768.2,864.5313 768.2,864.1406 Q768.2,863.7656 768.4656,863.5313 Q768.7313,863.2969 769.3406,863.2969 L769.6063,863.2969 L769.6063,856.6406 L769.3406,856.6406 Q768.7156,856.6406 768.45,856.4063 Q768.2,856.1719 768.2,855.7813 Q768.2,855.4063 768.45,855.1719 Q768.7156,854.9375 769.3406,854.9375 L776.9656,854.9375 L776.9656,857.5313 Q776.9656,858.1406 776.7313,858.4063 Q776.5125,858.6563 776.1219,858.6563 Q775.7469,858.6563 775.5125,858.4063 Q775.2781,858.1406 775.2781,857.5313 L775.2781,856.6406 L771.3094,856.6406 L771.3094,859.0938 L772.7938,859.0938 Q772.7938,858.4375 772.9188,858.25 Q773.1844,857.8438 773.6531,857.8438 Q774.0281,857.8438 774.2625,858.1094 Q774.4969,858.3594 774.4969,858.9688 L774.4969,860.9375 Q774.4969,861.4844 774.3719,861.6719 Q774.1063,862.0625 773.6531,862.0625 Q773.1844,862.0625 772.9188,861.6563 Q772.7938,861.4688 772.7938,860.7969 L771.3094,860.7969 Z " fill="#000000"/><text fill="#000000" font-family="sans-serif" font-size="14" lengthAdjust="spacing" textLength="62" x="792.55" y="865.7285">Vendedor</text><line style="stroke:#181818;stroke-width:0.5;" x1="731" x2="884" y1="876" y2="876"/><ellipse cx="741" cy="890.3047" fill="#000000" rx="3" ry="3" style="stroke:#000000;stroke-width:1.0;"/><text fill="#000000" font-family="sans-serif" font-size="14" lengthAdjust="spacing" textLength="129" x="750" y="894.5332">idVendedor: number</text><text fill="#000000" font-family="sans-serif" font-size="14" lengthAdjust="spacing" textLength="86" x="750" y="912.1426">nombre: texto</text><text fill="#000000" font-family="sans-serif" font-size="14" lengthAdjust="spacing" textLength="75" x="750" y="929.752">email : texto</text><text fill="#000000" font-family="sans-serif" font-size="14" lengthAdjust="spacing" textLength="93" x="750" y="947.3613">telefono : texto</text><line style="stroke:#181818;stroke-width:0.5;" x1="731" x2="884" y1="954.4375" y2="954.4375"/></g><!--MD5=[21174dace72aba80a8f72654e0d803f1]
class Proveedor--><g id="elem_Proveedor"><rect codeLine="40" fill="#F1F1F1" height="118.4375" id="Proveedor" rx="2.5" ry="2.5" style="stroke:#181818;stroke-width:0.5;" width="159" x="264" y="630"/><ellipse cx="306.45" cy="646" fill="#ADD1B2" rx="11" ry="11" style="stroke:#181818;stroke-width:1.0;"/><path d="M305.3094,646.7969 L305.3094,649.2969 L309.6375,649.2969 L309.6375,648.375 Q309.6375,647.7656 309.8719,647.5 Q310.1219,647.2344 310.4969,647.2344 Q310.8719,647.2344 311.1063,647.5 Q311.3406,647.7656 311.3406,648.375 L311.3406,651 L303.3406,651 Q302.7156,651 302.45,650.7656 Q302.2,650.5313 302.2,650.1406 Q302.2,649.7656 302.4656,649.5313 Q302.7313,649.2969 303.3406,649.2969 L303.6063,649.2969 L303.6063,642.6406 L303.3406,642.6406 Q302.7156,642.6406 302.45,642.4063 Q302.2,642.1719 302.2,641.7813 Q302.2,641.4063 302.45,641.1719 Q302.7156,640.9375 303.3406,640.9375 L310.9656,640.9375 L310.9656,643.5313 Q310.9656,644.1406 310.7313,644.4063 Q310.5125,644.6563 310.1219,644.6563 Q309.7469,644.6563 309.5125,644.4063 Q309.2781,644.1406 309.2781,643.5313 L309.2781,642.6406 L305.3094,642.6406 L305.3094,645.0938 L306.7938,645.0938 Q306.7938,644.4375 306.9188,644.25 Q307.1844,643.8438 307.6531,643.8438 Q308.0281,643.8438 308.2625,644.1094 Q308.4969,644.3594 308.4969,644.9688 L308.4969,646.9375 Q308.4969,647.4844 308.3719,647.6719 Q308.1063,648.0625 307.6531,648.0625 Q307.1844,648.0625 306.9188,647.6563 Q306.7938,647.4688 306.7938,646.7969 L305.3094,646.7969 Z " fill="#000000"/><text fill="#000000" font-family="sans-serif" font-size="14" lengthAdjust="spacing" textLength="66" x="326.55" y="651.7285">Proveedor</text><line style="stroke:#181818;stroke-width:0.5;" x1="265" x2="422" y1="662" y2="662"/><ellipse cx="275" cy="676.3047" fill="#000000" rx="3" ry="3" style="stroke:#000000;stroke-width:1.0;"/><text fill="#000000" font-family="sans-serif" font-size="14" lengthAdjust="spacing" textLength="133" x="284" y="680.5332">idProveedor: number</text><text fill="#000000" font-family="sans-serif" font-size="14" lengthAdjust="spacing" textLength="86" x="284" y="698.1426">nombre: texto</text><text fill="#000000" font-family="sans-serif" font-size="14" lengthAdjust="spacing" textLength="75" x="284" y="715.752">email : texto</text><text fill="#000000" font-family="sans-serif" font-size="14" lengthAdjust="spacing" textLength="93" x="284" y="733.3613">telefono : texto</text><line style="stroke:#181818;stroke-width:0.5;" x1="265" x2="422" y1="740.4375" y2="740.4375"/></g><!--MD5=[4668456ee0d5bf931cf805ae22408c96]
class Oferta--><g id="elem_Oferta"><rect codeLine="47" fill="#F1F1F1" height="153.6563" id="Oferta" rx="2.5" ry="2.5" style="stroke:#181818;stroke-width:0.5;" width="209" x="7" y="826"/><ellipse cx="87.25" cy="842" fill="#ADD1B2" rx="11" ry="11" style="stroke:#181818;stroke-width:1.0;"/><path d="M86.1094,842.7969 L86.1094,845.2969 L90.4375,845.2969 L90.4375,844.375 Q90.4375,843.7656 90.6719,843.5 Q90.9219,843.2344 91.2969,843.2344 Q91.6719,843.2344 91.9063,843.5 Q92.1406,843.7656 92.1406,844.375 L92.1406,847 L84.1406,847 Q83.5156,847 83.25,846.7656 Q83,846.5313 83,846.1406 Q83,845.7656 83.2656,845.5313 Q83.5313,845.2969 84.1406,845.2969 L84.4063,845.2969 L84.4063,838.6406 L84.1406,838.6406 Q83.5156,838.6406 83.25,838.4063 Q83,838.1719 83,837.7813 Q83,837.4063 83.25,837.1719 Q83.5156,836.9375 84.1406,836.9375 L91.7656,836.9375 L91.7656,839.5313 Q91.7656,840.1406 91.5313,840.4063 Q91.3125,840.6563 90.9219,840.6563 Q90.5469,840.6563 90.3125,840.4063 Q90.0781,840.1406 90.0781,839.5313 L90.0781,838.6406 L86.1094,838.6406 L86.1094,841.0938 L87.5938,841.0938 Q87.5938,840.4375 87.7188,840.25 Q87.9844,839.8438 88.4531,839.8438 Q88.8281,839.8438 89.0625,840.1094 Q89.2969,840.3594 89.2969,840.9688 L89.2969,842.9375 Q89.2969,843.4844 89.1719,843.6719 Q88.9063,844.0625 88.4531,844.0625 Q87.9844,844.0625 87.7188,843.6563 Q87.5938,843.4688 87.5938,842.7969 L86.1094,842.7969 Z " fill="#000000"/><text fill="#000000" font-family="sans-serif" font-size="14" lengthAdjust="spacing" textLength="40" x="107.75" y="847.7285">Oferta</text><line style="stroke:#181818;stroke-width:0.5;" x1="8" x2="215" y1="858" y2="858"/><ellipse cx="18" cy="872.3047" fill="#000000" rx="3" ry="3" style="stroke:#000000;stroke-width:1.0;"/><text fill="#000000" font-family="sans-serif" font-size="14" lengthAdjust="spacing" textLength="107" x="27" y="876.5332">idOferta: number</text><text fill="#000000" font-family="sans-serif" font-size="14" lengthAdjust="spacing" textLength="86" x="27" y="894.1426">nombre: texto</text><text fill="#000000" font-family="sans-serif" font-size="14" lengthAdjust="spacing" textLength="103" x="27" y="911.752">fechaInicio: date</text><text fill="#000000" font-family="sans-serif" font-size="14" lengthAdjust="spacing" textLength="91" x="27" y="929.3613">fechaFin: date</text><text fill="#000000" font-family="sans-serif" font-size="14" lengthAdjust="spacing" textLength="183" x="27" y="946.9707">descuentoAplicable : number</text><text fill="#000000" font-family="sans-serif" font-size="14" lengthAdjust="spacing" textLength="96" x="27" y="964.5801">activa: boolean</text><line style="stroke:#181818;stroke-width:0.5;" x1="8" x2="215" y1="971.6563" y2="971.6563"/></g><!--MD5=[d331226d1317b3fc678f52fa8b08f650]
class Notificacion--><g id="elem_Notificacion"><rect codeLine="56" fill="#F1F1F1" height="136.0469" id="Notificacion" rx="2.5" ry="2.5" style="stroke:#181818;stroke-width:0.5;" width="169" x="267" y="1040"/><ellipse cx="311.25" cy="1056" fill="#ADD1B2" rx="11" ry="11" style="stroke:#181818;stroke-width:1.0;"/><path d="M310.1094,1056.7969 L310.1094,1059.2969 L314.4375,1059.2969 L314.4375,1058.375 Q314.4375,1057.7656 314.6719,1057.5 Q314.9219,1057.2344 315.2969,1057.2344 Q315.6719,1057.2344 315.9063,1057.5 Q316.1406,1057.7656 316.1406,1058.375 L316.1406,1061 L308.1406,1061 Q307.5156,1061 307.25,1060.7656 Q307,1060.5313 307,1060.1406 Q307,1059.7656 307.2656,1059.5313 Q307.5313,1059.2969 308.1406,1059.2969 L308.4063,1059.2969 L308.4063,1052.6406 L308.1406,1052.6406 Q307.5156,1052.6406 307.25,1052.4063 Q307,1052.1719 307,1051.7813 Q307,1051.4063 307.25,1051.1719 Q307.5156,1050.9375 308.1406,1050.9375 L315.7656,1050.9375 L315.7656,1053.5313 Q315.7656,1054.1406 315.5313,1054.4063 Q315.3125,1054.6563 314.9219,1054.6563 Q314.5469,1054.6563 314.3125,1054.4063 Q314.0781,1054.1406 314.0781,1053.5313 L314.0781,1052.6406 L310.1094,1052.6406 L310.1094,1055.0938 L311.5938,1055.0938 Q311.5938,1054.4375 311.7188,1054.25 Q311.9844,1053.8438 312.4531,1053.8438 Q312.8281,1053.8438 313.0625,1054.1094 Q313.2969,1054.3594 313.2969,1054.9688 L313.2969,1056.9375 Q313.2969,1057.4844 313.1719,1057.6719 Q312.9063,1058.0625 312.4531,1058.0625 Q311.9844,1058.0625 311.7188,1057.6563 Q311.5938,1057.4688 311.5938,1056.7969 L310.1094,1056.7969 Z " fill="#000000"/><text fill="#000000" font-family="sans-serif" font-size="14" lengthAdjust="spacing" textLength="72" x="331.75" y="1061.7285">Notificacion</text><line style="stroke:#181818;stroke-width:0.5;" x1="268" x2="435" y1="1072" y2="1072"/><ellipse cx="278" cy="1086.3047" fill="#000000" rx="3" ry="3" style="stroke:#000000;stroke-width:1.0;"/><text fill="#000000" font-family="sans-serif" font-size="14" lengthAdjust="spacing" textLength="139" x="287" y="1090.5332">idNotificacion: number</text><text fill="#000000" font-family="sans-serif" font-size="14" lengthAdjust="spacing" textLength="68" x="287" y="1108.1426">texto: texto</text><text fill="#000000" font-family="sans-serif" font-size="14" lengthAdjust="spacing" textLength="75" x="287" y="1125.752">fecha : date</text><text fill="#000000" font-family="sans-serif" font-size="14" lengthAdjust="spacing" textLength="143" x="287" y="1143.3613">idAviso : number «FK»</text><text fill="#000000" font-family="sans-serif" font-size="14" lengthAdjust="spacing" textLength="108" x="287" y="1160.9707">destinatario : text</text><line style="stroke:#181818;stroke-width:0.5;" x1="268" x2="435" y1="1168.0469" y2="1168.0469"/></g><!--MD5=[fe4478d9c9a369b28097141e000aa656]
class Venta--><g id="elem_Venta"><rect codeLine="64" fill="#F1F1F1" height="153.6563" id="Venta" rx="2.5" ry="2.5" style="stroke:#181818;stroke-width:0.5;" width="202" x="695.5" y="612"/><ellipse cx="773.75" cy="628" fill="#ADD1B2" rx="11" ry="11" style="stroke:#181818;stroke-width:1.0;"/><path d="M772.6094,628.7969 L772.6094,631.2969 L776.9375,631.2969 L776.9375,630.375 Q776.9375,629.7656 777.1719,629.5 Q777.4219,629.2344 777.7969,629.2344 Q778.1719,629.2344 778.4063,629.5 Q778.6406,629.7656 778.6406,630.375 L778.6406,633 L770.6406,633 Q770.0156,633 769.75,632.7656 Q769.5,632.5313 769.5,632.1406 Q769.5,631.7656 769.7656,631.5313 Q770.0313,631.2969 770.6406,631.2969 L770.9063,631.2969 L770.9063,624.6406 L770.6406,624.6406 Q770.0156,624.6406 769.75,624.4063 Q769.5,624.1719 769.5,623.7813 Q769.5,623.4063 769.75,623.1719 Q770.0156,622.9375 770.6406,622.9375 L778.2656,622.9375 L778.2656,625.5313 Q778.2656,626.1406 778.0313,626.4063 Q777.8125,626.6563 777.4219,626.6563 Q777.0469,626.6563 776.8125,626.4063 Q776.5781,626.1406 776.5781,625.5313 L776.5781,624.6406 L772.6094,624.6406 L772.6094,627.0938 L774.0938,627.0938 Q774.0938,626.4375 774.2188,626.25 Q774.4844,625.8438 774.9531,625.8438 Q775.3281,625.8438 775.5625,626.1094 Q775.7969,626.3594 775.7969,626.9688 L775.7969,628.9375 Q775.7969,629.4844 775.6719,629.6719 Q775.4063,630.0625 774.9531,630.0625 Q774.4844,630.0625 774.2188,629.6563 Q774.0938,629.4688 774.0938,628.7969 L772.6094,628.7969 Z " fill="#000000"/><text fill="#000000" font-family="sans-serif" font-size="14" lengthAdjust="spacing" textLength="37" x="794.25" y="633.7285">Venta</text><line style="stroke:#181818;stroke-width:0.5;" x1="696.5" x2="896.5" y1="644" y2="644"/><ellipse cx="706.5" cy="658.3047" fill="#000000" rx="3" ry="3" style="stroke:#000000;stroke-width:1.0;"/><text fill="#000000" font-family="sans-serif" font-size="14" lengthAdjust="spacing" textLength="166" x="715.5" y="662.5332">idProducto : number «FK»</text><ellipse cx="706.5" cy="675.9141" fill="#000000" rx="3" ry="3" style="stroke:#000000;stroke-width:1.0;"/><text fill="#000000" font-family="sans-serif" font-size="14" lengthAdjust="spacing" textLength="176" x="715.5" y="680.1426">idComprador: number «FK»</text><ellipse cx="706.5" cy="693.5234" fill="#000000" rx="3" ry="3" style="stroke:#000000;stroke-width:1.0;"/><text fill="#000000" font-family="sans-serif" font-size="14" lengthAdjust="spacing" textLength="167" x="715.5" y="697.752">idVendedor: number «FK»</text><text fill="#000000" font-family="sans-serif" font-size="14" lengthAdjust="spacing" textLength="108" x="715.5" y="715.3613">fechaVenta: date</text><text fill="#000000" font-family="sans-serif" font-size="14" lengthAdjust="spacing" textLength="132" x="715.5" y="732.9707">precioVenta: number</text><text fill="#000000" font-family="sans-serif" font-size="14" lengthAdjust="spacing" textLength="118" x="715.5" y="750.5801">unidades : number</text><line style="stroke:#181818;stroke-width:0.5;" x1="696.5" x2="896.5" y1="757.6563" y2="757.6563"/></g><!--MD5=[b757b6e529b763f8ad1e01e238f23ef8]
class Aviso--><g id="elem_Aviso"><rect codeLine="73" fill="#F1F1F1" height="153.6563" id="Aviso" rx="2.5" ry="2.5" style="stroke:#181818;stroke-width:0.5;" width="201" x="251" y="826"/><ellipse cx="330.25" cy="842" fill="#ADD1B2" rx="11" ry="11" style="stroke:#181818;stroke-width:1.0;"/><path d="M329.1094,842.7969 L329.1094,845.2969 L333.4375,845.2969 L333.4375,844.375 Q333.4375,843.7656 333.6719,843.5 Q333.9219,843.2344 334.2969,843.2344 Q334.6719,843.2344 334.9063,843.5 Q335.1406,843.7656 335.1406,844.375 L335.1406,847 L327.1406,847 Q326.5156,847 326.25,846.7656 Q326,846.5313 326,846.1406 Q326,845.7656 326.2656,845.5313 Q326.5313,845.2969 327.1406,845.2969 L327.4063,845.2969 L327.4063,838.6406 L327.1406,838.6406 Q326.5156,838.6406 326.25,838.4063 Q326,838.1719 326,837.7813 Q326,837.4063 326.25,837.1719 Q326.5156,836.9375 327.1406,836.9375 L334.7656,836.9375 L334.7656,839.5313 Q334.7656,840.1406 334.5313,840.4063 Q334.3125,840.6563 333.9219,840.6563 Q333.5469,840.6563 333.3125,840.4063 Q333.0781,840.1406 333.0781,839.5313 L333.0781,838.6406 L329.1094,838.6406 L329.1094,841.0938 L330.5938,841.0938 Q330.5938,840.4375 330.7188,840.25 Q330.9844,839.8438 331.4531,839.8438 Q331.8281,839.8438 332.0625,840.1094 Q332.2969,840.3594 332.2969,840.9688 L332.2969,842.9375 Q332.2969,843.4844 332.1719,843.6719 Q331.9063,844.0625 331.4531,844.0625 Q330.9844,844.0625 330.7188,843.6563 Q330.5938,843.4688 330.5938,842.7969 L329.1094,842.7969 Z " fill="#000000"/><text fill="#000000" font-family="sans-serif" font-size="14" lengthAdjust="spacing" textLength="34" x="350.75" y="847.7285">Aviso</text><line style="stroke:#181818;stroke-width:0.5;" x1="252" x2="451" y1="858" y2="858"/><ellipse cx="262" cy="872.3047" fill="#000000" rx="3" ry="3" style="stroke:#000000;stroke-width:1.0;"/><text fill="#000000" font-family="sans-serif" font-size="14" lengthAdjust="spacing" textLength="105" x="271" y="876.5332">idAviso : number</text><text fill="#000000" font-family="sans-serif" font-size="14" lengthAdjust="spacing" textLength="75" x="271" y="894.1426">fecha : date</text><text fill="#000000" font-family="sans-serif" font-size="14" lengthAdjust="spacing" textLength="75" x="271" y="911.752">motivo : text</text><text fill="#000000" font-family="sans-serif" font-size="14" lengthAdjust="spacing" textLength="115" x="271" y="929.3613">destinatarios : text</text><text fill="#000000" font-family="sans-serif" font-size="14" lengthAdjust="spacing" textLength="124" x="271" y="946.9707">notificado : boolean</text><text fill="#000000" font-family="sans-serif" font-size="14" lengthAdjust="spacing" textLength="175" x="271" y="964.5801">idProveedor : number «FK»</text><line style="stroke:#181818;stroke-width:0.5;" x1="252" x2="451" y1="971.6563" y2="971.6563"/></g><!--MD5=[fdcda49d453d44c676d62f3f6af62207]
class Administrador--><g id="elem_Administrador"><rect codeLine="82" fill="#F1F1F1" height="118.4375" id="Administrador" rx="2.5" ry="2.5" style="stroke:#181818;stroke-width:0.5;" width="184" x="467.5" y="7"/><ellipse cx="511.75" cy="23" fill="#ADD1B2" rx="11" ry="11" style="stroke:#181818;stroke-width:1.0;"/><path d="M510.6094,23.7969 L510.6094,26.2969 L514.9375,26.2969 L514.9375,25.375 Q514.9375,24.7656 515.1719,24.5 Q515.4219,24.2344 515.7969,24.2344 Q516.1719,24.2344 516.4063,24.5 Q516.6406,24.7656 516.6406,25.375 L516.6406,28 L508.6406,28 Q508.0156,28 507.75,27.7656 Q507.5,27.5313 507.5,27.1406 Q507.5,26.7656 507.7656,26.5313 Q508.0313,26.2969 508.6406,26.2969 L508.9063,26.2969 L508.9063,19.6406 L508.6406,19.6406 Q508.0156,19.6406 507.75,19.4063 Q507.5,19.1719 507.5,18.7813 Q507.5,18.4063 507.75,18.1719 Q508.0156,17.9375 508.6406,17.9375 L516.2656,17.9375 L516.2656,20.5313 Q516.2656,21.1406 516.0313,21.4063 Q515.8125,21.6563 515.4219,21.6563 Q515.0469,21.6563 514.8125,21.4063 Q514.5781,21.1406 514.5781,20.5313 L514.5781,19.6406 L510.6094,19.6406 L510.6094,22.0938 L512.0938,22.0938 Q512.0938,21.4375 512.2188,21.25 Q512.4844,20.8438 512.9531,20.8438 Q513.3281,20.8438 513.5625,21.1094 Q513.7969,21.3594 513.7969,21.9688 L513.7969,23.9375 Q513.7969,24.4844 513.6719,24.6719 Q513.4063,25.0625 512.9531,25.0625 Q512.4844,25.0625 512.2188,24.6563 Q512.0938,24.4688 512.0938,23.7969 L510.6094,23.7969 Z " fill="#000000"/><text fill="#000000" font-family="sans-serif" font-size="14" lengthAdjust="spacing" textLength="87" x="532.25" y="28.7285">Administrador</text><line style="stroke:#181818;stroke-width:0.5;" x1="468.5" x2="650.5" y1="39" y2="39"/><ellipse cx="478.5" cy="53.3047" fill="#000000" rx="3" ry="3" style="stroke:#000000;stroke-width:1.0;"/><text fill="#000000" font-family="sans-serif" font-size="14" lengthAdjust="spacing" textLength="158" x="487.5" y="57.5332">idAdministrador : number</text><text fill="#000000" font-family="sans-serif" font-size="14" lengthAdjust="spacing" textLength="82" x="487.5" y="75.1426">nombre : text</text><text fill="#000000" font-family="sans-serif" font-size="14" lengthAdjust="spacing" textLength="67" x="487.5" y="92.752">email : text</text><text fill="#000000" font-family="sans-serif" font-size="14" lengthAdjust="spacing" textLength="85" x="487.5" y="110.3613">telefono : text</text><line style="stroke:#181818;stroke-width:0.5;" x1="468.5" x2="650.5" y1="117.4375" y2="117.4375"/></g><!--MD5=[736bf98cc934f12583d4ed75bb7ffba8]
class AEP--><g id="elem_AEP"><rect codeLine="89" fill="#F1F1F1" height="83.2188" id="AEP" rx="2.5" ry="2.5" style="stroke:#181818;stroke-width:0.5;" width="222" x="448.5" y="185"/><ellipse cx="488.25" cy="201" fill="#ADD1B2" rx="11" ry="11" style="stroke:#181818;stroke-width:1.0;"/><path d="M487.1094,201.7969 L487.1094,204.2969 L491.4375,204.2969 L491.4375,203.375 Q491.4375,202.7656 491.6719,202.5 Q491.9219,202.2344 492.2969,202.2344 Q492.6719,202.2344 492.9063,202.5 Q493.1406,202.7656 493.1406,203.375 L493.1406,206 L485.1406,206 Q484.5156,206 484.25,205.7656 Q484,205.5313 484,205.1406 Q484,204.7656 484.2656,204.5313 Q484.5313,204.2969 485.1406,204.2969 L485.4063,204.2969 L485.4063,197.6406 L485.1406,197.6406 Q484.5156,197.6406 484.25,197.4063 Q484,197.1719 484,196.7813 Q484,196.4063 484.25,196.1719 Q484.5156,195.9375 485.1406,195.9375 L492.7656,195.9375 L492.7656,198.5313 Q492.7656,199.1406 492.5313,199.4063 Q492.3125,199.6563 491.9219,199.6563 Q491.5469,199.6563 491.3125,199.4063 Q491.0781,199.1406 491.0781,198.5313 L491.0781,197.6406 L487.1094,197.6406 L487.1094,200.0938 L488.5938,200.0938 Q488.5938,199.4375 488.7188,199.25 Q488.9844,198.8438 489.4531,198.8438 Q489.8281,198.8438 490.0625,199.1094 Q490.2969,199.3594 490.2969,199.9688 L490.2969,201.9375 Q490.2969,202.4844 490.1719,202.6719 Q489.9063,203.0625 489.4531,203.0625 Q488.9844,203.0625 488.7188,202.6563 Q488.5938,202.4688 488.5938,201.7969 L487.1094,201.7969 Z " fill="#000000"/><text fill="#000000" font-family="sans-serif" font-size="14" lengthAdjust="spacing" textLength="135" x="507.75" y="206.7285">Productos eliminados</text><line style="stroke:#181818;stroke-width:0.5;" x1="449.5" x2="669.5" y1="217" y2="217"/><ellipse cx="459.5" cy="231.3047" fill="#000000" rx="3" ry="3" style="stroke:#000000;stroke-width:1.0;"/><text fill="#000000" font-family="sans-serif" font-size="14" lengthAdjust="spacing" textLength="196" x="468.5" y="235.5332">idAdministrador : number «FK»</text><ellipse cx="459.5" cy="248.9141" fill="#000000" rx="3" ry="3" style="stroke:#000000;stroke-width:1.0;"/><text fill="#000000" font-family="sans-serif" font-size="14" lengthAdjust="spacing" textLength="166" x="468.5" y="253.1426">idProducto : number «FK»</text><line style="stroke:#181818;stroke-width:0.5;" x1="449.5" x2="669.5" y1="260.2188" y2="260.2188"/></g><!--MD5=[562978db86ac36b29d57db113b203393]
class PB--><g id="elem_PB"><rect codeLine="94" fill="#F1F1F1" height="100.8281" id="PB" rx="2.5" ry="2.5" style="stroke:#181818;stroke-width:0.5;" width="206" x="683.5" y="1057.5"/><ellipse cx="712.9" cy="1073.5" fill="#ADD1B2" rx="11" ry="11" style="stroke:#181818;stroke-width:1.0;"/><path d="M711.7594,1074.2969 L711.7594,1076.7969 L716.0875,1076.7969 L716.0875,1075.875 Q716.0875,1075.2656 716.3219,1075 Q716.5719,1074.7344 716.9469,1074.7344 Q717.3219,1074.7344 717.5563,1075 Q717.7906,1075.2656 717.7906,1075.875 L717.7906,1078.5 L709.7906,1078.5 Q709.1656,1078.5 708.9,1078.2656 Q708.65,1078.0313 708.65,1077.6406 Q708.65,1077.2656 708.9156,1077.0313 Q709.1813,1076.7969 709.7906,1076.7969 L710.0563,1076.7969 L710.0563,1070.1406 L709.7906,1070.1406 Q709.1656,1070.1406 708.9,1069.9063 Q708.65,1069.6719 708.65,1069.2813 Q708.65,1068.9063 708.9,1068.6719 Q709.1656,1068.4375 709.7906,1068.4375 L717.4156,1068.4375 L717.4156,1071.0313 Q717.4156,1071.6406 717.1813,1071.9063 Q716.9625,1072.1563 716.5719,1072.1563 Q716.1969,1072.1563 715.9625,1071.9063 Q715.7281,1071.6406 715.7281,1071.0313 L715.7281,1070.1406 L711.7594,1070.1406 L711.7594,1072.5938 L713.2438,1072.5938 Q713.2438,1071.9375 713.3688,1071.75 Q713.6344,1071.3438 714.1031,1071.3438 Q714.4781,1071.3438 714.7125,1071.6094 Q714.9469,1071.8594 714.9469,1072.4688 L714.9469,1074.4375 Q714.9469,1074.9844 714.8219,1075.1719 Q714.5563,1075.5625 714.1031,1075.5625 Q713.6344,1075.5625 713.3688,1075.1563 Q713.2438,1074.9688 713.2438,1074.2969 L711.7594,1074.2969 Z " fill="#000000"/><text fill="#000000" font-family="sans-serif" font-size="14" lengthAdjust="spacing" textLength="142" x="730.1" y="1079.2285">Productos bloqueados</text><line style="stroke:#181818;stroke-width:0.5;" x1="684.5" x2="888.5" y1="1089.5" y2="1089.5"/><ellipse cx="694.5" cy="1103.8047" fill="#000000" rx="3" ry="3" style="stroke:#000000;stroke-width:1.0;"/><text fill="#000000" font-family="sans-serif" font-size="14" lengthAdjust="spacing" textLength="180" x="703.5" y="1108.0332">idComprador : number «FK»</text><ellipse cx="694.5" cy="1121.4141" fill="#000000" rx="3" ry="3" style="stroke:#000000;stroke-width:1.0;"/><text fill="#000000" font-family="sans-serif" font-size="14" lengthAdjust="spacing" textLength="166" x="703.5" y="1125.6426">idProducto : number «FK»</text><text fill="#000000" font-family="sans-serif" font-size="14" lengthAdjust="spacing" textLength="118" x="703.5" y="1143.252">unidades : number</text><line style="stroke:#181818;stroke-width:0.5;" x1="684.5" x2="888.5" y1="1150.3281" y2="1150.3281"/></g><!--MD5=[eb3245b16c25d634e5c5cb3859ea6069]
link Producto to Cesta_de_la_compra--><g id="link_Producto_Cesta_de_la_compra"><path codeLine="101" d="M559.5,560.35 C559.5,584.62 559.5,609.11 559.5,630.05 " fill="none" id="Producto-Cesta_de_la_compra" style="stroke:#181818;stroke-width:1.0;"/><line style="stroke:#181818;stroke-width:1.0;" x1="559.5" x2="565.5" y1="630.2" y2="638.2"/><line style="stroke:#181818;stroke-width:1.0;" x1="559.5" x2="553.5" y1="630.2" y2="638.2"/><line style="stroke:#181818;stroke-width:1.0;" x1="559.5" x2="559.5" y1="630.2" y2="638.2"/><line style="stroke:#181818;stroke-width:1.0;" x1="563.5" x2="555.5" y1="628.2" y2="628.2"/><line style="stroke:#181818;stroke-width:1.0;" x1="555.5" x2="563.5" y1="556.22" y2="556.22"/><line style="stroke:#181818;stroke-width:1.0;" x1="555.5" x2="563.5" y1="559.22" y2="559.22"/><line style="stroke:#181818;stroke-width:1.0;" x1="559.5" x2="559.5" y1="560.22" y2="552.22"/></g><!--MD5=[6aeb0df3a4d1c48485167b4c55e8992d]
link Cesta_de_la_compra to Comprador--><g id="link_Cesta_de_la_compra_Comprador"><path codeLine="102" d="M573.89,747.56 C580.73,774.91 588.94,807.75 596.02,836.1 " fill="none" id="Cesta_de_la_compra-Comprador" style="stroke:#181818;stroke-width:1.0;"/><line style="stroke:#181818;stroke-width:1.0;" x1="600.9088" x2="593.1443" y1="839.1243" y2="841.0512"/><line style="stroke:#181818;stroke-width:1.0;" x1="600.1863" x2="592.4218" y1="836.2126" y2="838.1395"/><line style="stroke:#181818;stroke-width:1.0;" x1="596.0632" x2="597.99" y1="836.2055" y2="843.97"/><line style="stroke:#181818;stroke-width:1.0;" x1="573.8602" x2="566.1073" y1="747.4637" y2="741.1476"/><line style="stroke:#181818;stroke-width:1.0;" x1="573.8602" x2="577.7527" y1="747.4637" y2="738.2524"/><line style="stroke:#181818;stroke-width:1.0;" x1="573.8602" x2="571.93" y1="747.4637" y2="739.7"/><line style="stroke:#181818;stroke-width:1.0;" x1="570.4609" x2="578.2246" y1="750.3697" y2="748.4395"/></g><!--MD5=[cfd437890eae785a13694418fb7340ed]
link Producto to Productos_ofertados--><g id="link_Producto_Productos_ofertados"><path codeLine="104" d="M451.52,497.78 C390.75,530.28 313.79,572.37 246.5,612 C229.95,621.75 212.37,632.6 195.91,642.98 " fill="none" id="Producto-Productos_ofertados" style="stroke:#181818;stroke-width:1.0;"/><line style="stroke:#181818;stroke-width:1.0;" x1="195.6858" x2="192.1436" y1="643.1052" y2="652.4568"/><line style="stroke:#181818;stroke-width:1.0;" x1="195.6858" x2="185.7164" y1="643.1052" y2="642.3232"/><line style="stroke:#181818;stroke-width:1.0;" x1="195.6858" x2="188.93" y1="643.1052" y2="647.39"/><line style="stroke:#181818;stroke-width:1.0;" x1="199.5171" x2="195.2323" y1="645.4118" y2="638.6561"/><line style="stroke:#181818;stroke-width:1.0;" x1="453.4369" x2="457.2075" y1="492.2175" y2="499.2731"/><line style="stroke:#181818;stroke-width:1.0;" x1="450.791" x2="454.5616" y1="493.6315" y2="500.6871"/><line style="stroke:#181818;stroke-width:1.0;" x1="451.7943" x2="458.85" y1="497.6306" y2="493.86"/></g><!--MD5=[8e85831da0049ab23ccd5cd9a8fc9667]
link Productos_ofertados to Oferta--><g id="link_Productos_ofertados_Oferta"><path codeLine="105" d="M123.03,738.98 C121.39,762.28 119.37,790.8 117.48,817.43 " fill="none" id="Productos_ofertados-Oferta" style="stroke:#181818;stroke-width:1.0;"/><line style="stroke:#181818;stroke-width:1.0;" x1="121.1758" x2="113.1962" y1="821.9262" y2="821.3542"/><line style="stroke:#181818;stroke-width:1.0;" x1="121.3903" x2="113.4107" y1="818.9339" y2="818.3619"/><line style="stroke:#181818;stroke-width:1.0;" x1="117.472" x2="116.9" y1="817.6505" y2="825.63"/><line style="stroke:#181818;stroke-width:1.0;" x1="123.0532" x2="117.6245" y1="738.8606" y2="730.4624"/><line style="stroke:#181818;stroke-width:1.0;" x1="123.0532" x2="129.5955" y1="738.8606" y2="731.2976"/><line style="stroke:#181818;stroke-width:1.0;" x1="123.0532" x2="123.61" y1="738.8606" y2="730.88"/><line style="stroke:#181818;stroke-width:1.0;" x1="118.9237" x2="126.9043" y1="740.5774" y2="741.1341"/></g><!--MD5=[49c0947122ab36a84e21ada9e164bb54]
link Producto to Proveedor--><g id="link_Producto_Proveedor"><path codeLine="107" d="M456.75,558.5 C437.13,580.93 417.28,603.63 399.8,623.62 " fill="none" id="Producto-Proveedor" style="stroke:#181818;stroke-width:1.0;stroke-dasharray:7.0,7.0;"/><line style="stroke:#181818;stroke-width:1.0;" x1="400.0946" x2="394.0785" y1="629.3685" y2="624.0954"/><line style="stroke:#181818;stroke-width:1.0;" x1="402.072" x2="396.0559" y1="627.1124" y2="621.8393"/><line style="stroke:#181818;stroke-width:1.0;" x1="399.7231" x2="394.45" y1="623.7238" y2="629.74"/><line style="stroke:#181818;stroke-width:1.0;" x1="456.975" x2="457.7225" y1="558.2433" y2="548.2713"/><line style="stroke:#181818;stroke-width:1.0;" x1="456.975" x2="466.7575" y1="558.2433" y2="556.1687"/><line style="stroke:#181818;stroke-width:1.0;" x1="456.975" x2="462.24" y1="558.2433" y2="552.22"/><line style="stroke:#181818;stroke-width:1.0;" x1="452.6471" x2="458.6704" y1="557.1166" y2="562.3816"/></g><!--MD5=[356fa4f0391dd3352643aeaa9511aaea]
link Proveedor to Aviso--><g id="link_Proveedor_Aviso"><path codeLine="108" d="M346.01,756.48 C346.74,775.85 347.55,797.28 348.32,817.6 " fill="none" id="Proveedor-Aviso" style="stroke:#181818;stroke-width:1.0;stroke-dasharray:7.0,7.0;"/><line style="stroke:#181818;stroke-width:1.0;" x1="348.3197" x2="354.6158" y1="817.6356" y2="825.4048"/><line style="stroke:#181818;stroke-width:1.0;" x1="348.3197" x2="342.6242" y1="817.6356" y2="825.8552"/><line style="stroke:#181818;stroke-width:1.0;" x1="348.3197" x2="348.62" y1="817.6356" y2="825.63"/><line style="stroke:#181818;stroke-width:1.0;" x1="352.2418" x2="344.2474" y1="815.4869" y2="815.7872"/><line style="stroke:#181818;stroke-width:1.0;" x1="341.8527" x2="349.8471" y1="752.3571" y2="752.0573"/><line style="stroke:#181818;stroke-width:1.0;" x1="341.9651" x2="349.9595" y1="755.355" y2="755.0552"/><line style="stroke:#181818;stroke-width:1.0;" x1="345.9998" x2="345.7" y1="756.2044" y2="748.21"/></g><!--MD5=[cbff52ea614c249078539028b6b9d40b]
link Producto to Venta--><g id="link_Producto_Venta"><path codeLine="110" d="M665.77,551.76 C683.31,570.03 701.2,588.68 717.9,606.08 " fill="none" id="Producto-Venta" style="stroke:#181818;stroke-width:1.0;"/><line style="stroke:#181818;stroke-width:1.0;" x1="717.9686" x2="727.8375" y1="606.16" y2="607.7739"/><line style="stroke:#181818;stroke-width:1.0;" x1="717.9686" x2="719.1825" y1="606.16" y2="616.0861"/><line style="stroke:#181818;stroke-width:1.0;" x1="717.9686" x2="723.51" y1="606.16" y2="611.93"/><line style="stroke:#181818;stroke-width:1.0;" x1="719.4682" x2="713.6982" y1="601.9468" y2="607.4883"/><line style="stroke:#181818;stroke-width:1.0;" x1="659.8957" x2="665.6657" y1="551.4057" y2="545.8643"/><line style="stroke:#181818;stroke-width:1.0;" x1="661.9738" x2="667.7437" y1="553.5694" y2="548.028"/><line style="stroke:#181818;stroke-width:1.0;" x1="665.5514" x2="660.01" y1="551.52" y2="545.75"/></g><!--MD5=[cc0d76bd3bc560adfa6373cac8000b82]
link Venta to Vendedor--><g id="link_Venta_Vendedor"><path codeLine="111" d="M800.88,774.39 C801.93,794.72 803.05,816.16 804.05,835.54 " fill="none" id="Venta-Vendedor" style="stroke:#181818;stroke-width:1.0;"/><line style="stroke:#181818;stroke-width:1.0;" x1="808.2678" x2="800.2785" y1="839.5085" y2="839.9222"/><line style="stroke:#181818;stroke-width:1.0;" x1="808.1126" x2="800.1233" y1="836.5125" y2="836.9262"/><line style="stroke:#181818;stroke-width:1.0;" x1="804.0663" x2="804.48" y1="835.7207" y2="843.71"/><line style="stroke:#181818;stroke-width:1.0;" x1="800.8737" x2="794.468" y1="774.2293" y2="766.5503"/><line style="stroke:#181818;stroke-width:1.0;" x1="800.8737" x2="806.452" y1="774.2293" y2="765.9297"/><line style="stroke:#181818;stroke-width:1.0;" x1="800.8737" x2="800.46" y1="774.2293" y2="766.24"/><line style="stroke:#181818;stroke-width:1.0;" x1="796.9825" x2="804.9718" y1="776.4335" y2="776.0198"/></g><!--MD5=[02a71008df5cf26f6e12289369e866fa]
link Venta to Comprador--><g id="link_Venta_Comprador"><path codeLine="112" d="M724.84,772.57 C706.15,794.1 686.28,817 668.52,837.45 " fill="none" id="Venta-Comprador" style="stroke:#181818;stroke-width:1.0;"/><line style="stroke:#181818;stroke-width:1.0;" x1="668.7327" x2="662.69" y1="843.31" y2="838.0673"/><line style="stroke:#181818;stroke-width:1.0;" x1="670.6987" x2="664.656" y1="841.044" y2="835.8013"/><line style="stroke:#181818;stroke-width:1.0;" x1="668.3327" x2="663.09" y1="837.6673" y2="843.71"/><line style="stroke:#181818;stroke-width:1.0;" x1="725.0873" x2="725.798" y1="772.2827" y2="762.308"/><line style="stroke:#181818;stroke-width:1.0;" x1="725.0873" x2="734.862" y1="772.2827" y2="770.172"/><line style="stroke:#181818;stroke-width:1.0;" x1="725.0873" x2="730.33" y1="772.2827" y2="766.24"/><line style="stroke:#181818;stroke-width:1.0;" x1="720.7553" x2="726.798" y1="771.172" y2="776.4147"/></g><!--MD5=[a4c214c787b96a615362ada98ba5a205]
link Aviso to Notificacion--><g id="link_Aviso_Notificacion"><path codeLine="114" d="M351.5,988.5 C351.5,1002.79 351.5,1017.54 351.5,1031.58 " fill="none" id="Aviso-Notificacion" style="stroke:#181818;stroke-width:1.0;stroke-dasharray:7.0,7.0;"/><line style="stroke:#181818;stroke-width:1.0;" x1="351.5" x2="357.5" y1="1031.75" y2="1039.75"/><line style="stroke:#181818;stroke-width:1.0;" x1="351.5" x2="345.5" y1="1031.75" y2="1039.75"/><line style="stroke:#181818;stroke-width:1.0;" x1="351.5" x2="351.5" y1="1031.75" y2="1039.75"/><line style="stroke:#181818;stroke-width:1.0;" x1="355.5" x2="347.5" y1="1029.75" y2="1029.75"/><line style="stroke:#181818;stroke-width:1.0;" x1="347.5" x2="355.5" y1="984.17" y2="984.17"/><line style="stroke:#181818;stroke-width:1.0;" x1="347.5" x2="355.5" y1="987.17" y2="987.17"/><line style="stroke:#181818;stroke-width:1.0;" x1="351.5" x2="351.5" y1="988.17" y2="980.17"/></g><!--MD5=[3c9b868775f418794629da23db89fc59]
link Administrador to AEP--><g id="link_Administrador_AEP"><path codeLine="116" d="M559.5,133.57 C559.5,147.95 559.5,162.91 559.5,176.48 " fill="none" id="Administrador-AEP" style="stroke:#181818;stroke-width:1.0;"/><line style="stroke:#181818;stroke-width:1.0;" x1="559.5" x2="565.5" y1="176.73" y2="184.73"/><line style="stroke:#181818;stroke-width:1.0;" x1="559.5" x2="553.5" y1="176.73" y2="184.73"/><line style="stroke:#181818;stroke-width:1.0;" x1="559.5" x2="559.5" y1="176.73" y2="184.73"/><line style="stroke:#181818;stroke-width:1.0;" x1="563.5" x2="555.5" y1="174.73" y2="174.73"/><line style="stroke:#181818;stroke-width:1.0;" x1="555.5" x2="563.5" y1="129.12" y2="129.12"/><line style="stroke:#181818;stroke-width:1.0;" x1="555.5" x2="563.5" y1="132.12" y2="132.12"/><line style="stroke:#181818;stroke-width:1.0;" x1="559.5" x2="559.5" y1="133.12" y2="125.12"/></g><!--MD5=[e7c0595e1cd463c9e367d92f31c4daf7]
link AEP to Producto--><g id="link_AEP_Producto"><path codeLine="117" d="M559.5,276.65 C559.5,289.85 559.5,304.73 559.5,319.98 " fill="none" id="AEP-Producto" style="stroke:#181818;stroke-width:1.0;"/><line style="stroke:#181818;stroke-width:1.0;" x1="563.5" x2="555.5" y1="323.99" y2="323.99"/><line style="stroke:#181818;stroke-width:1.0;" x1="563.5" x2="555.5" y1="320.99" y2="320.99"/><line style="stroke:#181818;stroke-width:1.0;" x1="559.5" x2="559.5" y1="319.99" y2="327.99"/><line style="stroke:#181818;stroke-width:1.0;" x1="559.5" x2="553.5" y1="276.28" y2="268.28"/><line style="stroke:#181818;stroke-width:1.0;" x1="559.5" x2="565.5" y1="276.28" y2="268.28"/><line style="stroke:#181818;stroke-width:1.0;" x1="559.5" x2="559.5" y1="276.28" y2="268.28"/><line style="stroke:#181818;stroke-width:1.0;" x1="555.5" x2="563.5" y1="278.28" y2="278.28"/></g><!--MD5=[ae08a804a99939fcc5ddc061695527b8]
link Comprador to PB--><g id="link_Comprador_PB"><path codeLine="119" d="M667.57,968.25 C690.45,994.94 716.75,1025.62 738.79,1051.33 " fill="none" id="Comprador-PB" style="stroke:#181818;stroke-width:1.0;"/><line style="stroke:#181818;stroke-width:1.0;" x1="738.796" x2="748.5571" y1="1051.3439" y2="1053.517"/><line style="stroke:#181818;stroke-width:1.0;" x1="738.796" x2="739.4429" y1="1051.3439" y2="1061.323"/><line style="stroke:#181818;stroke-width:1.0;" x1="738.796" x2="744" y1="1051.3439" y2="1057.42"/><line style="stroke:#181818;stroke-width:1.0;" x1="740.5331" x2="734.457" y1="1047.2229" y2="1052.4269"/><line style="stroke:#181818;stroke-width:1.0;" x1="661.9316" x2="668.0006" y1="967.8106" y2="962.5984"/><line style="stroke:#181818;stroke-width:1.0;" x1="663.8862" x2="669.9552" y1="970.0865" y2="964.8743"/><line style="stroke:#181818;stroke-width:1.0;" x1="667.5722" x2="662.36" y1="968.239" y2="962.17"/></g><!--MD5=[d411ff659ad0918635cb272077a26cf1]
link PB to Producto--><g id="link_PB_Producto"><path codeLine="120" d="M852.41,1051.42 C872.03,1031.1 891.27,1006.53 902.5,980 C910.27,961.64 936.51,645.4 915.5,612 C861.65,526.4 751.68,482.67 668.13,460.98 " fill="none" id="PB-Producto" style="stroke:#181818;stroke-width:1.0;"/><line style="stroke:#181818;stroke-width:1.0;" x1="663.0215" x2="664.992" y1="463.812" y2="456.0585"/><line style="stroke:#181818;stroke-width:1.0;" x1="665.9291" x2="667.8996" y1="464.551" y2="456.7974"/><line style="stroke:#181818;stroke-width:1.0;" x1="667.8835" x2="660.13" y1="460.9205" y2="458.95"/><line style="stroke:#181818;stroke-width:1.0;" x1="852.2211" x2="850.8693" y1="1051.6176" y2="1061.5258"/><line style="stroke:#181818;stroke-width:1.0;" x1="852.2211" x2="842.3307" y1="1051.6176" y2="1053.0942"/><line style="stroke:#181818;stroke-width:1.0;" x1="852.2211" x2="846.6" y1="1051.6176" y2="1057.31"/><line style="stroke:#181818;stroke-width:1.0;" x1="856.4725" x2="850.7801" y1="1053.005" y2="1047.384"/></g><!--MD5=[e5ce15af1b604a438710bdf35e6fa09f]
@startuml supuesto2E-R

entity "Producto"{
    * idProducto: number
    nombre: texto
    precio: number
    fechaIncorporacion : date
    stockDisponible : number
    precio : number
    enOferta : boolean
    fabricante : text
    modelo : text
    idProveedor : number <<FK>>
}

entity "Comprador"{
    * idComprador: number
    nombre: texto
    email : texto
    telefono : texto
}

entity "Cesta_de_la_compra"{
    * idProducto: number <<FK>>
    * idComprador: number <<FK>>
    unidades : number
}

entity "Productos_ofertados"{
    * idProducto: number <<FK>>
    * idOferta: number <<FK>>
}

entity "Vendedor"{
    * idVendedor: number
    nombre: texto
    email : texto
    telefono : texto
}

entity "Proveedor"{
    * idProveedor: number
    nombre: texto
    email : texto
    telefono : texto
}

entity "Oferta"{
    * idOferta: number
    nombre: texto
    fechaInicio: date 
    fechaFin: date 
    descuentoAplicable : number
    activa: boolean
}

entity "Notificacion"{
    * idNotificacion: number
    texto: texto
    fecha : date
    idAviso : number <<FK>>
    destinatario : text
}

entity "Venta" {
    * idProducto : number <<FK>>
    * idComprador: number <<FK>>
    * idVendedor: number <<FK>>
    fechaVenta: date
    precioVenta: number
    unidades : number
}

entity "Aviso" as Aviso {
    * idAviso : number
    fecha : date
    motivo : text
    destinatarios : text
    notificado : boolean
    idProveedor : number <<FK>>
}

entity "Administrador" as Administrador{
    * idAdministrador : number
    nombre : text
    email : text
    telefono : text
}

entity "Productos eliminados" as AEP{
    * idAdministrador : number <<FK>>
    * idProducto : number <<FK>>
}

entity "Productos bloqueados" as PB{
    * idComprador : number <<FK>>
    * idProducto : number <<FK>>
    unidades : number
}


Producto ||- -|{ Cesta_de_la_compra
Cesta_de_la_compra }|- -|| Comprador

Producto ||- -|{ Productos_ofertados
Productos_ofertados }|- -|| Oferta

Producto }|..|| Proveedor
Proveedor ||..|{ Aviso

Producto ||- -|{ Venta
Venta }|- -|| Vendedor
Venta }|- -|| Comprador

Aviso ||..|{ Notificacion

Administrador ||- -|{ AEP
AEP }|- -|| Producto

Comprador ||- -|{ PB
PB }|- -|| Producto
@end

PlantUML version 1.2022.7(Mon Aug 22 19:01:30 CEST 2022)
(GPL source distribution)
Java Runtime: OpenJDK Runtime Environment
JVM: OpenJDK 64-Bit Server VM
Default Encoding: Cp1252
Language: es
Country: ES
--></g></svg>