<?xml version="1.0" encoding="UTF-8" standalone="no"?><svg xmlns="http://www.w3.org/2000/svg" xmlns:xlink="http://www.w3.org/1999/xlink" contentStyleType="text/css" height="1183px" preserveAspectRatio="none" style="width:902px;height:1183px;background:#FFFFFF;" version="1.1" viewBox="0 0 902 1183" width="902px" zoomAndPan="magnify"><defs/><g><!--MD5=[9884e166d189446fe4825863c8acf943]
class Producto--><g id="elem_Producto"><rect codeLine="2" fill="#F1F1F1" height="224.0938" id="Producto" rx="2.5" ry="2.5" style="stroke:#181818;stroke-width:0.5;" width="201" x="359" y="328"/><ellipse cx="426.75" cy="344" fill="#ADD1B2" rx="11" ry="11" style="stroke:#181818;stroke-width:1.0;"/><path d="M425.6094,344.7969 L425.6094,347.2969 L429.9375,347.2969 L429.9375,346.375 Q429.9375,345.7656 430.1719,345.5 Q430.4219,345.2344 430.7969,345.2344 Q431.1719,345.2344 431.4063,345.5 Q431.6406,345.7656 431.6406,346.375 L431.6406,349 L423.6406,349 Q423.0156,349 422.75,348.7656 Q422.5,348.5313 422.5,348.1406 Q422.5,347.7656 422.7656,347.5313 Q423.0313,347.2969 423.6406,347.2969 L423.9063,347.2969 L423.9063,340.6406 L423.6406,340.6406 Q423.0156,340.6406 422.75,340.4063 Q422.5,340.1719 422.5,339.7813 Q422.5,339.4063 422.75,339.1719 Q423.0156,338.9375 423.6406,338.9375 L431.2656,338.9375 L431.2656,341.5313 Q431.2656,342.1406 431.0313,342.4063 Q430.8125,342.6563 430.4219,342.6563 Q430.0469,342.6563 429.8125,342.4063 Q429.5781,342.1406 429.5781,341.5313 L429.5781,340.6406 L425.6094,340.6406 L425.6094,343.0938 L427.0938,343.0938 Q427.0938,342.4375 427.2188,342.25 Q427.4844,341.8438 427.9531,341.8438 Q428.3281,341.8438 428.5625,342.1094 Q428.7969,342.3594 428.7969,342.9688 L428.7969,344.9375 Q428.7969,345.4844 428.6719,345.6719 Q428.4063,346.0625 427.9531,346.0625 Q427.4844,346.0625 427.2188,345.6563 Q427.0938,345.4688 427.0938,344.7969 L425.6094,344.7969 Z " fill="#000000"/><text fill="#000000" font-family="sans-serif" font-size="14" lengthAdjust="spacing" textLength="57" x="447.25" y="349.7285">Producto</text><line style="stroke:#181818;stroke-width:0.5;" x1="360" x2="559" y1="360" y2="360"/><ellipse cx="370" cy="374.3047" fill="#000000" rx="3" ry="3" style="stroke:#000000;stroke-width:1.0;"/><text fill="#000000" font-family="sans-serif" font-size="14" lengthAdjust="spacing" textLength="124" x="379" y="378.5332">idProducto: number</text><text fill="#000000" font-family="sans-serif" font-size="14" lengthAdjust="spacing" textLength="86" x="379" y="396.1426">nombre: texto</text><text fill="#000000" font-family="sans-serif" font-size="14" lengthAdjust="spacing" textLength="95" x="379" y="413.752">precio: number</text><text fill="#000000" font-family="sans-serif" font-size="14" lengthAdjust="spacing" textLength="161" x="379" y="431.3613">fechaIncorporacion : date</text><text fill="#000000" font-family="sans-serif" font-size="14" lengthAdjust="spacing" textLength="159" x="379" y="448.9707">stockDisponible : number</text><text fill="#000000" font-family="sans-serif" font-size="14" lengthAdjust="spacing" textLength="99" x="379" y="466.5801">precio : number</text><text fill="#000000" font-family="sans-serif" font-size="14" lengthAdjust="spacing" textLength="119" x="379" y="484.1895">enOferta : boolean</text><text fill="#000000" font-family="sans-serif" font-size="14" lengthAdjust="spacing" textLength="97" x="379" y="501.7988">fabricante : text</text><text fill="#000000" font-family="sans-serif" font-size="14" lengthAdjust="spacing" textLength="80" x="379" y="519.4082">modelo : text</text><text fill="#000000" font-family="sans-serif" font-size="14" lengthAdjust="spacing" textLength="175" x="379" y="537.0176">idProveedor : number «FK»</text><line style="stroke:#181818;stroke-width:0.5;" x1="360" x2="559" y1="544.0938" y2="544.0938"/></g><!--MD5=[42ab3172323ec0cd54427087d08fabe5]
class Comprador--><g id="elem_Comprador"><rect codeLine="15" fill="#F1F1F1" height="118.4375" id="Comprador" rx="2.5" ry="2.5" style="stroke:#181818;stroke-width:0.5;" width="164" x="280.5" y="844"/><ellipse cx="322.95" cy="860" fill="#ADD1B2" rx="11" ry="11" style="stroke:#181818;stroke-width:1.0;"/><path d="M321.8094,860.7969 L321.8094,863.2969 L326.1375,863.2969 L326.1375,862.375 Q326.1375,861.7656 326.3719,861.5 Q326.6219,861.2344 326.9969,861.2344 Q327.3719,861.2344 327.6063,861.5 Q327.8406,861.7656 327.8406,862.375 L327.8406,865 L319.8406,865 Q319.2156,865 318.95,864.7656 Q318.7,864.5313 318.7,864.1406 Q318.7,863.7656 318.9656,863.5313 Q319.2313,863.2969 319.8406,863.2969 L320.1063,863.2969 L320.1063,856.6406 L319.8406,856.6406 Q319.2156,856.6406 318.95,856.4063 Q318.7,856.1719 318.7,855.7813 Q318.7,855.4063 318.95,855.1719 Q319.2156,854.9375 319.8406,854.9375 L327.4656,854.9375 L327.4656,857.5313 Q327.4656,858.1406 327.2313,858.4063 Q327.0125,858.6563 326.6219,858.6563 Q326.2469,858.6563 326.0125,858.4063 Q325.7781,858.1406 325.7781,857.5313 L325.7781,856.6406 L321.8094,856.6406 L321.8094,859.0938 L323.2938,859.0938 Q323.2938,858.4375 323.4188,858.25 Q323.6844,857.8438 324.1531,857.8438 Q324.5281,857.8438 324.7625,858.1094 Q324.9969,858.3594 324.9969,858.9688 L324.9969,860.9375 Q324.9969,861.4844 324.8719,861.6719 Q324.6063,862.0625 324.1531,862.0625 Q323.6844,862.0625 323.4188,861.6563 Q323.2938,861.4688 323.2938,860.7969 L321.8094,860.7969 Z " fill="#000000"/><text fill="#000000" font-family="sans-serif" font-size="14" lengthAdjust="spacing" textLength="71" x="343.05" y="865.7285">Comprador</text><line style="stroke:#181818;stroke-width:0.5;" x1="281.5" x2="443.5" y1="876" y2="876"/><ellipse cx="291.5" cy="890.3047" fill="#000000" rx="3" ry="3" style="stroke:#000000;stroke-width:1.0;"/><text fill="#000000" font-family="sans-serif" font-size="14" lengthAdjust="spacing" textLength="138" x="300.5" y="894.5332">idComprador: number</text><text fill="#000000" font-family="sans-serif" font-size="14" lengthAdjust="spacing" textLength="86" x="300.5" y="912.1426">nombre: texto</text><text fill="#000000" font-family="sans-serif" font-size="14" lengthAdjust="spacing" textLength="75" x="300.5" y="929.752">email : texto</text><text fill="#000000" font-family="sans-serif" font-size="14" lengthAdjust="spacing" textLength="93" x="300.5" y="947.3613">telefono : texto</text><line style="stroke:#181818;stroke-width:0.5;" x1="281.5" x2="443.5" y1="954.4375" y2="954.4375"/></g><!--MD5=[4d7d2bc55e011e544338acbcb7a17dc7]
class Cesta_de_la_compra--><g id="elem_Cesta_de_la_compra"><rect codeLine="22" fill="#F1F1F1" height="100.8281" id="Cesta_de_la_compra" rx="2.5" ry="2.5" style="stroke:#181818;stroke-width:0.5;" width="202" x="240.5" y="638.5"/><ellipse cx="271.25" cy="654.5" fill="#ADD1B2" rx="11" ry="11" style="stroke:#181818;stroke-width:1.0;"/><path d="M270.1094,655.2969 L270.1094,657.7969 L274.4375,657.7969 L274.4375,656.875 Q274.4375,656.2656 274.6719,656 Q274.9219,655.7344 275.2969,655.7344 Q275.6719,655.7344 275.9063,656 Q276.1406,656.2656 276.1406,656.875 L276.1406,659.5 L268.1406,659.5 Q267.5156,659.5 267.25,659.2656 Q267,659.0313 267,658.6406 Q267,658.2656 267.2656,658.0313 Q267.5313,657.7969 268.1406,657.7969 L268.4063,657.7969 L268.4063,651.1406 L268.1406,651.1406 Q267.5156,651.1406 267.25,650.9063 Q267,650.6719 267,650.2813 Q267,649.9063 267.25,649.6719 Q267.5156,649.4375 268.1406,649.4375 L275.7656,649.4375 L275.7656,652.0313 Q275.7656,652.6406 275.5313,652.9063 Q275.3125,653.1563 274.9219,653.1563 Q274.5469,653.1563 274.3125,652.9063 Q274.0781,652.6406 274.0781,652.0313 L274.0781,651.1406 L270.1094,651.1406 L270.1094,653.5938 L271.5938,653.5938 Q271.5938,652.9375 271.7188,652.75 Q271.9844,652.3438 272.4531,652.3438 Q272.8281,652.3438 273.0625,652.6094 Q273.2969,652.8594 273.2969,653.4688 L273.2969,655.4375 Q273.2969,655.9844 273.1719,656.1719 Q272.9063,656.5625 272.4531,656.5625 Q271.9844,656.5625 271.7188,656.1563 Q271.5938,655.9688 271.5938,655.2969 L270.1094,655.2969 Z " fill="#000000"/><text fill="#000000" font-family="sans-serif" font-size="14" lengthAdjust="spacing" textLength="135" x="288.75" y="660.2285">Cesta_de_la_compra</text><line style="stroke:#181818;stroke-width:0.5;" x1="241.5" x2="441.5" y1="670.5" y2="670.5"/><ellipse cx="251.5" cy="684.8047" fill="#000000" rx="3" ry="3" style="stroke:#000000;stroke-width:1.0;"/><text fill="#000000" font-family="sans-serif" font-size="14" lengthAdjust="spacing" textLength="162" x="260.5" y="689.0332">idProducto: number «FK»</text><ellipse cx="251.5" cy="702.4141" fill="#000000" rx="3" ry="3" style="stroke:#000000;stroke-width:1.0;"/><text fill="#000000" font-family="sans-serif" font-size="14" lengthAdjust="spacing" textLength="176" x="260.5" y="706.6426">idComprador: number «FK»</text><text fill="#000000" font-family="sans-serif" font-size="14" lengthAdjust="spacing" textLength="118" x="260.5" y="724.252">unidades : number</text><line style="stroke:#181818;stroke-width:0.5;" x1="241.5" x2="441.5" y1="731.3281" y2="731.3281"/></g><!--MD5=[6ded3e394240aab93c138ddb6c342b84]
class Productos_ofertados--><g id="elem_Productos_ofertados"><rect codeLine="28" fill="#F1F1F1" height="83.2188" id="Productos_ofertados" rx="2.5" ry="2.5" style="stroke:#181818;stroke-width:0.5;" width="188" x="17.5" y="647.5"/><ellipse cx="43.3" cy="663.5" fill="#ADD1B2" rx="11" ry="11" style="stroke:#181818;stroke-width:1.0;"/><path d="M42.1594,664.2969 L42.1594,666.7969 L46.4875,666.7969 L46.4875,665.875 Q46.4875,665.2656 46.7219,665 Q46.9719,664.7344 47.3469,664.7344 Q47.7219,664.7344 47.9563,665 Q48.1906,665.2656 48.1906,665.875 L48.1906,668.5 L40.1906,668.5 Q39.5656,668.5 39.3,668.2656 Q39.05,668.0313 39.05,667.6406 Q39.05,667.2656 39.3156,667.0313 Q39.5813,666.7969 40.1906,666.7969 L40.4563,666.7969 L40.4563,660.1406 L40.1906,660.1406 Q39.5656,660.1406 39.3,659.9063 Q39.05,659.6719 39.05,659.2813 Q39.05,658.9063 39.3,658.6719 Q39.5656,658.4375 40.1906,658.4375 L47.8156,658.4375 L47.8156,661.0313 Q47.8156,661.6406 47.5813,661.9063 Q47.3625,662.1563 46.9719,662.1563 Q46.5969,662.1563 46.3625,661.9063 Q46.1281,661.6406 46.1281,661.0313 L46.1281,660.1406 L42.1594,660.1406 L42.1594,662.5938 L43.6438,662.5938 Q43.6438,661.9375 43.7688,661.75 Q44.0344,661.3438 44.5031,661.3438 Q44.8781,661.3438 45.1125,661.6094 Q45.3469,661.8594 45.3469,662.4688 L45.3469,664.4375 Q45.3469,664.9844 45.2219,665.1719 Q44.9563,665.5625 44.5031,665.5625 Q44.0344,665.5625 43.7688,665.1563 Q43.6438,664.9688 43.6438,664.2969 L42.1594,664.2969 Z " fill="#000000"/><text fill="#000000" font-family="sans-serif" font-size="14" lengthAdjust="spacing" textLength="132" x="59.7" y="669.2285">Productos_ofertados</text><line style="stroke:#181818;stroke-width:0.5;" x1="18.5" x2="204.5" y1="679.5" y2="679.5"/><ellipse cx="28.5" cy="693.8047" fill="#000000" rx="3" ry="3" style="stroke:#000000;stroke-width:1.0;"/><text fill="#000000" font-family="sans-serif" font-size="14" lengthAdjust="spacing" textLength="162" x="37.5" y="698.0332">idProducto: number «FK»</text><ellipse cx="28.5" cy="711.4141" fill="#000000" rx="3" ry="3" style="stroke:#000000;stroke-width:1.0;"/><text fill="#000000" font-family="sans-serif" font-size="14" lengthAdjust="spacing" textLength="145" x="37.5" y="715.6426">idOferta: number «FK»</text><line style="stroke:#181818;stroke-width:0.5;" x1="18.5" x2="204.5" y1="722.7188" y2="722.7188"/></g><!--MD5=[e363550a3c76349e2d25d63e24111731]
class Vendedor--><g id="elem_Vendedor"><rect codeLine="33" fill="#F1F1F1" height="118.4375" id="Vendedor" rx="2.5" ry="2.5" style="stroke:#181818;stroke-width:0.5;" width="155" x="501" y="844"/><ellipse cx="543.45" cy="860" fill="#ADD1B2" rx="11" ry="11" style="stroke:#181818;stroke-width:1.0;"/><path d="M542.3094,860.7969 L542.3094,863.2969 L546.6375,863.2969 L546.6375,862.375 Q546.6375,861.7656 546.8719,861.5 Q547.1219,861.2344 547.4969,861.2344 Q547.8719,861.2344 548.1063,861.5 Q548.3406,861.7656 548.3406,862.375 L548.3406,865 L540.3406,865 Q539.7156,865 539.45,864.7656 Q539.2,864.5313 539.2,864.1406 Q539.2,863.7656 539.4656,863.5313 Q539.7313,863.2969 540.3406,863.2969 L540.6063,863.2969 L540.6063,856.6406 L540.3406,856.6406 Q539.7156,856.6406 539.45,856.4063 Q539.2,856.1719 539.2,855.7813 Q539.2,855.4063 539.45,855.1719 Q539.7156,854.9375 540.3406,854.9375 L547.9656,854.9375 L547.9656,857.5313 Q547.9656,858.1406 547.7313,858.4063 Q547.5125,858.6563 547.1219,858.6563 Q546.7469,858.6563 546.5125,858.4063 Q546.2781,858.1406 546.2781,857.5313 L546.2781,856.6406 L542.3094,856.6406 L542.3094,859.0938 L543.7938,859.0938 Q543.7938,858.4375 543.9188,858.25 Q544.1844,857.8438 544.6531,857.8438 Q545.0281,857.8438 545.2625,858.1094 Q545.4969,858.3594 545.4969,858.9688 L545.4969,860.9375 Q545.4969,861.4844 545.3719,861.6719 Q545.1063,862.0625 544.6531,862.0625 Q544.1844,862.0625 543.9188,861.6563 Q543.7938,861.4688 543.7938,860.7969 L542.3094,860.7969 Z " fill="#000000"/><text fill="#000000" font-family="sans-serif" font-size="14" lengthAdjust="spacing" textLength="62" x="563.55" y="865.7285">Vendedor</text><line style="stroke:#181818;stroke-width:0.5;" x1="502" x2="655" y1="876" y2="876"/><ellipse cx="512" cy="890.3047" fill="#000000" rx="3" ry="3" style="stroke:#000000;stroke-width:1.0;"/><text fill="#000000" font-family="sans-serif" font-size="14" lengthAdjust="spacing" textLength="129" x="521" y="894.5332">idVendedor: number</text><text fill="#000000" font-family="sans-serif" font-size="14" lengthAdjust="spacing" textLength="86" x="521" y="912.1426">nombre: texto</text><text fill="#000000" font-family="sans-serif" font-size="14" lengthAdjust="spacing" textLength="75" x="521" y="929.752">email : texto</text><text fill="#000000" font-family="sans-serif" font-size="14" lengthAdjust="spacing" textLength="93" x="521" y="947.3613">telefono : texto</text><line style="stroke:#181818;stroke-width:0.5;" x1="502" x2="655" y1="954.4375" y2="954.4375"/></g><!--MD5=[21174dace72aba80a8f72654e0d803f1]
class Proveedor--><g id="elem_Proveedor"><rect codeLine="40" fill="#F1F1F1" height="118.4375" id="Proveedor" rx="2.5" ry="2.5" style="stroke:#181818;stroke-width:0.5;" width="159" x="715" y="630"/><ellipse cx="757.45" cy="646" fill="#ADD1B2" rx="11" ry="11" style="stroke:#181818;stroke-width:1.0;"/><path d="M756.3094,646.7969 L756.3094,649.2969 L760.6375,649.2969 L760.6375,648.375 Q760.6375,647.7656 760.8719,647.5 Q761.1219,647.2344 761.4969,647.2344 Q761.8719,647.2344 762.1063,647.5 Q762.3406,647.7656 762.3406,648.375 L762.3406,651 L754.3406,651 Q753.7156,651 753.45,650.7656 Q753.2,650.5313 753.2,650.1406 Q753.2,649.7656 753.4656,649.5313 Q753.7313,649.2969 754.3406,649.2969 L754.6063,649.2969 L754.6063,642.6406 L754.3406,642.6406 Q753.7156,642.6406 753.45,642.4063 Q753.2,642.1719 753.2,641.7813 Q753.2,641.4063 753.45,641.1719 Q753.7156,640.9375 754.3406,640.9375 L761.9656,640.9375 L761.9656,643.5313 Q761.9656,644.1406 761.7313,644.4063 Q761.5125,644.6563 761.1219,644.6563 Q760.7469,644.6563 760.5125,644.4063 Q760.2781,644.1406 760.2781,643.5313 L760.2781,642.6406 L756.3094,642.6406 L756.3094,645.0938 L757.7938,645.0938 Q757.7938,644.4375 757.9188,644.25 Q758.1844,643.8438 758.6531,643.8438 Q759.0281,643.8438 759.2625,644.1094 Q759.4969,644.3594 759.4969,644.9688 L759.4969,646.9375 Q759.4969,647.4844 759.3719,647.6719 Q759.1063,648.0625 758.6531,648.0625 Q758.1844,648.0625 757.9188,647.6563 Q757.7938,647.4688 757.7938,646.7969 L756.3094,646.7969 Z " fill="#000000"/><text fill="#000000" font-family="sans-serif" font-size="14" lengthAdjust="spacing" textLength="66" x="777.55" y="651.7285">Proveedor</text><line style="stroke:#181818;stroke-width:0.5;" x1="716" x2="873" y1="662" y2="662"/><ellipse cx="726" cy="676.3047" fill="#000000" rx="3" ry="3" style="stroke:#000000;stroke-width:1.0;"/><text fill="#000000" font-family="sans-serif" font-size="14" lengthAdjust="spacing" textLength="133" x="735" y="680.5332">idProveedor: number</text><text fill="#000000" font-family="sans-serif" font-size="14" lengthAdjust="spacing" textLength="86" x="735" y="698.1426">nombre: texto</text><text fill="#000000" font-family="sans-serif" font-size="14" lengthAdjust="spacing" textLength="75" x="735" y="715.752">email : texto</text><text fill="#000000" font-family="sans-serif" font-size="14" lengthAdjust="spacing" textLength="93" x="735" y="733.3613">telefono : texto</text><line style="stroke:#181818;stroke-width:0.5;" x1="716" x2="873" y1="740.4375" y2="740.4375"/></g><!--MD5=[4668456ee0d5bf931cf805ae22408c96]
class Oferta--><g id="elem_Oferta"><rect codeLine="47" fill="#F1F1F1" height="153.6563" id="Oferta" rx="2.5" ry="2.5" style="stroke:#181818;stroke-width:0.5;" width="209" x="7" y="826"/><ellipse cx="87.25" cy="842" fill="#ADD1B2" rx="11" ry="11" style="stroke:#181818;stroke-width:1.0;"/><path d="M86.1094,842.7969 L86.1094,845.2969 L90.4375,845.2969 L90.4375,844.375 Q90.4375,843.7656 90.6719,843.5 Q90.9219,843.2344 91.2969,843.2344 Q91.6719,843.2344 91.9063,843.5 Q92.1406,843.7656 92.1406,844.375 L92.1406,847 L84.1406,847 Q83.5156,847 83.25,846.7656 Q83,846.5313 83,846.1406 Q83,845.7656 83.2656,845.5313 Q83.5313,845.2969 84.1406,845.2969 L84.4063,845.2969 L84.4063,838.6406 L84.1406,838.6406 Q83.5156,838.6406 83.25,838.4063 Q83,838.1719 83,837.7813 Q83,837.4063 83.25,837.1719 Q83.5156,836.9375 84.1406,836.9375 L91.7656,836.9375 L91.7656,839.5313 Q91.7656,840.1406 91.5313,840.4063 Q91.3125,840.6563 90.9219,840.6563 Q90.5469,840.6563 90.3125,840.4063 Q90.0781,840.1406 90.0781,839.5313 L90.0781,838.6406 L86.1094,838.6406 L86.1094,841.0938 L87.5938,841.0938 Q87.5938,840.4375 87.7188,840.25 Q87.9844,839.8438 88.4531,839.8438 Q88.8281,839.8438 89.0625,840.1094 Q89.2969,840.3594 89.2969,840.9688 L89.2969,842.9375 Q89.2969,843.4844 89.1719,843.6719 Q88.9063,844.0625 88.4531,844.0625 Q87.9844,844.0625 87.7188,843.6563 Q87.5938,843.4688 87.5938,842.7969 L86.1094,842.7969 Z " fill="#000000"/><text fill="#000000" font-family="sans-serif" font-size="14" lengthAdjust="spacing" textLength="40" x="107.75" y="847.7285">Oferta</text><line style="stroke:#181818;stroke-width:0.5;" x1="8" x2="215" y1="858" y2="858"/><ellipse cx="18" cy="872.3047" fill="#000000" rx="3" ry="3" style="stroke:#000000;stroke-width:1.0;"/><text fill="#000000" font-family="sans-serif" font-size="14" lengthAdjust="spacing" textLength="107" x="27" y="876.5332">idOferta: number</text><text fill="#000000" font-family="sans-serif" font-size="14" lengthAdjust="spacing" textLength="86" x="27" y="894.1426">nombre: texto</text><text fill="#000000" font-family="sans-serif" font-size="14" lengthAdjust="spacing" textLength="103" x="27" y="911.752">fechaInicio: date</text><text fill="#000000" font-family="sans-serif" font-size="14" lengthAdjust="spacing" textLength="91" x="27" y="929.3613">fechaFin: date</text><text fill="#000000" font-family="sans-serif" font-size="14" lengthAdjust="spacing" textLength="183" x="27" y="946.9707">descuentoAplicable : number</text><text fill="#000000" font-family="sans-serif" font-size="14" lengthAdjust="spacing" textLength="96" x="27" y="964.5801">activa: boolean</text><line style="stroke:#181818;stroke-width:0.5;" x1="8" x2="215" y1="971.6563" y2="971.6563"/></g><!--MD5=[d331226d1317b3fc678f52fa8b08f650]
class Notificacion--><g id="elem_Notificacion"><rect codeLine="56" fill="#F1F1F1" height="136.0469" id="Notificacion" rx="2.5" ry="2.5" style="stroke:#181818;stroke-width:0.5;" width="169" x="710" y="1040"/><ellipse cx="754.25" cy="1056" fill="#ADD1B2" rx="11" ry="11" style="stroke:#181818;stroke-width:1.0;"/><path d="M753.1094,1056.7969 L753.1094,1059.2969 L757.4375,1059.2969 L757.4375,1058.375 Q757.4375,1057.7656 757.6719,1057.5 Q757.9219,1057.2344 758.2969,1057.2344 Q758.6719,1057.2344 758.9063,1057.5 Q759.1406,1057.7656 759.1406,1058.375 L759.1406,1061 L751.1406,1061 Q750.5156,1061 750.25,1060.7656 Q750,1060.5313 750,1060.1406 Q750,1059.7656 750.2656,1059.5313 Q750.5313,1059.2969 751.1406,1059.2969 L751.4063,1059.2969 L751.4063,1052.6406 L751.1406,1052.6406 Q750.5156,1052.6406 750.25,1052.4063 Q750,1052.1719 750,1051.7813 Q750,1051.4063 750.25,1051.1719 Q750.5156,1050.9375 751.1406,1050.9375 L758.7656,1050.9375 L758.7656,1053.5313 Q758.7656,1054.1406 758.5313,1054.4063 Q758.3125,1054.6563 757.9219,1054.6563 Q757.5469,1054.6563 757.3125,1054.4063 Q757.0781,1054.1406 757.0781,1053.5313 L757.0781,1052.6406 L753.1094,1052.6406 L753.1094,1055.0938 L754.5938,1055.0938 Q754.5938,1054.4375 754.7188,1054.25 Q754.9844,1053.8438 755.4531,1053.8438 Q755.8281,1053.8438 756.0625,1054.1094 Q756.2969,1054.3594 756.2969,1054.9688 L756.2969,1056.9375 Q756.2969,1057.4844 756.1719,1057.6719 Q755.9063,1058.0625 755.4531,1058.0625 Q754.9844,1058.0625 754.7188,1057.6563 Q754.5938,1057.4688 754.5938,1056.7969 L753.1094,1056.7969 Z " fill="#000000"/><text fill="#000000" font-family="sans-serif" font-size="14" lengthAdjust="spacing" textLength="72" x="774.75" y="1061.7285">Notificacion</text><line style="stroke:#181818;stroke-width:0.5;" x1="711" x2="878" y1="1072" y2="1072"/><ellipse cx="721" cy="1086.3047" fill="#000000" rx="3" ry="3" style="stroke:#000000;stroke-width:1.0;"/><text fill="#000000" font-family="sans-serif" font-size="14" lengthAdjust="spacing" textLength="139" x="730" y="1090.5332">idNotificacion: number</text><text fill="#000000" font-family="sans-serif" font-size="14" lengthAdjust="spacing" textLength="68" x="730" y="1108.1426">texto: texto</text><text fill="#000000" font-family="sans-serif" font-size="14" lengthAdjust="spacing" textLength="75" x="730" y="1125.752">fecha : date</text><text fill="#000000" font-family="sans-serif" font-size="14" lengthAdjust="spacing" textLength="143" x="730" y="1143.3613">idAviso : number «FK»</text><text fill="#000000" font-family="sans-serif" font-size="14" lengthAdjust="spacing" textLength="108" x="730" y="1160.9707">destinatario : text</text><line style="stroke:#181818;stroke-width:0.5;" x1="711" x2="878" y1="1168.0469" y2="1168.0469"/></g><!--MD5=[fe4478d9c9a369b28097141e000aa656]
class Venta--><g id="elem_Venta"><rect codeLine="64" fill="#F1F1F1" height="153.6563" id="Venta" rx="2.5" ry="2.5" style="stroke:#181818;stroke-width:0.5;" width="202" x="477.5" y="612"/><ellipse cx="555.75" cy="628" fill="#ADD1B2" rx="11" ry="11" style="stroke:#181818;stroke-width:1.0;"/><path d="M554.6094,628.7969 L554.6094,631.2969 L558.9375,631.2969 L558.9375,630.375 Q558.9375,629.7656 559.1719,629.5 Q559.4219,629.2344 559.7969,629.2344 Q560.1719,629.2344 560.4063,629.5 Q560.6406,629.7656 560.6406,630.375 L560.6406,633 L552.6406,633 Q552.0156,633 551.75,632.7656 Q551.5,632.5313 551.5,632.1406 Q551.5,631.7656 551.7656,631.5313 Q552.0313,631.2969 552.6406,631.2969 L552.9063,631.2969 L552.9063,624.6406 L552.6406,624.6406 Q552.0156,624.6406 551.75,624.4063 Q551.5,624.1719 551.5,623.7813 Q551.5,623.4063 551.75,623.1719 Q552.0156,622.9375 552.6406,622.9375 L560.2656,622.9375 L560.2656,625.5313 Q560.2656,626.1406 560.0313,626.4063 Q559.8125,626.6563 559.4219,626.6563 Q559.0469,626.6563 558.8125,626.4063 Q558.5781,626.1406 558.5781,625.5313 L558.5781,624.6406 L554.6094,624.6406 L554.6094,627.0938 L556.0938,627.0938 Q556.0938,626.4375 556.2188,626.25 Q556.4844,625.8438 556.9531,625.8438 Q557.3281,625.8438 557.5625,626.1094 Q557.7969,626.3594 557.7969,626.9688 L557.7969,628.9375 Q557.7969,629.4844 557.6719,629.6719 Q557.4063,630.0625 556.9531,630.0625 Q556.4844,630.0625 556.2188,629.6563 Q556.0938,629.4688 556.0938,628.7969 L554.6094,628.7969 Z " fill="#000000"/><text fill="#000000" font-family="sans-serif" font-size="14" lengthAdjust="spacing" textLength="37" x="576.25" y="633.7285">Venta</text><line style="stroke:#181818;stroke-width:0.5;" x1="478.5" x2="678.5" y1="644" y2="644"/><ellipse cx="488.5" cy="658.3047" fill="#000000" rx="3" ry="3" style="stroke:#000000;stroke-width:1.0;"/><text fill="#000000" font-family="sans-serif" font-size="14" lengthAdjust="spacing" textLength="166" x="497.5" y="662.5332">idProducto : number «FK»</text><ellipse cx="488.5" cy="675.9141" fill="#000000" rx="3" ry="3" style="stroke:#000000;stroke-width:1.0;"/><text fill="#000000" font-family="sans-serif" font-size="14" lengthAdjust="spacing" textLength="176" x="497.5" y="680.1426">idComprador: number «FK»</text><ellipse cx="488.5" cy="693.5234" fill="#000000" rx="3" ry="3" style="stroke:#000000;stroke-width:1.0;"/><text fill="#000000" font-family="sans-serif" font-size="14" lengthAdjust="spacing" textLength="167" x="497.5" y="697.752">idVendedor: number «FK»</text><text fill="#000000" font-family="sans-serif" font-size="14" lengthAdjust="spacing" textLength="108" x="497.5" y="715.3613">fechaVenta: date</text><text fill="#000000" font-family="sans-serif" font-size="14" lengthAdjust="spacing" textLength="132" x="497.5" y="732.9707">precioVenta: number</text><text fill="#000000" font-family="sans-serif" font-size="14" lengthAdjust="spacing" textLength="118" x="497.5" y="750.5801">unidades : number</text><line style="stroke:#181818;stroke-width:0.5;" x1="478.5" x2="678.5" y1="757.6563" y2="757.6563"/></g><!--MD5=[b757b6e529b763f8ad1e01e238f23ef8]
class Aviso--><g id="elem_Aviso"><rect codeLine="73" fill="#F1F1F1" height="153.6563" id="Aviso" rx="2.5" ry="2.5" style="stroke:#181818;stroke-width:0.5;" width="201" x="694" y="826"/><ellipse cx="773.25" cy="842" fill="#ADD1B2" rx="11" ry="11" style="stroke:#181818;stroke-width:1.0;"/><path d="M772.1094,842.7969 L772.1094,845.2969 L776.4375,845.2969 L776.4375,844.375 Q776.4375,843.7656 776.6719,843.5 Q776.9219,843.2344 777.2969,843.2344 Q777.6719,843.2344 777.9063,843.5 Q778.1406,843.7656 778.1406,844.375 L778.1406,847 L770.1406,847 Q769.5156,847 769.25,846.7656 Q769,846.5313 769,846.1406 Q769,845.7656 769.2656,845.5313 Q769.5313,845.2969 770.1406,845.2969 L770.4063,845.2969 L770.4063,838.6406 L770.1406,838.6406 Q769.5156,838.6406 769.25,838.4063 Q769,838.1719 769,837.7813 Q769,837.4063 769.25,837.1719 Q769.5156,836.9375 770.1406,836.9375 L777.7656,836.9375 L777.7656,839.5313 Q777.7656,840.1406 777.5313,840.4063 Q777.3125,840.6563 776.9219,840.6563 Q776.5469,840.6563 776.3125,840.4063 Q776.0781,840.1406 776.0781,839.5313 L776.0781,838.6406 L772.1094,838.6406 L772.1094,841.0938 L773.5938,841.0938 Q773.5938,840.4375 773.7188,840.25 Q773.9844,839.8438 774.4531,839.8438 Q774.8281,839.8438 775.0625,840.1094 Q775.2969,840.3594 775.2969,840.9688 L775.2969,842.9375 Q775.2969,843.4844 775.1719,843.6719 Q774.9063,844.0625 774.4531,844.0625 Q773.9844,844.0625 773.7188,843.6563 Q773.5938,843.4688 773.5938,842.7969 L772.1094,842.7969 Z " fill="#000000"/><text fill="#000000" font-family="sans-serif" font-size="14" lengthAdjust="spacing" textLength="34" x="793.75" y="847.7285">Aviso</text><line style="stroke:#181818;stroke-width:0.5;" x1="695" x2="894" y1="858" y2="858"/><ellipse cx="705" cy="872.3047" fill="#000000" rx="3" ry="3" style="stroke:#000000;stroke-width:1.0;"/><text fill="#000000" font-family="sans-serif" font-size="14" lengthAdjust="spacing" textLength="105" x="714" y="876.5332">idAviso : number</text><text fill="#000000" font-family="sans-serif" font-size="14" lengthAdjust="spacing" textLength="75" x="714" y="894.1426">fecha : date</text><text fill="#000000" font-family="sans-serif" font-size="14" lengthAdjust="spacing" textLength="75" x="714" y="911.752">motivo : text</text><text fill="#000000" font-family="sans-serif" font-size="14" lengthAdjust="spacing" textLength="115" x="714" y="929.3613">destinatarios : text</text><text fill="#000000" font-family="sans-serif" font-size="14" lengthAdjust="spacing" textLength="124" x="714" y="946.9707">notificado : boolean</text><text fill="#000000" font-family="sans-serif" font-size="14" lengthAdjust="spacing" textLength="175" x="714" y="964.5801">idProveedor : number «FK»</text><line style="stroke:#181818;stroke-width:0.5;" x1="695" x2="894" y1="971.6563" y2="971.6563"/></g><!--MD5=[fdcda49d453d44c676d62f3f6af62207]
class Administrador--><g id="elem_Administrador"><rect codeLine="82" fill="#F1F1F1" height="118.4375" id="Administrador" rx="2.5" ry="2.5" style="stroke:#181818;stroke-width:0.5;" width="184" x="367.5" y="7"/><ellipse cx="411.75" cy="23" fill="#ADD1B2" rx="11" ry="11" style="stroke:#181818;stroke-width:1.0;"/><path d="M410.6094,23.7969 L410.6094,26.2969 L414.9375,26.2969 L414.9375,25.375 Q414.9375,24.7656 415.1719,24.5 Q415.4219,24.2344 415.7969,24.2344 Q416.1719,24.2344 416.4063,24.5 Q416.6406,24.7656 416.6406,25.375 L416.6406,28 L408.6406,28 Q408.0156,28 407.75,27.7656 Q407.5,27.5313 407.5,27.1406 Q407.5,26.7656 407.7656,26.5313 Q408.0313,26.2969 408.6406,26.2969 L408.9063,26.2969 L408.9063,19.6406 L408.6406,19.6406 Q408.0156,19.6406 407.75,19.4063 Q407.5,19.1719 407.5,18.7813 Q407.5,18.4063 407.75,18.1719 Q408.0156,17.9375 408.6406,17.9375 L416.2656,17.9375 L416.2656,20.5313 Q416.2656,21.1406 416.0313,21.4063 Q415.8125,21.6563 415.4219,21.6563 Q415.0469,21.6563 414.8125,21.4063 Q414.5781,21.1406 414.5781,20.5313 L414.5781,19.6406 L410.6094,19.6406 L410.6094,22.0938 L412.0938,22.0938 Q412.0938,21.4375 412.2188,21.25 Q412.4844,20.8438 412.9531,20.8438 Q413.3281,20.8438 413.5625,21.1094 Q413.7969,21.3594 413.7969,21.9688 L413.7969,23.9375 Q413.7969,24.4844 413.6719,24.6719 Q413.4063,25.0625 412.9531,25.0625 Q412.4844,25.0625 412.2188,24.6563 Q412.0938,24.4688 412.0938,23.7969 L410.6094,23.7969 Z " fill="#000000"/><text fill="#000000" font-family="sans-serif" font-size="14" lengthAdjust="spacing" textLength="87" x="432.25" y="28.7285">Administrador</text><line style="stroke:#181818;stroke-width:0.5;" x1="368.5" x2="550.5" y1="39" y2="39"/><ellipse cx="378.5" cy="53.3047" fill="#000000" rx="3" ry="3" style="stroke:#000000;stroke-width:1.0;"/><text fill="#000000" font-family="sans-serif" font-size="14" lengthAdjust="spacing" textLength="158" x="387.5" y="57.5332">idAdministrador : number</text><text fill="#000000" font-family="sans-serif" font-size="14" lengthAdjust="spacing" textLength="82" x="387.5" y="75.1426">nombre : text</text><text fill="#000000" font-family="sans-serif" font-size="14" lengthAdjust="spacing" textLength="67" x="387.5" y="92.752">email : text</text><text fill="#000000" font-family="sans-serif" font-size="14" lengthAdjust="spacing" textLength="85" x="387.5" y="110.3613">telefono : text</text><line style="stroke:#181818;stroke-width:0.5;" x1="368.5" x2="550.5" y1="117.4375" y2="117.4375"/></g><!--MD5=[736bf98cc934f12583d4ed75bb7ffba8]
class AEP--><g id="elem_AEP"><rect codeLine="89" fill="#F1F1F1" height="83.2188" id="AEP" rx="2.5" ry="2.5" style="stroke:#181818;stroke-width:0.5;" width="222" x="348.5" y="185"/><ellipse cx="388.25" cy="201" fill="#ADD1B2" rx="11" ry="11" style="stroke:#181818;stroke-width:1.0;"/><path d="M387.1094,201.7969 L387.1094,204.2969 L391.4375,204.2969 L391.4375,203.375 Q391.4375,202.7656 391.6719,202.5 Q391.9219,202.2344 392.2969,202.2344 Q392.6719,202.2344 392.9063,202.5 Q393.1406,202.7656 393.1406,203.375 L393.1406,206 L385.1406,206 Q384.5156,206 384.25,205.7656 Q384,205.5313 384,205.1406 Q384,204.7656 384.2656,204.5313 Q384.5313,204.2969 385.1406,204.2969 L385.4063,204.2969 L385.4063,197.6406 L385.1406,197.6406 Q384.5156,197.6406 384.25,197.4063 Q384,197.1719 384,196.7813 Q384,196.4063 384.25,196.1719 Q384.5156,195.9375 385.1406,195.9375 L392.7656,195.9375 L392.7656,198.5313 Q392.7656,199.1406 392.5313,199.4063 Q392.3125,199.6563 391.9219,199.6563 Q391.5469,199.6563 391.3125,199.4063 Q391.0781,199.1406 391.0781,198.5313 L391.0781,197.6406 L387.1094,197.6406 L387.1094,200.0938 L388.5938,200.0938 Q388.5938,199.4375 388.7188,199.25 Q388.9844,198.8438 389.4531,198.8438 Q389.8281,198.8438 390.0625,199.1094 Q390.2969,199.3594 390.2969,199.9688 L390.2969,201.9375 Q390.2969,202.4844 390.1719,202.6719 Q389.9063,203.0625 389.4531,203.0625 Q388.9844,203.0625 388.7188,202.6563 Q388.5938,202.4688 388.5938,201.7969 L387.1094,201.7969 Z " fill="#000000"/><text fill="#000000" font-family="sans-serif" font-size="14" lengthAdjust="spacing" textLength="135" x="407.75" y="206.7285">Productos eliminados</text><line style="stroke:#181818;stroke-width:0.5;" x1="349.5" x2="569.5" y1="217" y2="217"/><ellipse cx="359.5" cy="231.3047" fill="#000000" rx="3" ry="3" style="stroke:#000000;stroke-width:1.0;"/><text fill="#000000" font-family="sans-serif" font-size="14" lengthAdjust="spacing" textLength="196" x="368.5" y="235.5332">idAdministrador : number «FK»</text><ellipse cx="359.5" cy="248.9141" fill="#000000" rx="3" ry="3" style="stroke:#000000;stroke-width:1.0;"/><text fill="#000000" font-family="sans-serif" font-size="14" lengthAdjust="spacing" textLength="166" x="368.5" y="253.1426">idProducto : number «FK»</text><line style="stroke:#181818;stroke-width:0.5;" x1="349.5" x2="569.5" y1="260.2188" y2="260.2188"/></g><!--MD5=[eb3245b16c25d634e5c5cb3859ea6069]
link Producto to Cesta_de_la_compra--><g id="link_Producto_Cesta_de_la_compra"><path codeLine="95" d="M402.82,559.64 C390.97,584.44 379,609.5 368.82,630.82 " fill="none" id="Producto-Cesta_de_la_compra" style="stroke:#181818;stroke-width:1.0;"/><line style="stroke:#181818;stroke-width:1.0;" x1="368.7356" x2="370.705" y1="630.98" y2="640.7842"/><line style="stroke:#181818;stroke-width:1.0;" x1="368.7356" x2="359.875" y1="630.98" y2="635.6158"/><line style="stroke:#181818;stroke-width:1.0;" x1="368.7356" x2="365.29" y1="630.98" y2="638.2"/><line style="stroke:#181818;stroke-width:1.0;" x1="373.207" x2="365.987" y1="630.8978" y2="627.4522"/><line style="stroke:#181818;stroke-width:1.0;" x1="401.0387" x2="408.2613" y1="554.1113" y2="557.5513"/><line style="stroke:#181818;stroke-width:1.0;" x1="399.7487" x2="406.9713" y1="556.8198" y2="560.2598"/><line style="stroke:#181818;stroke-width:1.0;" x1="402.93" x2="406.37" y1="559.4426" y2="552.22"/></g><!--MD5=[6aeb0df3a4d1c48485167b4c55e8992d]
link Cesta_de_la_compra to Comprador--><g id="link_Cesta_de_la_compra_Comprador"><path codeLine="96" d="M347.24,747.94 C349.93,775.11 353.15,807.63 355.94,835.77 " fill="none" id="Cesta_de_la_compra-Comprador" style="stroke:#181818;stroke-width:1.0;"/><line style="stroke:#181818;stroke-width:1.0;" x1="360.3376" x2="352.3763" y1="839.5963" y2="840.3824"/><line style="stroke:#181818;stroke-width:1.0;" x1="360.0428" x2="352.0815" y1="836.6108" y2="837.3969"/><line style="stroke:#181818;stroke-width:1.0;" x1="355.9639" x2="356.75" y1="836.0087" y2="843.97"/><line style="stroke:#181818;stroke-width:1.0;" x1="347.2061" x2="340.449" y1="747.6613" y2="740.2896"/><line style="stroke:#181818;stroke-width:1.0;" x1="347.2061" x2="352.391" y1="747.6613" y2="739.1104"/><line style="stroke:#181818;stroke-width:1.0;" x1="347.2061" x2="346.42" y1="747.6613" y2="739.7"/><line style="stroke:#181818;stroke-width:1.0;" x1="343.422" x2="351.3833" y1="750.0447" y2="749.2585"/></g><!--MD5=[cfd437890eae785a13694418fb7340ed]
link Producto to Productos_ofertados--><g id="link_Producto_Productos_ofertados"><path codeLine="98" d="M352.27,517.11 C294.24,558.29 224.54,607.77 175.1,642.86 " fill="none" id="Producto-Productos_ofertados" style="stroke:#181818;stroke-width:1.0;"/><line style="stroke:#181818;stroke-width:1.0;" x1="175.0862" x2="172.0302" y1="642.8731" y2="652.3947"/><line style="stroke:#181818;stroke-width:1.0;" x1="175.0862" x2="165.0898" y1="642.8731" y2="642.6053"/><line style="stroke:#181818;stroke-width:1.0;" x1="175.0862" x2="168.56" y1="642.8731" y2="647.5"/><line style="stroke:#181818;stroke-width:1.0;" x1="179.0312" x2="174.4043" y1="644.9795" y2="638.4532"/><line style="stroke:#181818;stroke-width:1.0;" x1="353.2634" x2="357.8903" y1="511.4903" y2="518.0166"/><line style="stroke:#181818;stroke-width:1.0;" x1="350.8161" x2="355.443" y1="513.2254" y2="519.7517"/><line style="stroke:#181818;stroke-width:1.0;" x1="352.3138" x2="358.84" y1="517.0669" y2="512.44"/></g><!--MD5=[8e85831da0049ab23ccd5cd9a8fc9667]
link Productos_ofertados to Oferta--><g id="link_Productos_ofertados_Oferta"><path codeLine="99" d="M111.5,738.98 C111.5,762.28 111.5,790.8 111.5,817.43 " fill="none" id="Productos_ofertados-Oferta" style="stroke:#181818;stroke-width:1.0;"/><line style="stroke:#181818;stroke-width:1.0;" x1="115.5" x2="107.5" y1="821.63" y2="821.63"/><line style="stroke:#181818;stroke-width:1.0;" x1="115.5" x2="107.5" y1="818.63" y2="818.63"/><line style="stroke:#181818;stroke-width:1.0;" x1="111.5" x2="111.5" y1="817.63" y2="825.63"/><line style="stroke:#181818;stroke-width:1.0;" x1="111.5" x2="105.5" y1="738.88" y2="730.88"/><line style="stroke:#181818;stroke-width:1.0;" x1="111.5" x2="117.5" y1="738.88" y2="730.88"/><line style="stroke:#181818;stroke-width:1.0;" x1="111.5" x2="111.5" y1="738.88" y2="730.88"/><line style="stroke:#181818;stroke-width:1.0;" x1="107.5" x2="115.5" y1="740.88" y2="740.88"/></g><!--MD5=[49c0947122ab36a84e21ada9e164bb54]
link Producto to Proveedor--><g id="link_Producto_Proveedor"><path codeLine="101" d="M566.6,517.09 C607.48,546.44 654.37,580.48 696.5,612 C702.01,616.13 707.68,620.41 713.37,624.74 " fill="none" id="Producto-Proveedor" style="stroke:#181818;stroke-width:1.0;stroke-dasharray:7.0,7.0;"/><line style="stroke:#181818;stroke-width:1.0;" x1="719.304" x2="714.4539" y1="624.2339" y2="630.596"/><line style="stroke:#181818;stroke-width:1.0;" x1="716.9182" x2="712.0681" y1="622.4151" y2="628.7773"/><line style="stroke:#181818;stroke-width:1.0;" x1="713.6979" x2="720.06" y1="624.9899" y2="629.84"/><line style="stroke:#181818;stroke-width:1.0;" x1="566.5963" x2="556.5984" y1="517.0888" y2="517.2923"/><line style="stroke:#181818;stroke-width:1.0;" x1="566.5963" x2="563.6016" y1="517.0888" y2="507.5477"/><line style="stroke:#181818;stroke-width:1.0;" x1="566.5963" x2="560.1" y1="517.0888" y2="512.42"/><line style="stroke:#181818;stroke-width:1.0;" x1="565.886" x2="570.5548" y1="521.5042" y2="515.0078"/></g><!--MD5=[356fa4f0391dd3352643aeaa9511aaea]
link Proveedor to Aviso--><g id="link_Proveedor_Aviso"><path codeLine="102" d="M794.5,756.48 C794.5,775.85 794.5,797.28 794.5,817.6 " fill="none" id="Proveedor-Aviso" style="stroke:#181818;stroke-width:1.0;stroke-dasharray:7.0,7.0;"/><line style="stroke:#181818;stroke-width:1.0;" x1="794.5" x2="800.5" y1="817.63" y2="825.63"/><line style="stroke:#181818;stroke-width:1.0;" x1="794.5" x2="788.5" y1="817.63" y2="825.63"/><line style="stroke:#181818;stroke-width:1.0;" x1="794.5" x2="794.5" y1="817.63" y2="825.63"/><line style="stroke:#181818;stroke-width:1.0;" x1="798.5" x2="790.5" y1="815.63" y2="815.63"/><line style="stroke:#181818;stroke-width:1.0;" x1="790.5" x2="798.5" y1="752.21" y2="752.21"/><line style="stroke:#181818;stroke-width:1.0;" x1="790.5" x2="798.5" y1="755.21" y2="755.21"/><line style="stroke:#181818;stroke-width:1.0;" x1="794.5" x2="794.5" y1="756.21" y2="748.21"/></g><!--MD5=[cbff52ea614c249078539028b6b9d40b]
link Producto to Venta--><g id="link_Producto_Venta"><path codeLine="104" d="M516.72,559.77 C523.97,574.81 531.26,589.94 538.16,604.27 " fill="none" id="Producto-Venta" style="stroke:#181818;stroke-width:1.0;"/><line style="stroke:#181818;stroke-width:1.0;" x1="538.2556" x2="547.1346" y1="604.4739" y2="609.0742"/><line style="stroke:#181818;stroke-width:1.0;" x1="538.2556" x2="536.3254" y1="604.4739" y2="614.2858"/><line style="stroke:#181818;stroke-width:1.0;" x1="538.2556" x2="541.73" y1="604.4739" y2="611.68"/><line style="stroke:#181818;stroke-width:1.0;" x1="540.9901" x2="533.7839" y1="600.9351" y2="604.4095"/><line style="stroke:#181818;stroke-width:1.0;" x1="511.21" x2="518.4188" y1="557.5588" y2="554.09"/><line style="stroke:#181818;stroke-width:1.0;" x1="512.5108" x2="519.7196" y1="560.2621" y2="556.7933"/><line style="stroke:#181818;stroke-width:1.0;" x1="516.5488" x2="513.08" y1="559.4288" y2="552.22"/></g><!--MD5=[cc0d76bd3bc560adfa6373cac8000b82]
link Venta to Vendedor--><g id="link_Venta_Vendedor"><path codeLine="105" d="M578.5,774.39 C578.5,794.72 578.5,816.16 578.5,835.54 " fill="none" id="Venta-Vendedor" style="stroke:#181818;stroke-width:1.0;"/><line style="stroke:#181818;stroke-width:1.0;" x1="582.5" x2="574.5" y1="839.71" y2="839.71"/><line style="stroke:#181818;stroke-width:1.0;" x1="582.5" x2="574.5" y1="836.71" y2="836.71"/><line style="stroke:#181818;stroke-width:1.0;" x1="578.5" x2="578.5" y1="835.71" y2="843.71"/><line style="stroke:#181818;stroke-width:1.0;" x1="578.5" x2="572.5" y1="774.24" y2="766.24"/><line style="stroke:#181818;stroke-width:1.0;" x1="578.5" x2="584.5" y1="774.24" y2="766.24"/><line style="stroke:#181818;stroke-width:1.0;" x1="578.5" x2="578.5" y1="774.24" y2="766.24"/><line style="stroke:#181818;stroke-width:1.0;" x1="574.5" x2="582.5" y1="776.24" y2="776.24"/></g><!--MD5=[02a71008df5cf26f6e12289369e866fa]
link Venta to Comprador--><g id="link_Venta_Comprador"><path codeLine="106" d="M494.99,771.96 C472.7,793.84 448.94,817.16 427.78,837.93 " fill="none" id="Venta-Comprador" style="stroke:#181818;stroke-width:1.0;"/><line style="stroke:#181818;stroke-width:1.0;" x1="427.5466" x2="421.9399" y1="843.7599" y2="838.0534"/><line style="stroke:#181818;stroke-width:1.0;" x1="429.6866" x2="424.0799" y1="841.6574" y2="835.9509"/><line style="stroke:#181818;stroke-width:1.0;" x1="427.5966" x2="421.89" y1="838.1033" y2="843.71"/><line style="stroke:#181818;stroke-width:1.0;" x1="495.1134" x2="496.615" y1="771.8467" y2="761.9601"/><line style="stroke:#181818;stroke-width:1.0;" x1="495.1134" x2="505.025" y1="771.8467" y2="770.5199"/><line style="stroke:#181818;stroke-width:1.0;" x1="495.1134" x2="500.82" y1="771.8467" y2="766.24"/><line style="stroke:#181818;stroke-width:1.0;" x1="490.8834" x2="496.4901" y1="770.3951" y2="776.1017"/></g><!--MD5=[a4c214c787b96a615362ada98ba5a205]
link Aviso to Notificacion--><g id="link_Aviso_Notificacion"><path codeLine="108" d="M794.5,988.5 C794.5,1002.79 794.5,1017.54 794.5,1031.58 " fill="none" id="Aviso-Notificacion" style="stroke:#181818;stroke-width:1.0;stroke-dasharray:7.0,7.0;"/><line style="stroke:#181818;stroke-width:1.0;" x1="794.5" x2="800.5" y1="1031.75" y2="1039.75"/><line style="stroke:#181818;stroke-width:1.0;" x1="794.5" x2="788.5" y1="1031.75" y2="1039.75"/><line style="stroke:#181818;stroke-width:1.0;" x1="794.5" x2="794.5" y1="1031.75" y2="1039.75"/><line style="stroke:#181818;stroke-width:1.0;" x1="798.5" x2="790.5" y1="1029.75" y2="1029.75"/><line style="stroke:#181818;stroke-width:1.0;" x1="790.5" x2="798.5" y1="984.17" y2="984.17"/><line style="stroke:#181818;stroke-width:1.0;" x1="790.5" x2="798.5" y1="987.17" y2="987.17"/><line style="stroke:#181818;stroke-width:1.0;" x1="794.5" x2="794.5" y1="988.17" y2="980.17"/></g><!--MD5=[3c9b868775f418794629da23db89fc59]
link Administrador to AEP--><g id="link_Administrador_AEP"><path codeLine="110" d="M459.5,133.57 C459.5,147.95 459.5,162.91 459.5,176.48 " fill="none" id="Administrador-AEP" style="stroke:#181818;stroke-width:1.0;"/><line style="stroke:#181818;stroke-width:1.0;" x1="459.5" x2="465.5" y1="176.73" y2="184.73"/><line style="stroke:#181818;stroke-width:1.0;" x1="459.5" x2="453.5" y1="176.73" y2="184.73"/><line style="stroke:#181818;stroke-width:1.0;" x1="459.5" x2="459.5" y1="176.73" y2="184.73"/><line style="stroke:#181818;stroke-width:1.0;" x1="463.5" x2="455.5" y1="174.73" y2="174.73"/><line style="stroke:#181818;stroke-width:1.0;" x1="455.5" x2="463.5" y1="129.12" y2="129.12"/><line style="stroke:#181818;stroke-width:1.0;" x1="455.5" x2="463.5" y1="132.12" y2="132.12"/><line style="stroke:#181818;stroke-width:1.0;" x1="459.5" x2="459.5" y1="133.12" y2="125.12"/></g><!--MD5=[e7c0595e1cd463c9e367d92f31c4daf7]
link AEP to Producto--><g id="link_AEP_Producto"><path codeLine="111" d="M459.5,276.65 C459.5,289.85 459.5,304.73 459.5,319.98 " fill="none" id="AEP-Producto" style="stroke:#181818;stroke-width:1.0;"/><line style="stroke:#181818;stroke-width:1.0;" x1="463.5" x2="455.5" y1="323.99" y2="323.99"/><line style="stroke:#181818;stroke-width:1.0;" x1="463.5" x2="455.5" y1="320.99" y2="320.99"/><line style="stroke:#181818;stroke-width:1.0;" x1="459.5" x2="459.5" y1="319.99" y2="327.99"/><line style="stroke:#181818;stroke-width:1.0;" x1="459.5" x2="453.5" y1="276.28" y2="268.28"/><line style="stroke:#181818;stroke-width:1.0;" x1="459.5" x2="465.5" y1="276.28" y2="268.28"/><line style="stroke:#181818;stroke-width:1.0;" x1="459.5" x2="459.5" y1="276.28" y2="268.28"/><line style="stroke:#181818;stroke-width:1.0;" x1="455.5" x2="463.5" y1="278.28" y2="278.28"/></g><!--MD5=[a30ec68e76b2e34ca9f88f7e54fef292]
@startuml supuesto2E-R

entity "Producto"{
    * idProducto: number
    nombre: texto
    precio: number
    fechaIncorporacion : date
    stockDisponible : number
    precio : number
    enOferta : boolean
    fabricante : text
    modelo : text
    idProveedor : number <<FK>>
}

entity "Comprador"{
    * idComprador: number
    nombre: texto
    email : texto
    telefono : texto
}

entity "Cesta_de_la_compra"{
    * idProducto: number <<FK>>
    * idComprador: number <<FK>>
    unidades : number
}

entity "Productos_ofertados"{
    * idProducto: number <<FK>>
    * idOferta: number <<FK>>
}

entity "Vendedor"{
    * idVendedor: number
    nombre: texto
    email : texto
    telefono : texto
}

entity "Proveedor"{
    * idProveedor: number
    nombre: texto
    email : texto
    telefono : texto
}

entity "Oferta"{
    * idOferta: number
    nombre: texto
    fechaInicio: date 
    fechaFin: date 
    descuentoAplicable : number
    activa: boolean
}

entity "Notificacion"{
    * idNotificacion: number
    texto: texto
    fecha : date
    idAviso : number <<FK>>
    destinatario : text
}

entity "Venta" {
    * idProducto : number <<FK>>
    * idComprador: number <<FK>>
    * idVendedor: number <<FK>>
    fechaVenta: date
    precioVenta: number
    unidades : number
}

entity "Aviso" as Aviso {
    * idAviso : number
    fecha : date
    motivo : text
    destinatarios : text
    notificado : boolean
    idProveedor : number <<FK>>
}

entity "Administrador" as Administrador{
    * idAdministrador : number
    nombre : text
    email : text
    telefono : text
}

entity "Productos eliminados" as AEP{
    * idAdministrador : number <<FK>>
    * idProducto : number <<FK>>
}


Producto ||- -|{ Cesta_de_la_compra
Cesta_de_la_compra }|- -|| Comprador

Producto ||- -|{ Productos_ofertados
Productos_ofertados }|- -|| Oferta

Producto }|..|| Proveedor
Proveedor ||..|{ Aviso

Producto ||- -|{ Venta
Venta }|- -|| Vendedor
Venta }|- -|| Comprador

Aviso ||..|{ Notificacion

Administrador ||- -|{ AEP
AEP }|- -|| Producto
@end

PlantUML version 1.2022.7(Mon Aug 22 19:01:30 CEST 2022)
(GPL source distribution)
Java Runtime: OpenJDK Runtime Environment
JVM: OpenJDK 64-Bit Server VM
Default Encoding: Cp1252
Language: es
Country: ES
--></g></svg>