<?xml version="1.0" encoding="UTF-8" standalone="no"?><svg xmlns="http://www.w3.org/2000/svg" xmlns:xlink="http://www.w3.org/1999/xlink" contentStyleType="text/css" height="1166px" preserveAspectRatio="none" style="width:870px;height:1166px;background:#FFFFFF;" version="1.1" viewBox="0 0 870 1166" width="870px" zoomAndPan="magnify"><defs/><g><!--MD5=[74438b4bcd0b343607a1e9b7af88b110]
class Horario--><g id="elem_Horario"><rect codeLine="2" fill="#F1F1F1" height="136.0469" id="Horario" rx="2.5" ry="2.5" style="stroke:#181818;stroke-width:0.5;" width="183" x="529.5" y="238.5"/><ellipse cx="593.75" cy="254.5" fill="#ADD1B2" rx="11" ry="11" style="stroke:#181818;stroke-width:1.0;"/><path d="M592.6094,255.2969 L592.6094,257.7969 L596.9375,257.7969 L596.9375,256.875 Q596.9375,256.2656 597.1719,256 Q597.4219,255.7344 597.7969,255.7344 Q598.1719,255.7344 598.4063,256 Q598.6406,256.2656 598.6406,256.875 L598.6406,259.5 L590.6406,259.5 Q590.0156,259.5 589.75,259.2656 Q589.5,259.0313 589.5,258.6406 Q589.5,258.2656 589.7656,258.0313 Q590.0313,257.7969 590.6406,257.7969 L590.9063,257.7969 L590.9063,251.1406 L590.6406,251.1406 Q590.0156,251.1406 589.75,250.9063 Q589.5,250.6719 589.5,250.2813 Q589.5,249.9063 589.75,249.6719 Q590.0156,249.4375 590.6406,249.4375 L598.2656,249.4375 L598.2656,252.0313 Q598.2656,252.6406 598.0313,252.9063 Q597.8125,253.1563 597.4219,253.1563 Q597.0469,253.1563 596.8125,252.9063 Q596.5781,252.6406 596.5781,252.0313 L596.5781,251.1406 L592.6094,251.1406 L592.6094,253.5938 L594.0938,253.5938 Q594.0938,252.9375 594.2188,252.75 Q594.4844,252.3438 594.9531,252.3438 Q595.3281,252.3438 595.5625,252.6094 Q595.7969,252.8594 595.7969,253.4688 L595.7969,255.4375 Q595.7969,255.9844 595.6719,256.1719 Q595.4063,256.5625 594.9531,256.5625 Q594.4844,256.5625 594.2188,256.1563 Q594.0938,255.9688 594.0938,255.2969 L592.6094,255.2969 Z " fill="#000000"/><text fill="#000000" font-family="sans-serif" font-size="14" lengthAdjust="spacing" textLength="46" x="614.25" y="260.2285">Horario</text><line style="stroke:#181818;stroke-width:0.5;" x1="530.5" x2="711.5" y1="270.5" y2="270.5"/><ellipse cx="540.5" cy="284.8047" fill="#000000" rx="3" ry="3" style="stroke:#000000;stroke-width:1.0;"/><text fill="#000000" font-family="sans-serif" font-size="14" lengthAdjust="spacing" textLength="117" x="549.5" y="289.0332">idHorario : number</text><text fill="#000000" font-family="sans-serif" font-size="14" lengthAdjust="spacing" textLength="82" x="549.5" y="306.6426">nombre : text</text><text fill="#000000" font-family="sans-serif" font-size="14" lengthAdjust="spacing" textLength="157" x="549.5" y="324.252">fechaIncorporacion: date</text><ellipse cx="540.5" cy="337.6328" fill="#000000" rx="3" ry="3" style="stroke:#000000;stroke-width:1.0;"/><text fill="#000000" font-family="sans-serif" font-size="14" lengthAdjust="spacing" textLength="149" x="549.5" y="341.8613">idGrupo : number «FK»</text><ellipse cx="540.5" cy="355.2422" fill="#000000" rx="3" ry="3" style="stroke:#000000;stroke-width:1.0;"/><text fill="#000000" font-family="sans-serif" font-size="14" lengthAdjust="spacing" textLength="147" x="549.5" y="359.4707">idCurso : number «FK»</text><line style="stroke:#181818;stroke-width:0.5;" x1="530.5" x2="711.5" y1="366.5469" y2="366.5469"/></g><!--MD5=[9196e7f5424c8ba52e10312e1fe81956]
class Estudiante--><g id="elem_Estudiante"><rect codeLine="10" fill="#F1F1F1" height="171.2656" id="Estudiante" rx="2.5" ry="2.5" style="stroke:#181818;stroke-width:0.5;" width="187" x="34.5" y="221"/><ellipse cx="90.25" cy="237" fill="#ADD1B2" rx="11" ry="11" style="stroke:#181818;stroke-width:1.0;"/><path d="M89.1094,237.7969 L89.1094,240.2969 L93.4375,240.2969 L93.4375,239.375 Q93.4375,238.7656 93.6719,238.5 Q93.9219,238.2344 94.2969,238.2344 Q94.6719,238.2344 94.9063,238.5 Q95.1406,238.7656 95.1406,239.375 L95.1406,242 L87.1406,242 Q86.5156,242 86.25,241.7656 Q86,241.5313 86,241.1406 Q86,240.7656 86.2656,240.5313 Q86.5313,240.2969 87.1406,240.2969 L87.4063,240.2969 L87.4063,233.6406 L87.1406,233.6406 Q86.5156,233.6406 86.25,233.4063 Q86,233.1719 86,232.7813 Q86,232.4063 86.25,232.1719 Q86.5156,231.9375 87.1406,231.9375 L94.7656,231.9375 L94.7656,234.5313 Q94.7656,235.1406 94.5313,235.4063 Q94.3125,235.6563 93.9219,235.6563 Q93.5469,235.6563 93.3125,235.4063 Q93.0781,235.1406 93.0781,234.5313 L93.0781,233.6406 L89.1094,233.6406 L89.1094,236.0938 L90.5938,236.0938 Q90.5938,235.4375 90.7188,235.25 Q90.9844,234.8438 91.4531,234.8438 Q91.8281,234.8438 92.0625,235.1094 Q92.2969,235.3594 92.2969,235.9688 L92.2969,237.9375 Q92.2969,238.4844 92.1719,238.6719 Q91.9063,239.0625 91.4531,239.0625 Q90.9844,239.0625 90.7188,238.6563 Q90.5938,238.4688 90.5938,237.7969 L89.1094,237.7969 Z " fill="#000000"/><text fill="#000000" font-family="sans-serif" font-size="14" lengthAdjust="spacing" textLength="67" x="110.75" y="242.7285">Estudiante</text><line style="stroke:#181818;stroke-width:0.5;" x1="35.5" x2="220.5" y1="253" y2="253"/><ellipse cx="45.5" cy="267.3047" fill="#000000" rx="3" ry="3" style="stroke:#000000;stroke-width:1.0;"/><text fill="#000000" font-family="sans-serif" font-size="14" lengthAdjust="spacing" textLength="138" x="54.5" y="271.5332">idEstudiante : number</text><text fill="#000000" font-family="sans-serif" font-size="14" lengthAdjust="spacing" textLength="78" x="54.5" y="289.1426">nombre: text</text><text fill="#000000" font-family="sans-serif" font-size="14" lengthAdjust="spacing" textLength="161" x="54.5" y="306.752">fechaIncorporacion : date</text><text fill="#000000" font-family="sans-serif" font-size="14" lengthAdjust="spacing" textLength="144" x="54.5" y="324.3613">fechaNacimiento : date</text><text fill="#000000" font-family="sans-serif" font-size="14" lengthAdjust="spacing" textLength="82" x="54.5" y="341.9707">DNI : number</text><text fill="#000000" font-family="sans-serif" font-size="14" lengthAdjust="spacing" textLength="67" x="54.5" y="359.5801">email : text</text><text fill="#000000" font-family="sans-serif" font-size="14" lengthAdjust="spacing" textLength="86" x="54.5" y="377.1895">alta : boolean</text><line style="stroke:#181818;stroke-width:0.5;" x1="35.5" x2="220.5" y1="384.2656" y2="384.2656"/></g><!--MD5=[f2218e1462229fc26a81ca0961400074]
class EsAs--><g id="elem_EsAs"><rect codeLine="20" fill="#F1F1F1" height="136.0469" id="EsAs" rx="2.5" ry="2.5" style="stroke:#181818;stroke-width:0.5;" width="238" x="99" y="452"/><ellipse cx="123" cy="468" fill="#ADD1B2" rx="11" ry="11" style="stroke:#181818;stroke-width:1.0;"/><path d="M121.8594,468.7969 L121.8594,471.2969 L126.1875,471.2969 L126.1875,470.375 Q126.1875,469.7656 126.4219,469.5 Q126.6719,469.2344 127.0469,469.2344 Q127.4219,469.2344 127.6563,469.5 Q127.8906,469.7656 127.8906,470.375 L127.8906,473 L119.8906,473 Q119.2656,473 119,472.7656 Q118.75,472.5313 118.75,472.1406 Q118.75,471.7656 119.0156,471.5313 Q119.2813,471.2969 119.8906,471.2969 L120.1563,471.2969 L120.1563,464.6406 L119.8906,464.6406 Q119.2656,464.6406 119,464.4063 Q118.75,464.1719 118.75,463.7813 Q118.75,463.4063 119,463.1719 Q119.2656,462.9375 119.8906,462.9375 L127.5156,462.9375 L127.5156,465.5313 Q127.5156,466.1406 127.2813,466.4063 Q127.0625,466.6563 126.6719,466.6563 Q126.2969,466.6563 126.0625,466.4063 Q125.8281,466.1406 125.8281,465.5313 L125.8281,464.6406 L121.8594,464.6406 L121.8594,467.0938 L123.3438,467.0938 Q123.3438,466.4375 123.4688,466.25 Q123.7344,465.8438 124.2031,465.8438 Q124.5781,465.8438 124.8125,466.1094 Q125.0469,466.3594 125.0469,466.9688 L125.0469,468.9375 Q125.0469,469.4844 124.9219,469.6719 Q124.6563,470.0625 124.2031,470.0625 Q123.7344,470.0625 123.4688,469.6563 Q123.3438,469.4688 123.3438,468.7969 L121.8594,468.7969 Z " fill="#000000"/><text fill="#000000" font-family="sans-serif" font-size="14" lengthAdjust="spacing" textLength="186" x="139" y="473.7285">Estudiante_cursa_Asignatura</text><line style="stroke:#181818;stroke-width:0.5;" x1="100" x2="336" y1="484" y2="484"/><ellipse cx="110" cy="498.3047" fill="#000000" rx="3" ry="3" style="stroke:#000000;stroke-width:1.0;"/><text fill="#000000" font-family="sans-serif" font-size="14" lengthAdjust="spacing" textLength="177" x="119" y="502.5332">idAsignatura : number «FK»</text><ellipse cx="110" cy="515.9141" fill="#000000" rx="3" ry="3" style="stroke:#000000;stroke-width:1.0;"/><text fill="#000000" font-family="sans-serif" font-size="14" lengthAdjust="spacing" textLength="176" x="119" y="520.1426">idEstudiante : number «FK»</text><text fill="#000000" font-family="sans-serif" font-size="14" lengthAdjust="spacing" textLength="138" x="119" y="537.752">cursoAcademico : text</text><text fill="#000000" font-family="sans-serif" font-size="14" lengthAdjust="spacing" textLength="130" x="119" y="555.3613">nrMatricula : number</text><text fill="#000000" font-family="sans-serif" font-size="14" lengthAdjust="spacing" textLength="212" x="119" y="572.9707">convocatoriasRestantes : number</text><line style="stroke:#181818;stroke-width:0.5;" x1="100" x2="336" y1="580.0469" y2="580.0469"/></g><!--MD5=[b461fef6a7ba6f6fc6681ac8d845c93a]
class Asignatura--><g id="elem_Asignatura"><rect codeLine="28" fill="#F1F1F1" height="153.6563" id="Asignatura" rx="2.5" ry="2.5" style="stroke:#181818;stroke-width:0.5;" width="187" x="276.5" y="648"/><ellipse cx="331.75" cy="664" fill="#ADD1B2" rx="11" ry="11" style="stroke:#181818;stroke-width:1.0;"/><path d="M330.6094,664.7969 L330.6094,667.2969 L334.9375,667.2969 L334.9375,666.375 Q334.9375,665.7656 335.1719,665.5 Q335.4219,665.2344 335.7969,665.2344 Q336.1719,665.2344 336.4063,665.5 Q336.6406,665.7656 336.6406,666.375 L336.6406,669 L328.6406,669 Q328.0156,669 327.75,668.7656 Q327.5,668.5313 327.5,668.1406 Q327.5,667.7656 327.7656,667.5313 Q328.0313,667.2969 328.6406,667.2969 L328.9063,667.2969 L328.9063,660.6406 L328.6406,660.6406 Q328.0156,660.6406 327.75,660.4063 Q327.5,660.1719 327.5,659.7813 Q327.5,659.4063 327.75,659.1719 Q328.0156,658.9375 328.6406,658.9375 L336.2656,658.9375 L336.2656,661.5313 Q336.2656,662.1406 336.0313,662.4063 Q335.8125,662.6563 335.4219,662.6563 Q335.0469,662.6563 334.8125,662.4063 Q334.5781,662.1406 334.5781,661.5313 L334.5781,660.6406 L330.6094,660.6406 L330.6094,663.0938 L332.0938,663.0938 Q332.0938,662.4375 332.2188,662.25 Q332.4844,661.8438 332.9531,661.8438 Q333.3281,661.8438 333.5625,662.1094 Q333.7969,662.3594 333.7969,662.9688 L333.7969,664.9375 Q333.7969,665.4844 333.6719,665.6719 Q333.4063,666.0625 332.9531,666.0625 Q332.4844,666.0625 332.2188,665.6563 Q332.0938,665.4688 332.0938,664.7969 L330.6094,664.7969 Z " fill="#000000"/><text fill="#000000" font-family="sans-serif" font-size="14" lengthAdjust="spacing" textLength="68" x="352.25" y="669.7285">Asignatura</text><line style="stroke:#181818;stroke-width:0.5;" x1="277.5" x2="462.5" y1="680" y2="680"/><ellipse cx="287.5" cy="694.3047" fill="#000000" rx="3" ry="3" style="stroke:#000000;stroke-width:1.0;"/><text fill="#000000" font-family="sans-serif" font-size="14" lengthAdjust="spacing" textLength="139" x="296.5" y="698.5332">idAsignatura : number</text><text fill="#000000" font-family="sans-serif" font-size="14" lengthAdjust="spacing" textLength="82" x="296.5" y="716.1426">nombre : text</text><text fill="#000000" font-family="sans-serif" font-size="14" lengthAdjust="spacing" textLength="161" x="296.5" y="733.752">fechaIncorporacion : date</text><text fill="#000000" font-family="sans-serif" font-size="14" lengthAdjust="spacing" textLength="147" x="296.5" y="751.3613">nrEstudiantes : number</text><text fill="#000000" font-family="sans-serif" font-size="14" lengthAdjust="spacing" textLength="87" x="296.5" y="768.9707">profesor : text</text><text fill="#000000" font-family="sans-serif" font-size="14" lengthAdjust="spacing" textLength="147" x="296.5" y="786.5801">idCurso : number «FK»</text><line style="stroke:#181818;stroke-width:0.5;" x1="277.5" x2="462.5" y1="793.6563" y2="793.6563"/></g><!--MD5=[5b14968682f2e46256dc8a570ae0d27b]
class PDI--><g id="elem_PDI"><rect codeLine="37" fill="#F1F1F1" height="136.0469" id="PDI" rx="2.5" ry="2.5" style="stroke:#181818;stroke-width:0.5;" width="182" x="7" y="657"/><ellipse cx="82.75" cy="673" fill="#ADD1B2" rx="11" ry="11" style="stroke:#181818;stroke-width:1.0;"/><path d="M81.6094,673.7969 L81.6094,676.2969 L85.9375,676.2969 L85.9375,675.375 Q85.9375,674.7656 86.1719,674.5 Q86.4219,674.2344 86.7969,674.2344 Q87.1719,674.2344 87.4063,674.5 Q87.6406,674.7656 87.6406,675.375 L87.6406,678 L79.6406,678 Q79.0156,678 78.75,677.7656 Q78.5,677.5313 78.5,677.1406 Q78.5,676.7656 78.7656,676.5313 Q79.0313,676.2969 79.6406,676.2969 L79.9063,676.2969 L79.9063,669.6406 L79.6406,669.6406 Q79.0156,669.6406 78.75,669.4063 Q78.5,669.1719 78.5,668.7813 Q78.5,668.4063 78.75,668.1719 Q79.0156,667.9375 79.6406,667.9375 L87.2656,667.9375 L87.2656,670.5313 Q87.2656,671.1406 87.0313,671.4063 Q86.8125,671.6563 86.4219,671.6563 Q86.0469,671.6563 85.8125,671.4063 Q85.5781,671.1406 85.5781,670.5313 L85.5781,669.6406 L81.6094,669.6406 L81.6094,672.0938 L83.0938,672.0938 Q83.0938,671.4375 83.2188,671.25 Q83.4844,670.8438 83.9531,670.8438 Q84.3281,670.8438 84.5625,671.1094 Q84.7969,671.3594 84.7969,671.9688 L84.7969,673.9375 Q84.7969,674.4844 84.6719,674.6719 Q84.4063,675.0625 83.9531,675.0625 Q83.4844,675.0625 83.2188,674.6563 Q83.0938,674.4688 83.0938,673.7969 L81.6094,673.7969 Z " fill="#000000"/><text fill="#000000" font-family="sans-serif" font-size="14" lengthAdjust="spacing" textLength="22" x="103.25" y="678.7285">PDI</text><line style="stroke:#181818;stroke-width:0.5;" x1="8" x2="188" y1="689" y2="689"/><ellipse cx="18" cy="703.3047" fill="#000000" rx="3" ry="3" style="stroke:#000000;stroke-width:1.0;"/><text fill="#000000" font-family="sans-serif" font-size="14" lengthAdjust="spacing" textLength="93" x="27" y="707.5332">idPDI : number</text><text fill="#000000" font-family="sans-serif" font-size="14" lengthAdjust="spacing" textLength="82" x="27" y="725.1426">nombre : text</text><text fill="#000000" font-family="sans-serif" font-size="14" lengthAdjust="spacing" textLength="156" x="27" y="742.752">fechaContratación : date</text><text fill="#000000" font-family="sans-serif" font-size="14" lengthAdjust="spacing" textLength="67" x="27" y="760.3613">email : text</text><text fill="#000000" font-family="sans-serif" font-size="14" lengthAdjust="spacing" textLength="85" x="27" y="777.9707">telefono : text</text><line style="stroke:#181818;stroke-width:0.5;" x1="8" x2="188" y1="785.0469" y2="785.0469"/></g><!--MD5=[36acb3e840b16351e2158aca66e9df6c]
class PAS--><g id="elem_PAS"><rect codeLine="45" fill="#F1F1F1" height="136.0469" id="PAS" rx="2.5" ry="2.5" style="stroke:#181818;stroke-width:0.5;" width="182" x="37" y="16"/><ellipse cx="110.25" cy="32" fill="#ADD1B2" rx="11" ry="11" style="stroke:#181818;stroke-width:1.0;"/><path d="M109.1094,32.7969 L109.1094,35.2969 L113.4375,35.2969 L113.4375,34.375 Q113.4375,33.7656 113.6719,33.5 Q113.9219,33.2344 114.2969,33.2344 Q114.6719,33.2344 114.9063,33.5 Q115.1406,33.7656 115.1406,34.375 L115.1406,37 L107.1406,37 Q106.5156,37 106.25,36.7656 Q106,36.5313 106,36.1406 Q106,35.7656 106.2656,35.5313 Q106.5313,35.2969 107.1406,35.2969 L107.4063,35.2969 L107.4063,28.6406 L107.1406,28.6406 Q106.5156,28.6406 106.25,28.4063 Q106,28.1719 106,27.7813 Q106,27.4063 106.25,27.1719 Q106.5156,26.9375 107.1406,26.9375 L114.7656,26.9375 L114.7656,29.5313 Q114.7656,30.1406 114.5313,30.4063 Q114.3125,30.6563 113.9219,30.6563 Q113.5469,30.6563 113.3125,30.4063 Q113.0781,30.1406 113.0781,29.5313 L113.0781,28.6406 L109.1094,28.6406 L109.1094,31.0938 L110.5938,31.0938 Q110.5938,30.4375 110.7188,30.25 Q110.9844,29.8438 111.4531,29.8438 Q111.8281,29.8438 112.0625,30.1094 Q112.2969,30.3594 112.2969,30.9688 L112.2969,32.9375 Q112.2969,33.4844 112.1719,33.6719 Q111.9063,34.0625 111.4531,34.0625 Q110.9844,34.0625 110.7188,33.6563 Q110.5938,33.4688 110.5938,32.7969 L109.1094,32.7969 Z " fill="#000000"/><text fill="#000000" font-family="sans-serif" font-size="14" lengthAdjust="spacing" textLength="27" x="130.75" y="37.7285">PAS</text><line style="stroke:#181818;stroke-width:0.5;" x1="38" x2="218" y1="48" y2="48"/><ellipse cx="48" cy="62.3047" fill="#000000" rx="3" ry="3" style="stroke:#000000;stroke-width:1.0;"/><text fill="#000000" font-family="sans-serif" font-size="14" lengthAdjust="spacing" textLength="98" x="57" y="66.5332">idPAS : number</text><text fill="#000000" font-family="sans-serif" font-size="14" lengthAdjust="spacing" textLength="82" x="57" y="84.1426">nombre : text</text><text fill="#000000" font-family="sans-serif" font-size="14" lengthAdjust="spacing" textLength="156" x="57" y="101.752">fechaContratacion : date</text><text fill="#000000" font-family="sans-serif" font-size="14" lengthAdjust="spacing" textLength="67" x="57" y="119.3613">email : text</text><text fill="#000000" font-family="sans-serif" font-size="14" lengthAdjust="spacing" textLength="85" x="57" y="136.9707">telefono : text</text><line style="stroke:#181818;stroke-width:0.5;" x1="38" x2="218" y1="144.0469" y2="144.0469"/></g><!--MD5=[aa9ebb045d22ec940c587c7180c59f8b]
class Curso--><g id="elem_Curso"><rect codeLine="53" fill="#F1F1F1" height="100.8281" id="Curso" rx="2.5" ry="2.5" style="stroke:#181818;stroke-width:0.5;" width="175" x="400.5" y="862"/><ellipse cx="464.75" cy="878" fill="#ADD1B2" rx="11" ry="11" style="stroke:#181818;stroke-width:1.0;"/><path d="M463.6094,878.7969 L463.6094,881.2969 L467.9375,881.2969 L467.9375,880.375 Q467.9375,879.7656 468.1719,879.5 Q468.4219,879.2344 468.7969,879.2344 Q469.1719,879.2344 469.4063,879.5 Q469.6406,879.7656 469.6406,880.375 L469.6406,883 L461.6406,883 Q461.0156,883 460.75,882.7656 Q460.5,882.5313 460.5,882.1406 Q460.5,881.7656 460.7656,881.5313 Q461.0313,881.2969 461.6406,881.2969 L461.9063,881.2969 L461.9063,874.6406 L461.6406,874.6406 Q461.0156,874.6406 460.75,874.4063 Q460.5,874.1719 460.5,873.7813 Q460.5,873.4063 460.75,873.1719 Q461.0156,872.9375 461.6406,872.9375 L469.2656,872.9375 L469.2656,875.5313 Q469.2656,876.1406 469.0313,876.4063 Q468.8125,876.6563 468.4219,876.6563 Q468.0469,876.6563 467.8125,876.4063 Q467.5781,876.1406 467.5781,875.5313 L467.5781,874.6406 L463.6094,874.6406 L463.6094,877.0938 L465.0938,877.0938 Q465.0938,876.4375 465.2188,876.25 Q465.4844,875.8438 465.9531,875.8438 Q466.3281,875.8438 466.5625,876.1094 Q466.7969,876.3594 466.7969,876.9688 L466.7969,878.9375 Q466.7969,879.4844 466.6719,879.6719 Q466.4063,880.0625 465.9531,880.0625 Q465.4844,880.0625 465.2188,879.6563 Q465.0938,879.4688 465.0938,878.7969 L463.6094,878.7969 Z " fill="#000000"/><text fill="#000000" font-family="sans-serif" font-size="14" lengthAdjust="spacing" textLength="38" x="485.25" y="883.7285">Curso</text><line style="stroke:#181818;stroke-width:0.5;" x1="401.5" x2="574.5" y1="894" y2="894"/><ellipse cx="411.5" cy="908.3047" fill="#000000" rx="3" ry="3" style="stroke:#000000;stroke-width:1.0;"/><text fill="#000000" font-family="sans-serif" font-size="14" lengthAdjust="spacing" textLength="109" x="420.5" y="912.5332">idCurso : number</text><text fill="#000000" font-family="sans-serif" font-size="14" lengthAdjust="spacing" textLength="110" x="420.5" y="930.1426">coordinador : text</text><ellipse cx="411.5" cy="943.5234" fill="#000000" rx="3" ry="3" style="stroke:#000000;stroke-width:1.0;"/><text fill="#000000" font-family="sans-serif" font-size="14" lengthAdjust="spacing" textLength="149" x="420.5" y="947.752">idGrado : number «FK»</text><line style="stroke:#181818;stroke-width:0.5;" x1="401.5" x2="574.5" y1="954.8281" y2="954.8281"/></g><!--MD5=[05e79642835c250851fe35b5cede5c48]
class Grupo--><g id="elem_Grupo"><rect codeLine="59" fill="#F1F1F1" height="83.2188" id="Grupo" rx="2.5" ry="2.5" style="stroke:#181818;stroke-width:0.5;" width="173" x="431.5" y="1049.5"/><ellipse cx="493.75" cy="1065.5" fill="#ADD1B2" rx="11" ry="11" style="stroke:#181818;stroke-width:1.0;"/><path d="M492.6094,1066.2969 L492.6094,1068.7969 L496.9375,1068.7969 L496.9375,1067.875 Q496.9375,1067.2656 497.1719,1067 Q497.4219,1066.7344 497.7969,1066.7344 Q498.1719,1066.7344 498.4063,1067 Q498.6406,1067.2656 498.6406,1067.875 L498.6406,1070.5 L490.6406,1070.5 Q490.0156,1070.5 489.75,1070.2656 Q489.5,1070.0313 489.5,1069.6406 Q489.5,1069.2656 489.7656,1069.0313 Q490.0313,1068.7969 490.6406,1068.7969 L490.9063,1068.7969 L490.9063,1062.1406 L490.6406,1062.1406 Q490.0156,1062.1406 489.75,1061.9063 Q489.5,1061.6719 489.5,1061.2813 Q489.5,1060.9063 489.75,1060.6719 Q490.0156,1060.4375 490.6406,1060.4375 L498.2656,1060.4375 L498.2656,1063.0313 Q498.2656,1063.6406 498.0313,1063.9063 Q497.8125,1064.1563 497.4219,1064.1563 Q497.0469,1064.1563 496.8125,1063.9063 Q496.5781,1063.6406 496.5781,1063.0313 L496.5781,1062.1406 L492.6094,1062.1406 L492.6094,1064.5938 L494.0938,1064.5938 Q494.0938,1063.9375 494.2188,1063.75 Q494.4844,1063.3438 494.9531,1063.3438 Q495.3281,1063.3438 495.5625,1063.6094 Q495.7969,1063.8594 495.7969,1064.4688 L495.7969,1066.4375 Q495.7969,1066.9844 495.6719,1067.1719 Q495.4063,1067.5625 494.9531,1067.5625 Q494.4844,1067.5625 494.2188,1067.1563 Q494.0938,1066.9688 494.0938,1066.2969 L492.6094,1066.2969 Z " fill="#000000"/><text fill="#000000" font-family="sans-serif" font-size="14" lengthAdjust="spacing" textLength="40" x="514.25" y="1071.2285">Grupo</text><line style="stroke:#181818;stroke-width:0.5;" x1="432.5" x2="603.5" y1="1081.5" y2="1081.5"/><ellipse cx="442.5" cy="1095.8047" fill="#000000" rx="3" ry="3" style="stroke:#000000;stroke-width:1.0;"/><text fill="#000000" font-family="sans-serif" font-size="14" lengthAdjust="spacing" textLength="111" x="451.5" y="1100.0332">idGrupo : number</text><ellipse cx="442.5" cy="1113.4141" fill="#000000" rx="3" ry="3" style="stroke:#000000;stroke-width:1.0;"/><text fill="#000000" font-family="sans-serif" font-size="14" lengthAdjust="spacing" textLength="147" x="451.5" y="1117.6426">idCurso : number «FK»</text><line style="stroke:#181818;stroke-width:0.5;" x1="432.5" x2="603.5" y1="1124.7188" y2="1124.7188"/></g><!--MD5=[0cb4a791058503f2fa7d036bf9e18857]
class Grado--><g id="elem_Grado"><rect codeLine="64" fill="#F1F1F1" height="136.0469" id="Grado" rx="2.5" ry="2.5" style="stroke:#181818;stroke-width:0.5;" width="209" x="654.5" y="1023"/><ellipse cx="734.75" cy="1039" fill="#ADD1B2" rx="11" ry="11" style="stroke:#181818;stroke-width:1.0;"/><path d="M733.6094,1039.7969 L733.6094,1042.2969 L737.9375,1042.2969 L737.9375,1041.375 Q737.9375,1040.7656 738.1719,1040.5 Q738.4219,1040.2344 738.7969,1040.2344 Q739.1719,1040.2344 739.4063,1040.5 Q739.6406,1040.7656 739.6406,1041.375 L739.6406,1044 L731.6406,1044 Q731.0156,1044 730.75,1043.7656 Q730.5,1043.5313 730.5,1043.1406 Q730.5,1042.7656 730.7656,1042.5313 Q731.0313,1042.2969 731.6406,1042.2969 L731.9063,1042.2969 L731.9063,1035.6406 L731.6406,1035.6406 Q731.0156,1035.6406 730.75,1035.4063 Q730.5,1035.1719 730.5,1034.7813 Q730.5,1034.4063 730.75,1034.1719 Q731.0156,1033.9375 731.6406,1033.9375 L739.2656,1033.9375 L739.2656,1036.5313 Q739.2656,1037.1406 739.0313,1037.4063 Q738.8125,1037.6563 738.4219,1037.6563 Q738.0469,1037.6563 737.8125,1037.4063 Q737.5781,1037.1406 737.5781,1036.5313 L737.5781,1035.6406 L733.6094,1035.6406 L733.6094,1038.0938 L735.0938,1038.0938 Q735.0938,1037.4375 735.2188,1037.25 Q735.4844,1036.8438 735.9531,1036.8438 Q736.3281,1036.8438 736.5625,1037.1094 Q736.7969,1037.3594 736.7969,1037.9688 L736.7969,1039.9375 Q736.7969,1040.4844 736.6719,1040.6719 Q736.4063,1041.0625 735.9531,1041.0625 Q735.4844,1041.0625 735.2188,1040.6563 Q735.0938,1040.4688 735.0938,1039.7969 L733.6094,1039.7969 Z " fill="#000000"/><text fill="#000000" font-family="sans-serif" font-size="14" lengthAdjust="spacing" textLength="40" x="755.25" y="1044.7285">Grado</text><line style="stroke:#181818;stroke-width:0.5;" x1="655.5" x2="862.5" y1="1055" y2="1055"/><ellipse cx="665.5" cy="1069.3047" fill="#000000" rx="3" ry="3" style="stroke:#000000;stroke-width:1.0;"/><text fill="#000000" font-family="sans-serif" font-size="14" lengthAdjust="spacing" textLength="111" x="674.5" y="1073.5332">idGrado : number</text><text fill="#000000" font-family="sans-serif" font-size="14" lengthAdjust="spacing" textLength="122" x="674.5" y="1091.1426">nombreGrado : text</text><text fill="#000000" font-family="sans-serif" font-size="14" lengthAdjust="spacing" textLength="66" x="674.5" y="1108.752">rama : text</text><text fill="#000000" font-family="sans-serif" font-size="14" lengthAdjust="spacing" textLength="110" x="674.5" y="1126.3613">coordinador : text</text><ellipse cx="665.5" cy="1139.7422" fill="#000000" rx="3" ry="3" style="stroke:#000000;stroke-width:1.0;"/><text fill="#000000" font-family="sans-serif" font-size="14" lengthAdjust="spacing" textLength="183" x="674.5" y="1143.9707">idUniversidad : number «FK»</text><line style="stroke:#181818;stroke-width:0.5;" x1="655.5" x2="862.5" y1="1151.0469" y2="1151.0469"/></g><!--MD5=[e80896688fdcdff1ec203b48a8b7f882]
class Universidad--><g id="elem_Universidad"><rect codeLine="72" fill="#F1F1F1" height="153.6563" id="Universidad" rx="2.5" ry="2.5" style="stroke:#181818;stroke-width:0.5;" width="171" x="492.5" y="7"/><ellipse cx="536.75" cy="23" fill="#ADD1B2" rx="11" ry="11" style="stroke:#181818;stroke-width:1.0;"/><path d="M535.6094,23.7969 L535.6094,26.2969 L539.9375,26.2969 L539.9375,25.375 Q539.9375,24.7656 540.1719,24.5 Q540.4219,24.2344 540.7969,24.2344 Q541.1719,24.2344 541.4063,24.5 Q541.6406,24.7656 541.6406,25.375 L541.6406,28 L533.6406,28 Q533.0156,28 532.75,27.7656 Q532.5,27.5313 532.5,27.1406 Q532.5,26.7656 532.7656,26.5313 Q533.0313,26.2969 533.6406,26.2969 L533.9063,26.2969 L533.9063,19.6406 L533.6406,19.6406 Q533.0156,19.6406 532.75,19.4063 Q532.5,19.1719 532.5,18.7813 Q532.5,18.4063 532.75,18.1719 Q533.0156,17.9375 533.6406,17.9375 L541.2656,17.9375 L541.2656,20.5313 Q541.2656,21.1406 541.0313,21.4063 Q540.8125,21.6563 540.4219,21.6563 Q540.0469,21.6563 539.8125,21.4063 Q539.5781,21.1406 539.5781,20.5313 L539.5781,19.6406 L535.6094,19.6406 L535.6094,22.0938 L537.0938,22.0938 Q537.0938,21.4375 537.2188,21.25 Q537.4844,20.8438 537.9531,20.8438 Q538.3281,20.8438 538.5625,21.1094 Q538.7969,21.3594 538.7969,21.9688 L538.7969,23.9375 Q538.7969,24.4844 538.6719,24.6719 Q538.4063,25.0625 537.9531,25.0625 Q537.4844,25.0625 537.2188,24.6563 Q537.0938,24.4688 537.0938,23.7969 L535.6094,23.7969 Z " fill="#000000"/><text fill="#000000" font-family="sans-serif" font-size="14" lengthAdjust="spacing" textLength="74" x="557.25" y="28.7285">Universidad</text><line style="stroke:#181818;stroke-width:0.5;" x1="493.5" x2="662.5" y1="39" y2="39"/><ellipse cx="503.5" cy="53.3047" fill="#000000" rx="3" ry="3" style="stroke:#000000;stroke-width:1.0;"/><text fill="#000000" font-family="sans-serif" font-size="14" lengthAdjust="spacing" textLength="145" x="512.5" y="57.5332">idUniversidad : number</text><text fill="#000000" font-family="sans-serif" font-size="14" lengthAdjust="spacing" textLength="82" x="512.5" y="75.1426">nombre : text</text><text fill="#000000" font-family="sans-serif" font-size="14" lengthAdjust="spacing" textLength="91" x="512.5" y="92.752">direccion : text</text><text fill="#000000" font-family="sans-serif" font-size="14" lengthAdjust="spacing" textLength="103" x="512.5" y="110.3613">nrTelefono : text</text><text fill="#000000" font-family="sans-serif" font-size="14" lengthAdjust="spacing" textLength="67" x="512.5" y="127.9707">email : text</text><text fill="#000000" font-family="sans-serif" font-size="14" lengthAdjust="spacing" textLength="59" x="512.5" y="145.5801">web : text</text><line style="stroke:#181818;stroke-width:0.5;" x1="493.5" x2="662.5" y1="152.6563" y2="152.6563"/></g><!--MD5=[836b32563bca47aa5a777c8632fb9753]
class AsHor--><g id="elem_AsHor"><rect codeLine="81" fill="#F1F1F1" height="118.4375" id="AsHor" rx="2.5" ry="2.5" style="stroke:#181818;stroke-width:0.5;" width="203" x="372.5" y="461"/><ellipse cx="410" cy="477" fill="#ADD1B2" rx="11" ry="11" style="stroke:#181818;stroke-width:1.0;"/><path d="M408.8594,477.7969 L408.8594,480.2969 L413.1875,480.2969 L413.1875,479.375 Q413.1875,478.7656 413.4219,478.5 Q413.6719,478.2344 414.0469,478.2344 Q414.4219,478.2344 414.6563,478.5 Q414.8906,478.7656 414.8906,479.375 L414.8906,482 L406.8906,482 Q406.2656,482 406,481.7656 Q405.75,481.5313 405.75,481.1406 Q405.75,480.7656 406.0156,480.5313 Q406.2813,480.2969 406.8906,480.2969 L407.1563,480.2969 L407.1563,473.6406 L406.8906,473.6406 Q406.2656,473.6406 406,473.4063 Q405.75,473.1719 405.75,472.7813 Q405.75,472.4063 406,472.1719 Q406.2656,471.9375 406.8906,471.9375 L414.5156,471.9375 L414.5156,474.5313 Q414.5156,475.1406 414.2813,475.4063 Q414.0625,475.6563 413.6719,475.6563 Q413.2969,475.6563 413.0625,475.4063 Q412.8281,475.1406 412.8281,474.5313 L412.8281,473.6406 L408.8594,473.6406 L408.8594,476.0938 L410.3438,476.0938 Q410.3438,475.4375 410.4688,475.25 Q410.7344,474.8438 411.2031,474.8438 Q411.5781,474.8438 411.8125,475.1094 Q412.0469,475.3594 412.0469,475.9688 L412.0469,477.9375 Q412.0469,478.4844 411.9219,478.6719 Q411.6563,479.0625 411.2031,479.0625 Q410.7344,479.0625 410.4688,478.6563 Q410.3438,478.4688 410.3438,477.7969 L408.8594,477.7969 Z " fill="#000000"/><text fill="#000000" font-family="sans-serif" font-size="14" lengthAdjust="spacing" textLength="121" x="429" y="482.7285">Asignatura_horario</text><line style="stroke:#181818;stroke-width:0.5;" x1="373.5" x2="574.5" y1="493" y2="493"/><ellipse cx="383.5" cy="507.3047" fill="#000000" rx="3" ry="3" style="stroke:#000000;stroke-width:1.0;"/><text fill="#000000" font-family="sans-serif" font-size="14" lengthAdjust="spacing" textLength="155" x="392.5" y="511.5332">idHorario : number «FK»</text><ellipse cx="383.5" cy="524.9141" fill="#000000" rx="3" ry="3" style="stroke:#000000;stroke-width:1.0;"/><text fill="#000000" font-family="sans-serif" font-size="14" lengthAdjust="spacing" textLength="177" x="392.5" y="529.1426">idAsignatura : number «FK»</text><ellipse cx="383.5" cy="542.5234" fill="#000000" rx="3" ry="3" style="stroke:#000000;stroke-width:1.0;"/><text fill="#000000" font-family="sans-serif" font-size="14" lengthAdjust="spacing" textLength="145" x="392.5" y="546.752">idClase : number «FK»</text><text fill="#000000" font-family="sans-serif" font-size="14" lengthAdjust="spacing" textLength="63" x="392.5" y="564.3613">hora : text</text><line style="stroke:#181818;stroke-width:0.5;" x1="373.5" x2="574.5" y1="571.4375" y2="571.4375"/></g><!--MD5=[3c10f90f2e752fdd6303ce3bb43dd7eb]
class Clase--><g id="elem_Clase"><rect codeLine="88" fill="#F1F1F1" height="100.8281" id="Clase" rx="2.5" ry="2.5" style="stroke:#181818;stroke-width:0.5;" width="209" x="285.5" y="256"/><ellipse cx="367.75" cy="272" fill="#ADD1B2" rx="11" ry="11" style="stroke:#181818;stroke-width:1.0;"/><path d="M366.6094,272.7969 L366.6094,275.2969 L370.9375,275.2969 L370.9375,274.375 Q370.9375,273.7656 371.1719,273.5 Q371.4219,273.2344 371.7969,273.2344 Q372.1719,273.2344 372.4063,273.5 Q372.6406,273.7656 372.6406,274.375 L372.6406,277 L364.6406,277 Q364.0156,277 363.75,276.7656 Q363.5,276.5313 363.5,276.1406 Q363.5,275.7656 363.7656,275.5313 Q364.0313,275.2969 364.6406,275.2969 L364.9063,275.2969 L364.9063,268.6406 L364.6406,268.6406 Q364.0156,268.6406 363.75,268.4063 Q363.5,268.1719 363.5,267.7813 Q363.5,267.4063 363.75,267.1719 Q364.0156,266.9375 364.6406,266.9375 L372.2656,266.9375 L372.2656,269.5313 Q372.2656,270.1406 372.0313,270.4063 Q371.8125,270.6563 371.4219,270.6563 Q371.0469,270.6563 370.8125,270.4063 Q370.5781,270.1406 370.5781,269.5313 L370.5781,268.6406 L366.6094,268.6406 L366.6094,271.0938 L368.0938,271.0938 Q368.0938,270.4375 368.2188,270.25 Q368.4844,269.8438 368.9531,269.8438 Q369.3281,269.8438 369.5625,270.1094 Q369.7969,270.3594 369.7969,270.9688 L369.7969,272.9375 Q369.7969,273.4844 369.6719,273.6719 Q369.4063,274.0625 368.9531,274.0625 Q368.4844,274.0625 368.2188,273.6563 Q368.0938,273.4688 368.0938,272.7969 L366.6094,272.7969 Z " fill="#000000"/><text fill="#000000" font-family="sans-serif" font-size="14" lengthAdjust="spacing" textLength="36" x="388.25" y="277.7285">Clase</text><line style="stroke:#181818;stroke-width:0.5;" x1="286.5" x2="493.5" y1="288" y2="288"/><ellipse cx="296.5" cy="302.3047" fill="#000000" rx="3" ry="3" style="stroke:#000000;stroke-width:1.0;"/><text fill="#000000" font-family="sans-serif" font-size="14" lengthAdjust="spacing" textLength="107" x="305.5" y="306.5332">idClase : number</text><text fill="#000000" font-family="sans-serif" font-size="14" lengthAdjust="spacing" textLength="183" x="305.5" y="324.1426">idUniversidad : number «FK»</text><text fill="#000000" font-family="sans-serif" font-size="14" lengthAdjust="spacing" textLength="93" x="305.5" y="341.752">aforo : number</text><line style="stroke:#181818;stroke-width:0.5;" x1="286.5" x2="493.5" y1="348.8281" y2="348.8281"/></g><!--MD5=[ac5eaaf417a39f983bc586a596f447ad]
class AsPDI--><g id="elem_AsPDI"><rect codeLine="94" fill="#F1F1F1" height="83.2188" id="AsPDI" rx="2.5" ry="2.5" style="stroke:#181818;stroke-width:0.5;" width="203" x="105.5" y="871"/><ellipse cx="153.75" cy="887" fill="#ADD1B2" rx="11" ry="11" style="stroke:#181818;stroke-width:1.0;"/><path d="M152.6094,887.7969 L152.6094,890.2969 L156.9375,890.2969 L156.9375,889.375 Q156.9375,888.7656 157.1719,888.5 Q157.4219,888.2344 157.7969,888.2344 Q158.1719,888.2344 158.4063,888.5 Q158.6406,888.7656 158.6406,889.375 L158.6406,892 L150.6406,892 Q150.0156,892 149.75,891.7656 Q149.5,891.5313 149.5,891.1406 Q149.5,890.7656 149.7656,890.5313 Q150.0313,890.2969 150.6406,890.2969 L150.9063,890.2969 L150.9063,883.6406 L150.6406,883.6406 Q150.0156,883.6406 149.75,883.4063 Q149.5,883.1719 149.5,882.7813 Q149.5,882.4063 149.75,882.1719 Q150.0156,881.9375 150.6406,881.9375 L158.2656,881.9375 L158.2656,884.5313 Q158.2656,885.1406 158.0313,885.4063 Q157.8125,885.6563 157.4219,885.6563 Q157.0469,885.6563 156.8125,885.4063 Q156.5781,885.1406 156.5781,884.5313 L156.5781,883.6406 L152.6094,883.6406 L152.6094,886.0938 L154.0938,886.0938 Q154.0938,885.4375 154.2188,885.25 Q154.4844,884.8438 154.9531,884.8438 Q155.3281,884.8438 155.5625,885.1094 Q155.7969,885.3594 155.7969,885.9688 L155.7969,887.9375 Q155.7969,888.4844 155.6719,888.6719 Q155.4063,889.0625 154.9531,889.0625 Q154.4844,889.0625 154.2188,888.6563 Q154.0938,888.4688 154.0938,887.7969 L152.6094,887.7969 Z " fill="#000000"/><text fill="#000000" font-family="sans-serif" font-size="14" lengthAdjust="spacing" textLength="98" x="174.25" y="892.7285">Asignatura_PDI</text><line style="stroke:#181818;stroke-width:0.5;" x1="106.5" x2="307.5" y1="903" y2="903"/><ellipse cx="116.5" cy="917.3047" fill="#000000" rx="3" ry="3" style="stroke:#000000;stroke-width:1.0;"/><text fill="#000000" font-family="sans-serif" font-size="14" lengthAdjust="spacing" textLength="131" x="125.5" y="921.5332">idPDI : number «FK»</text><ellipse cx="116.5" cy="934.9141" fill="#000000" rx="3" ry="3" style="stroke:#000000;stroke-width:1.0;"/><text fill="#000000" font-family="sans-serif" font-size="14" lengthAdjust="spacing" textLength="177" x="125.5" y="939.1426">idAsignatura : number «FK»</text><line style="stroke:#181818;stroke-width:0.5;" x1="106.5" x2="307.5" y1="946.2188" y2="946.2188"/></g><!--MD5=[9a483e273c1b9882adbd15fee2e43daf]
link PAS to Estudiante--><g id="link_PAS_Estudiante"><path codeLine="99" d="M128,160.3 C128,177.04 128,194.97 128,212.33 " fill="none" id="PAS-Estudiante" style="stroke:#181818;stroke-width:1.0;stroke-dasharray:7.0,7.0;"/><line style="stroke:#181818;stroke-width:1.0;" x1="128" x2="134" y1="212.8" y2="220.8"/><line style="stroke:#181818;stroke-width:1.0;" x1="128" x2="122" y1="212.8" y2="220.8"/><line style="stroke:#181818;stroke-width:1.0;" x1="128" x2="128" y1="212.8" y2="220.8"/><line style="stroke:#181818;stroke-width:1.0;" x1="132" x2="124" y1="210.8" y2="210.8"/><line style="stroke:#181818;stroke-width:1.0;" x1="124" x2="132" y1="156.06" y2="156.06"/><line style="stroke:#181818;stroke-width:1.0;" x1="124" x2="132" y1="159.06" y2="159.06"/><line style="stroke:#181818;stroke-width:1.0;" x1="128" x2="128" y1="160.06" y2="152.06"/></g><!--MD5=[3c0cec8431d9b4276ac51329a745daf1]
link Estudiante to PDI--><g id="link_Estudiante_PDI"><path codeLine="100" d="M93.14,400.13 C88.1,417.16 83.7,434.94 81,452 C70.53,518.03 76.8,594.04 84.52,648.89 " fill="none" id="Estudiante-PDI" style="stroke:#181818;stroke-width:1.0;stroke-dasharray:7.0,7.0;"/><line style="stroke:#181818;stroke-width:1.0;" x1="89.0392" x2="81.1234" y1="652.2834" y2="653.4408"/><line style="stroke:#181818;stroke-width:1.0;" x1="88.6052" x2="80.6894" y1="649.315" y2="650.4723"/><line style="stroke:#181818;stroke-width:1.0;" x1="84.5026" x2="85.66" y1="648.9042" y2="656.82"/><line style="stroke:#181818;stroke-width:1.0;" x1="93.1724" x2="89.7596" y1="400.0239" y2="390.6243"/><line style="stroke:#181818;stroke-width:1.0;" x1="93.1724" x2="101.2404" y1="400.0239" y2="394.1157"/><line style="stroke:#181818;stroke-width:1.0;" x1="93.1724" x2="95.5" y1="400.0239" y2="392.37"/><line style="stroke:#181818;stroke-width:1.0;" x1="88.7636" x2="96.4175" y1="400.7736" y2="403.1012"/></g><!--MD5=[c58af6b050bee9ba26d20daff221a0b2]
link Estudiante to EsAs--><g id="link_Estudiante_EsAs"><path codeLine="102" d="M167.15,399.51 C173.53,414.5 180.07,429.87 186.25,444.38 " fill="none" id="Estudiante-EsAs" style="stroke:#181818;stroke-width:1.0;"/><line style="stroke:#181818;stroke-width:1.0;" x1="186.2973" x2="194.9576" y1="444.5232" y2="449.523"/><line style="stroke:#181818;stroke-width:1.0;" x1="186.2973" x2="183.9224" y1="444.5232" y2="454.237"/><line style="stroke:#181818;stroke-width:1.0;" x1="186.2973" x2="189.44" y1="444.5232" y2="451.88"/><line style="stroke:#181818;stroke-width:1.0;" x1="189.19" x2="181.8332" y1="441.1126" y2="444.2553"/><line style="stroke:#181818;stroke-width:1.0;" x1="161.8407" x2="169.2048" y1="397.2448" y2="394.1193"/><line style="stroke:#181818;stroke-width:1.0;" x1="163.0127" x2="170.3769" y1="400.0064" y2="396.8809"/><line style="stroke:#181818;stroke-width:1.0;" x1="167.0855" x2="163.96" y1="399.3642" y2="392"/></g><!--MD5=[9850b81b902e91bee6f13df73b353d11]
link EsAs to Asignatura--><g id="link_EsAs_Asignatura"><path codeLine="103" d="M273.29,594.84 C284.61,609.96 296.58,625.95 308.11,641.35 " fill="none" id="EsAs-Asignatura" style="stroke:#181818;stroke-width:1.0;"/><line style="stroke:#181818;stroke-width:1.0;" x1="313.828" x2="307.4211" y1="642.3111" y2="647.102"/><line style="stroke:#181818;stroke-width:1.0;" x1="312.0314" x2="305.6246" y1="639.9086" y2="644.6994"/><line style="stroke:#181818;stroke-width:1.0;" x1="308.2292" x2="313.02" y1="641.5031" y2="647.91"/><line style="stroke:#181818;stroke-width:1.0;" x1="272.9808" x2="263.3849" y1="594.4369" y2="591.6231"/><line style="stroke:#181818;stroke-width:1.0;" x1="272.9808" x2="272.9951" y1="594.4369" y2="584.4369"/><line style="stroke:#181818;stroke-width:1.0;" x1="272.9808" x2="268.19" y1="594.4369" y2="588.03"/><line style="stroke:#181818;stroke-width:1.0;" x1="270.9751" x2="277.382" y1="598.434" y2="593.6432"/></g><!--MD5=[854db1adf864bce446a41f9f8b6a4789]
link Asignatura to Curso--><g id="link_Asignatura_Curso"><path codeLine="105" d="M423.02,809.35 C432.81,824.74 442.82,840.47 451.96,854.84 " fill="none" id="Asignatura-Curso" style="stroke:#181818;stroke-width:1.0;stroke-dasharray:7.0,7.0;"/><line style="stroke:#181818;stroke-width:1.0;" x1="457.5971" x2="450.8479" y1="856.2579" y2="860.5529"/><line style="stroke:#181818;stroke-width:1.0;" x1="455.9865" x2="449.2372" y1="853.7269" y2="858.0219"/><line style="stroke:#181818;stroke-width:1.0;" x1="452.075" x2="456.37" y1="855.0307" y2="861.78"/><line style="stroke:#181818;stroke-width:1.0;" x1="422.8115" x2="413.4511" y1="808.9952" y2="805.4761"/><line style="stroke:#181818;stroke-width:1.0;" x1="422.8115" x2="423.5689" y1="808.9952" y2="799.0239"/><line style="stroke:#181818;stroke-width:1.0;" x1="422.8115" x2="418.51" y1="808.9952" y2="802.25"/><line style="stroke:#181818;stroke-width:1.0;" x1="420.5143" x2="427.2594" y1="812.8322" y2="808.5307"/></g><!--MD5=[fe6bce91ba0078d5b32242feb250b82b]
link Curso to Grado--><g id="link_Curso_Grado"><path codeLine="107" d="M570.96,967.53 C595.62,983.59 623.02,1001.44 649.1,1018.42 " fill="none" id="Curso-Grado" style="stroke:#181818;stroke-width:1.0;"/><line style="stroke:#181818;stroke-width:1.0;" x1="654.882" x2="650.5272" y1="1017.4272" y2="1024.138"/><line style="stroke:#181818;stroke-width:1.0;" x1="652.3655" x2="648.0106" y1="1015.7941" y2="1022.5049"/><line style="stroke:#181818;stroke-width:1.0;" x1="649.3492" x2="656.06" y1="1018.6051" y2="1022.96"/><line style="stroke:#181818;stroke-width:1.0;" x1="570.9208" x2="560.9438" y1="967.4849" y2="968.1631"/><line style="stroke:#181818;stroke-width:1.0;" x1="570.9208" x2="567.4762" y1="967.4849" y2="958.0969"/><line style="stroke:#181818;stroke-width:1.0;" x1="570.9208" x2="564.21" y1="967.4849" y2="963.13"/><line style="stroke:#181818;stroke-width:1.0;" x1="570.4211" x2="574.776" y1="971.929" y2="965.2182"/></g><!--MD5=[4a9fc01f576fac99a80d4f692b90928a]
link Universidad to Grado--><g id="link_Universidad_Grado"><path codeLine="109" d="M670.12,148.37 C693.3,168.85 715.65,193.47 730,221 C791.67,339.3 766,385.59 766,519 C766,519 766,519 766,726 C766,825.81 763.34,940.99 761.3,1014.6 " fill="none" id="Universidad-Grado" style="stroke:#181818;stroke-width:1.0;"/><line style="stroke:#181818;stroke-width:1.0;" x1="761.2885" x2="767.0576" y1="1014.9233" y2="1023.0914"/><line style="stroke:#181818;stroke-width:1.0;" x1="761.2885" x2="755.0624" y1="1014.9233" y2="1022.7486"/><line style="stroke:#181818;stroke-width:1.0;" x1="761.2885" x2="761.06" y1="1014.9233" y2="1022.92"/><line style="stroke:#181818;stroke-width:1.0;" x1="765.344" x2="757.3472" y1="1013.0383" y2="1012.8098"/><line style="stroke:#181818;stroke-width:1.0;" x1="664.2976" x2="669.5321" y1="148.6221" y2="142.5724"/><line style="stroke:#181818;stroke-width:1.0;" x1="666.5663" x2="671.8008" y1="150.5851" y2="144.5353"/><line style="stroke:#181818;stroke-width:1.0;" x1="669.9398" x2="663.89" y1="148.2145" y2="142.98"/></g><!--MD5=[c8a30bb16b96a8b9a8377e06d9d8f186]
link Curso to Grupo--><g id="link_Curso_Grupo"><path codeLine="111" d="M497.82,971.27 C501.67,993.9 506.03,1019.58 509.72,1041.26 " fill="none" id="Curso-Grupo" style="stroke:#181818;stroke-width:1.0;"/><line style="stroke:#181818;stroke-width:1.0;" x1="509.747" x2="517.0049" y1="1041.4635" y2="1048.3428"/><line style="stroke:#181818;stroke-width:1.0;" x1="509.747" x2="505.1751" y1="1041.4635" y2="1050.3572"/><line style="stroke:#181818;stroke-width:1.0;" x1="509.747" x2="511.09" y1="1041.4635" y2="1049.35"/><line style="stroke:#181818;stroke-width:1.0;" x1="513.3545" x2="505.468" y1="1038.8204" y2="1040.1634"/><line style="stroke:#181818;stroke-width:1.0;" x1="493.1683" x2="501.0547" y1="967.7447" y2="966.4017"/><line style="stroke:#181818;stroke-width:1.0;" x1="493.6719" x2="501.5583" y1="970.7022" y2="969.3592"/><line style="stroke:#181818;stroke-width:1.0;" x1="497.783" x2="496.44" y1="971.0165" y2="963.13"/></g><!--MD5=[8238dbfad7aef49ef8aa9812be0664af]
link Grupo to Horario--><g id="link_Grupo_Horario"><path codeLine="113" d="M553.14,1043.22 C568.34,1020.29 584.55,991.51 593,963 C653.2,759.82 640.69,505.76 629.36,382.08 " fill="none" id="Grupo-Horario" style="stroke:#181818;stroke-width:1.0;"/><line style="stroke:#181818;stroke-width:1.0;" x1="625.073" x2="633.0377" y1="379.1977" y2="378.447"/><line style="stroke:#181818;stroke-width:1.0;" x1="625.3546" x2="633.3193" y1="382.1845" y2="381.4337"/><line style="stroke:#181818;stroke-width:1.0;" x1="629.4308" x2="628.68" y1="382.8047" y2="374.84"/><line style="stroke:#181818;stroke-width:1.0;" x1="554.642" x2="548.0057" y1="1048.1457" y2="1043.678"/><line style="stroke:#181818;stroke-width:1.0;" x1="556.3173" x2="549.6811" y1="1045.6571" y2="1041.1894"/><line style="stroke:#181818;stroke-width:1.0;" x1="553.5577" x2="549.09" y1="1042.5937" y2="1049.23"/></g><!--MD5=[4e83d961622a402662418b42dbae3389]
link Horario to AsHor--><g id="link_Horario_AsHor"><path codeLine="115" d="M569.49,381.6 C553.06,405.26 535,431.23 519.06,454.17 " fill="none" id="Horario-AsHor" style="stroke:#181818;stroke-width:1.0;"/><line style="stroke:#181818;stroke-width:1.0;" x1="518.9685" x2="519.3254" y1="454.3028" y2="464.2964"/><line style="stroke:#181818;stroke-width:1.0;" x1="518.9685" x2="509.4746" y1="454.3028" y2="457.4436"/><line style="stroke:#181818;stroke-width:1.0;" x1="518.9685" x2="514.4" y1="454.3028" y2="460.87"/><line style="stroke:#181818;stroke-width:1.0;" x1="523.3943" x2="516.827" y1="454.9452" y2="450.3767"/><line style="stroke:#181818;stroke-width:1.0;" x1="568.7221" x2="575.2894" y1="375.7094" y2="380.2779"/><line style="stroke:#181818;stroke-width:1.0;" x1="567.0089" x2="573.5762" y1="378.1721" y2="382.7406"/><line style="stroke:#181818;stroke-width:1.0;" x1="569.7215" x2="574.29" y1="381.2772" y2="374.71"/></g><!--MD5=[38d2b83d9961392558460bb4ecc24053]
link AsHor to Asignatura--><g id="link_AsHor_Asignatura"><path codeLine="116" d="M440.43,586.53 C431.62,603.73 421.99,622.51 412.77,640.51 " fill="none" id="AsHor-Asignatura" style="stroke:#181818;stroke-width:1.0;"/><line style="stroke:#181818;stroke-width:1.0;" x1="414.5035" x2="407.3827" y1="645.9027" y2="642.2565"/><line style="stroke:#181818;stroke-width:1.0;" x1="415.8708" x2="408.75" y1="643.2324" y2="639.5862"/><line style="stroke:#181818;stroke-width:1.0;" x1="412.7662" x2="409.12" y1="640.5192" y2="647.64"/><line style="stroke:#181818;stroke-width:1.0;" x1="440.5425" x2="438.8638" y1="586.285" y2="576.4269"/><line style="stroke:#181818;stroke-width:1.0;" x1="440.5425" x2="449.5362" y1="586.285" y2="581.9131"/><line style="stroke:#181818;stroke-width:1.0;" x1="440.5425" x2="444.2" y1="586.285" y2="579.17"/><line style="stroke:#181818;stroke-width:1.0;" x1="436.0707" x2="443.1856" y1="586.235" y2="589.8925"/></g><!--MD5=[d77227c2c69272312cef53887afe97e1]
link Universidad to Clase--><g id="link_Universidad_Clase"><path codeLine="118" d="M507.67,167.49 C484.29,194.91 458.82,224.78 437.58,249.7 " fill="none" id="Universidad-Clase" style="stroke:#181818;stroke-width:1.0;stroke-dasharray:7.0,7.0;"/><line style="stroke:#181818;stroke-width:1.0;" x1="437.4587" x2="436.8369" y1="249.8308" y2="259.8115"/><line style="stroke:#181818;stroke-width:1.0;" x1="437.4587" x2="427.7031" y1="249.8308" y2="252.0285"/><line style="stroke:#181818;stroke-width:1.0;" x1="437.4587" x2="432.27" y1="249.8308" y2="255.92"/><line style="stroke:#181818;stroke-width:1.0;" x1="441.8004" x2="435.7112" y1="250.9029" y2="245.7142"/><line style="stroke:#181818;stroke-width:1.0;" x1="507.4005" x2="513.4826" y1="161.6326" y2="166.8295"/><line style="stroke:#181818;stroke-width:1.0;" x1="505.4516" x2="511.5338" y1="163.9134" y2="169.1103"/><line style="stroke:#181818;stroke-width:1.0;" x1="507.8431" x2="513.04" y1="167.2721" y2="161.19"/></g><!--MD5=[058577457433106f385c9995dbc13b84]
link Clase to AsHor--><g id="link_Clase_AsHor"><path codeLine="119" d="M412.34,363.76 C423.35,391.48 436.69,425.06 448.14,453.88 " fill="none" id="Clase-AsHor" style="stroke:#181818;stroke-width:1.0;"/><line style="stroke:#181818;stroke-width:1.0;" x1="453.0921" x2="445.6565" y1="455.5265" y2="458.4779"/><line style="stroke:#181818;stroke-width:1.0;" x1="451.9853" x2="444.5497" y1="452.7381" y2="455.6895"/><line style="stroke:#181818;stroke-width:1.0;" x1="447.8986" x2="450.85" y1="453.2843" y2="460.72"/><line style="stroke:#181818;stroke-width:1.0;" x1="407.4479" x2="414.8835" y1="362.2835" y2="359.3321"/><line style="stroke:#181818;stroke-width:1.0;" x1="408.5547" x2="415.9903" y1="365.0719" y2="362.1205"/><line style="stroke:#181818;stroke-width:1.0;" x1="412.6414" x2="409.69" y1="364.5257" y2="357.09"/></g><!--MD5=[5370265ce71f5797982548492361aa7e]
link Asignatura to AsPDI--><g id="link_Asignatura_AsPDI"><path codeLine="121" d="M297.65,808.34 C280.71,827.62 263.23,847.51 248.19,864.62 " fill="none" id="Asignatura-AsPDI" style="stroke:#181818;stroke-width:1.0;"/><line style="stroke:#181818;stroke-width:1.0;" x1="248.0512" x2="247.2768" y1="864.7809" y2="874.7509"/><line style="stroke:#181818;stroke-width:1.0;" x1="248.0512" x2="238.2632" y1="864.7809" y2="866.8291"/><line style="stroke:#181818;stroke-width:1.0;" x1="248.0512" x2="242.77" y1="864.7809" y2="870.79"/><line style="stroke:#181818;stroke-width:1.0;" x1="252.376" x2="246.3669" y1="865.9192" y2="860.638"/><line style="stroke:#181818;stroke-width:1.0;" x1="297.3549" x2="303.364" y1="802.614" y2="807.8951"/><line style="stroke:#181818;stroke-width:1.0;" x1="295.3744" x2="301.3835" y1="804.8674" y2="810.1485"/><line style="stroke:#181818;stroke-width:1.0;" x1="297.7188" x2="303" y1="808.2591" y2="802.25"/></g><!--MD5=[99a658580b58199303ce3d0585c01967]
link PDI to AsPDI--><g id="link_PDI_AsPDI"><path codeLine="122" d="M141.66,800.31 C154.27,821.77 167.69,844.6 179.06,863.96 " fill="none" id="PDI-AsPDI" style="stroke:#181818;stroke-width:1.0;"/><line style="stroke:#181818;stroke-width:1.0;" x1="179.1157" x2="188.3368" y1="864.0176" y2="867.8868"/><line style="stroke:#181818;stroke-width:1.0;" x1="179.1157" x2="177.9832" y1="864.0176" y2="873.9532"/><line style="stroke:#181818;stroke-width:1.0;" x1="179.1157" x2="183.16" y1="864.0176" y2="870.92"/><line style="stroke:#181818;stroke-width:1.0;" x1="181.5559" x2="174.6534" y1="860.2698" y2="864.3141"/><line style="stroke:#181818;stroke-width:1.0;" x1="136.0894" x2="142.9856" y1="798.7056" y2="794.6506"/><line style="stroke:#181818;stroke-width:1.0;" x1="137.6099" x2="144.5062" y1="801.2916" y2="797.2367"/><line style="stroke:#181818;stroke-width:1.0;" x1="141.5649" x2="137.51" y1="800.1262" y2="793.23"/></g><!--MD5=[d923241f99e21eed3f12cacb3237b31d]
@startuml supuesto1E-R

entity "Horario" as Horario{
    * idHorario : number
    nombre : text
    fechaIncorporacion: date
    * idGrupo : number <<FK>>
    * idCurso : number <<FK>>
}

entity "Estudiante" as Estudiante{
    * idEstudiante : number
    nombre: text
    fechaIncorporacion : date
    fechaNacimiento : date
    DNI : number
    email : text
    alta : boolean
}

entity "Estudiante_cursa_Asignatura" as EsAs{
    * idAsignatura : number <<FK>>
    * idEstudiante : number <<FK>>
    cursoAcademico : text
    nrMatricula : number
    convocatoriasRestantes : number
}

entity "Asignatura" as Asignatura{
    * idAsignatura : number
    nombre : text
    fechaIncorporacion : date
    nrEstudiantes : number
    profesor : text
    idCurso : number <<FK>>
}

entity "PDI" as PDI{
    * idPDI : number
    nombre : text
    fechaContratación : date
    email : text
    telefono : text
}

entity "PAS" as PAS{
    * idPAS : number
    nombre : text
    fechaContratacion : date
    email : text
    telefono : text
}

entity "Curso" as Curso{
    * idCurso : number
    coordinador : text
    * idGrado : number <<FK>>
}

entity "Grupo" as Grupo{
    * idGrupo : number
    * idCurso : number <<FK>>
}

entity "Grado" as Grado{
    * idGrado : number
    nombreGrado : text
    rama : text
    coordinador : text
    * idUniversidad : number <<FK>>
}

entity "Universidad" as Universidad{
    * idUniversidad : number
    nombre : text
    direccion : text
    nrTelefono : text
    email : text
    web : text
}

entity "Asignatura_horario" as AsHor{
    * idHorario : number <<FK>>
    * idAsignatura : number <<FK>>
    * idClase : number <<FK>>
    hora : text
}

entity "Clase" as Clase{
    * idClase : number
    idUniversidad : number <<FK>>
    aforo : number
}

entity "Asignatura_PDI" as AsPDI{
    * idPDI : number <<FK>>
    * idAsignatura : number <<FK>>
}

PAS ||..|{ Estudiante
Estudiante }|..|| PDI

Estudiante ||- -|{ EsAs
EsAs }|- -|| Asignatura

Asignatura }|..|| Curso

Curso }|- -|| Grado

Universidad ||- -|{ Grado

Curso ||- -|{ Grupo

Grupo ||- -|| Horario

Horario ||- -|{ AsHor
AsHor }|- -|| Asignatura

Universidad ||..|{ Clase
Clase ||- -|| AsHor

Asignatura ||- -|{ AsPDI
PDI ||- -|{ AsPDI



















@enduml

PlantUML version 1.2022.7(Mon Aug 22 19:01:30 CEST 2022)
(GPL source distribution)
Java Runtime: OpenJDK Runtime Environment
JVM: OpenJDK 64-Bit Server VM
Default Encoding: Cp1252
Language: es
Country: ES
--></g></svg>