<?xml version="1.0" encoding="UTF-8" standalone="no"?><svg xmlns="http://www.w3.org/2000/svg" xmlns:xlink="http://www.w3.org/1999/xlink" contentStyleType="text/css" height="1201px" preserveAspectRatio="none" style="width:963px;height:1201px;background:#FFFFFF;" version="1.1" viewBox="0 0 963 1201" width="963px" zoomAndPan="magnify"><defs/><g><!--MD5=[74438b4bcd0b343607a1e9b7af88b110]
class Horario--><g id="elem_Horario"><rect codeLine="2" fill="#F1F1F1" height="118.4375" id="Horario" rx="2.5" ry="2.5" style="stroke:#181818;stroke-width:0.5;" width="183" x="319" y="7"/><ellipse cx="383.25" cy="23" fill="#ADD1B2" rx="11" ry="11" style="stroke:#181818;stroke-width:1.0;"/><path d="M382.1094,23.7969 L382.1094,26.2969 L386.4375,26.2969 L386.4375,25.375 Q386.4375,24.7656 386.6719,24.5 Q386.9219,24.2344 387.2969,24.2344 Q387.6719,24.2344 387.9063,24.5 Q388.1406,24.7656 388.1406,25.375 L388.1406,28 L380.1406,28 Q379.5156,28 379.25,27.7656 Q379,27.5313 379,27.1406 Q379,26.7656 379.2656,26.5313 Q379.5313,26.2969 380.1406,26.2969 L380.4063,26.2969 L380.4063,19.6406 L380.1406,19.6406 Q379.5156,19.6406 379.25,19.4063 Q379,19.1719 379,18.7813 Q379,18.4063 379.25,18.1719 Q379.5156,17.9375 380.1406,17.9375 L387.7656,17.9375 L387.7656,20.5313 Q387.7656,21.1406 387.5313,21.4063 Q387.3125,21.6563 386.9219,21.6563 Q386.5469,21.6563 386.3125,21.4063 Q386.0781,21.1406 386.0781,20.5313 L386.0781,19.6406 L382.1094,19.6406 L382.1094,22.0938 L383.5938,22.0938 Q383.5938,21.4375 383.7188,21.25 Q383.9844,20.8438 384.4531,20.8438 Q384.8281,20.8438 385.0625,21.1094 Q385.2969,21.3594 385.2969,21.9688 L385.2969,23.9375 Q385.2969,24.4844 385.1719,24.6719 Q384.9063,25.0625 384.4531,25.0625 Q383.9844,25.0625 383.7188,24.6563 Q383.5938,24.4688 383.5938,23.7969 L382.1094,23.7969 Z " fill="#000000"/><text fill="#000000" font-family="sans-serif" font-size="14" lengthAdjust="spacing" textLength="46" x="403.75" y="28.7285">Horario</text><line style="stroke:#181818;stroke-width:0.5;" x1="320" x2="501" y1="39" y2="39"/><ellipse cx="330" cy="53.3047" fill="#000000" rx="3" ry="3" style="stroke:#000000;stroke-width:1.0;"/><text fill="#000000" font-family="sans-serif" font-size="14" lengthAdjust="spacing" textLength="117" x="339" y="57.5332">idHorario : number</text><text fill="#000000" font-family="sans-serif" font-size="14" lengthAdjust="spacing" textLength="82" x="339" y="75.1426">nombre : text</text><text fill="#000000" font-family="sans-serif" font-size="14" lengthAdjust="spacing" textLength="157" x="339" y="92.752">fechaIncorporacion: date</text><text fill="#000000" font-family="sans-serif" font-size="14" lengthAdjust="spacing" textLength="116" x="339" y="110.3613">fechaValidez: date</text><line style="stroke:#181818;stroke-width:0.5;" x1="320" x2="501" y1="117.4375" y2="117.4375"/></g><!--MD5=[9196e7f5424c8ba52e10312e1fe81956]
class Estudiante--><g id="elem_Estudiante"><rect codeLine="9" fill="#F1F1F1" height="171.2656" id="Estudiante" rx="2.5" ry="2.5" style="stroke:#181818;stroke-width:0.5;" width="187" x="280" y="489"/><ellipse cx="335.75" cy="505" fill="#ADD1B2" rx="11" ry="11" style="stroke:#181818;stroke-width:1.0;"/><path d="M334.6094,505.7969 L334.6094,508.2969 L338.9375,508.2969 L338.9375,507.375 Q338.9375,506.7656 339.1719,506.5 Q339.4219,506.2344 339.7969,506.2344 Q340.1719,506.2344 340.4063,506.5 Q340.6406,506.7656 340.6406,507.375 L340.6406,510 L332.6406,510 Q332.0156,510 331.75,509.7656 Q331.5,509.5313 331.5,509.1406 Q331.5,508.7656 331.7656,508.5313 Q332.0313,508.2969 332.6406,508.2969 L332.9063,508.2969 L332.9063,501.6406 L332.6406,501.6406 Q332.0156,501.6406 331.75,501.4063 Q331.5,501.1719 331.5,500.7813 Q331.5,500.4063 331.75,500.1719 Q332.0156,499.9375 332.6406,499.9375 L340.2656,499.9375 L340.2656,502.5313 Q340.2656,503.1406 340.0313,503.4063 Q339.8125,503.6563 339.4219,503.6563 Q339.0469,503.6563 338.8125,503.4063 Q338.5781,503.1406 338.5781,502.5313 L338.5781,501.6406 L334.6094,501.6406 L334.6094,504.0938 L336.0938,504.0938 Q336.0938,503.4375 336.2188,503.25 Q336.4844,502.8438 336.9531,502.8438 Q337.3281,502.8438 337.5625,503.1094 Q337.7969,503.3594 337.7969,503.9688 L337.7969,505.9375 Q337.7969,506.4844 337.6719,506.6719 Q337.4063,507.0625 336.9531,507.0625 Q336.4844,507.0625 336.2188,506.6563 Q336.0938,506.4688 336.0938,505.7969 L334.6094,505.7969 Z " fill="#000000"/><text fill="#000000" font-family="sans-serif" font-size="14" lengthAdjust="spacing" textLength="67" x="356.25" y="510.7285">Estudiante</text><line style="stroke:#181818;stroke-width:0.5;" x1="281" x2="466" y1="521" y2="521"/><ellipse cx="291" cy="535.3047" fill="#000000" rx="3" ry="3" style="stroke:#000000;stroke-width:1.0;"/><text fill="#000000" font-family="sans-serif" font-size="14" lengthAdjust="spacing" textLength="138" x="300" y="539.5332">idEstudiante : number</text><text fill="#000000" font-family="sans-serif" font-size="14" lengthAdjust="spacing" textLength="78" x="300" y="557.1426">nombre: text</text><text fill="#000000" font-family="sans-serif" font-size="14" lengthAdjust="spacing" textLength="161" x="300" y="574.752">fechaIncorporacion : date</text><text fill="#000000" font-family="sans-serif" font-size="14" lengthAdjust="spacing" textLength="144" x="300" y="592.3613">fechaNacimiento : date</text><text fill="#000000" font-family="sans-serif" font-size="14" lengthAdjust="spacing" textLength="82" x="300" y="609.9707">DNI : number</text><text fill="#000000" font-family="sans-serif" font-size="14" lengthAdjust="spacing" textLength="131" x="300" y="627.5801">idPDI : number «FK»</text><text fill="#000000" font-family="sans-serif" font-size="14" lengthAdjust="spacing" textLength="136" x="300" y="645.1895">idPAS : number «FK»</text><line style="stroke:#181818;stroke-width:0.5;" x1="281" x2="466" y1="652.2656" y2="652.2656"/></g><!--MD5=[347e7aef5a94730de2181062ec5fc448]
class ListaDeClase--><g id="elem_ListaDeClase"><rect codeLine="19" fill="#F1F1F1" height="118.4375" id="ListaDeClase" rx="2.5" ry="2.5" style="stroke:#181818;stroke-width:0.5;" width="187" x="467" y="863"/><ellipse cx="514.25" cy="879" fill="#ADD1B2" rx="11" ry="11" style="stroke:#181818;stroke-width:1.0;"/><path d="M513.1094,879.7969 L513.1094,882.2969 L517.4375,882.2969 L517.4375,881.375 Q517.4375,880.7656 517.6719,880.5 Q517.9219,880.2344 518.2969,880.2344 Q518.6719,880.2344 518.9063,880.5 Q519.1406,880.7656 519.1406,881.375 L519.1406,884 L511.1406,884 Q510.5156,884 510.25,883.7656 Q510,883.5313 510,883.1406 Q510,882.7656 510.2656,882.5313 Q510.5313,882.2969 511.1406,882.2969 L511.4063,882.2969 L511.4063,875.6406 L511.1406,875.6406 Q510.5156,875.6406 510.25,875.4063 Q510,875.1719 510,874.7813 Q510,874.4063 510.25,874.1719 Q510.5156,873.9375 511.1406,873.9375 L518.7656,873.9375 L518.7656,876.5313 Q518.7656,877.1406 518.5313,877.4063 Q518.3125,877.6563 517.9219,877.6563 Q517.5469,877.6563 517.3125,877.4063 Q517.0781,877.1406 517.0781,876.5313 L517.0781,875.6406 L513.1094,875.6406 L513.1094,878.0938 L514.5938,878.0938 Q514.5938,877.4375 514.7188,877.25 Q514.9844,876.8438 515.4531,876.8438 Q515.8281,876.8438 516.0625,877.1094 Q516.2969,877.3594 516.2969,877.9688 L516.2969,879.9375 Q516.2969,880.4844 516.1719,880.6719 Q515.9063,881.0625 515.4531,881.0625 Q514.9844,881.0625 514.7188,880.6563 Q514.5938,880.4688 514.5938,879.7969 L513.1094,879.7969 Z " fill="#000000"/><text fill="#000000" font-family="sans-serif" font-size="14" lengthAdjust="spacing" textLength="84" x="534.75" y="884.7285">ListaDeClase</text><line style="stroke:#181818;stroke-width:0.5;" x1="468" x2="653" y1="895" y2="895"/><ellipse cx="478" cy="909.3047" fill="#000000" rx="3" ry="3" style="stroke:#000000;stroke-width:1.0;"/><text fill="#000000" font-family="sans-serif" font-size="14" lengthAdjust="spacing" textLength="117" x="487" y="913.5332">idListado : number</text><text fill="#000000" font-family="sans-serif" font-size="14" lengthAdjust="spacing" textLength="128" x="487" y="931.1426">nombreListado : text</text><text fill="#000000" font-family="sans-serif" font-size="14" lengthAdjust="spacing" textLength="161" x="487" y="948.752">fechaIncorporacion : date</text><text fill="#000000" font-family="sans-serif" font-size="14" lengthAdjust="spacing" textLength="147" x="487" y="966.3613">nrEstudiantes : number</text><line style="stroke:#181818;stroke-width:0.5;" x1="468" x2="653" y1="973.4375" y2="973.4375"/></g><!--MD5=[b461fef6a7ba6f6fc6681ac8d845c93a]
class Asignatura--><g id="elem_Asignatura"><rect codeLine="26" fill="#F1F1F1" height="153.6563" id="Asignatura" rx="2.5" ry="2.5" style="stroke:#181818;stroke-width:0.5;" width="187" x="361" y="1041"/><ellipse cx="416.25" cy="1057" fill="#ADD1B2" rx="11" ry="11" style="stroke:#181818;stroke-width:1.0;"/><path d="M415.1094,1057.7969 L415.1094,1060.2969 L419.4375,1060.2969 L419.4375,1059.375 Q419.4375,1058.7656 419.6719,1058.5 Q419.9219,1058.2344 420.2969,1058.2344 Q420.6719,1058.2344 420.9063,1058.5 Q421.1406,1058.7656 421.1406,1059.375 L421.1406,1062 L413.1406,1062 Q412.5156,1062 412.25,1061.7656 Q412,1061.5313 412,1061.1406 Q412,1060.7656 412.2656,1060.5313 Q412.5313,1060.2969 413.1406,1060.2969 L413.4063,1060.2969 L413.4063,1053.6406 L413.1406,1053.6406 Q412.5156,1053.6406 412.25,1053.4063 Q412,1053.1719 412,1052.7813 Q412,1052.4063 412.25,1052.1719 Q412.5156,1051.9375 413.1406,1051.9375 L420.7656,1051.9375 L420.7656,1054.5313 Q420.7656,1055.1406 420.5313,1055.4063 Q420.3125,1055.6563 419.9219,1055.6563 Q419.5469,1055.6563 419.3125,1055.4063 Q419.0781,1055.1406 419.0781,1054.5313 L419.0781,1053.6406 L415.1094,1053.6406 L415.1094,1056.0938 L416.5938,1056.0938 Q416.5938,1055.4375 416.7188,1055.25 Q416.9844,1054.8438 417.4531,1054.8438 Q417.8281,1054.8438 418.0625,1055.1094 Q418.2969,1055.3594 418.2969,1055.9688 L418.2969,1057.9375 Q418.2969,1058.4844 418.1719,1058.6719 Q417.9063,1059.0625 417.4531,1059.0625 Q416.9844,1059.0625 416.7188,1058.6563 Q416.5938,1058.4688 416.5938,1057.7969 L415.1094,1057.7969 Z " fill="#000000"/><text fill="#000000" font-family="sans-serif" font-size="14" lengthAdjust="spacing" textLength="68" x="436.75" y="1062.7285">Asignatura</text><line style="stroke:#181818;stroke-width:0.5;" x1="362" x2="547" y1="1073" y2="1073"/><ellipse cx="372" cy="1087.3047" fill="#000000" rx="3" ry="3" style="stroke:#000000;stroke-width:1.0;"/><text fill="#000000" font-family="sans-serif" font-size="14" lengthAdjust="spacing" textLength="139" x="381" y="1091.5332">idAsignatura : number</text><text fill="#000000" font-family="sans-serif" font-size="14" lengthAdjust="spacing" textLength="82" x="381" y="1109.1426">nombre : text</text><text fill="#000000" font-family="sans-serif" font-size="14" lengthAdjust="spacing" textLength="161" x="381" y="1126.752">fechaIncorporacion : date</text><text fill="#000000" font-family="sans-serif" font-size="14" lengthAdjust="spacing" textLength="147" x="381" y="1144.3613">nrEstudiantes : number</text><text fill="#000000" font-family="sans-serif" font-size="14" lengthAdjust="spacing" textLength="87" x="381" y="1161.9707">profesor : text</text><text fill="#000000" font-family="sans-serif" font-size="14" lengthAdjust="spacing" textLength="95" x="381" y="1179.5801">curso : number</text><line style="stroke:#181818;stroke-width:0.5;" x1="362" x2="547" y1="1186.6563" y2="1186.6563"/></g><!--MD5=[5b14968682f2e46256dc8a570ae0d27b]
class PDI--><g id="elem_PDI"><rect codeLine="35" fill="#F1F1F1" height="100.8281" id="PDI" rx="2.5" ry="2.5" style="stroke:#181818;stroke-width:0.5;" width="182" x="524.5" y="328"/><ellipse cx="600.25" cy="344" fill="#ADD1B2" rx="11" ry="11" style="stroke:#181818;stroke-width:1.0;"/><path d="M599.1094,344.7969 L599.1094,347.2969 L603.4375,347.2969 L603.4375,346.375 Q603.4375,345.7656 603.6719,345.5 Q603.9219,345.2344 604.2969,345.2344 Q604.6719,345.2344 604.9063,345.5 Q605.1406,345.7656 605.1406,346.375 L605.1406,349 L597.1406,349 Q596.5156,349 596.25,348.7656 Q596,348.5313 596,348.1406 Q596,347.7656 596.2656,347.5313 Q596.5313,347.2969 597.1406,347.2969 L597.4063,347.2969 L597.4063,340.6406 L597.1406,340.6406 Q596.5156,340.6406 596.25,340.4063 Q596,340.1719 596,339.7813 Q596,339.4063 596.25,339.1719 Q596.5156,338.9375 597.1406,338.9375 L604.7656,338.9375 L604.7656,341.5313 Q604.7656,342.1406 604.5313,342.4063 Q604.3125,342.6563 603.9219,342.6563 Q603.5469,342.6563 603.3125,342.4063 Q603.0781,342.1406 603.0781,341.5313 L603.0781,340.6406 L599.1094,340.6406 L599.1094,343.0938 L600.5938,343.0938 Q600.5938,342.4375 600.7188,342.25 Q600.9844,341.8438 601.4531,341.8438 Q601.8281,341.8438 602.0625,342.1094 Q602.2969,342.3594 602.2969,342.9688 L602.2969,344.9375 Q602.2969,345.4844 602.1719,345.6719 Q601.9063,346.0625 601.4531,346.0625 Q600.9844,346.0625 600.7188,345.6563 Q600.5938,345.4688 600.5938,344.7969 L599.1094,344.7969 Z " fill="#000000"/><text fill="#000000" font-family="sans-serif" font-size="14" lengthAdjust="spacing" textLength="22" x="620.75" y="349.7285">PDI</text><line style="stroke:#181818;stroke-width:0.5;" x1="525.5" x2="705.5" y1="360" y2="360"/><ellipse cx="535.5" cy="374.3047" fill="#000000" rx="3" ry="3" style="stroke:#000000;stroke-width:1.0;"/><text fill="#000000" font-family="sans-serif" font-size="14" lengthAdjust="spacing" textLength="93" x="544.5" y="378.5332">idPDI : number</text><text fill="#000000" font-family="sans-serif" font-size="14" lengthAdjust="spacing" textLength="82" x="544.5" y="396.1426">nombre : text</text><text fill="#000000" font-family="sans-serif" font-size="14" lengthAdjust="spacing" textLength="156" x="544.5" y="413.752">fechaContratación : date</text><line style="stroke:#181818;stroke-width:0.5;" x1="525.5" x2="705.5" y1="420.8281" y2="420.8281"/></g><!--MD5=[36acb3e840b16351e2158aca66e9df6c]
class PAS--><g id="elem_PAS"><rect codeLine="41" fill="#F1F1F1" height="100.8281" id="PAS" rx="2.5" ry="2.5" style="stroke:#181818;stroke-width:0.5;" width="182" x="282.5" y="328"/><ellipse cx="355.75" cy="344" fill="#ADD1B2" rx="11" ry="11" style="stroke:#181818;stroke-width:1.0;"/><path d="M354.6094,344.7969 L354.6094,347.2969 L358.9375,347.2969 L358.9375,346.375 Q358.9375,345.7656 359.1719,345.5 Q359.4219,345.2344 359.7969,345.2344 Q360.1719,345.2344 360.4063,345.5 Q360.6406,345.7656 360.6406,346.375 L360.6406,349 L352.6406,349 Q352.0156,349 351.75,348.7656 Q351.5,348.5313 351.5,348.1406 Q351.5,347.7656 351.7656,347.5313 Q352.0313,347.2969 352.6406,347.2969 L352.9063,347.2969 L352.9063,340.6406 L352.6406,340.6406 Q352.0156,340.6406 351.75,340.4063 Q351.5,340.1719 351.5,339.7813 Q351.5,339.4063 351.75,339.1719 Q352.0156,338.9375 352.6406,338.9375 L360.2656,338.9375 L360.2656,341.5313 Q360.2656,342.1406 360.0313,342.4063 Q359.8125,342.6563 359.4219,342.6563 Q359.0469,342.6563 358.8125,342.4063 Q358.5781,342.1406 358.5781,341.5313 L358.5781,340.6406 L354.6094,340.6406 L354.6094,343.0938 L356.0938,343.0938 Q356.0938,342.4375 356.2188,342.25 Q356.4844,341.8438 356.9531,341.8438 Q357.3281,341.8438 357.5625,342.1094 Q357.7969,342.3594 357.7969,342.9688 L357.7969,344.9375 Q357.7969,345.4844 357.6719,345.6719 Q357.4063,346.0625 356.9531,346.0625 Q356.4844,346.0625 356.2188,345.6563 Q356.0938,345.4688 356.0938,344.7969 L354.6094,344.7969 Z " fill="#000000"/><text fill="#000000" font-family="sans-serif" font-size="14" lengthAdjust="spacing" textLength="27" x="376.25" y="349.7285">PAS</text><line style="stroke:#181818;stroke-width:0.5;" x1="283.5" x2="463.5" y1="360" y2="360"/><ellipse cx="293.5" cy="374.3047" fill="#000000" rx="3" ry="3" style="stroke:#000000;stroke-width:1.0;"/><text fill="#000000" font-family="sans-serif" font-size="14" lengthAdjust="spacing" textLength="98" x="302.5" y="378.5332">idPAS : number</text><text fill="#000000" font-family="sans-serif" font-size="14" lengthAdjust="spacing" textLength="82" x="302.5" y="396.1426">nombre : text</text><text fill="#000000" font-family="sans-serif" font-size="14" lengthAdjust="spacing" textLength="156" x="302.5" y="413.752">fechaContratacion : date</text><line style="stroke:#181818;stroke-width:0.5;" x1="283.5" x2="463.5" y1="420.8281" y2="420.8281"/></g><!--MD5=[02e79166fd49111e52983fb400a6c229]
class ECH--><g id="elem_ECH"><rect codeLine="47" fill="#F1F1F1" height="83.2188" id="ECH" rx="2.5" ry="2.5" style="stroke:#181818;stroke-width:0.5;" width="213" x="7" y="337"/><ellipse cx="22" cy="353" fill="#ADD1B2" rx="11" ry="11" style="stroke:#181818;stroke-width:1.0;"/><path d="M20.8594,353.7969 L20.8594,356.2969 L25.1875,356.2969 L25.1875,355.375 Q25.1875,354.7656 25.4219,354.5 Q25.6719,354.2344 26.0469,354.2344 Q26.4219,354.2344 26.6563,354.5 Q26.8906,354.7656 26.8906,355.375 L26.8906,358 L18.8906,358 Q18.2656,358 18,357.7656 Q17.75,357.5313 17.75,357.1406 Q17.75,356.7656 18.0156,356.5313 Q18.2813,356.2969 18.8906,356.2969 L19.1563,356.2969 L19.1563,349.6406 L18.8906,349.6406 Q18.2656,349.6406 18,349.4063 Q17.75,349.1719 17.75,348.7813 Q17.75,348.4063 18,348.1719 Q18.2656,347.9375 18.8906,347.9375 L26.5156,347.9375 L26.5156,350.5313 Q26.5156,351.1406 26.2813,351.4063 Q26.0625,351.6563 25.6719,351.6563 Q25.2969,351.6563 25.0625,351.4063 Q24.8281,351.1406 24.8281,350.5313 L24.8281,349.6406 L20.8594,349.6406 L20.8594,352.0938 L22.3438,352.0938 Q22.3438,351.4375 22.4688,351.25 Q22.7344,350.8438 23.2031,350.8438 Q23.5781,350.8438 23.8125,351.1094 Q24.0469,351.3594 24.0469,351.9688 L24.0469,353.9375 Q24.0469,354.4844 23.9219,354.6719 Q23.6563,355.0625 23.2031,355.0625 Q22.7344,355.0625 22.4688,354.6563 Q22.3438,354.4688 22.3438,353.7969 L20.8594,353.7969 Z " fill="#000000"/><text fill="#000000" font-family="sans-serif" font-size="14" lengthAdjust="spacing" textLength="181" x="36" y="358.7285">Estudiante_consulta_horario</text><line style="stroke:#181818;stroke-width:0.5;" x1="8" x2="219" y1="369" y2="369"/><ellipse cx="18" cy="383.3047" fill="#000000" rx="3" ry="3" style="stroke:#000000;stroke-width:1.0;"/><text fill="#000000" font-family="sans-serif" font-size="14" lengthAdjust="spacing" textLength="117" x="27" y="387.5332">idHorario : number</text><ellipse cx="18" cy="400.9141" fill="#000000" rx="3" ry="3" style="stroke:#000000;stroke-width:1.0;"/><text fill="#000000" font-family="sans-serif" font-size="14" lengthAdjust="spacing" textLength="138" x="27" y="405.1426">idEstudiante : number</text><line style="stroke:#181818;stroke-width:0.5;" x1="8" x2="219" y1="412.2188" y2="412.2188"/></g><!--MD5=[0d3886188c627d74798962bb44f84d46]
class PCH--><g id="elem_PCH"><rect codeLine="54" fill="#F1F1F1" height="83.2188" id="PCH" rx="2.5" ry="2.5" style="stroke:#181818;stroke-width:0.5;" width="173" x="116" y="185"/><ellipse cx="131" cy="201" fill="#ADD1B2" rx="11" ry="11" style="stroke:#181818;stroke-width:1.0;"/><path d="M129.8594,201.7969 L129.8594,204.2969 L134.1875,204.2969 L134.1875,203.375 Q134.1875,202.7656 134.4219,202.5 Q134.6719,202.2344 135.0469,202.2344 Q135.4219,202.2344 135.6563,202.5 Q135.8906,202.7656 135.8906,203.375 L135.8906,206 L127.8906,206 Q127.2656,206 127,205.7656 Q126.75,205.5313 126.75,205.1406 Q126.75,204.7656 127.0156,204.5313 Q127.2813,204.2969 127.8906,204.2969 L128.1563,204.2969 L128.1563,197.6406 L127.8906,197.6406 Q127.2656,197.6406 127,197.4063 Q126.75,197.1719 126.75,196.7813 Q126.75,196.4063 127,196.1719 Q127.2656,195.9375 127.8906,195.9375 L135.5156,195.9375 L135.5156,198.5313 Q135.5156,199.1406 135.2813,199.4063 Q135.0625,199.6563 134.6719,199.6563 Q134.2969,199.6563 134.0625,199.4063 Q133.8281,199.1406 133.8281,198.5313 L133.8281,197.6406 L129.8594,197.6406 L129.8594,200.0938 L131.3438,200.0938 Q131.3438,199.4375 131.4688,199.25 Q131.7344,198.8438 132.2031,198.8438 Q132.5781,198.8438 132.8125,199.1094 Q133.0469,199.3594 133.0469,199.9688 L133.0469,201.9375 Q133.0469,202.4844 132.9219,202.6719 Q132.6563,203.0625 132.2031,203.0625 Q131.7344,203.0625 131.4688,202.6563 Q131.3438,202.4688 131.3438,201.7969 L129.8594,201.7969 Z " fill="#000000"/><text fill="#000000" font-family="sans-serif" font-size="14" lengthAdjust="spacing" textLength="141" x="145" y="206.7285">PAS_consulta_horario</text><line style="stroke:#181818;stroke-width:0.5;" x1="117" x2="288" y1="217" y2="217"/><ellipse cx="127" cy="231.3047" fill="#000000" rx="3" ry="3" style="stroke:#000000;stroke-width:1.0;"/><text fill="#000000" font-family="sans-serif" font-size="14" lengthAdjust="spacing" textLength="117" x="136" y="235.5332">idHorario : number</text><ellipse cx="127" cy="248.9141" fill="#000000" rx="3" ry="3" style="stroke:#000000;stroke-width:1.0;"/><text fill="#000000" font-family="sans-serif" font-size="14" lengthAdjust="spacing" textLength="98" x="136" y="253.1426">idPAS : number</text><line style="stroke:#181818;stroke-width:0.5;" x1="117" x2="288" y1="260.2188" y2="260.2188"/></g><!--MD5=[62ecd1010f9d6c668a13824042ddce81]
class PDICH--><g id="elem_PDICH"><rect codeLine="61" fill="#F1F1F1" height="83.2188" id="PDICH" rx="2.5" ry="2.5" style="stroke:#181818;stroke-width:0.5;" width="168" x="531.5" y="185"/><ellipse cx="546.5" cy="201" fill="#ADD1B2" rx="11" ry="11" style="stroke:#181818;stroke-width:1.0;"/><path d="M545.3594,201.7969 L545.3594,204.2969 L549.6875,204.2969 L549.6875,203.375 Q549.6875,202.7656 549.9219,202.5 Q550.1719,202.2344 550.5469,202.2344 Q550.9219,202.2344 551.1563,202.5 Q551.3906,202.7656 551.3906,203.375 L551.3906,206 L543.3906,206 Q542.7656,206 542.5,205.7656 Q542.25,205.5313 542.25,205.1406 Q542.25,204.7656 542.5156,204.5313 Q542.7813,204.2969 543.3906,204.2969 L543.6563,204.2969 L543.6563,197.6406 L543.3906,197.6406 Q542.7656,197.6406 542.5,197.4063 Q542.25,197.1719 542.25,196.7813 Q542.25,196.4063 542.5,196.1719 Q542.7656,195.9375 543.3906,195.9375 L551.0156,195.9375 L551.0156,198.5313 Q551.0156,199.1406 550.7813,199.4063 Q550.5625,199.6563 550.1719,199.6563 Q549.7969,199.6563 549.5625,199.4063 Q549.3281,199.1406 549.3281,198.5313 L549.3281,197.6406 L545.3594,197.6406 L545.3594,200.0938 L546.8438,200.0938 Q546.8438,199.4375 546.9688,199.25 Q547.2344,198.8438 547.7031,198.8438 Q548.0781,198.8438 548.3125,199.1094 Q548.5469,199.3594 548.5469,199.9688 L548.5469,201.9375 Q548.5469,202.4844 548.4219,202.6719 Q548.1563,203.0625 547.7031,203.0625 Q547.2344,203.0625 546.9688,202.6563 Q546.8438,202.4688 546.8438,201.7969 L545.3594,201.7969 Z " fill="#000000"/><text fill="#000000" font-family="sans-serif" font-size="14" lengthAdjust="spacing" textLength="136" x="560.5" y="206.7285">PDI_consulta_horario</text><line style="stroke:#181818;stroke-width:0.5;" x1="532.5" x2="698.5" y1="217" y2="217"/><ellipse cx="542.5" cy="231.3047" fill="#000000" rx="3" ry="3" style="stroke:#000000;stroke-width:1.0;"/><text fill="#000000" font-family="sans-serif" font-size="14" lengthAdjust="spacing" textLength="117" x="551.5" y="235.5332">idHorario : number</text><ellipse cx="542.5" cy="248.9141" fill="#000000" rx="3" ry="3" style="stroke:#000000;stroke-width:1.0;"/><text fill="#000000" font-family="sans-serif" font-size="14" lengthAdjust="spacing" textLength="93" x="551.5" y="253.1426">idPDI : number</text><line style="stroke:#181818;stroke-width:0.5;" x1="532.5" x2="698.5" y1="260.2188" y2="260.2188"/></g><!--MD5=[6e6771d8ddbe7cebeaf0f3bdfe734bca]
class PASmodH--><g id="elem_PASmodH"><rect codeLine="68" fill="#F1F1F1" height="83.2188" id="PASmodH" rx="2.5" ry="2.5" style="stroke:#181818;stroke-width:0.5;" width="172" x="324.5" y="185"/><ellipse cx="339.5" cy="201" fill="#ADD1B2" rx="11" ry="11" style="stroke:#181818;stroke-width:1.0;"/><path d="M338.3594,201.7969 L338.3594,204.2969 L342.6875,204.2969 L342.6875,203.375 Q342.6875,202.7656 342.9219,202.5 Q343.1719,202.2344 343.5469,202.2344 Q343.9219,202.2344 344.1563,202.5 Q344.3906,202.7656 344.3906,203.375 L344.3906,206 L336.3906,206 Q335.7656,206 335.5,205.7656 Q335.25,205.5313 335.25,205.1406 Q335.25,204.7656 335.5156,204.5313 Q335.7813,204.2969 336.3906,204.2969 L336.6563,204.2969 L336.6563,197.6406 L336.3906,197.6406 Q335.7656,197.6406 335.5,197.4063 Q335.25,197.1719 335.25,196.7813 Q335.25,196.4063 335.5,196.1719 Q335.7656,195.9375 336.3906,195.9375 L344.0156,195.9375 L344.0156,198.5313 Q344.0156,199.1406 343.7813,199.4063 Q343.5625,199.6563 343.1719,199.6563 Q342.7969,199.6563 342.5625,199.4063 Q342.3281,199.1406 342.3281,198.5313 L342.3281,197.6406 L338.3594,197.6406 L338.3594,200.0938 L339.8438,200.0938 Q339.8438,199.4375 339.9688,199.25 Q340.2344,198.8438 340.7031,198.8438 Q341.0781,198.8438 341.3125,199.1094 Q341.5469,199.3594 341.5469,199.9688 L341.5469,201.9375 Q341.5469,202.4844 341.4219,202.6719 Q341.1563,203.0625 340.7031,203.0625 Q340.2344,203.0625 339.9688,202.6563 Q339.8438,202.4688 339.8438,201.7969 L338.3594,201.7969 Z " fill="#000000"/><text fill="#000000" font-family="sans-serif" font-size="14" lengthAdjust="spacing" textLength="140" x="353.5" y="206.7285">PAS_modifica_horario</text><line style="stroke:#181818;stroke-width:0.5;" x1="325.5" x2="495.5" y1="217" y2="217"/><ellipse cx="335.5" cy="231.3047" fill="#000000" rx="3" ry="3" style="stroke:#000000;stroke-width:1.0;"/><text fill="#000000" font-family="sans-serif" font-size="14" lengthAdjust="spacing" textLength="117" x="344.5" y="235.5332">idHorario : number</text><ellipse cx="335.5" cy="248.9141" fill="#000000" rx="3" ry="3" style="stroke:#000000;stroke-width:1.0;"/><text fill="#000000" font-family="sans-serif" font-size="14" lengthAdjust="spacing" textLength="98" x="344.5" y="253.1426">idPAS : number</text><line style="stroke:#181818;stroke-width:0.5;" x1="325.5" x2="495.5" y1="260.2188" y2="260.2188"/></g><!--MD5=[6b18d59bc5907d7e9d078b6710bb4d3f]
class PDIprop--><g id="elem_PDIprop"><rect codeLine="75" fill="#F1F1F1" height="83.2188" id="PDIprop" rx="2.5" ry="2.5" style="stroke:#181818;stroke-width:0.5;" width="221" x="735" y="185"/><ellipse cx="750" cy="201" fill="#ADD1B2" rx="11" ry="11" style="stroke:#181818;stroke-width:1.0;"/><path d="M748.8594,201.7969 L748.8594,204.2969 L753.1875,204.2969 L753.1875,203.375 Q753.1875,202.7656 753.4219,202.5 Q753.6719,202.2344 754.0469,202.2344 Q754.4219,202.2344 754.6563,202.5 Q754.8906,202.7656 754.8906,203.375 L754.8906,206 L746.8906,206 Q746.2656,206 746,205.7656 Q745.75,205.5313 745.75,205.1406 Q745.75,204.7656 746.0156,204.5313 Q746.2813,204.2969 746.8906,204.2969 L747.1563,204.2969 L747.1563,197.6406 L746.8906,197.6406 Q746.2656,197.6406 746,197.4063 Q745.75,197.1719 745.75,196.7813 Q745.75,196.4063 746,196.1719 Q746.2656,195.9375 746.8906,195.9375 L754.5156,195.9375 L754.5156,198.5313 Q754.5156,199.1406 754.2813,199.4063 Q754.0625,199.6563 753.6719,199.6563 Q753.2969,199.6563 753.0625,199.4063 Q752.8281,199.1406 752.8281,198.5313 L752.8281,197.6406 L748.8594,197.6406 L748.8594,200.0938 L750.3438,200.0938 Q750.3438,199.4375 750.4688,199.25 Q750.7344,198.8438 751.2031,198.8438 Q751.5781,198.8438 751.8125,199.1094 Q752.0469,199.3594 752.0469,199.9688 L752.0469,201.9375 Q752.0469,202.4844 751.9219,202.6719 Q751.6563,203.0625 751.2031,203.0625 Q750.7344,203.0625 750.4688,202.6563 Q750.3438,202.4688 750.3438,201.7969 L748.8594,201.7969 Z " fill="#000000"/><text fill="#000000" font-family="sans-serif" font-size="14" lengthAdjust="spacing" textLength="189" x="764" y="206.7285">PDI_propone_cambio_horario</text><line style="stroke:#181818;stroke-width:0.5;" x1="736" x2="955" y1="217" y2="217"/><ellipse cx="746" cy="231.3047" fill="#000000" rx="3" ry="3" style="stroke:#000000;stroke-width:1.0;"/><text fill="#000000" font-family="sans-serif" font-size="14" lengthAdjust="spacing" textLength="117" x="755" y="235.5332">idHorario : number</text><ellipse cx="746" cy="248.9141" fill="#000000" rx="3" ry="3" style="stroke:#000000;stroke-width:1.0;"/><text fill="#000000" font-family="sans-serif" font-size="14" lengthAdjust="spacing" textLength="93" x="755" y="253.1426">idPDI : number</text><line style="stroke:#181818;stroke-width:0.5;" x1="736" x2="955" y1="260.2188" y2="260.2188"/></g><!--MD5=[019c46b65a4618905fff1d1f9621e643]
class EEE--><g id="elem_EEE"><rect codeLine="82" fill="#F1F1F1" height="83.2188" id="EEE" rx="2.5" ry="2.5" style="stroke:#181818;stroke-width:0.5;" width="160" x="402.5" y="720"/><ellipse cx="418.4" cy="736" fill="#ADD1B2" rx="11" ry="11" style="stroke:#181818;stroke-width:1.0;"/><path d="M417.2594,736.7969 L417.2594,739.2969 L421.5875,739.2969 L421.5875,738.375 Q421.5875,737.7656 421.8219,737.5 Q422.0719,737.2344 422.4469,737.2344 Q422.8219,737.2344 423.0563,737.5 Q423.2906,737.7656 423.2906,738.375 L423.2906,741 L415.2906,741 Q414.6656,741 414.4,740.7656 Q414.15,740.5313 414.15,740.1406 Q414.15,739.7656 414.4156,739.5313 Q414.6813,739.2969 415.2906,739.2969 L415.5563,739.2969 L415.5563,732.6406 L415.2906,732.6406 Q414.6656,732.6406 414.4,732.4063 Q414.15,732.1719 414.15,731.7813 Q414.15,731.4063 414.4,731.1719 Q414.6656,730.9375 415.2906,730.9375 L422.9156,730.9375 L422.9156,733.5313 Q422.9156,734.1406 422.6813,734.4063 Q422.4625,734.6563 422.0719,734.6563 Q421.6969,734.6563 421.4625,734.4063 Q421.2281,734.1406 421.2281,733.5313 L421.2281,732.6406 L417.2594,732.6406 L417.2594,735.0938 L418.7438,735.0938 Q418.7438,734.4375 418.8688,734.25 Q419.1344,733.8438 419.6031,733.8438 Q419.9781,733.8438 420.2125,734.1094 Q420.4469,734.3594 420.4469,734.9688 L420.4469,736.9375 Q420.4469,737.4844 420.3219,737.6719 Q420.0563,738.0625 419.6031,738.0625 Q419.1344,738.0625 418.8688,737.6563 Q418.7438,737.4688 418.7438,736.7969 L417.2594,736.7969 Z " fill="#000000"/><text fill="#000000" font-family="sans-serif" font-size="14" lengthAdjust="spacing" textLength="126" x="432.6" y="741.7285">Estudiante_esta_en</text><line style="stroke:#181818;stroke-width:0.5;" x1="403.5" x2="561.5" y1="752" y2="752"/><ellipse cx="413.5" cy="766.3047" fill="#000000" rx="3" ry="3" style="stroke:#000000;stroke-width:1.0;"/><text fill="#000000" font-family="sans-serif" font-size="14" lengthAdjust="spacing" textLength="134" x="422.5" y="770.5332">idEstudiante: number</text><ellipse cx="413.5" cy="783.9141" fill="#000000" rx="3" ry="3" style="stroke:#000000;stroke-width:1.0;"/><text fill="#000000" font-family="sans-serif" font-size="14" lengthAdjust="spacing" textLength="117" x="422.5" y="788.1426">idListado : number</text><line style="stroke:#181818;stroke-width:0.5;" x1="403.5" x2="561.5" y1="795.2188" y2="795.2188"/></g><!--MD5=[8267bec125f52e80385d31a196b921a9]
class EC--><g id="elem_EC"><rect codeLine="89" fill="#F1F1F1" height="83.2188" id="EC" rx="2.5" ry="2.5" style="stroke:#181818;stroke-width:0.5;" width="165" x="267" y="880.5"/><ellipse cx="292.35" cy="896.5" fill="#ADD1B2" rx="11" ry="11" style="stroke:#181818;stroke-width:1.0;"/><path d="M291.2094,897.2969 L291.2094,899.7969 L295.5375,899.7969 L295.5375,898.875 Q295.5375,898.2656 295.7719,898 Q296.0219,897.7344 296.3969,897.7344 Q296.7719,897.7344 297.0063,898 Q297.2406,898.2656 297.2406,898.875 L297.2406,901.5 L289.2406,901.5 Q288.6156,901.5 288.35,901.2656 Q288.1,901.0313 288.1,900.6406 Q288.1,900.2656 288.3656,900.0313 Q288.6313,899.7969 289.2406,899.7969 L289.5063,899.7969 L289.5063,893.1406 L289.2406,893.1406 Q288.6156,893.1406 288.35,892.9063 Q288.1,892.6719 288.1,892.2813 Q288.1,891.9063 288.35,891.6719 Q288.6156,891.4375 289.2406,891.4375 L296.8656,891.4375 L296.8656,894.0313 Q296.8656,894.6406 296.6313,894.9063 Q296.4125,895.1563 296.0219,895.1563 Q295.6469,895.1563 295.4125,894.9063 Q295.1781,894.6406 295.1781,894.0313 L295.1781,893.1406 L291.2094,893.1406 L291.2094,895.5938 L292.6938,895.5938 Q292.6938,894.9375 292.8188,894.75 Q293.0844,894.3438 293.5531,894.3438 Q293.9281,894.3438 294.1625,894.6094 Q294.3969,894.8594 294.3969,895.4688 L294.3969,897.4375 Q294.3969,897.9844 294.2719,898.1719 Q294.0063,898.5625 293.5531,898.5625 Q293.0844,898.5625 292.8188,898.1563 Q292.6938,897.9688 292.6938,897.2969 L291.2094,897.2969 Z " fill="#000000"/><text fill="#000000" font-family="sans-serif" font-size="14" lengthAdjust="spacing" textLength="110" x="308.65" y="902.2285">Estudiante_cursa</text><line style="stroke:#181818;stroke-width:0.5;" x1="268" x2="431" y1="912.5" y2="912.5"/><ellipse cx="278" cy="926.8047" fill="#000000" rx="3" ry="3" style="stroke:#000000;stroke-width:1.0;"/><text fill="#000000" font-family="sans-serif" font-size="14" lengthAdjust="spacing" textLength="138" x="287" y="931.0332">idEstudiante : number</text><ellipse cx="278" cy="944.4141" fill="#000000" rx="3" ry="3" style="stroke:#000000;stroke-width:1.0;"/><text fill="#000000" font-family="sans-serif" font-size="14" lengthAdjust="spacing" textLength="139" x="287" y="948.6426">idAsignatura : number</text><line style="stroke:#181818;stroke-width:0.5;" x1="268" x2="431" y1="955.7188" y2="955.7188"/></g><!--MD5=[412899bb4423d23fee829021aa7344ef]
class pbl--><g id="elem_pbl"><rect codeLine="101" fill="#F1F1F1" height="83.2188" id="pbl" rx="2.5" ry="2.5" style="stroke:#181818;stroke-width:0.5;" width="157" x="537" y="533"/><ellipse cx="552" cy="549" fill="#ADD1B2" rx="11" ry="11" style="stroke:#181818;stroke-width:1.0;"/><path d="M550.8594,549.7969 L550.8594,552.2969 L555.1875,552.2969 L555.1875,551.375 Q555.1875,550.7656 555.4219,550.5 Q555.6719,550.2344 556.0469,550.2344 Q556.4219,550.2344 556.6563,550.5 Q556.8906,550.7656 556.8906,551.375 L556.8906,554 L548.8906,554 Q548.2656,554 548,553.7656 Q547.75,553.5313 547.75,553.1406 Q547.75,552.7656 548.0156,552.5313 Q548.2813,552.2969 548.8906,552.2969 L549.1563,552.2969 L549.1563,545.6406 L548.8906,545.6406 Q548.2656,545.6406 548,545.4063 Q547.75,545.1719 547.75,544.7813 Q547.75,544.4063 548,544.1719 Q548.2656,543.9375 548.8906,543.9375 L556.5156,543.9375 L556.5156,546.5313 Q556.5156,547.1406 556.2813,547.4063 Q556.0625,547.6563 555.6719,547.6563 Q555.2969,547.6563 555.0625,547.4063 Q554.8281,547.1406 554.8281,546.5313 L554.8281,545.6406 L550.8594,545.6406 L550.8594,548.0938 L552.3438,548.0938 Q552.3438,547.4375 552.4688,547.25 Q552.7344,546.8438 553.2031,546.8438 Q553.5781,546.8438 553.8125,547.1094 Q554.0469,547.3594 554.0469,547.9688 L554.0469,549.9375 Q554.0469,550.4844 553.9219,550.6719 Q553.6563,551.0625 553.2031,551.0625 Q552.7344,551.0625 552.4688,550.6563 Q552.3438,550.4688 552.3438,549.7969 L550.8594,549.7969 Z " fill="#000000"/><text fill="#000000" font-family="sans-serif" font-size="14" lengthAdjust="spacing" textLength="125" x="566" y="554.7285">PDI_busca_en_lista</text><line style="stroke:#181818;stroke-width:0.5;" x1="538" x2="693" y1="565" y2="565"/><ellipse cx="548" cy="579.3047" fill="#000000" rx="3" ry="3" style="stroke:#000000;stroke-width:1.0;"/><text fill="#000000" font-family="sans-serif" font-size="14" lengthAdjust="spacing" textLength="93" x="557" y="583.5332">idPDI : number</text><ellipse cx="548" cy="596.9141" fill="#000000" rx="3" ry="3" style="stroke:#000000;stroke-width:1.0;"/><text fill="#000000" font-family="sans-serif" font-size="14" lengthAdjust="spacing" textLength="117" x="557" y="601.1426">idListado : number</text><line style="stroke:#181818;stroke-width:0.5;" x1="538" x2="693" y1="608.2188" y2="608.2188"/></g><!--MD5=[3dd0f1e292b6c66b847f1e6b4c900005]
link Horario to ECH--><g id="link_Horario_ECH"><path codeLine="51" d="M310.75,75.61 C238.64,87.65 145.89,116.41 98.5,185 C69.44,227.06 80.33,287.32 93.88,329.18 " fill="none" id="Horario-ECH" style="stroke:#181818;stroke-width:1.0;"/><line style="stroke:#181818;stroke-width:1.0;" x1="98.9427" x2="91.3618" y1="331.7018" y2="334.2573"/><line style="stroke:#181818;stroke-width:1.0;" x1="97.9844" x2="90.4035" y1="328.859" y2="331.4145"/><line style="stroke:#181818;stroke-width:1.0;" x1="93.8745" x2="96.43" y1="329.1891" y2="336.77"/><line style="stroke:#181818;stroke-width:1.0;" x1="311.0894" x2="318.0471" y1="75.5472" y2="68.3646"/><line style="stroke:#181818;stroke-width:1.0;" x1="311.0894" x2="319.9329" y1="75.5472" y2="80.2154"/><line style="stroke:#181818;stroke-width:1.0;" x1="311.0894" x2="318.99" y1="75.5472" y2="74.29"/><line style="stroke:#181818;stroke-width:1.0;" x1="308.4856" x2="309.7429" y1="71.9113" y2="79.8118"/></g><!--MD5=[39859a314c39f5acc065f5574c6f42c1]
link ECH to Estudiante--><g id="link_ECH_Estudiante"><path codeLine="52" d="M174.58,425.07 C203.98,447.02 240.01,473.89 273.28,498.72 " fill="none" id="ECH-Estudiante" style="stroke:#181818;stroke-width:1.0;"/><line style="stroke:#181818;stroke-width:1.0;" x1="273.478" x2="283.478" y1="498.876" y2="498.851"/><line style="stroke:#181818;stroke-width:1.0;" x1="273.478" x2="276.302" y1="498.876" y2="508.469"/><line style="stroke:#181818;stroke-width:1.0;" x1="273.478" x2="279.89" y1="498.876" y2="503.66"/><line style="stroke:#181818;stroke-width:1.0;" x1="274.267" x2="269.483" y1="494.474" y2="500.886"/><line style="stroke:#181818;stroke-width:1.0;" x1="168.814" x2="173.598" y1="425.768" y2="419.356"/><line style="stroke:#181818;stroke-width:1.0;" x1="171.2185" x2="176.0025" y1="427.562" y2="421.15"/><line style="stroke:#181818;stroke-width:1.0;" x1="174.412" x2="168" y1="424.954" y2="420.17"/></g><!--MD5=[70ca068deee80e22ec8ec3d197b6f9a6]
link Horario to PCH--><g id="link_Horario_PCH"><path codeLine="58" d="M327.76,130.05 C305.85,146.74 282.63,164.44 262.21,180 " fill="none" id="Horario-PCH" style="stroke:#181818;stroke-width:1.0;"/><line style="stroke:#181818;stroke-width:1.0;" x1="261.2858" x2="256.4379" y1="185.7379" y2="179.3742"/><line style="stroke:#181818;stroke-width:1.0;" x1="263.6723" x2="258.8244" y1="183.92" y2="177.5562"/><line style="stroke:#181818;stroke-width:1.0;" x1="262.0438" x2="255.68" y1="180.1321" y2="184.98"/><line style="stroke:#181818;stroke-width:1.0;" x1="327.861" x2="330.5992" y1="129.961" y2="120.3432"/><line style="stroke:#181818;stroke-width:1.0;" x1="327.861" x2="337.8608" y1="129.961" y2="129.8968"/><line style="stroke:#181818;stroke-width:1.0;" x1="327.861" x2="334.23" y1="129.961" y2="125.12"/><line style="stroke:#181818;stroke-width:1.0;" x1="323.8482" x2="328.6892" y1="127.9868" y2="134.3558"/></g><!--MD5=[e32e6090a646fcfc9bd201efa6d2c105]
link PCH to PAS--><g id="link_PCH_PAS"><path codeLine="59" d="M255.03,273.58 C272.61,289 292.39,306.35 310.68,322.39 " fill="none" id="PCH-PAS" style="stroke:#181818;stroke-width:1.0;"/><line style="stroke:#181818;stroke-width:1.0;" x1="310.8038" x2="320.7748" y1="322.5069" y2="323.2679"/><line style="stroke:#181818;stroke-width:1.0;" x1="310.8038" x2="312.8652" y1="322.5069" y2="332.2921"/><line style="stroke:#181818;stroke-width:1.0;" x1="310.8038" x2="316.82" y1="322.5069" y2="327.78"/><line style="stroke:#181818;stroke-width:1.0;" x1="311.9363" x2="306.6632" y1="318.1805" y2="324.1967"/><line style="stroke:#181818;stroke-width:1.0;" x1="249.144" x2="254.4251" y1="273.7351" y2="267.726"/><line style="stroke:#181818;stroke-width:1.0;" x1="251.3974" x2="256.6785" y1="275.7156" y2="269.7065"/><line style="stroke:#181818;stroke-width:1.0;" x1="254.7891" x2="248.78" y1="273.3712" y2="268.09"/></g><!--MD5=[d04cb5fe7bd74d8745bd73f35bf10b6d]
link Horario to PDICH--><g id="link_Horario_PDICH"><path codeLine="65" d="M492.04,130.05 C513.64,146.74 536.53,164.44 556.66,180 " fill="none" id="Horario-PDICH" style="stroke:#181818;stroke-width:1.0;"/><line style="stroke:#181818;stroke-width:1.0;" x1="562.3681" x2="557.4794" y1="179.3694" y2="185.7019"/><line style="stroke:#181818;stroke-width:1.0;" x1="559.9934" x2="555.1047" y1="177.5361" y2="183.8686"/><line style="stroke:#181818;stroke-width:1.0;" x1="556.7575" x2="563.09" y1="180.0913" y2="184.98"/><line style="stroke:#181818;stroke-width:1.0;" x1="492.0025" x2="482.0035" y1="130.0087" y2="129.8694"/><line style="stroke:#181818;stroke-width:1.0;" x1="492.0025" x2="489.3365" y1="130.0087" y2="120.3706"/><line style="stroke:#181818;stroke-width:1.0;" x1="492.0025" x2="485.67" y1="130.0087" y2="125.12"/><line style="stroke:#181818;stroke-width:1.0;" x1="491.1412" x2="496.03" y1="134.3972" y2="128.0647"/></g><!--MD5=[82969f99b06f0421d0ad1486f2d0c42b]
link PDICH to PDI--><g id="link_PDICH_PDI"><path codeLine="66" d="M615.5,276.5 C615.5,290.24 615.5,305.31 615.5,319.53 " fill="none" id="PDICH-PDI" style="stroke:#181818;stroke-width:1.0;"/><line style="stroke:#181818;stroke-width:1.0;" x1="615.5" x2="621.5" y1="319.78" y2="327.78"/><line style="stroke:#181818;stroke-width:1.0;" x1="615.5" x2="609.5" y1="319.78" y2="327.78"/><line style="stroke:#181818;stroke-width:1.0;" x1="615.5" x2="615.5" y1="319.78" y2="327.78"/><line style="stroke:#181818;stroke-width:1.0;" x1="619.5" x2="611.5" y1="317.78" y2="317.78"/><line style="stroke:#181818;stroke-width:1.0;" x1="611.5" x2="619.5" y1="272.09" y2="272.09"/><line style="stroke:#181818;stroke-width:1.0;" x1="611.5" x2="619.5" y1="275.09" y2="275.09"/><line style="stroke:#181818;stroke-width:1.0;" x1="615.5" x2="615.5" y1="276.09" y2="268.09"/></g><!--MD5=[b366c6d9c402509062b27abda1eb787a]
link Horario to PASmodH--><g id="link_Horario_PASmodH"><path codeLine="72" d="M410.5,133.57 C410.5,147.95 410.5,162.91 410.5,176.48 " fill="none" id="Horario-PASmodH" style="stroke:#181818;stroke-width:1.0;"/><line style="stroke:#181818;stroke-width:1.0;" x1="414.5" x2="406.5" y1="180.73" y2="180.73"/><line style="stroke:#181818;stroke-width:1.0;" x1="414.5" x2="406.5" y1="177.73" y2="177.73"/><line style="stroke:#181818;stroke-width:1.0;" x1="410.5" x2="410.5" y1="176.73" y2="184.73"/><line style="stroke:#181818;stroke-width:1.0;" x1="410.5" x2="404.5" y1="133.12" y2="125.12"/><line style="stroke:#181818;stroke-width:1.0;" x1="410.5" x2="416.5" y1="133.12" y2="125.12"/><line style="stroke:#181818;stroke-width:1.0;" x1="410.5" x2="410.5" y1="133.12" y2="125.12"/><line style="stroke:#181818;stroke-width:1.0;" x1="406.5" x2="414.5" y1="135.12" y2="135.12"/></g><!--MD5=[f7b4fad215d13bb3e14bc4f8a55b5449]
link PASmodH to PAS--><g id="link_PASmodH_PAS"><path codeLine="73" d="M398.53,276.04 C395.08,290.01 391.29,305.39 387.72,319.85 " fill="none" id="PASmodH-PAS" style="stroke:#181818;stroke-width:1.0;"/><line style="stroke:#181818;stroke-width:1.0;" x1="387.6834" x2="391.5959" y1="320.0122" y2="329.215"/><line style="stroke:#181818;stroke-width:1.0;" x1="387.6834" x2="379.9441" y1="320.0122" y2="326.345"/><line style="stroke:#181818;stroke-width:1.0;" x1="387.6834" x2="385.77" y1="320.0122" y2="327.78"/><line style="stroke:#181818;stroke-width:1.0;" x1="392.0457" x2="384.2778" y1="319.0269" y2="317.1135"/><line style="stroke:#181818;stroke-width:1.0;" x1="395.6494" x2="403.4172" y1="271.0172" y2="272.9306"/><line style="stroke:#181818;stroke-width:1.0;" x1="394.9319" x2="402.6997" y1="273.9301" y2="275.8435"/><line style="stroke:#181818;stroke-width:1.0;" x1="398.5766" x2="400.49" y1="275.8578" y2="268.09"/></g><!--MD5=[0785f1a7df834843eaf805d5f7251d6a]
link Horario to PDIprop--><g id="link_Horario_PDIprop"><path codeLine="79" d="M509.87,103.21 C574.38,126.71 658.8,157.47 726.83,182.26 " fill="none" id="Horario-PDIprop" style="stroke:#181818;stroke-width:1.0;"/><line style="stroke:#181818;stroke-width:1.0;" x1="732.2341" x2="729.4909" y1="179.9709" y2="187.4859"/><line style="stroke:#181818;stroke-width:1.0;" x1="729.4159" x2="726.6728" y1="178.9423" y2="186.4573"/><line style="stroke:#181818;stroke-width:1.0;" x1="727.105" x2="734.62" y1="182.3569" y2="185.1"/><line style="stroke:#181818;stroke-width:1.0;" x1="509.735" x2="500.1627" y1="103.1631" y2="106.0563"/><line style="stroke:#181818;stroke-width:1.0;" x1="509.735" x2="504.2773" y1="103.1631" y2="94.7837"/><line style="stroke:#181818;stroke-width:1.0;" x1="509.735" x2="502.22" y1="103.1631" y2="100.42"/><line style="stroke:#181818;stroke-width:1.0;" x1="510.2422" x2="512.9853" y1="107.6064" y2="100.0914"/></g><!--MD5=[329016a8611ef21b3d6fb45a09c16db7]
link PDIprop to PDI--><g id="link_PDIprop_PDI"><path codeLine="80" d="M776.55,272.46 C752.02,288.47 724.14,306.65 698.54,323.34 " fill="none" id="PDIprop-PDI" style="stroke:#181818;stroke-width:1.0;"/><line style="stroke:#181818;stroke-width:1.0;" x1="698.44" x2="695.0186" y1="323.4086" y2="332.805"/><line style="stroke:#181818;stroke-width:1.0;" x1="698.44" x2="688.4614" y1="323.4086" y2="322.755"/><line style="stroke:#181818;stroke-width:1.0;" x1="698.44" x2="691.74" y1="323.4086" y2="327.78"/><line style="stroke:#181818;stroke-width:1.0;" x1="702.3008" x2="697.9293" y1="325.6657" y2="318.9657"/><line style="stroke:#181818;stroke-width:1.0;" x1="777.7243" x2="782.0957" y1="266.9257" y2="273.6257"/><line style="stroke:#181818;stroke-width:1.0;" x1="775.2117" x2="779.5832" y1="268.565" y2="275.265"/><line style="stroke:#181818;stroke-width:1.0;" x1="776.56" x2="783.26" y1="272.4614" y2="268.09"/></g><!--MD5=[be3370d6582e946fd608b2d6f93b1d92]
link Estudiante to EEE--><g id="link_Estudiante_EEE"><path codeLine="86" d="M427.68,667.46 C436.9,683.1 446.12,698.76 454.31,712.66 " fill="none" id="Estudiante-EEE" style="stroke:#181818;stroke-width:1.0;"/><line style="stroke:#181818;stroke-width:1.0;" x1="459.9057" x2="453.0132" y1="714.2732" y2="718.3343"/><line style="stroke:#181818;stroke-width:1.0;" x1="458.3828" x2="451.4902" y1="711.6885" y2="715.7496"/><line style="stroke:#181818;stroke-width:1.0;" x1="454.4288" x2="458.49" y1="712.8575" y2="719.75"/><line style="stroke:#181818;stroke-width:1.0;" x1="427.4249" x2="418.1978" y1="667.0462" y2="663.1912"/><line style="stroke:#181818;stroke-width:1.0;" x1="427.4249" x2="428.5422" y1="667.0462" y2="657.1088"/><line style="stroke:#181818;stroke-width:1.0;" x1="427.4249" x2="423.37" y1="667.0462" y2="660.15"/><line style="stroke:#181818;stroke-width:1.0;" x1="424.9905" x2="431.8867" y1="670.7977" y2="666.7428"/></g><!--MD5=[ac588ec01ee3a280d1f7f05b51ef81c0]
link EEE to ListaDeClase--><g id="link_EEE_ListaDeClase"><path codeLine="87" d="M506.23,810.73 C513.21,824.89 520.95,840.63 528.35,855.68 " fill="none" id="EEE-ListaDeClase" style="stroke:#181818;stroke-width:1.0;"/><line style="stroke:#181818;stroke-width:1.0;" x1="528.4338" x2="537.3457" y1="855.8191" y2="860.3553"/><line style="stroke:#181818;stroke-width:1.0;" x1="528.4338" x2="526.5743" y1="855.8191" y2="865.6447"/><line style="stroke:#181818;stroke-width:1.0;" x1="528.4338" x2="531.96" y1="855.8191" y2="863"/><line style="stroke:#181818;stroke-width:1.0;" x1="531.1427" x2="523.9618" y1="852.2607" y2="855.7869"/><line style="stroke:#181818;stroke-width:1.0;" x1="500.7669" x2="507.945" y1="808.675" y2="805.1431"/><line style="stroke:#181818;stroke-width:1.0;" x1="502.0913" x2="509.2695" y1="811.3668" y2="807.8349"/><line style="stroke:#181818;stroke-width:1.0;" x1="506.1219" x2="502.59" y1="810.4981" y2="803.32"/></g><!--MD5=[3c4a8430ccceea1af8414133452a83fa]
link Estudiante to EC--><g id="link_Estudiante_EC"><path codeLine="93" d="M367.05,668.33 C362.5,733.89 356.57,819.15 352.91,871.96 " fill="none" id="Estudiante-EC" style="stroke:#181818;stroke-width:1.0;"/><line style="stroke:#181818;stroke-width:1.0;" x1="356.6021" x2="348.6205" y1="876.4305" y2="875.8879"/><line style="stroke:#181818;stroke-width:1.0;" x1="356.8055" x2="348.824" y1="873.4374" y2="872.8948"/><line style="stroke:#181818;stroke-width:1.0;" x1="352.8826" x2="352.34" y1="872.1684" y2="880.15"/><line style="stroke:#181818;stroke-width:1.0;" x1="367.0874" x2="361.6438" y1="668.0016" y2="659.6131"/><line style="stroke:#181818;stroke-width:1.0;" x1="367.0874" x2="373.6162" y1="668.0016" y2="660.4269"/><line style="stroke:#181818;stroke-width:1.0;" x1="367.0874" x2="367.63" y1="668.0016" y2="660.02"/><line style="stroke:#181818;stroke-width:1.0;" x1="362.961" x2="370.9426" y1="669.7257" y2="670.2683"/></g><!--MD5=[0a906d5985f3570dac2d96dad40764b8]
link EC to Asignatura--><g id="link_EC_Asignatura"><path codeLine="94" d="M375.44,970.93 C385.67,989.84 397.74,1012.12 409.31,1033.51 " fill="none" id="EC-Asignatura" style="stroke:#181818;stroke-width:1.0;"/><line style="stroke:#181818;stroke-width:1.0;" x1="409.4153" x2="418.498" y1="1033.6927" y2="1037.8764"/><line style="stroke:#181818;stroke-width:1.0;" x1="409.4153" x2="407.942" y1="1033.6927" y2="1043.5836"/><line style="stroke:#181818;stroke-width:1.0;" x1="409.4153" x2="413.22" y1="1033.6927" y2="1040.73"/><line style="stroke:#181818;stroke-width:1.0;" x1="411.9827" x2="404.9454" y1="1030.031" y2="1033.8357"/><line style="stroke:#181818;stroke-width:1.0;" x1="369.9022" x2="376.9336" y1="969.0936" y2="965.2778"/><line style="stroke:#181818;stroke-width:1.0;" x1="371.3331" x2="378.3645" y1="971.7303" y2="967.9145"/><line style="stroke:#181818;stroke-width:1.0;" x1="375.3258" x2="371.51" y1="970.7013" y2="963.67"/></g><!--MD5=[d36fbee36e3a91583196e1b6f293a145]
link ListaDeClase to Asignatura--><g id="link_ListaDeClase_Asignatura"><path codeLine="96" d="M525.29,987.44 C517.04,1002.54 508.13,1018.84 499.51,1034.62 " fill="none" id="ListaDeClase-Asignatura" style="stroke:#181818;stroke-width:1.0;"/><line style="stroke:#181818;stroke-width:1.0;" x1="501.5283" x2="494.5082" y1="1039.2782" y2="1035.4417"/><line style="stroke:#181818;stroke-width:1.0;" x1="502.967" x2="495.9469" y1="1036.6457" y2="1032.8092"/><line style="stroke:#181818;stroke-width:1.0;" x1="499.9365" x2="496.1" y1="1033.85" y2="1040.87"/><line style="stroke:#181818;stroke-width:1.0;" x1="523.2717" x2="530.2918" y1="982.8018" y2="986.6383"/><line style="stroke:#181818;stroke-width:1.0;" x1="521.833" x2="528.8531" y1="985.4343" y2="989.2708"/><line style="stroke:#181818;stroke-width:1.0;" x1="524.8635" x2="528.7" y1="988.23" y2="981.21"/></g><!--MD5=[788e3c3ed447072df8b095c0b289723e]
link PDI to Estudiante--><g id="link_PDI_Estudiante"><path codeLine="98" d="M546.95,434.45 C524.16,452.73 498.28,473.47 473.59,493.26 " fill="none" id="PDI-Estudiante" style="stroke:#181818;stroke-width:1.0;stroke-dasharray:7.0,7.0;"/><line style="stroke:#181818;stroke-width:1.0;" x1="473.5942" x2="471.1008" y1="493.269" y2="502.9531"/><line style="stroke:#181818;stroke-width:1.0;" x1="473.5942" x2="463.5992" y1="493.269" y2="493.5869"/><line style="stroke:#181818;stroke-width:1.0;" x1="473.5942" x2="467.35" y1="493.269" y2="498.27"/><line style="stroke:#181818;stroke-width:1.0;" x1="477.6557" x2="472.6547" y1="495.1408" y2="488.8966"/><line style="stroke:#181818;stroke-width:1.0;" x1="547.8674" x2="552.8684" y1="428.5884" y2="434.8326"/><line style="stroke:#181818;stroke-width:1.0;" x1="545.5258" x2="550.5269" y1="430.4638" y2="436.708"/><line style="stroke:#181818;stroke-width:1.0;" x1="547.2458" x2="553.49" y1="434.211" y2="429.21"/></g><!--MD5=[9a483e273c1b9882adbd15fee2e43daf]
link PAS to Estudiante--><g id="link_PAS_Estudiante"><path codeLine="99" d="M373.5,437.49 C373.5,451.12 373.5,465.99 373.5,480.73 " fill="none" id="PAS-Estudiante" style="stroke:#181818;stroke-width:1.0;stroke-dasharray:7.0,7.0;"/><line style="stroke:#181818;stroke-width:1.0;" x1="373.5" x2="379.5" y1="480.9" y2="488.9"/><line style="stroke:#181818;stroke-width:1.0;" x1="373.5" x2="367.5" y1="480.9" y2="488.9"/><line style="stroke:#181818;stroke-width:1.0;" x1="373.5" x2="373.5" y1="480.9" y2="488.9"/><line style="stroke:#181818;stroke-width:1.0;" x1="377.5" x2="369.5" y1="478.9" y2="478.9"/><line style="stroke:#181818;stroke-width:1.0;" x1="369.5" x2="377.5" y1="433.21" y2="433.21"/><line style="stroke:#181818;stroke-width:1.0;" x1="369.5" x2="377.5" y1="436.21" y2="436.21"/><line style="stroke:#181818;stroke-width:1.0;" x1="373.5" x2="373.5" y1="437.21" y2="429.21"/></g><!--MD5=[ead44b111fe4d0fd07de6d751474dc3d]
link PDI to pbl--><g id="link_PDI_pbl"><path codeLine="105" d="M615.5,437.28 C615.5,465.13 615.5,498.16 615.5,524.72 " fill="none" id="PDI-pbl" style="stroke:#181818;stroke-width:1.0;"/><line style="stroke:#181818;stroke-width:1.0;" x1="619.5" x2="611.5" y1="528.75" y2="528.75"/><line style="stroke:#181818;stroke-width:1.0;" x1="619.5" x2="611.5" y1="525.75" y2="525.75"/><line style="stroke:#181818;stroke-width:1.0;" x1="615.5" x2="615.5" y1="524.75" y2="532.75"/><line style="stroke:#181818;stroke-width:1.0;" x1="615.5" x2="609.5" y1="437.21" y2="429.21"/><line style="stroke:#181818;stroke-width:1.0;" x1="615.5" x2="621.5" y1="437.21" y2="429.21"/><line style="stroke:#181818;stroke-width:1.0;" x1="615.5" x2="615.5" y1="437.21" y2="429.21"/><line style="stroke:#181818;stroke-width:1.0;" x1="611.5" x2="619.5" y1="439.21" y2="439.21"/></g><!--MD5=[e7622f8a02e9e7c9636c700816c5949b]
link pbl to ListaDeClase--><g id="link_pbl_ListaDeClase"><path codeLine="106" d="M608.22,624.24 C601.29,670.33 590.46,741.41 580.5,803 C577.79,819.75 574.78,837.81 571.93,854.65 " fill="none" id="pbl-ListaDeClase" style="stroke:#181818;stroke-width:1.0;"/><line style="stroke:#181818;stroke-width:1.0;" x1="571.8691" x2="576.4566" y1="854.9212" y2="863.8068"/><line style="stroke:#181818;stroke-width:1.0;" x1="571.8691" x2="564.6234" y1="854.9212" y2="861.8132"/><line style="stroke:#181818;stroke-width:1.0;" x1="571.8691" x2="570.54" y1="854.9212" y2="862.81"/><line style="stroke:#181818;stroke-width:1.0;" x1="576.1458" x2="568.257" y1="853.6135" y2="852.2844"/><line style="stroke:#181818;stroke-width:1.0;" x1="604.8815" x2="612.7932" y1="619.5732" y2="620.7585"/><line style="stroke:#181818;stroke-width:1.0;" x1="604.437" x2="612.3487" y1="622.5401" y2="623.7254"/><line style="stroke:#181818;stroke-width:1.0;" x1="608.2447" x2="609.43" y1="624.1217" y2="616.21"/></g><!--MD5=[cf43f60508c1f8214cae5ab02e5948d5]
@startuml supuesto1E-R

entity "Horario" as Horario{
    * idHorario : number
    nombre : text
    fechaIncorporacion: date
    fechaValidez: date
}

entity "Estudiante" as Estudiante{
    * idEstudiante : number
    nombre: text
    fechaIncorporacion : date
    fechaNacimiento : date
    DNI : number
    idPDI : number <<FK>>
    idPAS : number <<FK>>
}

entity "ListaDeClase" as ListaDeClase{
    * idListado : number
    nombreListado : text
    fechaIncorporacion : date
    nrEstudiantes : number
}

entity "Asignatura" as Asignatura{
    * idAsignatura : number
    nombre : text
    fechaIncorporacion : date
    nrEstudiantes : number
    profesor : text
    curso : number
}

entity "PDI" as PDI{
    * idPDI : number
    nombre : text
    fechaContratación : date
}

entity "PAS" as PAS{
    * idPAS : number
    nombre : text
    fechaContratacion : date
}

entity "Estudiante_consulta_horario" as ECH{
    * idHorario : number
    * idEstudiante : number
}
Horario }|- -|| ECH
ECH ||- -|{ Estudiante

entity "PAS_consulta_horario" as PCH{
    * idHorario : number
    * idPAS : number
}
Horario }|- -|| PCH
PCH ||- -|{ PAS

entity "PDI_consulta_horario" as PDICH{
    * idHorario : number
    * idPDI : number
}
Horario }|- -|| PDICH
PDICH ||- -|{ PDI

entity "PAS_modifica_horario" as PASmodH{
    * idHorario : number
    * idPAS : number
}
Horario }|- -|| PASmodH
PASmodH ||- -|{ PAS

entity "PDI_propone_cambio_horario" as PDIprop{
    * idHorario : number
    * idPDI : number
}
Horario }|- -|| PDIprop
PDIprop ||- -|{ PDI

entity "Estudiante_esta_en" as EEE{
    * idEstudiante: number
    * idListado : number
}
Estudiante }|- -|| EEE
EEE ||- -|{ ListaDeClase

entity "Estudiante_cursa" as EC{
    * idEstudiante : number
    * idAsignatura : number
}
Estudiante }|- -|| EC
EC ||- -|{ Asignatura

ListaDeClase ||- -|| Asignatura

PDI ||..|{ Estudiante
PAS ||..|{ Estudiante

entity "PDI_busca_en_lista" as pbl{
    * idPDI : number
    * idListado : number
}
PDI }|- -|| pbl
pbl ||- -|{ ListaDeClase

















@enduml

PlantUML version 1.2022.7(Mon Aug 22 19:01:30 CEST 2022)
(GPL source distribution)
Java Runtime: OpenJDK Runtime Environment
JVM: OpenJDK 64-Bit Server VM
Default Encoding: Cp1252
Language: es
Country: ES
--></g></svg>