<?xml version="1.0" encoding="UTF-8" standalone="no"?><svg xmlns="http://www.w3.org/2000/svg" xmlns:xlink="http://www.w3.org/1999/xlink" contentStyleType="text/css" height="1202px" preserveAspectRatio="none" style="width:752px;height:1202px;background:#FFFFFF;" version="1.1" viewBox="0 0 752 1202" width="752px" zoomAndPan="magnify"><defs/><g><!--MD5=[74438b4bcd0b343607a1e9b7af88b110]
class Horario--><g id="elem_Horario"><rect codeLine="2" fill="#F1F1F1" height="136.0469" id="Horario" rx="2.5" ry="2.5" style="stroke:#181818;stroke-width:0.5;" width="203" x="213" y="854"/><ellipse cx="287.25" cy="870" fill="#ADD1B2" rx="11" ry="11" style="stroke:#181818;stroke-width:1.0;"/><path d="M286.1094,870.7969 L286.1094,873.2969 L290.4375,873.2969 L290.4375,872.375 Q290.4375,871.7656 290.6719,871.5 Q290.9219,871.2344 291.2969,871.2344 Q291.6719,871.2344 291.9063,871.5 Q292.1406,871.7656 292.1406,872.375 L292.1406,875 L284.1406,875 Q283.5156,875 283.25,874.7656 Q283,874.5313 283,874.1406 Q283,873.7656 283.2656,873.5313 Q283.5313,873.2969 284.1406,873.2969 L284.4063,873.2969 L284.4063,866.6406 L284.1406,866.6406 Q283.5156,866.6406 283.25,866.4063 Q283,866.1719 283,865.7813 Q283,865.4063 283.25,865.1719 Q283.5156,864.9375 284.1406,864.9375 L291.7656,864.9375 L291.7656,867.5313 Q291.7656,868.1406 291.5313,868.4063 Q291.3125,868.6563 290.9219,868.6563 Q290.5469,868.6563 290.3125,868.4063 Q290.0781,868.1406 290.0781,867.5313 L290.0781,866.6406 L286.1094,866.6406 L286.1094,869.0938 L287.5938,869.0938 Q287.5938,868.4375 287.7188,868.25 Q287.9844,867.8438 288.4531,867.8438 Q288.8281,867.8438 289.0625,868.1094 Q289.2969,868.3594 289.2969,868.9688 L289.2969,870.9375 Q289.2969,871.4844 289.1719,871.6719 Q288.9063,872.0625 288.4531,872.0625 Q287.9844,872.0625 287.7188,871.6563 Q287.5938,871.4688 287.5938,870.7969 L286.1094,870.7969 Z " fill="#000000"/><text fill="#000000" font-family="sans-serif" font-size="14" lengthAdjust="spacing" textLength="46" x="307.75" y="875.7285">Horario</text><line style="stroke:#181818;stroke-width:0.5;" x1="214" x2="415" y1="886" y2="886"/><ellipse cx="224" cy="900.3047" fill="#000000" rx="3" ry="3" style="stroke:#000000;stroke-width:1.0;"/><text fill="#000000" font-family="sans-serif" font-size="14" lengthAdjust="spacing" textLength="117" x="233" y="904.5332">idHorario : number</text><text fill="#000000" font-family="sans-serif" font-size="14" lengthAdjust="spacing" textLength="82" x="233" y="922.1426">nombre : text</text><text fill="#000000" font-family="sans-serif" font-size="14" lengthAdjust="spacing" textLength="157" x="233" y="939.752">fechaIncorporacion: date</text><text fill="#000000" font-family="sans-serif" font-size="14" lengthAdjust="spacing" textLength="116" x="233" y="957.3613">fechaValidez: date</text><text fill="#000000" font-family="sans-serif" font-size="14" lengthAdjust="spacing" textLength="177" x="233" y="974.9707">idAsignatura : number «FK»</text><line style="stroke:#181818;stroke-width:0.5;" x1="214" x2="415" y1="982.0469" y2="982.0469"/></g><!--MD5=[9196e7f5424c8ba52e10312e1fe81956]
class Estudiante--><g id="elem_Estudiante"><rect codeLine="10" fill="#F1F1F1" height="153.6563" id="Estudiante" rx="2.5" ry="2.5" style="stroke:#181818;stroke-width:0.5;" width="187" x="447" y="203"/><ellipse cx="502.75" cy="219" fill="#ADD1B2" rx="11" ry="11" style="stroke:#181818;stroke-width:1.0;"/><path d="M501.6094,219.7969 L501.6094,222.2969 L505.9375,222.2969 L505.9375,221.375 Q505.9375,220.7656 506.1719,220.5 Q506.4219,220.2344 506.7969,220.2344 Q507.1719,220.2344 507.4063,220.5 Q507.6406,220.7656 507.6406,221.375 L507.6406,224 L499.6406,224 Q499.0156,224 498.75,223.7656 Q498.5,223.5313 498.5,223.1406 Q498.5,222.7656 498.7656,222.5313 Q499.0313,222.2969 499.6406,222.2969 L499.9063,222.2969 L499.9063,215.6406 L499.6406,215.6406 Q499.0156,215.6406 498.75,215.4063 Q498.5,215.1719 498.5,214.7813 Q498.5,214.4063 498.75,214.1719 Q499.0156,213.9375 499.6406,213.9375 L507.2656,213.9375 L507.2656,216.5313 Q507.2656,217.1406 507.0313,217.4063 Q506.8125,217.6563 506.4219,217.6563 Q506.0469,217.6563 505.8125,217.4063 Q505.5781,217.1406 505.5781,216.5313 L505.5781,215.6406 L501.6094,215.6406 L501.6094,218.0938 L503.0938,218.0938 Q503.0938,217.4375 503.2188,217.25 Q503.4844,216.8438 503.9531,216.8438 Q504.3281,216.8438 504.5625,217.1094 Q504.7969,217.3594 504.7969,217.9688 L504.7969,219.9375 Q504.7969,220.4844 504.6719,220.6719 Q504.4063,221.0625 503.9531,221.0625 Q503.4844,221.0625 503.2188,220.6563 Q503.0938,220.4688 503.0938,219.7969 L501.6094,219.7969 Z " fill="#000000"/><text fill="#000000" font-family="sans-serif" font-size="14" lengthAdjust="spacing" textLength="67" x="523.25" y="224.7285">Estudiante</text><line style="stroke:#181818;stroke-width:0.5;" x1="448" x2="633" y1="235" y2="235"/><ellipse cx="458" cy="249.3047" fill="#000000" rx="3" ry="3" style="stroke:#000000;stroke-width:1.0;"/><text fill="#000000" font-family="sans-serif" font-size="14" lengthAdjust="spacing" textLength="138" x="467" y="253.5332">idEstudiante : number</text><text fill="#000000" font-family="sans-serif" font-size="14" lengthAdjust="spacing" textLength="78" x="467" y="271.1426">nombre: text</text><text fill="#000000" font-family="sans-serif" font-size="14" lengthAdjust="spacing" textLength="161" x="467" y="288.752">fechaIncorporacion : date</text><text fill="#000000" font-family="sans-serif" font-size="14" lengthAdjust="spacing" textLength="144" x="467" y="306.3613">fechaNacimiento : date</text><text fill="#000000" font-family="sans-serif" font-size="14" lengthAdjust="spacing" textLength="82" x="467" y="323.9707">DNI : number</text><text fill="#000000" font-family="sans-serif" font-size="14" lengthAdjust="spacing" textLength="67" x="467" y="341.5801">email : text</text><line style="stroke:#181818;stroke-width:0.5;" x1="448" x2="633" y1="348.6563" y2="348.6563"/></g><!--MD5=[347e7aef5a94730de2181062ec5fc448]
class ListaDeClase--><g id="elem_ListaDeClase"><rect codeLine="19" fill="#F1F1F1" height="153.6563" id="ListaDeClase" rx="2.5" ry="2.5" style="stroke:#181818;stroke-width:0.5;" width="203" x="325" y="417"/><ellipse cx="380.25" cy="433" fill="#ADD1B2" rx="11" ry="11" style="stroke:#181818;stroke-width:1.0;"/><path d="M379.1094,433.7969 L379.1094,436.2969 L383.4375,436.2969 L383.4375,435.375 Q383.4375,434.7656 383.6719,434.5 Q383.9219,434.2344 384.2969,434.2344 Q384.6719,434.2344 384.9063,434.5 Q385.1406,434.7656 385.1406,435.375 L385.1406,438 L377.1406,438 Q376.5156,438 376.25,437.7656 Q376,437.5313 376,437.1406 Q376,436.7656 376.2656,436.5313 Q376.5313,436.2969 377.1406,436.2969 L377.4063,436.2969 L377.4063,429.6406 L377.1406,429.6406 Q376.5156,429.6406 376.25,429.4063 Q376,429.1719 376,428.7813 Q376,428.4063 376.25,428.1719 Q376.5156,427.9375 377.1406,427.9375 L384.7656,427.9375 L384.7656,430.5313 Q384.7656,431.1406 384.5313,431.4063 Q384.3125,431.6563 383.9219,431.6563 Q383.5469,431.6563 383.3125,431.4063 Q383.0781,431.1406 383.0781,430.5313 L383.0781,429.6406 L379.1094,429.6406 L379.1094,432.0938 L380.5938,432.0938 Q380.5938,431.4375 380.7188,431.25 Q380.9844,430.8438 381.4531,430.8438 Q381.8281,430.8438 382.0625,431.1094 Q382.2969,431.3594 382.2969,431.9688 L382.2969,433.9375 Q382.2969,434.4844 382.1719,434.6719 Q381.9063,435.0625 381.4531,435.0625 Q380.9844,435.0625 380.7188,434.6563 Q380.5938,434.4688 380.5938,433.7969 L379.1094,433.7969 Z " fill="#000000"/><text fill="#000000" font-family="sans-serif" font-size="14" lengthAdjust="spacing" textLength="84" x="400.75" y="438.7285">ListaDeClase</text><line style="stroke:#181818;stroke-width:0.5;" x1="326" x2="527" y1="449" y2="449"/><ellipse cx="336" cy="463.3047" fill="#000000" rx="3" ry="3" style="stroke:#000000;stroke-width:1.0;"/><text fill="#000000" font-family="sans-serif" font-size="14" lengthAdjust="spacing" textLength="117" x="345" y="467.5332">idListado : number</text><text fill="#000000" font-family="sans-serif" font-size="14" lengthAdjust="spacing" textLength="128" x="345" y="485.1426">nombreListado : text</text><text fill="#000000" font-family="sans-serif" font-size="14" lengthAdjust="spacing" textLength="161" x="345" y="502.752">fechaIncorporacion : date</text><text fill="#000000" font-family="sans-serif" font-size="14" lengthAdjust="spacing" textLength="147" x="345" y="520.3613">nrEstudiantes : number</text><text fill="#000000" font-family="sans-serif" font-size="14" lengthAdjust="spacing" textLength="177" x="345" y="537.9707">idAsignatura : number «FK»</text><text fill="#000000" font-family="sans-serif" font-size="14" lengthAdjust="spacing" textLength="176" x="345" y="555.5801">idEstudiante : number «FK»</text><line style="stroke:#181818;stroke-width:0.5;" x1="326" x2="527" y1="562.6563" y2="562.6563"/></g><!--MD5=[b461fef6a7ba6f6fc6681ac8d845c93a]
class Asignatura--><g id="elem_Asignatura"><rect codeLine="28" fill="#F1F1F1" height="153.6563" id="Asignatura" rx="2.5" ry="2.5" style="stroke:#181818;stroke-width:0.5;" width="187" x="333" y="631"/><ellipse cx="388.25" cy="647" fill="#ADD1B2" rx="11" ry="11" style="stroke:#181818;stroke-width:1.0;"/><path d="M387.1094,647.7969 L387.1094,650.2969 L391.4375,650.2969 L391.4375,649.375 Q391.4375,648.7656 391.6719,648.5 Q391.9219,648.2344 392.2969,648.2344 Q392.6719,648.2344 392.9063,648.5 Q393.1406,648.7656 393.1406,649.375 L393.1406,652 L385.1406,652 Q384.5156,652 384.25,651.7656 Q384,651.5313 384,651.1406 Q384,650.7656 384.2656,650.5313 Q384.5313,650.2969 385.1406,650.2969 L385.4063,650.2969 L385.4063,643.6406 L385.1406,643.6406 Q384.5156,643.6406 384.25,643.4063 Q384,643.1719 384,642.7813 Q384,642.4063 384.25,642.1719 Q384.5156,641.9375 385.1406,641.9375 L392.7656,641.9375 L392.7656,644.5313 Q392.7656,645.1406 392.5313,645.4063 Q392.3125,645.6563 391.9219,645.6563 Q391.5469,645.6563 391.3125,645.4063 Q391.0781,645.1406 391.0781,644.5313 L391.0781,643.6406 L387.1094,643.6406 L387.1094,646.0938 L388.5938,646.0938 Q388.5938,645.4375 388.7188,645.25 Q388.9844,644.8438 389.4531,644.8438 Q389.8281,644.8438 390.0625,645.1094 Q390.2969,645.3594 390.2969,645.9688 L390.2969,647.9375 Q390.2969,648.4844 390.1719,648.6719 Q389.9063,649.0625 389.4531,649.0625 Q388.9844,649.0625 388.7188,648.6563 Q388.5938,648.4688 388.5938,647.7969 L387.1094,647.7969 Z " fill="#000000"/><text fill="#000000" font-family="sans-serif" font-size="14" lengthAdjust="spacing" textLength="68" x="408.75" y="652.7285">Asignatura</text><line style="stroke:#181818;stroke-width:0.5;" x1="334" x2="519" y1="663" y2="663"/><ellipse cx="344" cy="677.3047" fill="#000000" rx="3" ry="3" style="stroke:#000000;stroke-width:1.0;"/><text fill="#000000" font-family="sans-serif" font-size="14" lengthAdjust="spacing" textLength="139" x="353" y="681.5332">idAsignatura : number</text><text fill="#000000" font-family="sans-serif" font-size="14" lengthAdjust="spacing" textLength="82" x="353" y="699.1426">nombre : text</text><text fill="#000000" font-family="sans-serif" font-size="14" lengthAdjust="spacing" textLength="161" x="353" y="716.752">fechaIncorporacion : date</text><text fill="#000000" font-family="sans-serif" font-size="14" lengthAdjust="spacing" textLength="147" x="353" y="734.3613">nrEstudiantes : number</text><text fill="#000000" font-family="sans-serif" font-size="14" lengthAdjust="spacing" textLength="87" x="353" y="751.9707">profesor : text</text><text fill="#000000" font-family="sans-serif" font-size="14" lengthAdjust="spacing" textLength="147" x="353" y="769.5801">idCurso : number «FK»</text><line style="stroke:#181818;stroke-width:0.5;" x1="334" x2="519" y1="776.6563" y2="776.6563"/></g><!--MD5=[5b14968682f2e46256dc8a570ae0d27b]
class PDI--><g id="elem_PDI"><rect codeLine="37" fill="#F1F1F1" height="136.0469" id="PDI" rx="2.5" ry="2.5" style="stroke:#181818;stroke-width:0.5;" width="182" x="563.5" y="426"/><ellipse cx="639.25" cy="442" fill="#ADD1B2" rx="11" ry="11" style="stroke:#181818;stroke-width:1.0;"/><path d="M638.1094,442.7969 L638.1094,445.2969 L642.4375,445.2969 L642.4375,444.375 Q642.4375,443.7656 642.6719,443.5 Q642.9219,443.2344 643.2969,443.2344 Q643.6719,443.2344 643.9063,443.5 Q644.1406,443.7656 644.1406,444.375 L644.1406,447 L636.1406,447 Q635.5156,447 635.25,446.7656 Q635,446.5313 635,446.1406 Q635,445.7656 635.2656,445.5313 Q635.5313,445.2969 636.1406,445.2969 L636.4063,445.2969 L636.4063,438.6406 L636.1406,438.6406 Q635.5156,438.6406 635.25,438.4063 Q635,438.1719 635,437.7813 Q635,437.4063 635.25,437.1719 Q635.5156,436.9375 636.1406,436.9375 L643.7656,436.9375 L643.7656,439.5313 Q643.7656,440.1406 643.5313,440.4063 Q643.3125,440.6563 642.9219,440.6563 Q642.5469,440.6563 642.3125,440.4063 Q642.0781,440.1406 642.0781,439.5313 L642.0781,438.6406 L638.1094,438.6406 L638.1094,441.0938 L639.5938,441.0938 Q639.5938,440.4375 639.7188,440.25 Q639.9844,439.8438 640.4531,439.8438 Q640.8281,439.8438 641.0625,440.1094 Q641.2969,440.3594 641.2969,440.9688 L641.2969,442.9375 Q641.2969,443.4844 641.1719,443.6719 Q640.9063,444.0625 640.4531,444.0625 Q639.9844,444.0625 639.7188,443.6563 Q639.5938,443.4688 639.5938,442.7969 L638.1094,442.7969 Z " fill="#000000"/><text fill="#000000" font-family="sans-serif" font-size="14" lengthAdjust="spacing" textLength="22" x="659.75" y="447.7285">PDI</text><line style="stroke:#181818;stroke-width:0.5;" x1="564.5" x2="744.5" y1="458" y2="458"/><ellipse cx="574.5" cy="472.3047" fill="#000000" rx="3" ry="3" style="stroke:#000000;stroke-width:1.0;"/><text fill="#000000" font-family="sans-serif" font-size="14" lengthAdjust="spacing" textLength="93" x="583.5" y="476.5332">idPDI : number</text><text fill="#000000" font-family="sans-serif" font-size="14" lengthAdjust="spacing" textLength="82" x="583.5" y="494.1426">nombre : text</text><text fill="#000000" font-family="sans-serif" font-size="14" lengthAdjust="spacing" textLength="156" x="583.5" y="511.752">fechaContratación : date</text><text fill="#000000" font-family="sans-serif" font-size="14" lengthAdjust="spacing" textLength="67" x="583.5" y="529.3613">email : text</text><text fill="#000000" font-family="sans-serif" font-size="14" lengthAdjust="spacing" textLength="85" x="583.5" y="546.9707">telefono : text</text><line style="stroke:#181818;stroke-width:0.5;" x1="564.5" x2="744.5" y1="554.0469" y2="554.0469"/></g><!--MD5=[36acb3e840b16351e2158aca66e9df6c]
class PAS--><g id="elem_PAS"><rect codeLine="45" fill="#F1F1F1" height="136.0469" id="PAS" rx="2.5" ry="2.5" style="stroke:#181818;stroke-width:0.5;" width="182" x="449.5" y="7"/><ellipse cx="522.75" cy="23" fill="#ADD1B2" rx="11" ry="11" style="stroke:#181818;stroke-width:1.0;"/><path d="M521.6094,23.7969 L521.6094,26.2969 L525.9375,26.2969 L525.9375,25.375 Q525.9375,24.7656 526.1719,24.5 Q526.4219,24.2344 526.7969,24.2344 Q527.1719,24.2344 527.4063,24.5 Q527.6406,24.7656 527.6406,25.375 L527.6406,28 L519.6406,28 Q519.0156,28 518.75,27.7656 Q518.5,27.5313 518.5,27.1406 Q518.5,26.7656 518.7656,26.5313 Q519.0313,26.2969 519.6406,26.2969 L519.9063,26.2969 L519.9063,19.6406 L519.6406,19.6406 Q519.0156,19.6406 518.75,19.4063 Q518.5,19.1719 518.5,18.7813 Q518.5,18.4063 518.75,18.1719 Q519.0156,17.9375 519.6406,17.9375 L527.2656,17.9375 L527.2656,20.5313 Q527.2656,21.1406 527.0313,21.4063 Q526.8125,21.6563 526.4219,21.6563 Q526.0469,21.6563 525.8125,21.4063 Q525.5781,21.1406 525.5781,20.5313 L525.5781,19.6406 L521.6094,19.6406 L521.6094,22.0938 L523.0938,22.0938 Q523.0938,21.4375 523.2188,21.25 Q523.4844,20.8438 523.9531,20.8438 Q524.3281,20.8438 524.5625,21.1094 Q524.7969,21.3594 524.7969,21.9688 L524.7969,23.9375 Q524.7969,24.4844 524.6719,24.6719 Q524.4063,25.0625 523.9531,25.0625 Q523.4844,25.0625 523.2188,24.6563 Q523.0938,24.4688 523.0938,23.7969 L521.6094,23.7969 Z " fill="#000000"/><text fill="#000000" font-family="sans-serif" font-size="14" lengthAdjust="spacing" textLength="27" x="543.25" y="28.7285">PAS</text><line style="stroke:#181818;stroke-width:0.5;" x1="450.5" x2="630.5" y1="39" y2="39"/><ellipse cx="460.5" cy="53.3047" fill="#000000" rx="3" ry="3" style="stroke:#000000;stroke-width:1.0;"/><text fill="#000000" font-family="sans-serif" font-size="14" lengthAdjust="spacing" textLength="98" x="469.5" y="57.5332">idPAS : number</text><text fill="#000000" font-family="sans-serif" font-size="14" lengthAdjust="spacing" textLength="82" x="469.5" y="75.1426">nombre : text</text><text fill="#000000" font-family="sans-serif" font-size="14" lengthAdjust="spacing" textLength="156" x="469.5" y="92.752">fechaContratacion : date</text><text fill="#000000" font-family="sans-serif" font-size="14" lengthAdjust="spacing" textLength="67" x="469.5" y="110.3613">email : text</text><text fill="#000000" font-family="sans-serif" font-size="14" lengthAdjust="spacing" textLength="85" x="469.5" y="127.9707">telefono : text</text><line style="stroke:#181818;stroke-width:0.5;" x1="450.5" x2="630.5" y1="135.0469" y2="135.0469"/></g><!--MD5=[aa9ebb045d22ec940c587c7180c59f8b]
class Curso--><g id="elem_Curso"><rect codeLine="53" fill="#F1F1F1" height="100.8281" id="Curso" rx="2.5" ry="2.5" style="stroke:#181818;stroke-width:0.5;" width="175" x="451" y="871.5"/><ellipse cx="515.25" cy="887.5" fill="#ADD1B2" rx="11" ry="11" style="stroke:#181818;stroke-width:1.0;"/><path d="M514.1094,888.2969 L514.1094,890.7969 L518.4375,890.7969 L518.4375,889.875 Q518.4375,889.2656 518.6719,889 Q518.9219,888.7344 519.2969,888.7344 Q519.6719,888.7344 519.9063,889 Q520.1406,889.2656 520.1406,889.875 L520.1406,892.5 L512.1406,892.5 Q511.5156,892.5 511.25,892.2656 Q511,892.0313 511,891.6406 Q511,891.2656 511.2656,891.0313 Q511.5313,890.7969 512.1406,890.7969 L512.4063,890.7969 L512.4063,884.1406 L512.1406,884.1406 Q511.5156,884.1406 511.25,883.9063 Q511,883.6719 511,883.2813 Q511,882.9063 511.25,882.6719 Q511.5156,882.4375 512.1406,882.4375 L519.7656,882.4375 L519.7656,885.0313 Q519.7656,885.6406 519.5313,885.9063 Q519.3125,886.1563 518.9219,886.1563 Q518.5469,886.1563 518.3125,885.9063 Q518.0781,885.6406 518.0781,885.0313 L518.0781,884.1406 L514.1094,884.1406 L514.1094,886.5938 L515.5938,886.5938 Q515.5938,885.9375 515.7188,885.75 Q515.9844,885.3438 516.4531,885.3438 Q516.8281,885.3438 517.0625,885.6094 Q517.2969,885.8594 517.2969,886.4688 L517.2969,888.4375 Q517.2969,888.9844 517.1719,889.1719 Q516.9063,889.5625 516.4531,889.5625 Q515.9844,889.5625 515.7188,889.1563 Q515.5938,888.9688 515.5938,888.2969 L514.1094,888.2969 Z " fill="#000000"/><text fill="#000000" font-family="sans-serif" font-size="14" lengthAdjust="spacing" textLength="38" x="535.75" y="893.2285">Curso</text><line style="stroke:#181818;stroke-width:0.5;" x1="452" x2="625" y1="903.5" y2="903.5"/><ellipse cx="462" cy="917.8047" fill="#000000" rx="3" ry="3" style="stroke:#000000;stroke-width:1.0;"/><text fill="#000000" font-family="sans-serif" font-size="14" lengthAdjust="spacing" textLength="109" x="471" y="922.0332">idCurso : number</text><text fill="#000000" font-family="sans-serif" font-size="14" lengthAdjust="spacing" textLength="110" x="471" y="939.6426">coordinador : text</text><ellipse cx="462" cy="953.0234" fill="#000000" rx="3" ry="3" style="stroke:#000000;stroke-width:1.0;"/><text fill="#000000" font-family="sans-serif" font-size="14" lengthAdjust="spacing" textLength="149" x="471" y="957.252">idGrado : number «FK»</text><line style="stroke:#181818;stroke-width:0.5;" x1="452" x2="625" y1="964.3281" y2="964.3281"/></g><!--MD5=[05e79642835c250851fe35b5cede5c48]
class Grupo--><g id="elem_Grupo"><rect codeLine="59" fill="#F1F1F1" height="83.2188" id="Grupo" rx="2.5" ry="2.5" style="stroke:#181818;stroke-width:0.5;" width="173" x="452" y="1085.5"/><ellipse cx="514.25" cy="1101.5" fill="#ADD1B2" rx="11" ry="11" style="stroke:#181818;stroke-width:1.0;"/><path d="M513.1094,1102.2969 L513.1094,1104.7969 L517.4375,1104.7969 L517.4375,1103.875 Q517.4375,1103.2656 517.6719,1103 Q517.9219,1102.7344 518.2969,1102.7344 Q518.6719,1102.7344 518.9063,1103 Q519.1406,1103.2656 519.1406,1103.875 L519.1406,1106.5 L511.1406,1106.5 Q510.5156,1106.5 510.25,1106.2656 Q510,1106.0313 510,1105.6406 Q510,1105.2656 510.2656,1105.0313 Q510.5313,1104.7969 511.1406,1104.7969 L511.4063,1104.7969 L511.4063,1098.1406 L511.1406,1098.1406 Q510.5156,1098.1406 510.25,1097.9063 Q510,1097.6719 510,1097.2813 Q510,1096.9063 510.25,1096.6719 Q510.5156,1096.4375 511.1406,1096.4375 L518.7656,1096.4375 L518.7656,1099.0313 Q518.7656,1099.6406 518.5313,1099.9063 Q518.3125,1100.1563 517.9219,1100.1563 Q517.5469,1100.1563 517.3125,1099.9063 Q517.0781,1099.6406 517.0781,1099.0313 L517.0781,1098.1406 L513.1094,1098.1406 L513.1094,1100.5938 L514.5938,1100.5938 Q514.5938,1099.9375 514.7188,1099.75 Q514.9844,1099.3438 515.4531,1099.3438 Q515.8281,1099.3438 516.0625,1099.6094 Q516.2969,1099.8594 516.2969,1100.4688 L516.2969,1102.4375 Q516.2969,1102.9844 516.1719,1103.1719 Q515.9063,1103.5625 515.4531,1103.5625 Q514.9844,1103.5625 514.7188,1103.1563 Q514.5938,1102.9688 514.5938,1102.2969 L513.1094,1102.2969 Z " fill="#000000"/><text fill="#000000" font-family="sans-serif" font-size="14" lengthAdjust="spacing" textLength="40" x="534.75" y="1107.2285">Grupo</text><line style="stroke:#181818;stroke-width:0.5;" x1="453" x2="624" y1="1117.5" y2="1117.5"/><ellipse cx="463" cy="1131.8047" fill="#000000" rx="3" ry="3" style="stroke:#000000;stroke-width:1.0;"/><text fill="#000000" font-family="sans-serif" font-size="14" lengthAdjust="spacing" textLength="111" x="472" y="1136.0332">idGrupo : number</text><ellipse cx="463" cy="1149.4141" fill="#000000" rx="3" ry="3" style="stroke:#000000;stroke-width:1.0;"/><text fill="#000000" font-family="sans-serif" font-size="14" lengthAdjust="spacing" textLength="147" x="472" y="1153.6426">idCurso : number «FK»</text><line style="stroke:#181818;stroke-width:0.5;" x1="453" x2="624" y1="1160.7188" y2="1160.7188"/></g><!--MD5=[0cb4a791058503f2fa7d036bf9e18857]
class Grado--><g id="elem_Grado"><rect codeLine="64" fill="#F1F1F1" height="136.0469" id="Grado" rx="2.5" ry="2.5" style="stroke:#181818;stroke-width:0.5;" width="209" x="98" y="1059"/><ellipse cx="178.25" cy="1075" fill="#ADD1B2" rx="11" ry="11" style="stroke:#181818;stroke-width:1.0;"/><path d="M177.1094,1075.7969 L177.1094,1078.2969 L181.4375,1078.2969 L181.4375,1077.375 Q181.4375,1076.7656 181.6719,1076.5 Q181.9219,1076.2344 182.2969,1076.2344 Q182.6719,1076.2344 182.9063,1076.5 Q183.1406,1076.7656 183.1406,1077.375 L183.1406,1080 L175.1406,1080 Q174.5156,1080 174.25,1079.7656 Q174,1079.5313 174,1079.1406 Q174,1078.7656 174.2656,1078.5313 Q174.5313,1078.2969 175.1406,1078.2969 L175.4063,1078.2969 L175.4063,1071.6406 L175.1406,1071.6406 Q174.5156,1071.6406 174.25,1071.4063 Q174,1071.1719 174,1070.7813 Q174,1070.4063 174.25,1070.1719 Q174.5156,1069.9375 175.1406,1069.9375 L182.7656,1069.9375 L182.7656,1072.5313 Q182.7656,1073.1406 182.5313,1073.4063 Q182.3125,1073.6563 181.9219,1073.6563 Q181.5469,1073.6563 181.3125,1073.4063 Q181.0781,1073.1406 181.0781,1072.5313 L181.0781,1071.6406 L177.1094,1071.6406 L177.1094,1074.0938 L178.5938,1074.0938 Q178.5938,1073.4375 178.7188,1073.25 Q178.9844,1072.8438 179.4531,1072.8438 Q179.8281,1072.8438 180.0625,1073.1094 Q180.2969,1073.3594 180.2969,1073.9688 L180.2969,1075.9375 Q180.2969,1076.4844 180.1719,1076.6719 Q179.9063,1077.0625 179.4531,1077.0625 Q178.9844,1077.0625 178.7188,1076.6563 Q178.5938,1076.4688 178.5938,1075.7969 L177.1094,1075.7969 Z " fill="#000000"/><text fill="#000000" font-family="sans-serif" font-size="14" lengthAdjust="spacing" textLength="40" x="198.75" y="1080.7285">Grado</text><line style="stroke:#181818;stroke-width:0.5;" x1="99" x2="306" y1="1091" y2="1091"/><ellipse cx="109" cy="1105.3047" fill="#000000" rx="3" ry="3" style="stroke:#000000;stroke-width:1.0;"/><text fill="#000000" font-family="sans-serif" font-size="14" lengthAdjust="spacing" textLength="111" x="118" y="1109.5332">idGrado : number</text><text fill="#000000" font-family="sans-serif" font-size="14" lengthAdjust="spacing" textLength="122" x="118" y="1127.1426">nombreGrado : text</text><text fill="#000000" font-family="sans-serif" font-size="14" lengthAdjust="spacing" textLength="66" x="118" y="1144.752">rama : text</text><text fill="#000000" font-family="sans-serif" font-size="14" lengthAdjust="spacing" textLength="110" x="118" y="1162.3613">coordinador : text</text><ellipse cx="109" cy="1175.7422" fill="#000000" rx="3" ry="3" style="stroke:#000000;stroke-width:1.0;"/><text fill="#000000" font-family="sans-serif" font-size="14" lengthAdjust="spacing" textLength="183" x="118" y="1179.9707">idUniversidad : number «FK»</text><line style="stroke:#181818;stroke-width:0.5;" x1="99" x2="306" y1="1187.0469" y2="1187.0469"/></g><!--MD5=[e80896688fdcdff1ec203b48a8b7f882]
class Universidad--><g id="elem_Universidad"><rect codeLine="72" fill="#F1F1F1" height="153.6563" id="Universidad" rx="2.5" ry="2.5" style="stroke:#181818;stroke-width:0.5;" width="171" x="7" y="845"/><ellipse cx="51.25" cy="861" fill="#ADD1B2" rx="11" ry="11" style="stroke:#181818;stroke-width:1.0;"/><path d="M50.1094,861.7969 L50.1094,864.2969 L54.4375,864.2969 L54.4375,863.375 Q54.4375,862.7656 54.6719,862.5 Q54.9219,862.2344 55.2969,862.2344 Q55.6719,862.2344 55.9063,862.5 Q56.1406,862.7656 56.1406,863.375 L56.1406,866 L48.1406,866 Q47.5156,866 47.25,865.7656 Q47,865.5313 47,865.1406 Q47,864.7656 47.2656,864.5313 Q47.5313,864.2969 48.1406,864.2969 L48.4063,864.2969 L48.4063,857.6406 L48.1406,857.6406 Q47.5156,857.6406 47.25,857.4063 Q47,857.1719 47,856.7813 Q47,856.4063 47.25,856.1719 Q47.5156,855.9375 48.1406,855.9375 L55.7656,855.9375 L55.7656,858.5313 Q55.7656,859.1406 55.5313,859.4063 Q55.3125,859.6563 54.9219,859.6563 Q54.5469,859.6563 54.3125,859.4063 Q54.0781,859.1406 54.0781,858.5313 L54.0781,857.6406 L50.1094,857.6406 L50.1094,860.0938 L51.5938,860.0938 Q51.5938,859.4375 51.7188,859.25 Q51.9844,858.8438 52.4531,858.8438 Q52.8281,858.8438 53.0625,859.1094 Q53.2969,859.3594 53.2969,859.9688 L53.2969,861.9375 Q53.2969,862.4844 53.1719,862.6719 Q52.9063,863.0625 52.4531,863.0625 Q51.9844,863.0625 51.7188,862.6563 Q51.5938,862.4688 51.5938,861.7969 L50.1094,861.7969 Z " fill="#000000"/><text fill="#000000" font-family="sans-serif" font-size="14" lengthAdjust="spacing" textLength="74" x="71.75" y="866.7285">Universidad</text><line style="stroke:#181818;stroke-width:0.5;" x1="8" x2="177" y1="877" y2="877"/><ellipse cx="18" cy="891.3047" fill="#000000" rx="3" ry="3" style="stroke:#000000;stroke-width:1.0;"/><text fill="#000000" font-family="sans-serif" font-size="14" lengthAdjust="spacing" textLength="145" x="27" y="895.5332">idUniversidad : number</text><text fill="#000000" font-family="sans-serif" font-size="14" lengthAdjust="spacing" textLength="82" x="27" y="913.1426">nombre : text</text><text fill="#000000" font-family="sans-serif" font-size="14" lengthAdjust="spacing" textLength="91" x="27" y="930.752">direccion : text</text><text fill="#000000" font-family="sans-serif" font-size="14" lengthAdjust="spacing" textLength="103" x="27" y="948.3613">nrTelefono : text</text><text fill="#000000" font-family="sans-serif" font-size="14" lengthAdjust="spacing" textLength="67" x="27" y="965.9707">email : text</text><text fill="#000000" font-family="sans-serif" font-size="14" lengthAdjust="spacing" textLength="59" x="27" y="983.5801">web : text</text><line style="stroke:#181818;stroke-width:0.5;" x1="8" x2="177" y1="990.6563" y2="990.6563"/></g><!--MD5=[9a483e273c1b9882adbd15fee2e43daf]
link PAS to Estudiante--><g id="link_PAS_Estudiante"><path codeLine="81" d="M540.5,151.22 C540.5,165.32 540.5,180.15 540.5,194.51 " fill="none" id="PAS-Estudiante" style="stroke:#181818;stroke-width:1.0;stroke-dasharray:7.0,7.0;"/><line style="stroke:#181818;stroke-width:1.0;" x1="540.5" x2="546.5" y1="194.91" y2="202.91"/><line style="stroke:#181818;stroke-width:1.0;" x1="540.5" x2="534.5" y1="194.91" y2="202.91"/><line style="stroke:#181818;stroke-width:1.0;" x1="540.5" x2="540.5" y1="194.91" y2="202.91"/><line style="stroke:#181818;stroke-width:1.0;" x1="544.5" x2="536.5" y1="192.91" y2="192.91"/><line style="stroke:#181818;stroke-width:1.0;" x1="536.5" x2="544.5" y1="147.03" y2="147.03"/><line style="stroke:#181818;stroke-width:1.0;" x1="536.5" x2="544.5" y1="150.03" y2="150.03"/><line style="stroke:#181818;stroke-width:1.0;" x1="540.5" x2="540.5" y1="151.03" y2="143.03"/></g><!--MD5=[3c0cec8431d9b4276ac51329a745daf1]
link Estudiante to PDI--><g id="link_Estudiante_PDI"><path codeLine="82" d="M585.34,364.4 C594.94,382.24 605.01,400.97 614.42,418.46 " fill="none" id="Estudiante-PDI" style="stroke:#181818;stroke-width:1.0;stroke-dasharray:7.0,7.0;"/><line style="stroke:#181818;stroke-width:1.0;" x1="620.0255" x2="612.9817" y1="420.4517" y2="424.2445"/><line style="stroke:#181818;stroke-width:1.0;" x1="618.6032" x2="611.5594" y1="417.8103" y2="421.6031"/><line style="stroke:#181818;stroke-width:1.0;" x1="614.6072" x2="618.4" y1="418.8262" y2="425.87"/><line style="stroke:#181818;stroke-width:1.0;" x1="585.2877" x2="576.2151" y1="364.2865" y2="360.0808"/><line style="stroke:#181818;stroke-width:1.0;" x1="585.2877" x2="586.7849" y1="364.2865" y2="354.3992"/><line style="stroke:#181818;stroke-width:1.0;" x1="585.2877" x2="581.5" y1="364.2865" y2="357.24"/><line style="stroke:#181818;stroke-width:1.0;" x1="582.7113" x2="589.7579" y1="367.942" y2="364.1543"/></g><!--MD5=[3cfafd3c363e80c6dc3dcc5b62e74191]
link Estudiante to ListaDeClase--><g id="link_Estudiante_ListaDeClase"><path codeLine="84" d="M495.57,364.56 C487.62,379.34 479.34,394.74 471.39,409.52 " fill="none" id="Estudiante-ListaDeClase" style="stroke:#181818;stroke-width:1.0;stroke-dasharray:7.0,7.0;"/><line style="stroke:#181818;stroke-width:1.0;" x1="471.3088" x2="472.7904" y1="409.6894" y2="419.5791"/><line style="stroke:#181818;stroke-width:1.0;" x1="471.3088" x2="462.2296" y1="409.6894" y2="413.8809"/><line style="stroke:#181818;stroke-width:1.0;" x1="471.3088" x2="467.51" y1="409.6894" y2="416.73"/><line style="stroke:#181818;stroke-width:1.0;" x1="475.7787" x2="468.7382" y1="409.8287" y2="406.0299"/><line style="stroke:#181818;stroke-width:1.0;" x1="494.0829" x2="501.1294" y1="358.8694" y2="362.6571"/><line style="stroke:#181818;stroke-width:1.0;" x1="492.6625" x2="499.709" y1="361.5119" y2="365.2995"/><line style="stroke:#181818;stroke-width:1.0;" x1="495.7123" x2="499.5" y1="364.2865" y2="357.24"/></g><!--MD5=[d36fbee36e3a91583196e1b6f293a145]
link ListaDeClase to Asignatura--><g id="link_ListaDeClase_Asignatura"><path codeLine="85" d="M426.5,579.48 C426.5,593.63 426.5,608.31 426.5,622.46 " fill="none" id="ListaDeClase-Asignatura" style="stroke:#181818;stroke-width:1.0;stroke-dasharray:7.0,7.0;"/><line style="stroke:#181818;stroke-width:1.0;" x1="430.5" x2="422.5" y1="626.73" y2="626.73"/><line style="stroke:#181818;stroke-width:1.0;" x1="430.5" x2="422.5" y1="623.73" y2="623.73"/><line style="stroke:#181818;stroke-width:1.0;" x1="426.5" x2="426.5" y1="622.73" y2="630.73"/><line style="stroke:#181818;stroke-width:1.0;" x1="426.5" x2="420.5" y1="579.24" y2="571.24"/><line style="stroke:#181818;stroke-width:1.0;" x1="426.5" x2="432.5" y1="579.24" y2="571.24"/><line style="stroke:#181818;stroke-width:1.0;" x1="426.5" x2="426.5" y1="579.24" y2="571.24"/><line style="stroke:#181818;stroke-width:1.0;" x1="422.5" x2="430.5" y1="581.24" y2="581.24"/></g><!--MD5=[854db1adf864bce446a41f9f8b6a4789]
link Asignatura to Curso--><g id="link_Asignatura_Curso"><path codeLine="87" d="M470.53,792.34 C483.19,816.3 496.71,841.9 508.33,863.89 " fill="none" id="Asignatura-Curso" style="stroke:#181818;stroke-width:1.0;stroke-dasharray:7.0,7.0;"/><line style="stroke:#181818;stroke-width:1.0;" x1="513.8541" x2="506.7835" y1="865.7935" y2="869.5359"/><line style="stroke:#181818;stroke-width:1.0;" x1="512.4507" x2="505.38" y1="863.142" y2="866.8844"/><line style="stroke:#181818;stroke-width:1.0;" x1="508.4476" x2="512.19" y1="864.1293" y2="871.2"/><line style="stroke:#181818;stroke-width:1.0;" x1="470.5224" x2="461.477" y1="792.3107" y2="788.0468"/><line style="stroke:#181818;stroke-width:1.0;" x1="470.5224" x2="472.083" y1="792.3107" y2="782.4332"/><line style="stroke:#181818;stroke-width:1.0;" x1="470.5224" x2="466.78" y1="792.3107" y2="785.24"/><line style="stroke:#181818;stroke-width:1.0;" x1="467.9227" x2="474.9934" y1="795.9495" y2="792.2071"/></g><!--MD5=[fe6bce91ba0078d5b32242feb250b82b]
link Curso to Grado--><g id="link_Curso_Grado"><path codeLine="89" d="M466.05,977.21 C455.28,984.74 444.21,992.22 433.5,999 C395.46,1023.09 352.55,1047.42 314.12,1068.25 " fill="none" id="Curso-Grado" style="stroke:#181818;stroke-width:1.0;"/><line style="stroke:#181818;stroke-width:1.0;" x1="312.4197" x2="308.6209" y1="1073.7209" y2="1066.6803"/><line style="stroke:#181818;stroke-width:1.0;" x1="315.0599" x2="311.2611" y1="1072.2964" y2="1065.2558"/><line style="stroke:#181818;stroke-width:1.0;" x1="314.0406" x2="307" y1="1068.3012" y2="1072.1"/><line style="stroke:#181818;stroke-width:1.0;" x1="466.167" x2="469.237" y1="977.1274" y2="967.6103"/><line style="stroke:#181818;stroke-width:1.0;" x1="466.167" x2="476.163" y1="977.1274" y2="977.4097"/><line style="stroke:#181818;stroke-width:1.0;" x1="466.167" x2="472.7" y1="977.1274" y2="972.51"/><line style="stroke:#181818;stroke-width:1.0;" x1="462.2251" x2="466.8425" y1="975.0153" y2="981.5482"/></g><!--MD5=[4a9fc01f576fac99a80d4f692b90928a]
link Universidad to Grado--><g id="link_Universidad_Grado"><path codeLine="91" d="M137.78,1006.56 C145.87,1021.5 154.26,1036.97 162.2,1051.63 " fill="none" id="Universidad-Grado" style="stroke:#181818;stroke-width:1.0;"/><line style="stroke:#181818;stroke-width:1.0;" x1="162.2442" x2="171.3335" y1="1051.7187" y2="1055.8882"/><line style="stroke:#181818;stroke-width:1.0;" x1="162.2442" x2="160.7865" y1="1051.7187" y2="1061.6118"/><line style="stroke:#181818;stroke-width:1.0;" x1="162.2442" x2="166.06" y1="1051.7187" y2="1058.75"/><line style="stroke:#181818;stroke-width:1.0;" x1="164.8059" x2="157.7746" y1="1048.0529" y2="1051.8687"/><line style="stroke:#181818;stroke-width:1.0;" x1="132.1576" x2="139.1922" y1="1004.5922" y2="1000.7824"/><line style="stroke:#181818;stroke-width:1.0;" x1="133.5863" x2="140.6209" y1="1007.2302" y2="1003.4204"/><line style="stroke:#181818;stroke-width:1.0;" x1="137.5798" x2="133.77" y1="1006.2046" y2="999.17"/></g><!--MD5=[c8a30bb16b96a8b9a8377e06d9d8f186]
link Curso to Grupo--><g id="link_Curso_Grupo"><path codeLine="93" d="M538.5,980.96 C538.5,1011.34 538.5,1048.13 538.5,1077.05 " fill="none" id="Curso-Grupo" style="stroke:#181818;stroke-width:1.0;"/><line style="stroke:#181818;stroke-width:1.0;" x1="538.5" x2="544.5" y1="1077.37" y2="1085.37"/><line style="stroke:#181818;stroke-width:1.0;" x1="538.5" x2="532.5" y1="1077.37" y2="1085.37"/><line style="stroke:#181818;stroke-width:1.0;" x1="538.5" x2="538.5" y1="1077.37" y2="1085.37"/><line style="stroke:#181818;stroke-width:1.0;" x1="542.5" x2="534.5" y1="1075.37" y2="1075.37"/><line style="stroke:#181818;stroke-width:1.0;" x1="534.5" x2="542.5" y1="976.66" y2="976.66"/><line style="stroke:#181818;stroke-width:1.0;" x1="534.5" x2="542.5" y1="979.66" y2="979.66"/><line style="stroke:#181818;stroke-width:1.0;" x1="538.5" x2="538.5" y1="980.66" y2="972.66"/></g><!--MD5=[2c4c40009870a2f4afd4cd57b83ad5d9]
link Asignatura to Horario--><g id="link_Asignatura_Horario"><path codeLine="95" d="M382.87,791.59 C373.16,809.96 362.93,829.32 353.43,847.31 " fill="none" id="Asignatura-Horario" style="stroke:#181818;stroke-width:1.0;"/><line style="stroke:#181818;stroke-width:1.0;" x1="355.376" x2="348.3041" y1="852.2041" y2="848.464"/><line style="stroke:#181818;stroke-width:1.0;" x1="356.7785" x2="349.7066" y1="849.5521" y2="845.812"/><line style="stroke:#181818;stroke-width:1.0;" x1="353.7101" x2="349.97" y1="846.7981" y2="853.87"/><line style="stroke:#181818;stroke-width:1.0;" x1="380.814" x2="387.8859" y1="786.9059" y2="790.646"/><line style="stroke:#181818;stroke-width:1.0;" x1="379.4115" x2="386.4834" y1="789.5579" y2="793.298"/><line style="stroke:#181818;stroke-width:1.0;" x1="382.4799" x2="386.22" y1="792.3119" y2="785.24"/></g><!--MD5=[06f60f4c54460c1370a56d74f37b9e8e]
@startuml supuesto1E-R

entity "Horario" as Horario{
    * idHorario : number
    nombre : text
    fechaIncorporacion: date
    fechaValidez: date
    idAsignatura : number <<FK>>
}

entity "Estudiante" as Estudiante{
    * idEstudiante : number
    nombre: text
    fechaIncorporacion : date
    fechaNacimiento : date
    DNI : number
    email : text
}

entity "ListaDeClase" as ListaDeClase{
    * idListado : number
    nombreListado : text
    fechaIncorporacion : date
    nrEstudiantes : number
    idAsignatura : number <<FK>>
    idEstudiante : number <<FK>>
}

entity "Asignatura" as Asignatura{
    * idAsignatura : number
    nombre : text
    fechaIncorporacion : date
    nrEstudiantes : number
    profesor : text
    idCurso : number <<FK>>
}

entity "PDI" as PDI{
    * idPDI : number
    nombre : text
    fechaContratación : date
    email : text
    telefono : text
}

entity "PAS" as PAS{
    * idPAS : number
    nombre : text
    fechaContratacion : date
    email : text
    telefono : text
}

entity "Curso" as Curso{
    * idCurso : number
    coordinador : text
    * idGrado : number <<FK>>
}

entity "Grupo" as Grupo{
    * idGrupo : number
    * idCurso : number <<FK>>
}

entity "Grado" as Grado{
    * idGrado : number
    nombreGrado : text
    rama : text
    coordinador : text
    * idUniversidad : number <<FK>>
}

entity "Universidad" as Universidad{
    * idUniversidad : number
    nombre : text
    direccion : text
    nrTelefono : text
    email : text
    web : text
}

PAS ||..|{ Estudiante
Estudiante }|..|| PDI

Estudiante ||..|{ ListaDeClase
ListaDeClase }|..|| Asignatura

Asignatura }|..|| Curso

Curso }|- -|| Grado

Universidad ||- -|{ Grado

Curso ||- -|{ Grupo

Asignatura ||- -|| Horario


















@enduml

PlantUML version 1.2022.7(Mon Aug 22 19:01:30 CEST 2022)
(GPL source distribution)
Java Runtime: OpenJDK Runtime Environment
JVM: OpenJDK 64-Bit Server VM
Default Encoding: Cp1252
Language: es
Country: ES
--></g></svg>