<?xml version="1.0" encoding="UTF-8" standalone="no"?><svg xmlns="http://www.w3.org/2000/svg" xmlns:xlink="http://www.w3.org/1999/xlink" contentStyleType="text/css" height="1167px" preserveAspectRatio="none" style="width:843px;height:1167px;background:#FFFFFF;" version="1.1" viewBox="0 0 843 1167" width="843px" zoomAndPan="magnify"><defs/><g><!--MD5=[74438b4bcd0b343607a1e9b7af88b110]
class Horario--><g id="elem_Horario"><rect codeLine="2" fill="#F1F1F1" height="136.0469" id="Horario" rx="2.5" ry="2.5" style="stroke:#181818;stroke-width:0.5;" width="183" x="502.5" y="230"/><ellipse cx="566.75" cy="246" fill="#ADD1B2" rx="11" ry="11" style="stroke:#181818;stroke-width:1.0;"/><path d="M565.6094,246.7969 L565.6094,249.2969 L569.9375,249.2969 L569.9375,248.375 Q569.9375,247.7656 570.1719,247.5 Q570.4219,247.2344 570.7969,247.2344 Q571.1719,247.2344 571.4063,247.5 Q571.6406,247.7656 571.6406,248.375 L571.6406,251 L563.6406,251 Q563.0156,251 562.75,250.7656 Q562.5,250.5313 562.5,250.1406 Q562.5,249.7656 562.7656,249.5313 Q563.0313,249.2969 563.6406,249.2969 L563.9063,249.2969 L563.9063,242.6406 L563.6406,242.6406 Q563.0156,242.6406 562.75,242.4063 Q562.5,242.1719 562.5,241.7813 Q562.5,241.4063 562.75,241.1719 Q563.0156,240.9375 563.6406,240.9375 L571.2656,240.9375 L571.2656,243.5313 Q571.2656,244.1406 571.0313,244.4063 Q570.8125,244.6563 570.4219,244.6563 Q570.0469,244.6563 569.8125,244.4063 Q569.5781,244.1406 569.5781,243.5313 L569.5781,242.6406 L565.6094,242.6406 L565.6094,245.0938 L567.0938,245.0938 Q567.0938,244.4375 567.2188,244.25 Q567.4844,243.8438 567.9531,243.8438 Q568.3281,243.8438 568.5625,244.1094 Q568.7969,244.3594 568.7969,244.9688 L568.7969,246.9375 Q568.7969,247.4844 568.6719,247.6719 Q568.4063,248.0625 567.9531,248.0625 Q567.4844,248.0625 567.2188,247.6563 Q567.0938,247.4688 567.0938,246.7969 L565.6094,246.7969 Z " fill="#000000"/><text fill="#000000" font-family="sans-serif" font-size="14" lengthAdjust="spacing" textLength="46" x="587.25" y="251.7285">Horario</text><line style="stroke:#181818;stroke-width:0.5;" x1="503.5" x2="684.5" y1="262" y2="262"/><ellipse cx="513.5" cy="276.3047" fill="#000000" rx="3" ry="3" style="stroke:#000000;stroke-width:1.0;"/><text fill="#000000" font-family="sans-serif" font-size="14" lengthAdjust="spacing" textLength="117" x="522.5" y="280.5332">idHorario : number</text><text fill="#000000" font-family="sans-serif" font-size="14" lengthAdjust="spacing" textLength="82" x="522.5" y="298.1426">nombre : text</text><text fill="#000000" font-family="sans-serif" font-size="14" lengthAdjust="spacing" textLength="157" x="522.5" y="315.752">fechaIncorporacion: date</text><ellipse cx="513.5" cy="329.1328" fill="#000000" rx="3" ry="3" style="stroke:#000000;stroke-width:1.0;"/><text fill="#000000" font-family="sans-serif" font-size="14" lengthAdjust="spacing" textLength="149" x="522.5" y="333.3613">idGrupo : number «FK»</text><ellipse cx="513.5" cy="346.7422" fill="#000000" rx="3" ry="3" style="stroke:#000000;stroke-width:1.0;"/><text fill="#000000" font-family="sans-serif" font-size="14" lengthAdjust="spacing" textLength="147" x="522.5" y="350.9707">idCurso : number «FK»</text><line style="stroke:#181818;stroke-width:0.5;" x1="503.5" x2="684.5" y1="358.0469" y2="358.0469"/></g><!--MD5=[9196e7f5424c8ba52e10312e1fe81956]
class Estudiante--><g id="elem_Estudiante"><rect codeLine="10" fill="#F1F1F1" height="153.6563" id="Estudiante" rx="2.5" ry="2.5" style="stroke:#181818;stroke-width:0.5;" width="187" x="24.5" y="221"/><ellipse cx="80.25" cy="237" fill="#ADD1B2" rx="11" ry="11" style="stroke:#181818;stroke-width:1.0;"/><path d="M79.1094,237.7969 L79.1094,240.2969 L83.4375,240.2969 L83.4375,239.375 Q83.4375,238.7656 83.6719,238.5 Q83.9219,238.2344 84.2969,238.2344 Q84.6719,238.2344 84.9063,238.5 Q85.1406,238.7656 85.1406,239.375 L85.1406,242 L77.1406,242 Q76.5156,242 76.25,241.7656 Q76,241.5313 76,241.1406 Q76,240.7656 76.2656,240.5313 Q76.5313,240.2969 77.1406,240.2969 L77.4063,240.2969 L77.4063,233.6406 L77.1406,233.6406 Q76.5156,233.6406 76.25,233.4063 Q76,233.1719 76,232.7813 Q76,232.4063 76.25,232.1719 Q76.5156,231.9375 77.1406,231.9375 L84.7656,231.9375 L84.7656,234.5313 Q84.7656,235.1406 84.5313,235.4063 Q84.3125,235.6563 83.9219,235.6563 Q83.5469,235.6563 83.3125,235.4063 Q83.0781,235.1406 83.0781,234.5313 L83.0781,233.6406 L79.1094,233.6406 L79.1094,236.0938 L80.5938,236.0938 Q80.5938,235.4375 80.7188,235.25 Q80.9844,234.8438 81.4531,234.8438 Q81.8281,234.8438 82.0625,235.1094 Q82.2969,235.3594 82.2969,235.9688 L82.2969,237.9375 Q82.2969,238.4844 82.1719,238.6719 Q81.9063,239.0625 81.4531,239.0625 Q80.9844,239.0625 80.7188,238.6563 Q80.5938,238.4688 80.5938,237.7969 L79.1094,237.7969 Z " fill="#000000"/><text fill="#000000" font-family="sans-serif" font-size="14" lengthAdjust="spacing" textLength="67" x="100.75" y="242.7285">Estudiante</text><line style="stroke:#181818;stroke-width:0.5;" x1="25.5" x2="210.5" y1="253" y2="253"/><ellipse cx="35.5" cy="267.3047" fill="#000000" rx="3" ry="3" style="stroke:#000000;stroke-width:1.0;"/><text fill="#000000" font-family="sans-serif" font-size="14" lengthAdjust="spacing" textLength="138" x="44.5" y="271.5332">idEstudiante : number</text><text fill="#000000" font-family="sans-serif" font-size="14" lengthAdjust="spacing" textLength="78" x="44.5" y="289.1426">nombre: text</text><text fill="#000000" font-family="sans-serif" font-size="14" lengthAdjust="spacing" textLength="161" x="44.5" y="306.752">fechaIncorporacion : date</text><text fill="#000000" font-family="sans-serif" font-size="14" lengthAdjust="spacing" textLength="144" x="44.5" y="324.3613">fechaNacimiento : date</text><text fill="#000000" font-family="sans-serif" font-size="14" lengthAdjust="spacing" textLength="82" x="44.5" y="341.9707">DNI : number</text><text fill="#000000" font-family="sans-serif" font-size="14" lengthAdjust="spacing" textLength="67" x="44.5" y="359.5801">email : text</text><line style="stroke:#181818;stroke-width:0.5;" x1="25.5" x2="210.5" y1="366.6563" y2="366.6563"/></g><!--MD5=[347e7aef5a94730de2181062ec5fc448]
class ListaDeClase--><g id="elem_ListaDeClase"><rect codeLine="19" fill="#F1F1F1" height="153.6563" id="ListaDeClase" rx="2.5" ry="2.5" style="stroke:#181818;stroke-width:0.5;" width="203" x="107.5" y="435"/><ellipse cx="162.75" cy="451" fill="#ADD1B2" rx="11" ry="11" style="stroke:#181818;stroke-width:1.0;"/><path d="M161.6094,451.7969 L161.6094,454.2969 L165.9375,454.2969 L165.9375,453.375 Q165.9375,452.7656 166.1719,452.5 Q166.4219,452.2344 166.7969,452.2344 Q167.1719,452.2344 167.4063,452.5 Q167.6406,452.7656 167.6406,453.375 L167.6406,456 L159.6406,456 Q159.0156,456 158.75,455.7656 Q158.5,455.5313 158.5,455.1406 Q158.5,454.7656 158.7656,454.5313 Q159.0313,454.2969 159.6406,454.2969 L159.9063,454.2969 L159.9063,447.6406 L159.6406,447.6406 Q159.0156,447.6406 158.75,447.4063 Q158.5,447.1719 158.5,446.7813 Q158.5,446.4063 158.75,446.1719 Q159.0156,445.9375 159.6406,445.9375 L167.2656,445.9375 L167.2656,448.5313 Q167.2656,449.1406 167.0313,449.4063 Q166.8125,449.6563 166.4219,449.6563 Q166.0469,449.6563 165.8125,449.4063 Q165.5781,449.1406 165.5781,448.5313 L165.5781,447.6406 L161.6094,447.6406 L161.6094,450.0938 L163.0938,450.0938 Q163.0938,449.4375 163.2188,449.25 Q163.4844,448.8438 163.9531,448.8438 Q164.3281,448.8438 164.5625,449.1094 Q164.7969,449.3594 164.7969,449.9688 L164.7969,451.9375 Q164.7969,452.4844 164.6719,452.6719 Q164.4063,453.0625 163.9531,453.0625 Q163.4844,453.0625 163.2188,452.6563 Q163.0938,452.4688 163.0938,451.7969 L161.6094,451.7969 Z " fill="#000000"/><text fill="#000000" font-family="sans-serif" font-size="14" lengthAdjust="spacing" textLength="84" x="183.25" y="456.7285">ListaDeClase</text><line style="stroke:#181818;stroke-width:0.5;" x1="108.5" x2="309.5" y1="467" y2="467"/><ellipse cx="118.5" cy="481.3047" fill="#000000" rx="3" ry="3" style="stroke:#000000;stroke-width:1.0;"/><text fill="#000000" font-family="sans-serif" font-size="14" lengthAdjust="spacing" textLength="117" x="127.5" y="485.5332">idListado : number</text><text fill="#000000" font-family="sans-serif" font-size="14" lengthAdjust="spacing" textLength="128" x="127.5" y="503.1426">nombreListado : text</text><text fill="#000000" font-family="sans-serif" font-size="14" lengthAdjust="spacing" textLength="161" x="127.5" y="520.752">fechaIncorporacion : date</text><text fill="#000000" font-family="sans-serif" font-size="14" lengthAdjust="spacing" textLength="147" x="127.5" y="538.3613">nrEstudiantes : number</text><text fill="#000000" font-family="sans-serif" font-size="14" lengthAdjust="spacing" textLength="177" x="127.5" y="555.9707">idAsignatura : number «FK»</text><text fill="#000000" font-family="sans-serif" font-size="14" lengthAdjust="spacing" textLength="176" x="127.5" y="573.5801">idEstudiante : number «FK»</text><line style="stroke:#181818;stroke-width:0.5;" x1="108.5" x2="309.5" y1="580.6563" y2="580.6563"/></g><!--MD5=[b461fef6a7ba6f6fc6681ac8d845c93a]
class Asignatura--><g id="elem_Asignatura"><rect codeLine="28" fill="#F1F1F1" height="153.6563" id="Asignatura" rx="2.5" ry="2.5" style="stroke:#181818;stroke-width:0.5;" width="187" x="267.5" y="649"/><ellipse cx="322.75" cy="665" fill="#ADD1B2" rx="11" ry="11" style="stroke:#181818;stroke-width:1.0;"/><path d="M321.6094,665.7969 L321.6094,668.2969 L325.9375,668.2969 L325.9375,667.375 Q325.9375,666.7656 326.1719,666.5 Q326.4219,666.2344 326.7969,666.2344 Q327.1719,666.2344 327.4063,666.5 Q327.6406,666.7656 327.6406,667.375 L327.6406,670 L319.6406,670 Q319.0156,670 318.75,669.7656 Q318.5,669.5313 318.5,669.1406 Q318.5,668.7656 318.7656,668.5313 Q319.0313,668.2969 319.6406,668.2969 L319.9063,668.2969 L319.9063,661.6406 L319.6406,661.6406 Q319.0156,661.6406 318.75,661.4063 Q318.5,661.1719 318.5,660.7813 Q318.5,660.4063 318.75,660.1719 Q319.0156,659.9375 319.6406,659.9375 L327.2656,659.9375 L327.2656,662.5313 Q327.2656,663.1406 327.0313,663.4063 Q326.8125,663.6563 326.4219,663.6563 Q326.0469,663.6563 325.8125,663.4063 Q325.5781,663.1406 325.5781,662.5313 L325.5781,661.6406 L321.6094,661.6406 L321.6094,664.0938 L323.0938,664.0938 Q323.0938,663.4375 323.2188,663.25 Q323.4844,662.8438 323.9531,662.8438 Q324.3281,662.8438 324.5625,663.1094 Q324.7969,663.3594 324.7969,663.9688 L324.7969,665.9375 Q324.7969,666.4844 324.6719,666.6719 Q324.4063,667.0625 323.9531,667.0625 Q323.4844,667.0625 323.2188,666.6563 Q323.0938,666.4688 323.0938,665.7969 L321.6094,665.7969 Z " fill="#000000"/><text fill="#000000" font-family="sans-serif" font-size="14" lengthAdjust="spacing" textLength="68" x="343.25" y="670.7285">Asignatura</text><line style="stroke:#181818;stroke-width:0.5;" x1="268.5" x2="453.5" y1="681" y2="681"/><ellipse cx="278.5" cy="695.3047" fill="#000000" rx="3" ry="3" style="stroke:#000000;stroke-width:1.0;"/><text fill="#000000" font-family="sans-serif" font-size="14" lengthAdjust="spacing" textLength="139" x="287.5" y="699.5332">idAsignatura : number</text><text fill="#000000" font-family="sans-serif" font-size="14" lengthAdjust="spacing" textLength="82" x="287.5" y="717.1426">nombre : text</text><text fill="#000000" font-family="sans-serif" font-size="14" lengthAdjust="spacing" textLength="161" x="287.5" y="734.752">fechaIncorporacion : date</text><text fill="#000000" font-family="sans-serif" font-size="14" lengthAdjust="spacing" textLength="147" x="287.5" y="752.3613">nrEstudiantes : number</text><text fill="#000000" font-family="sans-serif" font-size="14" lengthAdjust="spacing" textLength="87" x="287.5" y="769.9707">profesor : text</text><text fill="#000000" font-family="sans-serif" font-size="14" lengthAdjust="spacing" textLength="147" x="287.5" y="787.5801">idCurso : number «FK»</text><line style="stroke:#181818;stroke-width:0.5;" x1="268.5" x2="453.5" y1="794.6563" y2="794.6563"/></g><!--MD5=[5b14968682f2e46256dc8a570ae0d27b]
class PDI--><g id="elem_PDI"><rect codeLine="37" fill="#F1F1F1" height="136.0469" id="PDI" rx="2.5" ry="2.5" style="stroke:#181818;stroke-width:0.5;" width="182" x="7" y="658"/><ellipse cx="82.75" cy="674" fill="#ADD1B2" rx="11" ry="11" style="stroke:#181818;stroke-width:1.0;"/><path d="M81.6094,674.7969 L81.6094,677.2969 L85.9375,677.2969 L85.9375,676.375 Q85.9375,675.7656 86.1719,675.5 Q86.4219,675.2344 86.7969,675.2344 Q87.1719,675.2344 87.4063,675.5 Q87.6406,675.7656 87.6406,676.375 L87.6406,679 L79.6406,679 Q79.0156,679 78.75,678.7656 Q78.5,678.5313 78.5,678.1406 Q78.5,677.7656 78.7656,677.5313 Q79.0313,677.2969 79.6406,677.2969 L79.9063,677.2969 L79.9063,670.6406 L79.6406,670.6406 Q79.0156,670.6406 78.75,670.4063 Q78.5,670.1719 78.5,669.7813 Q78.5,669.4063 78.75,669.1719 Q79.0156,668.9375 79.6406,668.9375 L87.2656,668.9375 L87.2656,671.5313 Q87.2656,672.1406 87.0313,672.4063 Q86.8125,672.6563 86.4219,672.6563 Q86.0469,672.6563 85.8125,672.4063 Q85.5781,672.1406 85.5781,671.5313 L85.5781,670.6406 L81.6094,670.6406 L81.6094,673.0938 L83.0938,673.0938 Q83.0938,672.4375 83.2188,672.25 Q83.4844,671.8438 83.9531,671.8438 Q84.3281,671.8438 84.5625,672.1094 Q84.7969,672.3594 84.7969,672.9688 L84.7969,674.9375 Q84.7969,675.4844 84.6719,675.6719 Q84.4063,676.0625 83.9531,676.0625 Q83.4844,676.0625 83.2188,675.6563 Q83.0938,675.4688 83.0938,674.7969 L81.6094,674.7969 Z " fill="#000000"/><text fill="#000000" font-family="sans-serif" font-size="14" lengthAdjust="spacing" textLength="22" x="103.25" y="679.7285">PDI</text><line style="stroke:#181818;stroke-width:0.5;" x1="8" x2="188" y1="690" y2="690"/><ellipse cx="18" cy="704.3047" fill="#000000" rx="3" ry="3" style="stroke:#000000;stroke-width:1.0;"/><text fill="#000000" font-family="sans-serif" font-size="14" lengthAdjust="spacing" textLength="93" x="27" y="708.5332">idPDI : number</text><text fill="#000000" font-family="sans-serif" font-size="14" lengthAdjust="spacing" textLength="82" x="27" y="726.1426">nombre : text</text><text fill="#000000" font-family="sans-serif" font-size="14" lengthAdjust="spacing" textLength="156" x="27" y="743.752">fechaContratación : date</text><text fill="#000000" font-family="sans-serif" font-size="14" lengthAdjust="spacing" textLength="67" x="27" y="761.3613">email : text</text><text fill="#000000" font-family="sans-serif" font-size="14" lengthAdjust="spacing" textLength="85" x="27" y="778.9707">telefono : text</text><line style="stroke:#181818;stroke-width:0.5;" x1="8" x2="188" y1="786.0469" y2="786.0469"/></g><!--MD5=[36acb3e840b16351e2158aca66e9df6c]
class PAS--><g id="elem_PAS"><rect codeLine="45" fill="#F1F1F1" height="136.0469" id="PAS" rx="2.5" ry="2.5" style="stroke:#181818;stroke-width:0.5;" width="182" x="27" y="16"/><ellipse cx="100.25" cy="32" fill="#ADD1B2" rx="11" ry="11" style="stroke:#181818;stroke-width:1.0;"/><path d="M99.1094,32.7969 L99.1094,35.2969 L103.4375,35.2969 L103.4375,34.375 Q103.4375,33.7656 103.6719,33.5 Q103.9219,33.2344 104.2969,33.2344 Q104.6719,33.2344 104.9063,33.5 Q105.1406,33.7656 105.1406,34.375 L105.1406,37 L97.1406,37 Q96.5156,37 96.25,36.7656 Q96,36.5313 96,36.1406 Q96,35.7656 96.2656,35.5313 Q96.5313,35.2969 97.1406,35.2969 L97.4063,35.2969 L97.4063,28.6406 L97.1406,28.6406 Q96.5156,28.6406 96.25,28.4063 Q96,28.1719 96,27.7813 Q96,27.4063 96.25,27.1719 Q96.5156,26.9375 97.1406,26.9375 L104.7656,26.9375 L104.7656,29.5313 Q104.7656,30.1406 104.5313,30.4063 Q104.3125,30.6563 103.9219,30.6563 Q103.5469,30.6563 103.3125,30.4063 Q103.0781,30.1406 103.0781,29.5313 L103.0781,28.6406 L99.1094,28.6406 L99.1094,31.0938 L100.5938,31.0938 Q100.5938,30.4375 100.7188,30.25 Q100.9844,29.8438 101.4531,29.8438 Q101.8281,29.8438 102.0625,30.1094 Q102.2969,30.3594 102.2969,30.9688 L102.2969,32.9375 Q102.2969,33.4844 102.1719,33.6719 Q101.9063,34.0625 101.4531,34.0625 Q100.9844,34.0625 100.7188,33.6563 Q100.5938,33.4688 100.5938,32.7969 L99.1094,32.7969 Z " fill="#000000"/><text fill="#000000" font-family="sans-serif" font-size="14" lengthAdjust="spacing" textLength="27" x="120.75" y="37.7285">PAS</text><line style="stroke:#181818;stroke-width:0.5;" x1="28" x2="208" y1="48" y2="48"/><ellipse cx="38" cy="62.3047" fill="#000000" rx="3" ry="3" style="stroke:#000000;stroke-width:1.0;"/><text fill="#000000" font-family="sans-serif" font-size="14" lengthAdjust="spacing" textLength="98" x="47" y="66.5332">idPAS : number</text><text fill="#000000" font-family="sans-serif" font-size="14" lengthAdjust="spacing" textLength="82" x="47" y="84.1426">nombre : text</text><text fill="#000000" font-family="sans-serif" font-size="14" lengthAdjust="spacing" textLength="156" x="47" y="101.752">fechaContratacion : date</text><text fill="#000000" font-family="sans-serif" font-size="14" lengthAdjust="spacing" textLength="67" x="47" y="119.3613">email : text</text><text fill="#000000" font-family="sans-serif" font-size="14" lengthAdjust="spacing" textLength="85" x="47" y="136.9707">telefono : text</text><line style="stroke:#181818;stroke-width:0.5;" x1="28" x2="208" y1="144.0469" y2="144.0469"/></g><!--MD5=[aa9ebb045d22ec940c587c7180c59f8b]
class Curso--><g id="elem_Curso"><rect codeLine="53" fill="#F1F1F1" height="100.8281" id="Curso" rx="2.5" ry="2.5" style="stroke:#181818;stroke-width:0.5;" width="175" x="373.5" y="863"/><ellipse cx="437.75" cy="879" fill="#ADD1B2" rx="11" ry="11" style="stroke:#181818;stroke-width:1.0;"/><path d="M436.6094,879.7969 L436.6094,882.2969 L440.9375,882.2969 L440.9375,881.375 Q440.9375,880.7656 441.1719,880.5 Q441.4219,880.2344 441.7969,880.2344 Q442.1719,880.2344 442.4063,880.5 Q442.6406,880.7656 442.6406,881.375 L442.6406,884 L434.6406,884 Q434.0156,884 433.75,883.7656 Q433.5,883.5313 433.5,883.1406 Q433.5,882.7656 433.7656,882.5313 Q434.0313,882.2969 434.6406,882.2969 L434.9063,882.2969 L434.9063,875.6406 L434.6406,875.6406 Q434.0156,875.6406 433.75,875.4063 Q433.5,875.1719 433.5,874.7813 Q433.5,874.4063 433.75,874.1719 Q434.0156,873.9375 434.6406,873.9375 L442.2656,873.9375 L442.2656,876.5313 Q442.2656,877.1406 442.0313,877.4063 Q441.8125,877.6563 441.4219,877.6563 Q441.0469,877.6563 440.8125,877.4063 Q440.5781,877.1406 440.5781,876.5313 L440.5781,875.6406 L436.6094,875.6406 L436.6094,878.0938 L438.0938,878.0938 Q438.0938,877.4375 438.2188,877.25 Q438.4844,876.8438 438.9531,876.8438 Q439.3281,876.8438 439.5625,877.1094 Q439.7969,877.3594 439.7969,877.9688 L439.7969,879.9375 Q439.7969,880.4844 439.6719,880.6719 Q439.4063,881.0625 438.9531,881.0625 Q438.4844,881.0625 438.2188,880.6563 Q438.0938,880.4688 438.0938,879.7969 L436.6094,879.7969 Z " fill="#000000"/><text fill="#000000" font-family="sans-serif" font-size="14" lengthAdjust="spacing" textLength="38" x="458.25" y="884.7285">Curso</text><line style="stroke:#181818;stroke-width:0.5;" x1="374.5" x2="547.5" y1="895" y2="895"/><ellipse cx="384.5" cy="909.3047" fill="#000000" rx="3" ry="3" style="stroke:#000000;stroke-width:1.0;"/><text fill="#000000" font-family="sans-serif" font-size="14" lengthAdjust="spacing" textLength="109" x="393.5" y="913.5332">idCurso : number</text><text fill="#000000" font-family="sans-serif" font-size="14" lengthAdjust="spacing" textLength="110" x="393.5" y="931.1426">coordinador : text</text><ellipse cx="384.5" cy="944.5234" fill="#000000" rx="3" ry="3" style="stroke:#000000;stroke-width:1.0;"/><text fill="#000000" font-family="sans-serif" font-size="14" lengthAdjust="spacing" textLength="149" x="393.5" y="948.752">idGrado : number «FK»</text><line style="stroke:#181818;stroke-width:0.5;" x1="374.5" x2="547.5" y1="955.8281" y2="955.8281"/></g><!--MD5=[05e79642835c250851fe35b5cede5c48]
class Grupo--><g id="elem_Grupo"><rect codeLine="59" fill="#F1F1F1" height="83.2188" id="Grupo" rx="2.5" ry="2.5" style="stroke:#181818;stroke-width:0.5;" width="173" x="404.5" y="1050.5"/><ellipse cx="466.75" cy="1066.5" fill="#ADD1B2" rx="11" ry="11" style="stroke:#181818;stroke-width:1.0;"/><path d="M465.6094,1067.2969 L465.6094,1069.7969 L469.9375,1069.7969 L469.9375,1068.875 Q469.9375,1068.2656 470.1719,1068 Q470.4219,1067.7344 470.7969,1067.7344 Q471.1719,1067.7344 471.4063,1068 Q471.6406,1068.2656 471.6406,1068.875 L471.6406,1071.5 L463.6406,1071.5 Q463.0156,1071.5 462.75,1071.2656 Q462.5,1071.0313 462.5,1070.6406 Q462.5,1070.2656 462.7656,1070.0313 Q463.0313,1069.7969 463.6406,1069.7969 L463.9063,1069.7969 L463.9063,1063.1406 L463.6406,1063.1406 Q463.0156,1063.1406 462.75,1062.9063 Q462.5,1062.6719 462.5,1062.2813 Q462.5,1061.9063 462.75,1061.6719 Q463.0156,1061.4375 463.6406,1061.4375 L471.2656,1061.4375 L471.2656,1064.0313 Q471.2656,1064.6406 471.0313,1064.9063 Q470.8125,1065.1563 470.4219,1065.1563 Q470.0469,1065.1563 469.8125,1064.9063 Q469.5781,1064.6406 469.5781,1064.0313 L469.5781,1063.1406 L465.6094,1063.1406 L465.6094,1065.5938 L467.0938,1065.5938 Q467.0938,1064.9375 467.2188,1064.75 Q467.4844,1064.3438 467.9531,1064.3438 Q468.3281,1064.3438 468.5625,1064.6094 Q468.7969,1064.8594 468.7969,1065.4688 L468.7969,1067.4375 Q468.7969,1067.9844 468.6719,1068.1719 Q468.4063,1068.5625 467.9531,1068.5625 Q467.4844,1068.5625 467.2188,1068.1563 Q467.0938,1067.9688 467.0938,1067.2969 L465.6094,1067.2969 Z " fill="#000000"/><text fill="#000000" font-family="sans-serif" font-size="14" lengthAdjust="spacing" textLength="40" x="487.25" y="1072.2285">Grupo</text><line style="stroke:#181818;stroke-width:0.5;" x1="405.5" x2="576.5" y1="1082.5" y2="1082.5"/><ellipse cx="415.5" cy="1096.8047" fill="#000000" rx="3" ry="3" style="stroke:#000000;stroke-width:1.0;"/><text fill="#000000" font-family="sans-serif" font-size="14" lengthAdjust="spacing" textLength="111" x="424.5" y="1101.0332">idGrupo : number</text><ellipse cx="415.5" cy="1114.4141" fill="#000000" rx="3" ry="3" style="stroke:#000000;stroke-width:1.0;"/><text fill="#000000" font-family="sans-serif" font-size="14" lengthAdjust="spacing" textLength="147" x="424.5" y="1118.6426">idCurso : number «FK»</text><line style="stroke:#181818;stroke-width:0.5;" x1="405.5" x2="576.5" y1="1125.7188" y2="1125.7188"/></g><!--MD5=[0cb4a791058503f2fa7d036bf9e18857]
class Grado--><g id="elem_Grado"><rect codeLine="64" fill="#F1F1F1" height="136.0469" id="Grado" rx="2.5" ry="2.5" style="stroke:#181818;stroke-width:0.5;" width="209" x="627.5" y="1024"/><ellipse cx="707.75" cy="1040" fill="#ADD1B2" rx="11" ry="11" style="stroke:#181818;stroke-width:1.0;"/><path d="M706.6094,1040.7969 L706.6094,1043.2969 L710.9375,1043.2969 L710.9375,1042.375 Q710.9375,1041.7656 711.1719,1041.5 Q711.4219,1041.2344 711.7969,1041.2344 Q712.1719,1041.2344 712.4063,1041.5 Q712.6406,1041.7656 712.6406,1042.375 L712.6406,1045 L704.6406,1045 Q704.0156,1045 703.75,1044.7656 Q703.5,1044.5313 703.5,1044.1406 Q703.5,1043.7656 703.7656,1043.5313 Q704.0313,1043.2969 704.6406,1043.2969 L704.9063,1043.2969 L704.9063,1036.6406 L704.6406,1036.6406 Q704.0156,1036.6406 703.75,1036.4063 Q703.5,1036.1719 703.5,1035.7813 Q703.5,1035.4063 703.75,1035.1719 Q704.0156,1034.9375 704.6406,1034.9375 L712.2656,1034.9375 L712.2656,1037.5313 Q712.2656,1038.1406 712.0313,1038.4063 Q711.8125,1038.6563 711.4219,1038.6563 Q711.0469,1038.6563 710.8125,1038.4063 Q710.5781,1038.1406 710.5781,1037.5313 L710.5781,1036.6406 L706.6094,1036.6406 L706.6094,1039.0938 L708.0938,1039.0938 Q708.0938,1038.4375 708.2188,1038.25 Q708.4844,1037.8438 708.9531,1037.8438 Q709.3281,1037.8438 709.5625,1038.1094 Q709.7969,1038.3594 709.7969,1038.9688 L709.7969,1040.9375 Q709.7969,1041.4844 709.6719,1041.6719 Q709.4063,1042.0625 708.9531,1042.0625 Q708.4844,1042.0625 708.2188,1041.6563 Q708.0938,1041.4688 708.0938,1040.7969 L706.6094,1040.7969 Z " fill="#000000"/><text fill="#000000" font-family="sans-serif" font-size="14" lengthAdjust="spacing" textLength="40" x="728.25" y="1045.7285">Grado</text><line style="stroke:#181818;stroke-width:0.5;" x1="628.5" x2="835.5" y1="1056" y2="1056"/><ellipse cx="638.5" cy="1070.3047" fill="#000000" rx="3" ry="3" style="stroke:#000000;stroke-width:1.0;"/><text fill="#000000" font-family="sans-serif" font-size="14" lengthAdjust="spacing" textLength="111" x="647.5" y="1074.5332">idGrado : number</text><text fill="#000000" font-family="sans-serif" font-size="14" lengthAdjust="spacing" textLength="122" x="647.5" y="1092.1426">nombreGrado : text</text><text fill="#000000" font-family="sans-serif" font-size="14" lengthAdjust="spacing" textLength="66" x="647.5" y="1109.752">rama : text</text><text fill="#000000" font-family="sans-serif" font-size="14" lengthAdjust="spacing" textLength="110" x="647.5" y="1127.3613">coordinador : text</text><ellipse cx="638.5" cy="1140.7422" fill="#000000" rx="3" ry="3" style="stroke:#000000;stroke-width:1.0;"/><text fill="#000000" font-family="sans-serif" font-size="14" lengthAdjust="spacing" textLength="183" x="647.5" y="1144.9707">idUniversidad : number «FK»</text><line style="stroke:#181818;stroke-width:0.5;" x1="628.5" x2="835.5" y1="1152.0469" y2="1152.0469"/></g><!--MD5=[e80896688fdcdff1ec203b48a8b7f882]
class Universidad--><g id="elem_Universidad"><rect codeLine="72" fill="#F1F1F1" height="153.6563" id="Universidad" rx="2.5" ry="2.5" style="stroke:#181818;stroke-width:0.5;" width="171" x="465.5" y="7"/><ellipse cx="509.75" cy="23" fill="#ADD1B2" rx="11" ry="11" style="stroke:#181818;stroke-width:1.0;"/><path d="M508.6094,23.7969 L508.6094,26.2969 L512.9375,26.2969 L512.9375,25.375 Q512.9375,24.7656 513.1719,24.5 Q513.4219,24.2344 513.7969,24.2344 Q514.1719,24.2344 514.4063,24.5 Q514.6406,24.7656 514.6406,25.375 L514.6406,28 L506.6406,28 Q506.0156,28 505.75,27.7656 Q505.5,27.5313 505.5,27.1406 Q505.5,26.7656 505.7656,26.5313 Q506.0313,26.2969 506.6406,26.2969 L506.9063,26.2969 L506.9063,19.6406 L506.6406,19.6406 Q506.0156,19.6406 505.75,19.4063 Q505.5,19.1719 505.5,18.7813 Q505.5,18.4063 505.75,18.1719 Q506.0156,17.9375 506.6406,17.9375 L514.2656,17.9375 L514.2656,20.5313 Q514.2656,21.1406 514.0313,21.4063 Q513.8125,21.6563 513.4219,21.6563 Q513.0469,21.6563 512.8125,21.4063 Q512.5781,21.1406 512.5781,20.5313 L512.5781,19.6406 L508.6094,19.6406 L508.6094,22.0938 L510.0938,22.0938 Q510.0938,21.4375 510.2188,21.25 Q510.4844,20.8438 510.9531,20.8438 Q511.3281,20.8438 511.5625,21.1094 Q511.7969,21.3594 511.7969,21.9688 L511.7969,23.9375 Q511.7969,24.4844 511.6719,24.6719 Q511.4063,25.0625 510.9531,25.0625 Q510.4844,25.0625 510.2188,24.6563 Q510.0938,24.4688 510.0938,23.7969 L508.6094,23.7969 Z " fill="#000000"/><text fill="#000000" font-family="sans-serif" font-size="14" lengthAdjust="spacing" textLength="74" x="530.25" y="28.7285">Universidad</text><line style="stroke:#181818;stroke-width:0.5;" x1="466.5" x2="635.5" y1="39" y2="39"/><ellipse cx="476.5" cy="53.3047" fill="#000000" rx="3" ry="3" style="stroke:#000000;stroke-width:1.0;"/><text fill="#000000" font-family="sans-serif" font-size="14" lengthAdjust="spacing" textLength="145" x="485.5" y="57.5332">idUniversidad : number</text><text fill="#000000" font-family="sans-serif" font-size="14" lengthAdjust="spacing" textLength="82" x="485.5" y="75.1426">nombre : text</text><text fill="#000000" font-family="sans-serif" font-size="14" lengthAdjust="spacing" textLength="91" x="485.5" y="92.752">direccion : text</text><text fill="#000000" font-family="sans-serif" font-size="14" lengthAdjust="spacing" textLength="103" x="485.5" y="110.3613">nrTelefono : text</text><text fill="#000000" font-family="sans-serif" font-size="14" lengthAdjust="spacing" textLength="67" x="485.5" y="127.9707">email : text</text><text fill="#000000" font-family="sans-serif" font-size="14" lengthAdjust="spacing" textLength="59" x="485.5" y="145.5801">web : text</text><line style="stroke:#181818;stroke-width:0.5;" x1="466.5" x2="635.5" y1="152.6563" y2="152.6563"/></g><!--MD5=[836b32563bca47aa5a777c8632fb9753]
class AsHor--><g id="elem_AsHor"><rect codeLine="81" fill="#F1F1F1" height="118.4375" id="AsHor" rx="2.5" ry="2.5" style="stroke:#181818;stroke-width:0.5;" width="203" x="345.5" y="453"/><ellipse cx="383" cy="469" fill="#ADD1B2" rx="11" ry="11" style="stroke:#181818;stroke-width:1.0;"/><path d="M381.8594,469.7969 L381.8594,472.2969 L386.1875,472.2969 L386.1875,471.375 Q386.1875,470.7656 386.4219,470.5 Q386.6719,470.2344 387.0469,470.2344 Q387.4219,470.2344 387.6563,470.5 Q387.8906,470.7656 387.8906,471.375 L387.8906,474 L379.8906,474 Q379.2656,474 379,473.7656 Q378.75,473.5313 378.75,473.1406 Q378.75,472.7656 379.0156,472.5313 Q379.2813,472.2969 379.8906,472.2969 L380.1563,472.2969 L380.1563,465.6406 L379.8906,465.6406 Q379.2656,465.6406 379,465.4063 Q378.75,465.1719 378.75,464.7813 Q378.75,464.4063 379,464.1719 Q379.2656,463.9375 379.8906,463.9375 L387.5156,463.9375 L387.5156,466.5313 Q387.5156,467.1406 387.2813,467.4063 Q387.0625,467.6563 386.6719,467.6563 Q386.2969,467.6563 386.0625,467.4063 Q385.8281,467.1406 385.8281,466.5313 L385.8281,465.6406 L381.8594,465.6406 L381.8594,468.0938 L383.3438,468.0938 Q383.3438,467.4375 383.4688,467.25 Q383.7344,466.8438 384.2031,466.8438 Q384.5781,466.8438 384.8125,467.1094 Q385.0469,467.3594 385.0469,467.9688 L385.0469,469.9375 Q385.0469,470.4844 384.9219,470.6719 Q384.6563,471.0625 384.2031,471.0625 Q383.7344,471.0625 383.4688,470.6563 Q383.3438,470.4688 383.3438,469.7969 L381.8594,469.7969 Z " fill="#000000"/><text fill="#000000" font-family="sans-serif" font-size="14" lengthAdjust="spacing" textLength="121" x="402" y="474.7285">Asignatura_horario</text><line style="stroke:#181818;stroke-width:0.5;" x1="346.5" x2="547.5" y1="485" y2="485"/><ellipse cx="356.5" cy="499.3047" fill="#000000" rx="3" ry="3" style="stroke:#000000;stroke-width:1.0;"/><text fill="#000000" font-family="sans-serif" font-size="14" lengthAdjust="spacing" textLength="155" x="365.5" y="503.5332">idHorario : number «FK»</text><ellipse cx="356.5" cy="516.9141" fill="#000000" rx="3" ry="3" style="stroke:#000000;stroke-width:1.0;"/><text fill="#000000" font-family="sans-serif" font-size="14" lengthAdjust="spacing" textLength="177" x="365.5" y="521.1426">idAsignatura : number «FK»</text><text fill="#000000" font-family="sans-serif" font-size="14" lengthAdjust="spacing" textLength="145" x="365.5" y="538.752">idClase : number «FK»</text><text fill="#000000" font-family="sans-serif" font-size="14" lengthAdjust="spacing" textLength="63" x="365.5" y="556.3613">hora : text</text><line style="stroke:#181818;stroke-width:0.5;" x1="346.5" x2="547.5" y1="563.4375" y2="563.4375"/></g><!--MD5=[3c10f90f2e752fdd6303ce3bb43dd7eb]
class Clase--><g id="elem_Clase"><rect codeLine="88" fill="#F1F1F1" height="100.8281" id="Clase" rx="2.5" ry="2.5" style="stroke:#181818;stroke-width:0.5;" width="209" x="258.5" y="247.5"/><ellipse cx="340.75" cy="263.5" fill="#ADD1B2" rx="11" ry="11" style="stroke:#181818;stroke-width:1.0;"/><path d="M339.6094,264.2969 L339.6094,266.7969 L343.9375,266.7969 L343.9375,265.875 Q343.9375,265.2656 344.1719,265 Q344.4219,264.7344 344.7969,264.7344 Q345.1719,264.7344 345.4063,265 Q345.6406,265.2656 345.6406,265.875 L345.6406,268.5 L337.6406,268.5 Q337.0156,268.5 336.75,268.2656 Q336.5,268.0313 336.5,267.6406 Q336.5,267.2656 336.7656,267.0313 Q337.0313,266.7969 337.6406,266.7969 L337.9063,266.7969 L337.9063,260.1406 L337.6406,260.1406 Q337.0156,260.1406 336.75,259.9063 Q336.5,259.6719 336.5,259.2813 Q336.5,258.9063 336.75,258.6719 Q337.0156,258.4375 337.6406,258.4375 L345.2656,258.4375 L345.2656,261.0313 Q345.2656,261.6406 345.0313,261.9063 Q344.8125,262.1563 344.4219,262.1563 Q344.0469,262.1563 343.8125,261.9063 Q343.5781,261.6406 343.5781,261.0313 L343.5781,260.1406 L339.6094,260.1406 L339.6094,262.5938 L341.0938,262.5938 Q341.0938,261.9375 341.2188,261.75 Q341.4844,261.3438 341.9531,261.3438 Q342.3281,261.3438 342.5625,261.6094 Q342.7969,261.8594 342.7969,262.4688 L342.7969,264.4375 Q342.7969,264.9844 342.6719,265.1719 Q342.4063,265.5625 341.9531,265.5625 Q341.4844,265.5625 341.2188,265.1563 Q341.0938,264.9688 341.0938,264.2969 L339.6094,264.2969 Z " fill="#000000"/><text fill="#000000" font-family="sans-serif" font-size="14" lengthAdjust="spacing" textLength="36" x="361.25" y="269.2285">Clase</text><line style="stroke:#181818;stroke-width:0.5;" x1="259.5" x2="466.5" y1="279.5" y2="279.5"/><ellipse cx="269.5" cy="293.8047" fill="#000000" rx="3" ry="3" style="stroke:#000000;stroke-width:1.0;"/><text fill="#000000" font-family="sans-serif" font-size="14" lengthAdjust="spacing" textLength="107" x="278.5" y="298.0332">idClase : number</text><text fill="#000000" font-family="sans-serif" font-size="14" lengthAdjust="spacing" textLength="183" x="278.5" y="315.6426">idUniversidad : number «FK»</text><text fill="#000000" font-family="sans-serif" font-size="14" lengthAdjust="spacing" textLength="93" x="278.5" y="333.252">aforo : number</text><line style="stroke:#181818;stroke-width:0.5;" x1="259.5" x2="466.5" y1="340.3281" y2="340.3281"/></g><!--MD5=[ac5eaaf417a39f983bc586a596f447ad]
class AsPDI--><g id="elem_AsPDI"><rect codeLine="94" fill="#F1F1F1" height="83.2188" id="AsPDI" rx="2.5" ry="2.5" style="stroke:#181818;stroke-width:0.5;" width="203" x="87.5" y="872"/><ellipse cx="135.75" cy="888" fill="#ADD1B2" rx="11" ry="11" style="stroke:#181818;stroke-width:1.0;"/><path d="M134.6094,888.7969 L134.6094,891.2969 L138.9375,891.2969 L138.9375,890.375 Q138.9375,889.7656 139.1719,889.5 Q139.4219,889.2344 139.7969,889.2344 Q140.1719,889.2344 140.4063,889.5 Q140.6406,889.7656 140.6406,890.375 L140.6406,893 L132.6406,893 Q132.0156,893 131.75,892.7656 Q131.5,892.5313 131.5,892.1406 Q131.5,891.7656 131.7656,891.5313 Q132.0313,891.2969 132.6406,891.2969 L132.9063,891.2969 L132.9063,884.6406 L132.6406,884.6406 Q132.0156,884.6406 131.75,884.4063 Q131.5,884.1719 131.5,883.7813 Q131.5,883.4063 131.75,883.1719 Q132.0156,882.9375 132.6406,882.9375 L140.2656,882.9375 L140.2656,885.5313 Q140.2656,886.1406 140.0313,886.4063 Q139.8125,886.6563 139.4219,886.6563 Q139.0469,886.6563 138.8125,886.4063 Q138.5781,886.1406 138.5781,885.5313 L138.5781,884.6406 L134.6094,884.6406 L134.6094,887.0938 L136.0938,887.0938 Q136.0938,886.4375 136.2188,886.25 Q136.4844,885.8438 136.9531,885.8438 Q137.3281,885.8438 137.5625,886.1094 Q137.7969,886.3594 137.7969,886.9688 L137.7969,888.9375 Q137.7969,889.4844 137.6719,889.6719 Q137.4063,890.0625 136.9531,890.0625 Q136.4844,890.0625 136.2188,889.6563 Q136.0938,889.4688 136.0938,888.7969 L134.6094,888.7969 Z " fill="#000000"/><text fill="#000000" font-family="sans-serif" font-size="14" lengthAdjust="spacing" textLength="98" x="156.25" y="893.7285">Asignatura_PDI</text><line style="stroke:#181818;stroke-width:0.5;" x1="88.5" x2="289.5" y1="904" y2="904"/><ellipse cx="98.5" cy="918.3047" fill="#000000" rx="3" ry="3" style="stroke:#000000;stroke-width:1.0;"/><text fill="#000000" font-family="sans-serif" font-size="14" lengthAdjust="spacing" textLength="131" x="107.5" y="922.5332">idPDI : number «FK»</text><ellipse cx="98.5" cy="935.9141" fill="#000000" rx="3" ry="3" style="stroke:#000000;stroke-width:1.0;"/><text fill="#000000" font-family="sans-serif" font-size="14" lengthAdjust="spacing" textLength="177" x="107.5" y="940.1426">idAsignatura : number «FK»</text><line style="stroke:#181818;stroke-width:0.5;" x1="88.5" x2="289.5" y1="947.2188" y2="947.2188"/></g><!--MD5=[9a483e273c1b9882adbd15fee2e43daf]
link PAS to Estudiante--><g id="link_PAS_Estudiante"><path codeLine="99" d="M118,160.12 C118,177.03 118,195.09 118,212.36 " fill="none" id="PAS-Estudiante" style="stroke:#181818;stroke-width:1.0;stroke-dasharray:7.0,7.0;"/><line style="stroke:#181818;stroke-width:1.0;" x1="118" x2="124" y1="212.76" y2="220.76"/><line style="stroke:#181818;stroke-width:1.0;" x1="118" x2="112" y1="212.76" y2="220.76"/><line style="stroke:#181818;stroke-width:1.0;" x1="118" x2="118" y1="212.76" y2="220.76"/><line style="stroke:#181818;stroke-width:1.0;" x1="122" x2="114" y1="210.76" y2="210.76"/><line style="stroke:#181818;stroke-width:1.0;" x1="114" x2="122" y1="156.08" y2="156.08"/><line style="stroke:#181818;stroke-width:1.0;" x1="114" x2="122" y1="159.08" y2="159.08"/><line style="stroke:#181818;stroke-width:1.0;" x1="118" x2="118" y1="160.08" y2="152.08"/></g><!--MD5=[3c0cec8431d9b4276ac51329a745daf1]
link Estudiante to PDI--><g id="link_Estudiante_PDI"><path codeLine="100" d="M97.85,383.44 C94.58,400.42 91.71,418.2 90,435 C82.6,507.62 86.14,590.97 90.61,649.61 " fill="none" id="Estudiante-PDI" style="stroke:#181818;stroke-width:1.0;stroke-dasharray:7.0,7.0;"/><line style="stroke:#181818;stroke-width:1.0;" x1="94.9232" x2="86.9479" y1="653.4179" y2="654.0468"/><line style="stroke:#181818;stroke-width:1.0;" x1="94.6874" x2="86.7121" y1="650.4272" y2="651.0561"/><line style="stroke:#181818;stroke-width:1.0;" x1="90.6211" x2="91.25" y1="649.7448" y2="657.72"/><line style="stroke:#181818;stroke-width:1.0;" x1="97.9385" x2="93.5924" y1="383.0301" y2="374.0239"/><line style="stroke:#181818;stroke-width:1.0;" x1="97.9385" x2="105.3676" y1="383.0301" y2="376.3361"/><line style="stroke:#181818;stroke-width:1.0;" x1="97.9385" x2="99.48" y1="383.0301" y2="375.18"/><line style="stroke:#181818;stroke-width:1.0;" x1="93.6281" x2="101.4782" y1="384.2219" y2="385.7633"/></g><!--MD5=[3cfafd3c363e80c6dc3dcc5b62e74191]
link Estudiante to ListaDeClase--><g id="link_Estudiante_ListaDeClase"><path codeLine="102" d="M154.06,383.02 C160.3,397.55 166.79,412.66 173.02,427.19 " fill="none" id="Estudiante-ListaDeClase" style="stroke:#181818;stroke-width:1.0;stroke-dasharray:7.0,7.0;"/><line style="stroke:#181818;stroke-width:1.0;" x1="173.1052" x2="181.7738" y1="427.3783" y2="432.3639"/><line style="stroke:#181818;stroke-width:1.0;" x1="173.1052" x2="170.7462" y1="427.3783" y2="437.0961"/><line style="stroke:#181818;stroke-width:1.0;" x1="173.1052" x2="176.26" y1="427.3783" y2="434.73"/><line style="stroke:#181818;stroke-width:1.0;" x1="175.9923" x2="168.6407" y1="423.963" y2="427.1178"/><line style="stroke:#181818;stroke-width:1.0;" x1="148.6253" x2="155.9747" y1="380.4947" y2="377.3347"/><line style="stroke:#181818;stroke-width:1.0;" x1="149.8103" x2="157.1597" y1="383.2508" y2="380.0908"/><line style="stroke:#181818;stroke-width:1.0;" x1="153.88" x2="150.72" y1="382.5895" y2="375.24"/></g><!--MD5=[d36fbee36e3a91583196e1b6f293a145]
link ListaDeClase to Asignatura--><g id="link_ListaDeClase_Asignatura"><path codeLine="103" d="M268.58,596.09 C279.36,611.14 290.61,626.82 301.39,641.87 " fill="none" id="ListaDeClase-Asignatura" style="stroke:#181818;stroke-width:1.0;stroke-dasharray:7.0,7.0;"/><line style="stroke:#181818;stroke-width:1.0;" x1="307.2238" x2="300.7274" y1="643.1474" y2="647.8162"/><line style="stroke:#181818;stroke-width:1.0;" x1="305.473" x2="298.9766" y1="640.7113" y2="645.3801"/><line style="stroke:#181818;stroke-width:1.0;" x1="301.6412" x2="306.31" y1="642.2337" y2="648.73"/><line style="stroke:#181818;stroke-width:1.0;" x1="268.3194" x2="258.7827" y1="595.7431" y2="592.7345"/><line style="stroke:#181818;stroke-width:1.0;" x1="268.3194" x2="268.5373" y1="595.7431" y2="585.7455"/><line style="stroke:#181818;stroke-width:1.0;" x1="268.3194" x2="263.66" y1="595.7431" y2="589.24"/><line style="stroke:#181818;stroke-width:1.0;" x1="266.2327" x2="272.7358" y1="599.6986" y2="595.0392"/></g><!--MD5=[854db1adf864bce446a41f9f8b6a4789]
link Asignatura to Curso--><g id="link_Asignatura_Curso"><path codeLine="105" d="M405.93,810.35 C414.15,825.6 422.56,841.19 430.24,855.45 " fill="none" id="Asignatura-Curso" style="stroke:#181818;stroke-width:1.0;stroke-dasharray:7.0,7.0;"/><line style="stroke:#181818;stroke-width:1.0;" x1="435.8194" x2="428.7729" y1="857.3629" y2="861.1506"/><line style="stroke:#181818;stroke-width:1.0;" x1="434.399" x2="427.3525" y1="854.7205" y2="858.5081"/><line style="stroke:#181818;stroke-width:1.0;" x1="430.4023" x2="434.19" y1="855.7335" y2="862.78"/><line style="stroke:#181818;stroke-width:1.0;" x1="405.8977" x2="396.8251" y1="810.2965" y2="806.0908"/><line style="stroke:#181818;stroke-width:1.0;" x1="405.8977" x2="407.3949" y1="810.2965" y2="800.4092"/><line style="stroke:#181818;stroke-width:1.0;" x1="405.8977" x2="402.11" y1="810.2965" y2="803.25"/><line style="stroke:#181818;stroke-width:1.0;" x1="403.3213" x2="410.3679" y1="813.952" y2="810.1643"/></g><!--MD5=[fe6bce91ba0078d5b32242feb250b82b]
link Curso to Grado--><g id="link_Curso_Grado"><path codeLine="107" d="M543.96,968.53 C568.62,984.59 596.02,1002.44 622.1,1019.42 " fill="none" id="Curso-Grado" style="stroke:#181818;stroke-width:1.0;"/><line style="stroke:#181818;stroke-width:1.0;" x1="627.882" x2="623.5272" y1="1018.4272" y2="1025.138"/><line style="stroke:#181818;stroke-width:1.0;" x1="625.3655" x2="621.0106" y1="1016.7941" y2="1023.5049"/><line style="stroke:#181818;stroke-width:1.0;" x1="622.3492" x2="629.06" y1="1019.6051" y2="1023.96"/><line style="stroke:#181818;stroke-width:1.0;" x1="543.9208" x2="533.9438" y1="968.4849" y2="969.1631"/><line style="stroke:#181818;stroke-width:1.0;" x1="543.9208" x2="540.4762" y1="968.4849" y2="959.0969"/><line style="stroke:#181818;stroke-width:1.0;" x1="543.9208" x2="537.21" y1="968.4849" y2="964.13"/><line style="stroke:#181818;stroke-width:1.0;" x1="543.4211" x2="547.776" y1="972.929" y2="966.2182"/></g><!--MD5=[4a9fc01f576fac99a80d4f692b90928a]
link Universidad to Grado--><g id="link_Universidad_Grado"><path codeLine="109" d="M643.06,148.4 C666.24,168.88 688.6,193.5 703,221 C763.23,336.07 739,381.12 739,511 C739,511 739,511 739,727 C739,826.81 736.34,941.99 734.3,1015.6 " fill="none" id="Universidad-Grado" style="stroke:#181818;stroke-width:1.0;"/><line style="stroke:#181818;stroke-width:1.0;" x1="734.2885" x2="740.0576" y1="1015.9233" y2="1024.0914"/><line style="stroke:#181818;stroke-width:1.0;" x1="734.2885" x2="728.0624" y1="1015.9233" y2="1023.7486"/><line style="stroke:#181818;stroke-width:1.0;" x1="734.2885" x2="734.06" y1="1015.9233" y2="1023.92"/><line style="stroke:#181818;stroke-width:1.0;" x1="738.344" x2="730.3472" y1="1014.0383" y2="1013.8098"/><line style="stroke:#181818;stroke-width:1.0;" x1="637.2376" x2="642.4721" y1="148.6521" y2="142.6024"/><line style="stroke:#181818;stroke-width:1.0;" x1="639.5063" x2="644.7408" y1="150.6151" y2="144.5653"/><line style="stroke:#181818;stroke-width:1.0;" x1="642.8798" x2="636.83" y1="148.2445" y2="143.01"/></g><!--MD5=[c8a30bb16b96a8b9a8377e06d9d8f186]
link Curso to Grupo--><g id="link_Curso_Grupo"><path codeLine="111" d="M470.82,972.27 C474.67,994.9 479.03,1020.58 482.72,1042.26 " fill="none" id="Curso-Grupo" style="stroke:#181818;stroke-width:1.0;"/><line style="stroke:#181818;stroke-width:1.0;" x1="482.747" x2="490.0049" y1="1042.4635" y2="1049.3428"/><line style="stroke:#181818;stroke-width:1.0;" x1="482.747" x2="478.1751" y1="1042.4635" y2="1051.3572"/><line style="stroke:#181818;stroke-width:1.0;" x1="482.747" x2="484.09" y1="1042.4635" y2="1050.35"/><line style="stroke:#181818;stroke-width:1.0;" x1="486.3545" x2="478.468" y1="1039.8204" y2="1041.1634"/><line style="stroke:#181818;stroke-width:1.0;" x1="466.1683" x2="474.0547" y1="968.7447" y2="967.4017"/><line style="stroke:#181818;stroke-width:1.0;" x1="466.6719" x2="474.5583" y1="971.7022" y2="970.3592"/><line style="stroke:#181818;stroke-width:1.0;" x1="470.783" x2="469.44" y1="972.0165" y2="964.13"/></g><!--MD5=[8238dbfad7aef49ef8aa9812be0664af]
link Grupo to Horario--><g id="link_Grupo_Horario"><path codeLine="113" d="M526.15,1044.22 C541.35,1021.29 557.56,992.51 566,964 C627.17,757.32 614.07,498.76 602.45,373.67 " fill="none" id="Grupo-Horario" style="stroke:#181818;stroke-width:1.0;"/><line style="stroke:#181818;stroke-width:1.0;" x1="598.143" x2="606.1077" y1="370.7077" y2="369.957"/><line style="stroke:#181818;stroke-width:1.0;" x1="598.4246" x2="606.3893" y1="373.6945" y2="372.9437"/><line style="stroke:#181818;stroke-width:1.0;" x1="602.5008" x2="601.75" y1="374.3147" y2="366.35"/><line style="stroke:#181818;stroke-width:1.0;" x1="527.6532" x2="521.022" y1="1049.152" y2="1044.6768"/><line style="stroke:#181818;stroke-width:1.0;" x1="529.3314" x2="522.7002" y1="1046.6653" y2="1042.1901"/><line style="stroke:#181818;stroke-width:1.0;" x1="526.5752" x2="522.1" y1="1043.5988" y2="1050.23"/></g><!--MD5=[4e83d961622a402662418b42dbae3389]
link Horario to AsHor--><g id="link_Horario_AsHor"><path codeLine="115" d="M542.9,372.69 C526.33,396.6 508.06,422.93 491.97,446.15 " fill="none" id="Horario-AsHor" style="stroke:#181818;stroke-width:1.0;"/><line style="stroke:#181818;stroke-width:1.0;" x1="491.8222" x2="492.2039" y1="446.3514" y2="456.3441"/><line style="stroke:#181818;stroke-width:1.0;" x1="491.8222" x2="482.3361" y1="446.3514" y2="449.5159"/><line style="stroke:#181818;stroke-width:1.0;" x1="491.8222" x2="487.27" y1="446.3514" y2="452.93"/><line style="stroke:#181818;stroke-width:1.0;" x1="496.2495" x2="489.671" y1="446.9829" y2="442.4307"/><line style="stroke:#181818;stroke-width:1.0;" x1="541.9236" x2="548.4975" y1="367.0875" y2="371.6464"/><line style="stroke:#181818;stroke-width:1.0;" x1="540.214" x2="546.7879" y1="369.5528" y2="374.1116"/><line style="stroke:#181818;stroke-width:1.0;" x1="542.9311" x2="547.49" y1="372.6539" y2="366.08"/></g><!--MD5=[38d2b83d9961392558460bb4ecc24053]
link AsHor to Asignatura--><g id="link_AsHor_Asignatura"><path codeLine="116" d="M420.27,578.9 C412.29,598.58 403.43,620.41 395.04,641.08 " fill="none" id="AsHor-Asignatura" style="stroke:#181818;stroke-width:1.0;"/><line style="stroke:#181818;stroke-width:1.0;" x1="397.1919" x2="389.781" y1="646.431" y2="643.4181"/><line style="stroke:#181818;stroke-width:1.0;" x1="398.3218" x2="390.9108" y1="643.6519" y2="640.6389"/><line style="stroke:#181818;stroke-width:1.0;" x1="394.9929" x2="391.98" y1="641.219" y2="648.63"/><line style="stroke:#181818;stroke-width:1.0;" x1="420.3771" x2="417.8318" y1="578.621" y2="568.9503"/><line style="stroke:#181818;stroke-width:1.0;" x1="420.3771" x2="428.9482" y1="578.621" y2="573.4697"/><line style="stroke:#181818;stroke-width:1.0;" x1="420.3771" x2="423.39" y1="578.621" y2="571.21"/><line style="stroke:#181818;stroke-width:1.0;" x1="415.9184" x2="423.3293" y1="578.9672" y2="581.9802"/></g><!--MD5=[d77227c2c69272312cef53887afe97e1]
link Universidad to Clase--><g id="link_Universidad_Clase"><path codeLine="118" d="M478,167.32 C456.15,191.96 432.69,218.41 412.7,240.95 " fill="none" id="Universidad-Clase" style="stroke:#181818;stroke-width:1.0;"/><line style="stroke:#181818;stroke-width:1.0;" x1="412.4714" x2="411.6468" y1="241.2176" y2="251.1835"/><line style="stroke:#181818;stroke-width:1.0;" x1="412.4714" x2="402.6732" y1="241.2176" y2="243.2165"/><line style="stroke:#181818;stroke-width:1.0;" x1="412.4714" x2="407.16" y1="241.2176" y2="247.2"/><line style="stroke:#181818;stroke-width:1.0;" x1="416.7904" x2="410.808" y1="242.3777" y2="237.0663"/><line style="stroke:#181818;stroke-width:1.0;" x1="477.7436" x2="483.7331" y1="161.5831" y2="166.8864"/><line style="stroke:#181818;stroke-width:1.0;" x1="475.7548" x2="481.7443" y1="163.8291" y2="169.1325"/><line style="stroke:#181818;stroke-width:1.0;" x1="478.0866" x2="483.39" y1="167.2295" y2="161.24"/></g><!--MD5=[058577457433106f385c9995dbc13b84]
link Clase to AsHor--><g id="link_Clase_AsHor"><path codeLine="119" d="M385.35,355.42 C396.41,383.32 409.81,417.13 421.28,446.1 " fill="none" id="Clase-AsHor" style="stroke:#181818;stroke-width:1.0;"/><line style="stroke:#181818;stroke-width:1.0;" x1="426.2581" x2="418.819" y1="447.779" y2="450.7219"/><line style="stroke:#181818;stroke-width:1.0;" x1="425.1545" x2="417.7154" y1="444.9894" y2="447.9323"/><line style="stroke:#181818;stroke-width:1.0;" x1="421.0671" x2="424.01" y1="445.531" y2="452.97"/><line style="stroke:#181818;stroke-width:1.0;" x1="380.4419" x2="387.881" y1="353.891" y2="350.9481"/><line style="stroke:#181818;stroke-width:1.0;" x1="381.5455" x2="388.9846" y1="356.6806" y2="353.7377"/><line style="stroke:#181818;stroke-width:1.0;" x1="385.6329" x2="382.69" y1="356.139" y2="348.7"/></g><!--MD5=[5370265ce71f5797982548492361aa7e]
link Asignatura to AsPDI--><g id="link_Asignatura_AsPDI"><path codeLine="121" d="M284.66,809.34 C266.78,828.62 248.33,848.51 232.47,865.62 " fill="none" id="Asignatura-AsPDI" style="stroke:#181818;stroke-width:1.0;"/><line style="stroke:#181818;stroke-width:1.0;" x1="232.1887" x2="231.1502" y1="865.9231" y2="875.869"/><line style="stroke:#181818;stroke-width:1.0;" x1="232.1887" x2="222.3498" y1="865.9231" y2="867.711"/><line style="stroke:#181818;stroke-width:1.0;" x1="232.1887" x2="226.75" y1="865.9231" y2="871.79"/><line style="stroke:#181818;stroke-width:1.0;" x1="236.4818" x2="230.6149" y1="867.1757" y2="861.737"/><line style="stroke:#181818;stroke-width:1.0;" x1="284.6475" x2="290.5215" y1="803.4715" y2="808.9025"/><line style="stroke:#181818;stroke-width:1.0;" x1="282.6109" x2="288.4849" y1="805.6743" y2="811.1053"/><line style="stroke:#181818;stroke-width:1.0;" x1="284.869" x2="290.3" y1="809.124" y2="803.25"/></g><!--MD5=[99a658580b58199303ce3d0585c01967]
link PDI to AsPDI--><g id="link_PDI_AsPDI"><path codeLine="122" d="M134.61,801.62 C145.05,822.91 156.14,845.52 165.57,864.73 " fill="none" id="PDI-AsPDI" style="stroke:#181818;stroke-width:1.0;"/><line style="stroke:#181818;stroke-width:1.0;" x1="165.5696" x2="174.4779" y1="864.7362" y2="869.2797"/><line style="stroke:#181818;stroke-width:1.0;" x1="165.5696" x2="163.7021" y1="864.7362" y2="874.5603"/><line style="stroke:#181818;stroke-width:1.0;" x1="165.5696" x2="169.09" y1="864.7362" y2="871.92"/><line style="stroke:#181818;stroke-width:1.0;" x1="168.2815" x2="161.0977" y1="861.1801" y2="864.7004"/><line style="stroke:#181818;stroke-width:1.0;" x1="129.1526" x2="136.3336" y1="799.5836" y2="796.0574"/><line style="stroke:#181818;stroke-width:1.0;" x1="130.475" x2="137.6559" y1="802.2764" y2="798.7502"/><line style="stroke:#181818;stroke-width:1.0;" x1="134.5062" x2="130.98" y1="801.4109" y2="794.23"/></g><!--MD5=[5b622ceba15579e75b1b658a55621a5e]
@startuml supuesto1E-R

entity "Horario" as Horario{
    * idHorario : number
    nombre : text
    fechaIncorporacion: date
    * idGrupo : number <<FK>>
    * idCurso : number <<FK>>
}

entity "Estudiante" as Estudiante{
    * idEstudiante : number
    nombre: text
    fechaIncorporacion : date
    fechaNacimiento : date
    DNI : number
    email : text
}

entity "ListaDeClase" as ListaDeClase{
    * idListado : number
    nombreListado : text
    fechaIncorporacion : date
    nrEstudiantes : number
    idAsignatura : number <<FK>>
    idEstudiante : number <<FK>>
}

entity "Asignatura" as Asignatura{
    * idAsignatura : number
    nombre : text
    fechaIncorporacion : date
    nrEstudiantes : number
    profesor : text
    idCurso : number <<FK>>
}

entity "PDI" as PDI{
    * idPDI : number
    nombre : text
    fechaContratación : date
    email : text
    telefono : text
}

entity "PAS" as PAS{
    * idPAS : number
    nombre : text
    fechaContratacion : date
    email : text
    telefono : text
}

entity "Curso" as Curso{
    * idCurso : number
    coordinador : text
    * idGrado : number <<FK>>
}

entity "Grupo" as Grupo{
    * idGrupo : number
    * idCurso : number <<FK>>
}

entity "Grado" as Grado{
    * idGrado : number
    nombreGrado : text
    rama : text
    coordinador : text
    * idUniversidad : number <<FK>>
}

entity "Universidad" as Universidad{
    * idUniversidad : number
    nombre : text
    direccion : text
    nrTelefono : text
    email : text
    web : text
}

entity "Asignatura_horario" as AsHor{
    * idHorario : number <<FK>>
    * idAsignatura : number <<FK>>
    idClase : number <<FK>>
    hora : text
}

entity "Clase" as Clase{
    * idClase : number
    idUniversidad : number <<FK>>
    aforo : number
}

entity "Asignatura_PDI" as AsPDI{
    * idPDI : number <<FK>>
    * idAsignatura : number <<FK>>
}

PAS ||..|{ Estudiante
Estudiante }|..|| PDI

Estudiante ||..|{ ListaDeClase
ListaDeClase }|..|| Asignatura

Asignatura }|..|| Curso

Curso }|- -|| Grado

Universidad ||- -|{ Grado

Curso ||- -|{ Grupo

Grupo ||- -|| Horario

Horario ||- -|{ AsHor
AsHor }|- -|| Asignatura

Universidad ||- -|{ Clase
Clase ||- -|| AsHor

Asignatura ||- -|{ AsPDI
PDI ||- -|{ AsPDI



















@enduml

PlantUML version 1.2022.7(Mon Aug 22 19:01:30 CEST 2022)
(GPL source distribution)
Java Runtime: OpenJDK Runtime Environment
JVM: OpenJDK 64-Bit Server VM
Default Encoding: Cp1252
Language: es
Country: ES
--></g></svg>