<?xml version="1.0" encoding="UTF-8" standalone="no"?><svg xmlns="http://www.w3.org/2000/svg" xmlns:xlink="http://www.w3.org/1999/xlink" contentStyleType="text/css" height="205px" preserveAspectRatio="none" style="width:5400px;height:205px;background:#FFFFFF;" version="1.1" viewBox="0 0 5400 205" width="5400px" zoomAndPan="magnify"><defs/><g><!--MD5=[128f0757cf0ea77f14e95a88885fd9f7]
entity Usuario--><g id="elem_Usuario"><ellipse cx="2808.5" cy="14" fill="#F1F1F1" rx="8" ry="8" style="stroke:#181818;stroke-width:0.5;"/><path d="M2808.5,22 L2808.5,49 M2795.5,30 L2821.5,30 M2808.5,49 L2795.5,64 M2808.5,49 L2821.5,64 " fill="none" style="stroke:#181818;stroke-width:0.5;"/><text fill="#000000" font-family="sans-serif" font-size="14" lengthAdjust="spacing" textLength="48" x="2784.5" y="80.0332">Usuario</text></g><g id="elem_ListarIntegrantes"><ellipse cx="104.2802" cy="171.556" fill="#F1F1F1" rx="98.2802" ry="22.056" style="stroke:#181818;stroke-width:0.5;"/><text fill="#000000" font-family="sans-serif" font-size="14" lengthAdjust="spacing" textLength="157" x="25.7802" y="175.2846">Listar integrantes equipo</text></g><g id="elem_VerCaracteristicas"><ellipse cx="348.434" cy="171.4868" fill="#F1F1F1" rx="110.434" ry="24.4868" style="stroke:#181818;stroke-width:0.5;"/><text fill="#000000" font-family="sans-serif" font-size="14" lengthAdjust="spacing" textLength="184" x="256.434" y="175.2153">Ver caracteristicas jugadores</text></g><g id="elem_InformeEquipo"><ellipse cx="592.7239" cy="171.6448" fill="#F1F1F1" rx="98.7239" ry="22.1448" style="stroke:#181818;stroke-width:0.5;"/><text fill="#000000" font-family="sans-serif" font-size="14" lengthAdjust="spacing" textLength="158" x="513.7239" y="175.3733">Generar informes equipo</text></g><g id="elem_InformeCompeticion"><ellipse cx="836.4781" cy="171.3956" fill="#F1F1F1" rx="109.9781" ry="24.3956" style="stroke:#181818;stroke-width:0.5;"/><text fill="#000000" font-family="sans-serif" font-size="14" lengthAdjust="spacing" textLength="183" x="744.9781" y="175.1241">Generar informe competicion</text></g><g id="elem_InformeProgreso"><ellipse cx="1092.3903" cy="171.5781" fill="#F1F1F1" rx="110.8903" ry="24.5781" style="stroke:#181818;stroke-width:0.5;"/><text fill="#000000" font-family="sans-serif" font-size="14" lengthAdjust="spacing" textLength="185" x="999.8903" y="175.3066">Generar informe de progreso</text></g><g id="elem_GenerarResumen"><ellipse cx="1366.5404" cy="171.4081" fill="#F1F1F1" rx="127.5404" ry="27.9081" style="stroke:#181818;stroke-width:0.5;"/><text fill="#000000" font-family="sans-serif" font-size="14" lengthAdjust="spacing" textLength="221" x="1256.0404" y="175.1366">Generar resumen de dias de juego</text></g><g id="elem_ConsultarSalud"><ellipse cx="1631.2928" cy="171.3586" fill="#F1F1F1" rx="102.2928" ry="22.8586" style="stroke:#181818;stroke-width:0.5;"/><text fill="#000000" font-family="sans-serif" font-size="14" lengthAdjust="spacing" textLength="166" x="1548.2928" y="175.0871">Consultar estado de salud</text></g><g id="elem_ConsultarLesiones"><ellipse cx="1850.597" cy="171.6194" fill="#F1F1F1" rx="81.097" ry="18.6194" style="stroke:#181818;stroke-width:0.5;"/><text fill="#000000" font-family="sans-serif" font-size="14" lengthAdjust="spacing" textLength="117" x="1791.5843" y="175.4982">Consultar lesiones</text></g><g id="elem_ConsultarTareas"><ellipse cx="2043.355" cy="171.671" fill="#F1F1F1" rx="76.355" ry="17.671" style="stroke:#181818;stroke-width:0.5;"/><text fill="#000000" font-family="sans-serif" font-size="14" lengthAdjust="spacing" textLength="105" x="1988.1233" y="176.1255">Consultar tareas</text></g><g id="elem_ConsultarEjercicios"><ellipse cx="2239.5066" cy="171.7013" fill="#F1F1F1" rx="84.0066" ry="19.2013" style="stroke:#181818;stroke-width:0.5;"/><text fill="#000000" font-family="sans-serif" font-size="14" lengthAdjust="spacing" textLength="124" x="2177.5066" y="175.4298">Consultar ejercicios</text></g><g id="elem_HistorialDeportivo"><ellipse cx="2462.6395" cy="171.6279" fill="#F1F1F1" rx="103.6395" ry="23.1279" style="stroke:#181818;stroke-width:0.5;"/><text fill="#000000" font-family="sans-serif" font-size="14" lengthAdjust="spacing" textLength="169" x="2378.1395" y="175.3564">Generar historial deportivo</text></g><g id="elem_HistorialMedico"><ellipse cx="2698.3945" cy="171.3789" fill="#F1F1F1" rx="97.3945" ry="21.8789" style="stroke:#181818;stroke-width:0.5;"/><text fill="#000000" font-family="sans-serif" font-size="14" lengthAdjust="spacing" textLength="155" x="2620.8945" y="175.1074">Generar historial medico</text></g><g id="elem_ConsultarCalendario"><ellipse cx="2918.4661" cy="171.2932" fill="#F1F1F1" rx="86.9661" ry="19.7932" style="stroke:#181818;stroke-width:0.5;"/><text fill="#000000" font-family="sans-serif" font-size="14" lengthAdjust="spacing" textLength="131" x="2852.9661" y="175.0217">Consultar calendario</text></g><g id="elem_VerEntrenamientos"><ellipse cx="3124.5066" cy="171.7013" fill="#F1F1F1" rx="84.0066" ry="19.2013" style="stroke:#181818;stroke-width:0.5;"/><text fill="#000000" font-family="sans-serif" font-size="14" lengthAdjust="spacing" textLength="124" x="3062.5066" y="175.4298">Ver entrenamientos</text></g><g id="elem_VerProximoPartido"><ellipse cx="3327.5873" cy="171.6175" fill="#F1F1F1" rx="83.5873" ry="19.1175" style="stroke:#181818;stroke-width:0.5;"/><text fill="#000000" font-family="sans-serif" font-size="14" lengthAdjust="spacing" textLength="123" x="3266.0873" y="175.346">Ver proximo partido</text></g><g id="elem_VerLugar"><ellipse cx="3527.597" cy="171.6194" fill="#F1F1F1" rx="81.097" ry="18.6194" style="stroke:#181818;stroke-width:0.5;"/><text fill="#000000" font-family="sans-serif" font-size="14" lengthAdjust="spacing" textLength="117" x="3468.5843" y="175.4982">Ver lugar de juego</text></g><g id="elem_VerCondicionesCampo"><ellipse cx="3747.5894" cy="171.7179" fill="#F1F1F1" rx="104.0894" ry="23.2179" style="stroke:#181818;stroke-width:0.5;"/><text fill="#000000" font-family="sans-serif" font-size="14" lengthAdjust="spacing" textLength="170" x="3662.5894" y="175.4464">Ver condiciones del campo</text></g><g id="elem_VerTiempo"><ellipse cx="3946.6685" cy="171.5838" fill="#F1F1F1" rx="60.1685" ry="15.5838" style="stroke:#181818;stroke-width:0.5;"/><text fill="#000000" font-family="sans-serif" font-size="14" lengthAdjust="spacing" textLength="68" x="3909.6685" y="176.1004">Ver tiempo</text></g><g id="elem_VerAsistencia"><ellipse cx="4112.5039" cy="171.5008" fill="#F1F1F1" rx="70.5039" ry="16.5008" style="stroke:#181818;stroke-width:0.5;"/><text fill="#000000" font-family="sans-serif" font-size="14" lengthAdjust="spacing" textLength="89" x="4065.0039" y="176.0174">Ver asistencia</text></g><g id="elem_VerHistoricoPartidos"><ellipse cx="4315.4525" cy="171.2905" fill="#F1F1F1" rx="96.9525" ry="21.7905" style="stroke:#181818;stroke-width:0.5;"/><text fill="#000000" font-family="sans-serif" font-size="14" lengthAdjust="spacing" textLength="154" x="4238.4525" y="175.019">Ver historico de partidos</text></g><g id="elem_ConsultarTemporadas"><ellipse cx="4538.3297" cy="171.5659" fill="#F1F1F1" rx="90.8297" ry="20.5659" style="stroke:#181818;stroke-width:0.5;"/><text fill="#000000" font-family="sans-serif" font-size="14" lengthAdjust="spacing" textLength="140" x="4468.3297" y="175.2945">Consultar temporadas</text></g><g id="elem_SelecPartido"><ellipse cx="4747.669" cy="171.5338" fill="#F1F1F1" rx="83.169" ry="19.0338" style="stroke:#181818;stroke-width:0.5;"/><text fill="#000000" font-family="sans-serif" font-size="14" lengthAdjust="spacing" textLength="122" x="4686.669" y="175.2623">Seleccionar partido</text></g><g id="elem_VerInfoEquipo"><ellipse cx="4983.7402" cy="171.548" fill="#F1F1F1" rx="118.2402" ry="26.048" style="stroke:#181818;stroke-width:0.5;"/><text fill="#000000" font-family="sans-serif" font-size="14" lengthAdjust="spacing" textLength="201" x="4883.2402" y="175.2766">Ver informacion sobre el equipo</text></g><g id="elem_AdminAjustes"><ellipse cx="5265.4447" cy="171.6889" fill="#F1F1F1" rx="128.9447" ry="28.1889" style="stroke:#181818;stroke-width:0.5;"/><text fill="#000000" font-family="sans-serif" font-size="14" lengthAdjust="spacing" textLength="224" x="5153.4447" y="175.4175">Administrar los ajustes de la pagina</text></g><!--MD5=[b4404f4e4d13e21135f19a4ecfc3f27c]
link Usuario to ListarIntegrantes--><g id="link_Usuario_ListarIntegrantes"><path d="M2784.28,45.78 C2554.43,48.5 754.15,71.96 220.5,143.5 C202.36,145.93 182.9,149.91 165.2,154.07 " fill="none" id="Usuario-ListarIntegrantes" style="stroke:#181818;stroke-width:1.0;"/></g><!--MD5=[d0ae0615c0418a91d8e6ebb5ef40367f]
link Usuario to VerCaracteristicas--><g id="link_Usuario_VerCaracteristicas"><path d="M2784.36,45.96 C2567.81,50.17 956.21,83.25 476.5,143.5 C458.47,145.76 439.21,149.25 421.25,152.97 " fill="none" id="Usuario-VerCaracteristicas" style="stroke:#181818;stroke-width:1.0;"/></g><!--MD5=[81a9f8c7c6dc412d96739b04f21bf8e0]
link Usuario to InformeEquipo--><g id="link_Usuario_InformeEquipo"><path d="M2784.23,46.02 C2579.52,50.52 1138.04,83.99 708.5,143.5 C690.37,146.01 670.92,150.01 653.22,154.17 " fill="none" id="Usuario-InformeEquipo" style="stroke:#181818;stroke-width:1.0;"/></g><!--MD5=[d414a4241d049b51934002e2722e7ff9]
link Usuario to InformeCompeticion--><g id="link_Usuario_InformeCompeticion"><path d="M2784.44,45.36 C2625.01,44.74 1704.45,45.67 963.5,143.5 C945.73,145.85 926.75,149.34 909.03,153.04 " fill="none" id="Usuario-InformeCompeticion" style="stroke:#181818;stroke-width:1.0;"/></g><!--MD5=[01ac3e1afa44d95632e71fadddba9c82]
link Usuario to InformeProgreso--><g id="link_Usuario_InformeProgreso"><path d="M2784.13,45.68 C2637.1,47.07 1853.45,58.31 1221.5,143.5 C1203.47,145.93 1184.2,149.45 1166.2,153.16 " fill="none" id="Usuario-InformeProgreso" style="stroke:#181818;stroke-width:1.0;"/></g><!--MD5=[ad228d17f40aaf29387b8d835c063b0e]
link Usuario to GenerarResumen--><g id="link_Usuario_GenerarResumen"><path d="M2784.1,46.35 C2653.36,51.14 2022.59,76.81 1511.5,143.5 C1494.11,145.77 1475.64,148.76 1457.92,151.92 " fill="none" id="Usuario-GenerarResumen" style="stroke:#181818;stroke-width:1.0;"/></g><!--MD5=[e86d7a7d0ad813212d5186847bd00026]
link Usuario to ConsultarSalud--><g id="link_Usuario_ConsultarSalud"><path d="M2784.16,46.59 C2668.32,52.05 2161.52,78.64 1751.5,143.5 C1733.99,146.27 1715.23,150.08 1697.85,153.97 " fill="none" id="Usuario-ConsultarSalud" style="stroke:#181818;stroke-width:1.0;"/></g><!--MD5=[e9434e307dc586c4318fd037518c35dc]
link Usuario to ConsultarLesiones--><g id="link_Usuario_ConsultarLesiones"><path d="M2784.38,46.9 C2682.4,53.09 2276.73,80.59 1949.5,143.5 C1932.18,146.83 1913.45,151.62 1896.99,156.25 " fill="none" id="Usuario-ConsultarLesiones" style="stroke:#181818;stroke-width:1.0;"/></g><!--MD5=[3c3aeb0f9e57f1c9d3581eb403a7e79b]
link Usuario to ConsultarTareas--><g id="link_Usuario_ConsultarTareas"><path d="M2784.22,47.85 C2696.43,56.6 2387.52,89.59 2137.5,143.5 C2120.57,147.15 2102.21,152.18 2086.24,156.91 " fill="none" id="Usuario-ConsultarTareas" style="stroke:#181818;stroke-width:1.0;"/></g><!--MD5=[e3aa99a2baddda9d218930e1c6127838]
link Usuario to ConsultarEjercicios--><g id="link_Usuario_ConsultarEjercicios"><path d="M2784.09,50.16 C2714.62,63.51 2509.97,103.55 2341.5,143.5 C2324.92,147.43 2306.93,152.07 2290.74,156.38 " fill="none" id="Usuario-ConsultarEjercicios" style="stroke:#181818;stroke-width:1.0;"/></g><!--MD5=[0da6f4a0fe03399f3bb509d9f112d8fc]
link Usuario to HistorialDeportivo--><g id="link_Usuario_HistorialDeportivo"><path d="M2784.44,54.19 C2728.97,74.23 2591,124.08 2514.92,151.56 " fill="none" id="Usuario-HistorialDeportivo" style="stroke:#181818;stroke-width:1.0;"/></g><!--MD5=[77ef39a6fdacb9d73aa44aa4f27e1072]
link Usuario to HistorialMedico--><g id="link_Usuario_HistorialMedico"><path d="M2784.36,72.93 C2764,96.07 2735.29,128.7 2716.78,149.72 " fill="none" id="Usuario-HistorialMedico" style="stroke:#181818;stroke-width:1.0;"/></g><!--MD5=[8d5a2d633bc0d318acb06a895f67d585]
link Usuario to ConsultarCalendario--><g id="link_Usuario_ConsultarCalendario"><path d="M2832.64,72.93 C2853.64,96.79 2883.5,130.73 2901.91,151.65 " fill="none" id="Usuario-ConsultarCalendario" style="stroke:#181818;stroke-width:1.0;"/></g><!--MD5=[bc09daa686862b26fb355cba06bbd808]
link Usuario to VerEntrenamientos--><g id="link_Usuario_VerEntrenamientos"><path d="M2832.51,55 C2886.52,76.36 3018.05,128.39 3084.57,154.71 " fill="none" id="Usuario-VerEntrenamientos" style="stroke:#181818;stroke-width:1.0;"/></g><!--MD5=[ecabda633d42e30eac381b6d4ece1240]
link Usuario to VerProximoPartido--><g id="link_Usuario_VerProximoPartido"><path d="M2832.6,50.87 C2896.79,65.25 3077.21,106.05 3226.5,143.5 C3242.7,147.56 3260.3,152.19 3276.2,156.46 " fill="none" id="Usuario-VerProximoPartido" style="stroke:#181818;stroke-width:1.0;"/></g><!--MD5=[7563b10118c49130af16a823597d6732]
link Usuario to VerLugar--><g id="link_Usuario_VerLugar"><path d="M2832.61,48.35 C2915.85,58.37 3198.63,94.14 3428.5,143.5 C3445.48,147.15 3463.89,151.93 3480.17,156.46 " fill="none" id="Usuario-VerLugar" style="stroke:#181818;stroke-width:1.0;"/></g><!--MD5=[77b7ce61ad9333fcd76621c4fd08af52]
link Usuario to VerCondicionesCampo--><g id="link_Usuario_VerCondicionesCampo"><path d="M2832.72,47.51 C2931.69,55.89 3314.93,90.21 3626.5,143.5 C3643.68,146.44 3662.11,150.22 3679.27,154.02 " fill="none" id="Usuario-VerCondicionesCampo" style="stroke:#181818;stroke-width:1.0;"/></g><!--MD5=[9c71d173dc1c8b5d60f62f4b9361b019]
link Usuario to VerTiempo--><g id="link_Usuario_VerTiempo"><path d="M2832.74,45.56 C2949.14,46.29 3461.93,54.63 3869.5,143.5 C3885.28,146.94 3902.27,152.67 3916.27,157.97 " fill="none" id="Usuario-VerTiempo" style="stroke:#181818;stroke-width:1.0;"/></g><!--MD5=[ea2a1821ea8078c925c53d9c8c44b23c]
link Usuario to VerAsistencia--><g id="link_Usuario_VerAsistencia"><path d="M2832.76,45.51 C2958.81,45.94 3551.25,52.95 4024.5,143.5 C4041.61,146.77 4060.1,152.15 4075.7,157.25 " fill="none" id="Usuario-VerAsistencia" style="stroke:#181818;stroke-width:1.0;"/></g><!--MD5=[bbc7314cb7743548226a3eb01a1954aa]
link Usuario to VerHistoricoPartidos--><g id="link_Usuario_VerHistoricoPartidos"><path d="M2832.93,45.76 C2969.45,47.51 3651.38,60.26 4200.5,143.5 C4218.24,146.19 4237.29,150.19 4254.68,154.3 " fill="none" id="Usuario-VerHistoricoPartidos" style="stroke:#181818;stroke-width:1.0;"/></g><!--MD5=[73107c214fabbe8326fbfa1a40a20892]
link Usuario to ConsultarTemporadas--><g id="link_Usuario_ConsultarTemporadas"><path d="M2832.97,45.29 C2982.29,44.35 3785.71,44.29 4430.5,143.5 C4448.27,146.23 4467.38,150.54 4484.51,154.93 " fill="none" id="Usuario-ConsultarTemporadas" style="stroke:#181818;stroke-width:1.0;"/></g><!--MD5=[6d0d225faa91284e6867854a47fbdf86]
link Usuario to SelecPartido--><g id="link_Usuario_SelecPartido"><path d="M2832.69,46.09 C3022.44,50.81 4274.36,83.87 4647.5,143.5 C4665.17,146.32 4684.21,151.03 4700.89,155.73 " fill="none" id="Usuario-SelecPartido" style="stroke:#181818;stroke-width:1.0;"/></g><!--MD5=[fd96de9b09d9013035342bd6e1fcb2b2]
link Usuario to VerInfoEquipo--><g id="link_Usuario_VerInfoEquipo"><path d="M2832.59,45.3 C3001.43,44.17 4024.59,41.9 4848.5,143.5 C4866.29,145.69 4885.25,148.92 4903.15,152.38 " fill="none" id="Usuario-VerInfoEquipo" style="stroke:#181818;stroke-width:1.0;"/></g><!--MD5=[394dd9d09d02d2ea6ffb03dea7abad86]
link Usuario to AdminAjustes--><g id="link_Usuario_AdminAjustes"><path d="M2832.51,45.24 C3013.3,43.54 4179.78,37.22 5119.5,143.5 C5137.3,145.51 5156.2,148.42 5174.28,151.6 " fill="none" id="Usuario-AdminAjustes" style="stroke:#181818;stroke-width:1.0;"/></g><!--MD5=[094a2b7fa81725a9b8882369736ced4e]
@startuml aplicacionGD

:Usuario: as Usuario

(Listar integrantes equipo) as ListarIntegrantes
(Ver caracteristicas jugadores) as VerCaracteristicas
(Generar informes equipo) as InformeEquipo
(Generar informe competicion) as InformeCompeticion
(Generar informe de progreso) as InformeProgreso
(Generar resumen de dias de juego) as GenerarResumen
(Consultar estado de salud) as ConsultarSalud
(Consultar lesiones) as ConsultarLesiones
(Consultar tareas) as ConsultarTareas
(Consultar ejercicios) as ConsultarEjercicios
(Generar historial deportivo) as HistorialDeportivo
(Generar historial medico) as HistorialMedico
(Consultar calendario) as ConsultarCalendario
(Ver entrenamientos) as VerEntrenamientos
(Ver proximo partido) as VerProximoPartido
(Ver lugar de juego) as VerLugar
(Ver condiciones del campo) as VerCondicionesCampo
(Ver tiempo) as VerTiempo
(Ver asistencia) as VerAsistencia
(Ver historico de partidos) as VerHistoricoPartidos
(Consultar temporadas) as ConsultarTemporadas
(Seleccionar partido) as SelecPartido
(Ver informacion sobre el equipo) as VerInfoEquipo
(Administrar los ajustes de la pagina) as AdminAjustes


Usuario - - ListarIntegrantes
Usuario - - VerCaracteristicas
Usuario - - InformeEquipo
Usuario - - InformeCompeticion
Usuario - - InformeProgreso
Usuario - - GenerarResumen
Usuario - - ConsultarSalud
Usuario - - ConsultarLesiones
Usuario - - ConsultarTareas
Usuario - - ConsultarEjercicios
Usuario - - HistorialDeportivo
Usuario - - HistorialMedico
Usuario - - ConsultarCalendario
Usuario - - VerEntrenamientos
Usuario - - VerProximoPartido
Usuario - - VerLugar
Usuario - - VerCondicionesCampo
Usuario - - VerTiempo
Usuario - - VerAsistencia
Usuario - - VerHistoricoPartidos
Usuario - - ConsultarTemporadas
Usuario - - SelecPartido
Usuario - - VerInfoEquipo
Usuario - - AdminAjustes













@enduml

PlantUML version 1.2022.7(Mon Aug 22 19:01:30 CEST 2022)
(GPL source distribution)
Java Runtime: OpenJDK Runtime Environment
JVM: OpenJDK 64-Bit Server VM
Default Encoding: Cp1252
Language: es
Country: ES
--></g></svg>