<?xml version="1.0" encoding="UTF-8" standalone="no"?><svg xmlns="http://www.w3.org/2000/svg" xmlns:xlink="http://www.w3.org/1999/xlink" contentStyleType="text/css" height="909px" preserveAspectRatio="none" style="width:2359px;height:909px;background:#FFFFFF;" version="1.1" viewBox="0 0 2359 909" width="2359px" zoomAndPan="magnify"><defs/><g><!--MD5=[b571c8f4fe0828a6c5056791adc0d921]
entity Op--><g id="elem_Op"><ellipse cx="659" cy="482" fill="#F1F1F1" rx="16" ry="16" style="stroke:#181818;stroke-width:1.5;"/><path d="M659,502 C663,502 666,502 670,498 C678,498 686,506 686,514 L686,518 C686,522 682,526 678,526 L640,526 C636,526 632,522 632,518 L632,514 C632,506 640,498 648,498 C652,502 655,502 659,502 " fill="#F1F1F1" style="stroke:#181818;stroke-width:1.5;"/><text fill="#000000" font-family="sans-serif" font-size="14" lengthAdjust="spacing" textLength="61" x="628.5" y="542.0332">Operador</text></g><!--MD5=[aecd4e9c45cf36db320dfd26456ce050]
entity Tec--><g id="elem_Tec"><ellipse cx="501" cy="482" fill="#F1F1F1" rx="16" ry="16" style="stroke:#181818;stroke-width:1.5;"/><path d="M501,502 C505,502 508,502 512,498 C520,498 528,506 528,514 L528,518 C528,522 524,526 520,526 L482,526 C478,526 474,522 474,518 L474,514 C474,506 482,498 490,498 C494,502 497,502 501,502 " fill="#F1F1F1" style="stroke:#181818;stroke-width:1.5;"/><text fill="#000000" font-family="sans-serif" font-size="14" lengthAdjust="spacing" textLength="50" x="476" y="542.0332">Tecnico</text></g><!--MD5=[97ab183161fd5d1db7fba7485cf76add]
entity Admin--><g id="elem_Admin"><ellipse cx="1107" cy="323" fill="#F1F1F1" rx="16" ry="16" style="stroke:#181818;stroke-width:1.5;"/><path d="M1107,343 C1111,343 1114,343 1118,339 C1126,339 1134,347 1134,355 L1134,359 C1134,363 1130,367 1126,367 L1088,367 C1084,367 1080,363 1080,359 L1080,355 C1080,347 1088,339 1096,339 C1100,343 1103,343 1107,343 " fill="#F1F1F1" style="stroke:#181818;stroke-width:1.5;"/><text fill="#000000" font-family="sans-serif" font-size="14" lengthAdjust="spacing" textLength="87" x="1063.5" y="383.0332">Administrador</text></g><!--MD5=[e1c73a52bcc02b568fcc5292f51ad53a]
entity Ac--><g id="elem_Ac"><ellipse cx="541" cy="323" fill="#F1F1F1" rx="16" ry="16" style="stroke:#181818;stroke-width:1.5;"/><path d="M541,343 C545,343 548,343 552,339 C560,339 568,347 568,355 L568,359 C568,363 564,367 560,367 L522,367 C518,367 514,363 514,359 L514,355 C514,347 522,339 530,339 C534,343 537,343 541,343 " fill="#F1F1F1" style="stroke:#181818;stroke-width:1.5;"/><text fill="#000000" font-family="sans-serif" font-size="14" lengthAdjust="spacing" textLength="82" x="500" y="383.0332">Actor Comun</text></g><!--MD5=[5b7326f25d1fed60585d018a58d5c0d2]
entity Ac2--><g id="elem_Ac2"><ellipse cx="1096" cy="164" fill="#F1F1F1" rx="16" ry="16" style="stroke:#181818;stroke-width:1.5;"/><path d="M1096,184 C1100,184 1103,184 1107,180 C1115,180 1123,188 1123,196 L1123,200 C1123,204 1119,208 1115,208 L1077,208 C1073,208 1069,204 1069,200 L1069,196 C1069,188 1077,180 1085,180 C1089,184 1092,184 1096,184 " fill="#F1F1F1" style="stroke:#181818;stroke-width:1.5;"/><text fill="#000000" font-family="sans-serif" font-size="14" lengthAdjust="spacing" textLength="90" x="1051" y="224.0332">Actor Comun2</text></g><!--MD5=[c42ed81cef7fdd2e33758127945b9a5b]
entity UI--><g id="elem_UI"><ellipse cx="1922" cy="22" fill="#F1F1F1" rx="16" ry="16" style="stroke:#181818;stroke-width:1.5;"/><path d="M1922,42 C1926,42 1929,42 1933,38 C1941,38 1949,46 1949,54 L1949,58 C1949,62 1945,66 1941,66 L1903,66 C1899,66 1895,62 1895,58 L1895,54 C1895,46 1903,38 1911,38 C1915,42 1918,42 1922,42 " fill="#F1F1F1" style="stroke:#181818;stroke-width:1.5;"/><text fill="#000000" font-family="sans-serif" font-size="14" lengthAdjust="spacing" textLength="101" x="1871.5" y="82.0332">Usuario Invitado</text></g><!--MD5=[5cabb4584b2a09e7f3bf6bb44703bddc]
entity Correo--><g id="elem_Correo"><ellipse cx="345" cy="164" fill="#F1F1F1" rx="16" ry="16" style="stroke:#181818;stroke-width:1.5;"/><path d="M345,184 C349,184 352,184 356,180 C364,180 372,188 372,196 L372,200 C372,204 368,208 364,208 L326,208 C322,208 318,204 318,200 L318,196 C318,188 326,180 334,180 C338,184 341,184 345,184 " fill="#F1F1F1" style="stroke:#181818;stroke-width:1.5;"/><text fill="#000000" font-family="sans-serif" font-size="14" lengthAdjust="spacing" textLength="44" x="323" y="224.0332">Correo</text></g><g id="elem_Dar de alta incidencias"><ellipse cx="345.066" cy="504.9132" fill="#F1F1F1" rx="92.566" ry="20.9132" style="stroke:#181818;stroke-width:0.5;"/><text fill="#000000" font-family="sans-serif" font-size="14" lengthAdjust="spacing" textLength="144" x="273.066" y="508.6417">Dar de alta incidencias</text></g><g id="elem_Enviar Correo"><ellipse cx="345.1531" cy="345.9306" fill="#F1F1F1" rx="70.1531" ry="16.4306" style="stroke:#181818;stroke-width:0.5;"/><text fill="#000000" font-family="sans-serif" font-size="14" lengthAdjust="spacing" textLength="88" x="298.1531" y="350.4472">Enviar Correo</text></g><g id="elem_Realizar informe"><ellipse cx="81.2256" cy="630.9451" fill="#F1F1F1" rx="75.2256" ry="17.4451" style="stroke:#181818;stroke-width:0.5;"/><text fill="#000000" font-family="sans-serif" font-size="14" lengthAdjust="spacing" textLength="102" x="27.2256" y="635.4617">Realizar informe</text></g><g id="elem_Marcar incidencias"><ellipse cx="273.0075" cy="631.2015" fill="#F1F1F1" rx="81.5075" ry="18.7015" style="stroke:#181818;stroke-width:0.5;"/><text fill="#000000" font-family="sans-serif" font-size="14" lengthAdjust="spacing" textLength="118" x="213.6675" y="635.0304">Marcar incidencias</text></g><g id="elem_Ordenar incidencias"><ellipse cx="712.7698" cy="630.954" fill="#F1F1F1" rx="85.2698" ry="19.454" style="stroke:#181818;stroke-width:0.5;"/><text fill="#000000" font-family="sans-serif" font-size="14" lengthAdjust="spacing" textLength="127" x="649.2698" y="634.6825">Ordenar incidencias</text></g><g id="elem_Atender llamada Tecnicos"><ellipse cx="490.8975" cy="631.1795" fill="#F1F1F1" rx="101.3975" ry="22.6795" style="stroke:#181818;stroke-width:0.5;"/><text fill="#000000" font-family="sans-serif" font-size="14" lengthAdjust="spacing" textLength="164" x="408.8975" y="634.908">Atender llamada Tecnicos</text></g><g id="elem_Atender llamada Operadores"><ellipse cx="943.9781" cy="630.8956" fill="#F1F1F1" rx="109.9781" ry="24.3956" style="stroke:#181818;stroke-width:0.5;"/><text fill="#000000" font-family="sans-serif" font-size="14" lengthAdjust="spacing" textLength="183" x="852.4781" y="634.6241">Atender llamada Operadores</text></g><g id="elem_Atender llamada telefonica"><ellipse cx="853.1901" cy="505.038" fill="#F1F1F1" rx="103.1901" ry="23.038" style="stroke:#181818;stroke-width:0.5;"/><text fill="#000000" font-family="sans-serif" font-size="14" lengthAdjust="spacing" textLength="168" x="769.1901" y="508.7665">Atender llamada telefonica</text></g><g id="elem_Comprobar datos incidencia"><ellipse cx="490.7512" cy="760.8502" fill="#F1F1F1" rx="107.2512" ry="23.8502" style="stroke:#181818;stroke-width:0.5;"/><text fill="#000000" font-family="sans-serif" font-size="14" lengthAdjust="spacing" textLength="177" x="402.2512" y="764.5788">Comprobar datos incidencia</text></g><g id="elem_Introducir nuevos datos incidencia"><ellipse cx="1165.2387" cy="760.8477" fill="#F1F1F1" rx="124.7387" ry="27.3477" style="stroke:#181818;stroke-width:0.5;"/><text fill="#000000" font-family="sans-serif" font-size="14" lengthAdjust="spacing" textLength="215" x="1057.7387" y="764.5763">Introducir nuevos datos incidencia</text></g><g id="elem_Informar posible incidencia"><ellipse cx="1746.1901" cy="187.038" fill="#F1F1F1" rx="103.1901" ry="23.038" style="stroke:#181818;stroke-width:0.5;"/><text fill="#000000" font-family="sans-serif" font-size="14" lengthAdjust="spacing" textLength="168" x="1662.1901" y="190.7665">Informar posible incidencia</text></g><g id="elem_Dar de alta localizacion mapa"><ellipse cx="1556.8903" cy="346.0781" fill="#F1F1F1" rx="110.8903" ry="24.5781" style="stroke:#181818;stroke-width:0.5;"/><text fill="#000000" font-family="sans-serif" font-size="14" lengthAdjust="spacing" textLength="185" x="1464.3903" y="349.8066">Dar de alta localizacion mapa</text></g><g id="elem_Incorporar explicacion"><ellipse cx="1792.9659" cy="345.8932" fill="#F1F1F1" rx="89.9659" ry="20.3932" style="stroke:#181818;stroke-width:0.5;"/><text fill="#000000" font-family="sans-serif" font-size="14" lengthAdjust="spacing" textLength="138" x="1723.9659" y="349.6217">Incorporar explicacion</text></g><g id="elem_Subir foto"><ellipse cx="1972.9968" cy="346.0429" fill="#F1F1F1" rx="54.9968" ry="15.5429" style="stroke:#181818;stroke-width:0.5;"/><text fill="#000000" font-family="sans-serif" font-size="14" lengthAdjust="spacing" textLength="61" x="1939.4968" y="350.5595">Subir foto</text></g><g id="elem_Acceder listado historico"><ellipse cx="1980.9525" cy="186.7905" fill="#F1F1F1" rx="96.9525" ry="21.7905" style="stroke:#181818;stroke-width:0.5;"/><text fill="#000000" font-family="sans-serif" font-size="14" lengthAdjust="spacing" textLength="154" x="1903.9525" y="190.519">Acceder listado historico</text></g><g id="elem_Registrar para ver notificaciones"><ellipse cx="2233.091" cy="186.9182" fill="#F1F1F1" rx="120.091" ry="26.4182" style="stroke:#181818;stroke-width:0.5;"/><text fill="#000000" font-family="sans-serif" font-size="14" lengthAdjust="spacing" textLength="205" x="2130.591" y="190.6467">Registrar para ver notificaciones</text></g><g id="elem_Consultar incidencia Invitado"><ellipse cx="1285.0675" cy="187.2135" fill="#F1F1F1" rx="109.0675" ry="24.2135" style="stroke:#181818;stroke-width:0.5;"/><text fill="#000000" font-family="sans-serif" font-size="14" lengthAdjust="spacing" textLength="181" x="1194.5675" y="190.942">Consultar incidencia Invitado</text></g><g id="elem_Consultar incidencias"><ellipse cx="1285.1756" cy="346.1351" fill="#F1F1F1" rx="88.6756" ry="20.1351" style="stroke:#181818;stroke-width:0.5;"/><text fill="#000000" font-family="sans-serif" font-size="14" lengthAdjust="spacing" textLength="135" x="1217.6756" y="349.8636">Consultar incidencias</text></g><g id="elem_Editar datos"><ellipse cx="1495.08" cy="187.1227" fill="#F1F1F1" rx="66.08" ry="15.6227" style="stroke:#181818;stroke-width:0.5;"/><text fill="#000000" font-family="sans-serif" font-size="14" lengthAdjust="spacing" textLength="76" x="1454.08" y="191.6393">Editar datos</text></g><g id="elem_Gestionar categoria"><ellipse cx="1244.9267" cy="504.7853" fill="#F1F1F1" rx="84.4267" ry="19.2853" style="stroke:#181818;stroke-width:0.5;"/><text fill="#000000" font-family="sans-serif" font-size="14" lengthAdjust="spacing" textLength="125" x="1182.4267" y="508.5139">Gestionar categoria</text></g><g id="elem_Ordenar incidencias Admin"><ellipse cx="820.0894" cy="761.2179" fill="#F1F1F1" rx="104.0894" ry="23.2179" style="stroke:#181818;stroke-width:0.5;"/><text fill="#000000" font-family="sans-serif" font-size="14" lengthAdjust="spacing" textLength="170" x="735.0894" y="764.9464">Ordenar incidencias Admin</text></g><g id="elem_Añadir comentario"><ellipse cx="819.7827" cy="884.9565" fill="#F1F1F1" rx="80.2827" ry="18.4565" style="stroke:#181818;stroke-width:0.5;"/><text fill="#000000" font-family="sans-serif" font-size="14" lengthAdjust="spacing" textLength="115" x="761.4192" y="888.9341">Añadir comentario</text></g><!--MD5=[0de0563d576b5f004d575f1b27e27c64]
link Ac to Dar de alta incidencias--><g id="link_Ac_Dar de alta incidencias"><path d="M499.91,379.91 C461.83,410.41 406.22,454.97 373.01,481.56 " fill="none" id="Ac-to-Dar de alta incidencias" style="stroke:#181818;stroke-width:1.0;"/><polygon fill="#181818" points="369.08,484.71,378.6032,482.1985,372.9802,481.5813,373.5973,475.9582,369.08,484.71" style="stroke:#181818;stroke-width:1.0;"/></g><!--MD5=[5d13c5e21175124f5e7486e2972acfd0]
reverse link Ac to Op--><g id="link_Ac_Op"><path d="M582.87,402.71 C598.19,423.09 615.19,445.71 629.23,464.39 " fill="none" id="Ac-backto-Op" style="stroke:#181818;stroke-width:1.0;"/><polygon fill="none" points="577.2,406.81,570.78,386.62,588.39,398.4,577.2,406.81" style="stroke:#181818;stroke-width:1.0;"/></g><!--MD5=[ea2881533dd2d8db7d24f6cee8ac39a8]
reverse link Ac to Tec--><g id="link_Ac_Tec"><path d="M525.95,406.08 C520.99,425.55 515.59,446.73 511.09,464.39 " fill="none" id="Ac-backto-Tec" style="stroke:#181818;stroke-width:1.0;"/><polygon fill="none" points="519.19,404.27,530.91,386.62,532.75,407.73,519.19,404.27" style="stroke:#181818;stroke-width:1.0;"/></g><!--MD5=[fd9b8915f7ea566c1223da0b414205d7]
link Enviar Correo to Dar de alta incidencias--><g id="link_Enviar Correo_Dar de alta incidencias"><path d="M345,362.63 C345,389.79 345,445.95 345,478.72 " fill="none" id="Enviar Correo-to-Dar de alta incidencias" style="stroke:#181818;stroke-width:1.0;stroke-dasharray:7.0,7.0;"/><polygon fill="#181818" points="345,483.77,349,474.77,345,478.77,341,474.77,345,483.77" style="stroke:#181818;stroke-width:1.0;"/><text fill="#000000" font-family="sans-serif" font-size="13" lengthAdjust="spacing" textLength="57" x="346" y="430.9951">&lt;Extend&gt;</text></g><!--MD5=[6e70b11b8f3a3b6fcb4df39beb337aef]
link Correo to Enviar Correo--><g id="link_Correo_Enviar Correo"><path d="M345,227.62 C345,258.19 345,299.29 345,323.86 " fill="none" id="Correo-to-Enviar Correo" style="stroke:#181818;stroke-width:1.0;"/><polygon fill="#181818" points="345,329.15,349,320.15,345,324.15,341,320.15,345,329.15" style="stroke:#181818;stroke-width:1.0;"/></g><!--MD5=[9ea75cd1617d5bbd191d740adc44739b]
link Tec to Realizar informe--><g id="link_Tec_Realizar informe"><path d="M472.37,534.26 C466.92,538.53 461.03,542.5 455,545.5 C340.58,602.42 298.41,577.29 174,606.5 C161.12,609.52 147.27,612.94 134.31,616.2 " fill="none" id="Tec-to-Realizar informe" style="stroke:#181818;stroke-width:1.0;"/><polygon fill="#181818" points="129.19,617.49,138.8961,619.1609,134.0373,616.2639,136.9343,611.4052,129.19,617.49" style="stroke:#181818;stroke-width:1.0;"/></g><!--MD5=[785aec2617330a909ca5222826c36765]
link Op to Marcar incidencias--><g id="link_Op_Marcar incidencias"><path d="M628.21,517.23 C605.78,525.32 574.6,536.38 547,545.5 C470.38,570.82 380.92,597.95 325.62,614.45 " fill="none" id="Op-to-Marcar incidencias" style="stroke:#181818;stroke-width:1.0;"/><polygon fill="#181818" points="320.7,615.92,330.4671,617.1865,325.4923,614.4937,328.1851,609.5189,320.7,615.92" style="stroke:#181818;stroke-width:1.0;"/></g><!--MD5=[70fa1270063e2b7fe2b5fe47ff86a7e9]
link Op to Ordenar incidencias--><g id="link_Op_Ordenar incidencias"><path d="M676.23,545.58 C685.04,565.79 695.44,589.68 702.93,606.88 " fill="none" id="Op-to-Ordenar incidencias" style="stroke:#181818;stroke-width:1.0;"/><polygon fill="#181818" points="704.96,611.54,705.0285,601.6914,702.9612,606.9569,697.6956,604.8895,704.96,611.54" style="stroke:#181818;stroke-width:1.0;"/></g><!--MD5=[1a79429910a402eedc0e9cff862adb8a]
link Tec to Atender llamada Tecnicos--><g id="link_Tec_Atender llamada Tecnicos"><path d="M497.81,545.58 C496.29,564.46 494.5,586.55 493.15,603.4 " fill="none" id="Tec-to-Atender llamada Tecnicos" style="stroke:#181818;stroke-width:1.0;"/><polygon fill="#181818" points="492.74,608.45,497.4489,599.7998,493.141,603.4661,489.4747,599.1582,492.74,608.45" style="stroke:#181818;stroke-width:1.0;"/></g><!--MD5=[c3477f8c9d94fb5fab53cb8de9071bc9]
link Op to Atender llamada Operadores--><g id="link_Op_Atender llamada Operadores"><path d="M689.85,523.73 C702.71,530.84 717.9,538.9 732,545.5 C782.11,568.94 840.62,591.95 883.46,608.02 " fill="none" id="Op-to-Atender llamada Operadores" style="stroke:#181818;stroke-width:1.0;"/><polygon fill="#181818" points="888.34,609.85,881.2991,602.9634,883.6537,608.1069,878.5101,610.4615,888.34,609.85" style="stroke:#181818;stroke-width:1.0;"/></g><!--MD5=[689d71985397880c3c6e707555c38e69]
reverse link Atender llamada telefonica to Atender llamada Tecnicos--><g id="link_Atender llamada telefonica_Atender llamada Tecnicos"><path d="M779.61,531.14 C709.75,555.07 606.3,590.5 544.09,611.81 " fill="none" id="Atender llamada telefonica-backto-Atender llamada Tecnicos" style="stroke:#181818;stroke-width:1.0;"/><polygon fill="none" points="777.62,524.42,798.8,524.56,782.15,537.67,777.62,524.42" style="stroke:#181818;stroke-width:1.0;"/></g><!--MD5=[814c3cfde7d0bc1873b3151b4d220bc6]
reverse link Atender llamada telefonica to Atender llamada Operadores--><g id="link_Atender llamada telefonica_Atender llamada Operadores"><path d="M881.01,544.17 C895.99,564.58 913.96,589.07 926.86,606.65 " fill="none" id="Atender llamada telefonica-backto-Atender llamada Operadores" style="stroke:#181818;stroke-width:1.0;"/><polygon fill="none" points="875.25,548.15,869.06,527.88,886.54,539.87,875.25,548.15" style="stroke:#181818;stroke-width:1.0;"/></g><!--MD5=[653229bfac762b5b71b59f4cf5dfd718]
link Atender llamada Tecnicos to Comprobar datos incidencia--><g id="link_Atender llamada Tecnicos_Comprobar datos incidencia"><path d="M491,653.71 C491,675.2 491,708.19 491,731.71 " fill="none" id="Atender llamada Tecnicos-to-Comprobar datos incidencia" style="stroke:#181818;stroke-width:1.0;stroke-dasharray:7.0,7.0;"/><polygon fill="#181818" points="491,736.88,495,727.88,491,731.88,487,727.88,491,736.88" style="stroke:#181818;stroke-width:1.0;"/><text fill="#000000" font-family="sans-serif" font-size="13" lengthAdjust="spacing" textLength="57" x="492" y="699.9951">&lt;Include&gt;</text></g><!--MD5=[45f6ef2c2c0f925df6788982d182ce96]
link Atender llamada Operadores to Introducir nuevos datos incidencia--><g id="link_Atender llamada Operadores_Introducir nuevos datos incidencia"><path d="M981.99,654 C1019.5,675.73 1076.96,709.01 1117.48,732.47 " fill="none" id="Atender llamada Operadores-to-Introducir nuevos datos incidencia" style="stroke:#181818;stroke-width:1.0;stroke-dasharray:7.0,7.0;"/><polygon fill="#181818" points="1121.83,735,1116.037,727.035,1117.5003,732.4993,1112.0359,733.9626,1121.83,735" style="stroke:#181818;stroke-width:1.0;"/><text fill="#000000" font-family="sans-serif" font-size="13" lengthAdjust="spacing" textLength="57" x="1063" y="699.9951">&lt;Include&gt;</text></g><!--MD5=[38ea2fbe306f60ce6b9112a0c358f39b]
link UI to Informar posible incidencia--><g id="link_UI_Informar posible incidencia"><path d="M1872.04,85.74 C1841.55,109.99 1803.53,140.24 1777.26,161.13 " fill="none" id="UI-to-Informar posible incidencia" style="stroke:#181818;stroke-width:1.0;"/><polygon fill="#181818" points="1773.15,164.4,1782.6833,161.9267,1777.0627,161.287,1777.7024,155.6664,1773.15,164.4" style="stroke:#181818;stroke-width:1.0;"/></g><!--MD5=[03ea4635aed0519fbb1cb25dd852ef0d]
link Informar posible incidencia to Dar de alta localizacion mapa--><g id="link_Informar posible incidencia_Dar de alta localizacion mapa"><path d="M1720.12,209.5 C1685.78,238.02 1625.22,288.33 1588.34,318.96 " fill="none" id="Informar posible incidencia-to-Dar de alta localizacion mapa" style="stroke:#181818;stroke-width:1.0;stroke-dasharray:7.0,7.0;"/><polygon fill="#181818" points="1584.41,322.23,1593.8857,319.5447,1588.2523,319.0305,1588.7665,313.397,1584.41,322.23" style="stroke:#181818;stroke-width:1.0;"/><text fill="#000000" font-family="sans-serif" font-size="13" lengthAdjust="spacing" textLength="57" x="1659" y="271.9951">&lt;Include&gt;</text></g><!--MD5=[24558f7768d8b36b6459d4a41fa5ee4c]
link Informar posible incidencia to Incorporar explicacion--><g id="link_Informar posible incidencia_Incorporar explicacion"><path d="M1752.63,210.16 C1761.34,239.25 1776.58,290.14 1785.63,320.39 " fill="none" id="Informar posible incidencia-to-Incorporar explicacion" style="stroke:#181818;stroke-width:1.0;stroke-dasharray:7.0,7.0;"/><polygon fill="#181818" points="1787.14,325.43,1788.3718,315.6585,1785.6967,320.6428,1780.7123,317.9677,1787.14,325.43" style="stroke:#181818;stroke-width:1.0;"/><text fill="#000000" font-family="sans-serif" font-size="13" lengthAdjust="spacing" textLength="57" x="1772" y="271.9951">&lt;Include&gt;</text></g><!--MD5=[b7f30e9de46ed778669c8d0d0a893023]
link Informar posible incidencia to Subir foto--><g id="link_Informar posible incidencia_Subir foto"><path d="M1776.61,209.17 C1822.36,240.81 1907.61,299.77 1949.09,328.46 " fill="none" id="Informar posible incidencia-to-Subir foto" style="stroke:#181818;stroke-width:1.0;stroke-dasharray:7.0,7.0;"/><polygon fill="#181818" points="1953.21,331.31,1948.0795,322.903,1949.0965,328.4677,1943.5318,329.4846,1953.21,331.31" style="stroke:#181818;stroke-width:1.0;"/><text fill="#000000" font-family="sans-serif" font-size="13" lengthAdjust="spacing" textLength="57" x="1867" y="271.9951">&lt;Include&gt;</text></g><!--MD5=[6d840c95fdca5818ccf2527f2c15b27e]
link UI to Acceder listado historico--><g id="link_UI_Acceder listado historico"><path d="M1938.75,85.74 C1948.78,109.54 1961.24,139.12 1970.03,159.96 " fill="none" id="UI-to-Acceder listado historico" style="stroke:#181818;stroke-width:1.0;"/><polygon fill="#181818" points="1972.07,164.8,1972.264,154.9531,1970.1297,160.1918,1964.8909,158.0575,1972.07,164.8" style="stroke:#181818;stroke-width:1.0;"/></g><!--MD5=[a9e4e2290f1e3901ae3e80f171c23b30]
link UI to Registrar para ver notificaciones--><g id="link_UI_Registrar para ver notificaciones"><path d="M1972.66,68.81 C2028.74,94.05 2118.88,134.63 2177.02,160.8 " fill="none" id="UI-to-Registrar para ver notificaciones" style="stroke:#181818;stroke-width:1.0;"/><polygon fill="#181818" points="2181.84,162.97,2175.2551,155.6461,2177.2751,160.93,2171.9912,162.95,2181.84,162.97" style="stroke:#181818;stroke-width:1.0;"/></g><!--MD5=[1fe82e3ad8d45e30b89c253193187157]
link UI to Consultar incidencia Invitado--><g id="link_UI_Consultar incidencia Invitado"><path d="M1871.18,54.09 C1778.86,69.22 1577.71,104.11 1411,146.5 C1390.02,151.83 1367.37,158.61 1347.14,165.03 " fill="none" id="UI-to-Consultar incidencia Invitado" style="stroke:#181818;stroke-width:1.0;"/><polygon fill="#181818" points="1342.33,166.57,1352.1183,167.6601,1347.0958,165.0575,1349.6984,160.0349,1342.33,166.57" style="stroke:#181818;stroke-width:1.0;"/></g><!--MD5=[44d1e9311833430584a7d59024d54469]
link Ac2 to Consultar incidencias--><g id="link_Ac2_Consultar incidencias"><path d="M1141.27,225.61 C1177.95,256.08 1228.37,297.96 1258.71,323.16 " fill="none" id="Ac2-to-Consultar incidencias" style="stroke:#181818;stroke-width:1.0;"/><polygon fill="#181818" points="1262.67,326.45,1258.2941,317.6267,1258.8207,323.2589,1253.1884,323.7855,1262.67,326.45" style="stroke:#181818;stroke-width:1.0;"/></g><!--MD5=[6dbb8eeff9a161a707ef508ac7d577c5]
reverse link Consultar incidencia Invitado to Consultar incidencias--><g id="link_Consultar incidencia Invitado_Consultar incidencias"><path d="M1285,231.23 C1285,262.16 1285,302.3 1285,325.7 " fill="none" id="Consultar incidencia Invitado-backto-Consultar incidencias" style="stroke:#181818;stroke-width:1.0;"/><polygon fill="none" points="1278,231.17,1285,211.17,1292,231.17,1278,231.17" style="stroke:#181818;stroke-width:1.0;"/></g><!--MD5=[a3f62d1f30053c299a4f4b0b6d2c3b0c]
link Editar datos to Consultar incidencias--><g id="link_Editar datos_Consultar incidencias"><path d="M1476.36,201.93 C1439.61,229.41 1357.54,290.77 1313.78,323.49 " fill="none" id="Editar datos-to-Consultar incidencias" style="stroke:#181818;stroke-width:1.0;stroke-dasharray:7.0,7.0;"/><polygon fill="#181818" points="1309.67,326.56,1319.2737,324.3764,1313.6751,323.5668,1314.4847,317.9682,1309.67,326.56" style="stroke:#181818;stroke-width:1.0;"/><text fill="#000000" font-family="sans-serif" font-size="13" lengthAdjust="spacing" textLength="57" x="1398" y="271.9951">&lt;Entend&gt;</text></g><!--MD5=[e138d82fa74e13ccf2c40c1beab20dfd]
reverse link Ac2 to Ac--><g id="link_Ac2_Ac"><path d="M1031.17,206.34 C915.73,239 677.7,306.33 582.09,333.38 " fill="none" id="Ac2-backto-Ac" style="stroke:#181818;stroke-width:1.0;"/><polygon fill="none" points="1029.43,199.56,1050.58,200.85,1033.24,213.03,1029.43,199.56" style="stroke:#181818;stroke-width:1.0;"/></g><!--MD5=[49f753b50ab0278fa6cec010eaafae87]
reverse link Ac2 to Admin--><g id="link_Ac2_Admin"><path d="M1100.18,247.69 C1101.54,267 1103,287.92 1104.23,305.39 " fill="none" id="Ac2-backto-Admin" style="stroke:#181818;stroke-width:1.0;"/><polygon fill="none" points="1093.19,248.06,1098.78,227.62,1107.16,247.08,1093.19,248.06" style="stroke:#181818;stroke-width:1.0;"/></g><!--MD5=[330d8efea4a13ec9dd7bb575fb35b80a]
link Admin to Gestionar categoria--><g id="link_Admin_Gestionar categoria"><path d="M1141.82,386.62 C1168.35,416.8 1203.89,457.23 1225.58,481.91 " fill="none" id="Admin-to-Gestionar categoria" style="stroke:#181818;stroke-width:1.0;"/><polygon fill="#181818" points="1228.94,485.73,1226.0061,476.3283,1225.6404,481.9733,1219.9954,481.6076,1228.94,485.73" style="stroke:#181818;stroke-width:1.0;"/></g><!--MD5=[04bf19a5329ad7ab65284fe2d3fee5c7]
link Admin to Ordenar incidencias Admin--><g id="link_Admin_Ordenar incidencias Admin"><path d="M1114.09,386.65 C1123.12,450.22 1131.07,575.86 1071,655.5 C1032.51,706.53 964.51,732.81 908.99,746.25 " fill="none" id="Admin-to-Ordenar incidencias Admin" style="stroke:#181818;stroke-width:1.0;"/><polygon fill="#181818" points="904,747.43,913.682,749.2354,908.8639,746.2713,911.828,741.4532,904,747.43" style="stroke:#181818;stroke-width:1.0;"/></g><!--MD5=[3d358067c3c5c3132e46a8d006843054]
reverse link Ordenar incidencias to Ordenar incidencias Admin--><g id="link_Ordenar incidencias_Ordenar incidencias Admin"><path d="M741.39,665.96 C760.55,688.89 785.28,718.46 801.83,738.27 " fill="none" id="Ordenar incidencias-backto-Ordenar incidencias Admin" style="stroke:#181818;stroke-width:1.0;"/><polygon fill="none" points="735.79,670.17,728.33,650.34,746.53,661.19,735.79,670.17" style="stroke:#181818;stroke-width:1.0;"/></g><!--MD5=[149f826a9c45fbcd63c2b2c54e7a9416]
link Ordenar incidencias Admin to Añadir comentario--><g id="link_Ordenar incidencias Admin_Añadir comentario"><path d="M820,784.09 C820,805.96 820,839.28 820,861.34 " fill="none" id="Ordenar incidencias Admin-to-Añadir comentario" style="stroke:#181818;stroke-width:1.0;stroke-dasharray:7.0,7.0;"/><polygon fill="#181818" points="820,866.42,824,857.42,820,861.42,816,857.42,820,866.42" style="stroke:#181818;stroke-width:1.0;"/><text fill="#000000" font-family="sans-serif" font-size="13" lengthAdjust="spacing" textLength="57" x="821" y="832.9951">&lt;Include&gt;</text></g><!--MD5=[67c7f7d94c59b66b760ef384607bc81b]
@startuml

skinparam actorStyle awesome

:Operador: as Op
:Tecnico: as Tec
:Administrador: as Admin
:Actor Comun: as Ac
:Actor Comun2: as Ac2
:Usuario Invitado: as UI
:Correo:

Ac - -> (Dar de alta incidencias)
Ac <|- - Op
Ac <|- - Tec

(Enviar Correo) ..> (Dar de alta incidencias) : <Extend>
Correo - -> (Enviar Correo)

Tec - -> (Realizar informe)
Op - -> (Marcar incidencias)
Op - -> (Ordenar incidencias) 

Tec - -> (Atender llamada Tecnicos)
Op - -> (Atender llamada Operadores)

(Atender llamada telefonica) <|- - (Atender llamada Tecnicos) 
(Atender llamada telefonica) <|- - (Atender llamada Operadores)

(Atender llamada Tecnicos) ..> (Comprobar datos incidencia) : <Include>
(Atender llamada Operadores) ..> (Introducir nuevos datos incidencia) : <Include>

UI - -> (Informar posible incidencia)
(Informar posible incidencia) ..> (Dar de alta localizacion mapa) : <Include>
(Informar posible incidencia) ..> (Incorporar explicacion) : <Include>
(Informar posible incidencia) ..> (Subir foto) : <Include>
UI - -> (Acceder listado historico)
UI - -> (Registrar para ver notificaciones)
UI - -> (Consultar incidencia Invitado)
Ac2 - -> (Consultar incidencias)
(Consultar incidencia Invitado) <|- - (Consultar incidencias)
(Editar datos) ..> (Consultar incidencias) : <Entend>
Ac2 <|- - Ac
Ac2 <|- - Admin

Admin - -> (Gestionar categoria)
Admin - -> (Ordenar incidencias Admin)

(Ordenar incidencias) <|- - (Ordenar incidencias Admin) 
(Ordenar incidencias Admin) ..> (Añadir comentario) : <Include>
@end

PlantUML version 1.2022.7(Mon Aug 22 19:01:30 CEST 2022)
(GPL source distribution)
Java Runtime: OpenJDK Runtime Environment
JVM: OpenJDK 64-Bit Server VM
Default Encoding: Cp1252
Language: es
Country: ES
--></g></svg>