<?xml version="1.0" encoding="UTF-8" standalone="no"?><svg xmlns="http://www.w3.org/2000/svg" xmlns:xlink="http://www.w3.org/1999/xlink" contentStyleType="text/css" height="800px" preserveAspectRatio="none" style="width:1347px;height:800px;background:#FFFFFF;" version="1.1" viewBox="0 0 1347 800" width="1347px" zoomAndPan="magnify"><defs/><g><!--MD5=[dadd680571e2ee7a6b53223d26ce7e08]
entity Adm--><g id="elem_Adm"><ellipse cx="260" cy="326" fill="#F1F1F1" rx="8" ry="8" style="stroke:#181818;stroke-width:0.5;"/><path d="M260,334 L260,361 M247,342 L273,342 M260,361 L247,376 M260,361 L273,376 " fill="none" style="stroke:#181818;stroke-width:0.5;"/><text fill="#000000" font-family="sans-serif" font-size="14" lengthAdjust="spacing" textLength="87" x="216.5" y="392.0332">Administrador</text></g><!--MD5=[3fc30eeadc8e7b8684f8a978d56275df]
entity Act--><g id="elem_Act"><ellipse cx="628" cy="170" fill="#F1F1F1" rx="8" ry="8" style="stroke:#181818;stroke-width:0.5;"/><path d="M628,178 L628,205 M615,186 L641,186 M628,205 L615,220 M628,205 L641,220 " fill="none" style="stroke:#181818;stroke-width:0.5;"/><text fill="#000000" font-family="sans-serif" font-size="14" lengthAdjust="spacing" textLength="82" x="587" y="236.0332">Actor Comun</text></g><!--MD5=[17b342a17091e2dc73df905bcbb9a63c]
entity Cli--><g id="elem_Cli"><ellipse cx="781" cy="14" fill="#F1F1F1" rx="8" ry="8" style="stroke:#181818;stroke-width:0.5;"/><path d="M781,22 L781,49 M768,30 L794,30 M781,49 L768,64 M781,49 L794,64 " fill="none" style="stroke:#181818;stroke-width:0.5;"/><text fill="#000000" font-family="sans-serif" font-size="14" lengthAdjust="spacing" textLength="44" x="759" y="80.0332">Cliente</text></g><!--MD5=[b61a2244099fd844b2611609be369c21]
entity Com--><g id="elem_Com"><ellipse cx="650" cy="326" fill="#F1F1F1" rx="8" ry="8" style="stroke:#181818;stroke-width:0.5;"/><path d="M650,334 L650,361 M637,342 L663,342 M650,361 L637,376 M650,361 L663,376 " fill="none" style="stroke:#181818;stroke-width:0.5;"/><text fill="#000000" font-family="sans-serif" font-size="14" lengthAdjust="spacing" textLength="63" x="618.5" y="392.0332">Comercial</text></g><g id="elem_gestionar peticion"><ellipse cx="260.0785" cy="485.7157" fill="#F1F1F1" rx="79.0785" ry="18.2157" style="stroke:#181818;stroke-width:0.5;"/><text fill="#000000" font-family="sans-serif" font-size="14" lengthAdjust="spacing" textLength="112" x="202.6751" y="489.8395">gestionar peticion</text></g><g id="elem_realizar oferta"><ellipse cx="75.8041" cy="485.3608" fill="#F1F1F1" rx="69.8041" ry="16.3608" style="stroke:#181818;stroke-width:0.5;"/><text fill="#000000" font-family="sans-serif" font-size="14" lengthAdjust="spacing" textLength="87" x="29.3041" y="489.8774">realizar oferta</text></g><g id="elem_visualizar ofertas"><ellipse cx="781.2363" cy="200.7473" fill="#F1F1F1" rx="76.7363" ry="17.7473" style="stroke:#181818;stroke-width:0.5;"/><text fill="#000000" font-family="sans-serif" font-size="14" lengthAdjust="spacing" textLength="106" x="725.7006" y="205.1555">visualizar ofertas</text></g><g id="elem_consultar disponibilidad"><ellipse cx="1058.813" cy="200.2626" fill="#F1F1F1" rx="94.313" ry="21.2626" style="stroke:#181818;stroke-width:0.5;"/><text fill="#000000" font-family="sans-serif" font-size="14" lengthAdjust="spacing" textLength="148" x="984.813" y="203.9911">consultar disponibilidad</text></g><g id="elem_consultar reservas"><ellipse cx="840.097" cy="356.6194" fill="#F1F1F1" rx="81.097" ry="18.6194" style="stroke:#181818;stroke-width:0.5;"/><text fill="#000000" font-family="sans-serif" font-size="14" lengthAdjust="spacing" textLength="117" x="781.0843" y="360.4982">consultar reservas</text></g><g id="elem_gestionar nueva reserva"><ellipse cx="773.9525" cy="485.2905" fill="#F1F1F1" rx="96.9525" ry="21.7905" style="stroke:#181818;stroke-width:0.5;"/><text fill="#000000" font-family="sans-serif" font-size="14" lengthAdjust="spacing" textLength="154" x="696.9525" y="489.019">gestionar nueva reserva</text></g><g id="elem_UC1"><ellipse cx="292.0601" cy="637.056" fill="#F1F1F1" rx="171.0601" ry="44.556" style="stroke:#181818;stroke-width:0.5;"/><text fill="#000000" font-family="sans-serif" font-size="14" lengthAdjust="spacing" textLength="174" x="205.0601" y="619.9632">realizar oferta del comercial</text><line style="stroke:#181818;stroke-width:1.0;" x1="130.6848" x2="453.4354" y1="623.0394" y2="623.0394"/><text fill="#000000" font-family="sans-serif" font-size="14" lengthAdjust="spacing" textLength="102" x="239.0601" y="641.5726">extension points</text><text fill="#000000" font-family="sans-serif" font-size="14" lengthAdjust="spacing" textLength="234" x="163.0601" y="659.182">bloquear temporalmente una reserva</text></g><g id="elem_consultar"><ellipse cx="1058.7806" cy="44.5229" fill="#F1F1F1" rx="52.7806" ry="15.5229" style="stroke:#181818;stroke-width:0.5;"/><text fill="#000000" font-family="sans-serif" font-size="14" lengthAdjust="spacing" textLength="58" x="1026.7806" y="49.0395">consultar</text></g><g id="elem_recalcular precio"><ellipse cx="291.855" cy="777.171" fill="#F1F1F1" rx="76.355" ry="17.671" style="stroke:#181818;stroke-width:0.5;"/><text fill="#000000" font-family="sans-serif" font-size="14" lengthAdjust="spacing" textLength="105" x="236.6233" y="781.6255">recalcular precio</text></g><g id="elem_buscar elemento"><ellipse cx="1264.855" cy="200.671" fill="#F1F1F1" rx="76.355" ry="17.671" style="stroke:#181818;stroke-width:0.5;"/><text fill="#000000" font-family="sans-serif" font-size="14" lengthAdjust="spacing" textLength="105" x="1209.6233" y="205.1255">buscar elemento</text></g><g id="elem_mostrar calendario"><ellipse cx="1059.0075" cy="356.7015" fill="#F1F1F1" rx="81.5075" ry="18.7015" style="stroke:#181818;stroke-width:0.5;"/><text fill="#000000" font-family="sans-serif" font-size="14" lengthAdjust="spacing" textLength="118" x="999.6675" y="360.5304">mostrar calendario</text></g><g id="elem_bloquear temporalmente una reserva"><ellipse cx="508.141" cy="485.6282" fill="#F1F1F1" rx="133.641" ry="29.1282" style="stroke:#181818;stroke-width:0.5;"/><text fill="#000000" font-family="sans-serif" font-size="14" lengthAdjust="spacing" textLength="234" x="391.141" y="489.3567">bloquear temporalmente una reserva</text></g><!--MD5=[8e576416b5a39cb99d0b34f0b4e2d475]
link Adm to gestionar peticion--><g id="link_Adm_gestionar peticion"><path d="M260,395.6 C260,417.19 260,443.46 260,461.83 " fill="none" id="Adm-to-gestionar peticion" style="stroke:#181818;stroke-width:1.0;"/><polygon fill="#181818" points="260,467.26,264,458.26,260,462.26,256,458.26,260,467.26" style="stroke:#181818;stroke-width:1.0;"/></g><!--MD5=[373baf6525c55fe3565a79ae82f99213]
link Adm to realizar oferta--><g id="link_Adm_realizar oferta"><path d="M216.39,387.6 C180.74,412.21 131.53,446.17 101.84,466.67 " fill="none" id="Adm-to-realizar oferta" style="stroke:#181818;stroke-width:1.0;"/><polygon fill="#181818" points="97.6,469.59,107.2782,467.7646,101.7135,466.7477,102.7305,461.183,97.6,469.59" style="stroke:#181818;stroke-width:1.0;"/></g><!--MD5=[6a20d15d6655569e1a6d6c0fca7c7db4]
link Cli to visualizar ofertas--><g id="link_Cli_visualizar ofertas"><path d="M781,83.57 C781,113.21 781,153.31 781,177.74 " fill="none" id="Cli-to-visualizar ofertas" style="stroke:#181818;stroke-width:1.0;"/><polygon fill="#181818" points="781,183,785,174,781,178,777,174,781,183" style="stroke:#181818;stroke-width:1.0;"/></g><!--MD5=[92fae212cdda24ed517cc71b623451a4]
link Cli to consultar disponibilidad--><g id="link_Cli_consultar disponibilidad"><path d="M803.28,57.84 C850.37,83.93 960.53,144.95 1019.73,177.75 " fill="none" id="Cli-to-consultar disponibilidad" style="stroke:#181818;stroke-width:1.0;"/><polygon fill="#181818" points="1024.25,180.25,1018.3055,172.3974,1019.8732,177.8327,1014.4379,179.4004,1024.25,180.25" style="stroke:#181818;stroke-width:1.0;"/></g><!--MD5=[511c7aa018935f744bf1ee812f7d07bc]
link Act to consultar reservas--><g id="link_Act_consultar reservas"><path d="M669.13,231.38 C711.36,262.05 775.92,308.95 812.39,335.45 " fill="none" id="Act-to-consultar reservas" style="stroke:#181818;stroke-width:1.0;"/><polygon fill="#181818" points="816.7,338.58,811.7579,330.0609,812.6508,335.6468,807.0648,336.5396,816.7,338.58" style="stroke:#181818;stroke-width:1.0;"/></g><!--MD5=[b86223a5ceeeea77b2c5949908425d9f]
link Com to gestionar nueva reserva--><g id="link_Com_gestionar nueva reserva"><path d="M681.61,389.88 C702.87,411.65 730.46,439.9 749.93,459.85 " fill="none" id="Com-to-gestionar nueva reserva" style="stroke:#181818;stroke-width:1.0;"/><polygon fill="#181818" points="753.72,463.73,750.3148,454.4885,750.2348,460.1448,744.5785,460.0648,753.72,463.73" style="stroke:#181818;stroke-width:1.0;"/></g><!--MD5=[d8d302aa5a9cc5fe9d5ec00159be5f34]
reverse link consultar to consultar disponibilidad--><g id="link_consultar_consultar disponibilidad"><path d="M1059,80.55 C1059,110.93 1059,153.86 1059,178.97 " fill="none" id="consultar-backto-consultar disponibilidad" style="stroke:#181818;stroke-width:1.0;"/><polygon fill="none" points="1052,80.27,1059,60.27,1066,80.27,1052,80.27" style="stroke:#181818;stroke-width:1.0;"/></g><!--MD5=[038fa78ff4193e84dccf0eed36fc0a0e]
reverse link consultar to consultar reservas--><g id="link_consultar_consultar reservas"><path d="M1028.3,73.02 C1004.4,95.4 971.32,128.56 947,161.5 C902.45,221.84 863.69,302.82 847.74,337.98 " fill="none" id="consultar-backto-consultar reservas" style="stroke:#181818;stroke-width:1.0;"/><polygon fill="none" points="1023.69,67.75,1043.16,59.38,1033.16,78.06,1023.69,67.75" style="stroke:#181818;stroke-width:1.0;"/></g><!--MD5=[dd8eb67fce8380a04b4b418c529d8ca7]
reverse link realizar oferta to UC1--><g id="link_realizar oferta_UC1"><path d="M114.04,512.83 C146.91,535.58 194.96,568.84 232.85,595.06 " fill="none" id="realizar oferta-backto-UC1" style="stroke:#181818;stroke-width:1.0;"/><polygon fill="none" points="109.96,518.52,97.5,501.38,117.93,507.01,109.96,518.52" style="stroke:#181818;stroke-width:1.0;"/></g><!--MD5=[5aead5c446a5c87a90a81cf6f84e1ca2]
reverse link Cli to Act--><g id="link_Cli_Act"><path d="M744.35,82.39 C720.67,106.23 689.91,137.18 665.97,161.28 " fill="none" id="Cli-backto-Act" style="stroke:#181818;stroke-width:1.0;"/><polygon fill="none" points="739.69,77.15,758.75,67.89,749.62,87.01,739.69,77.15" style="stroke:#181818;stroke-width:1.0;"/></g><!--MD5=[f39692ce027b8b117d0a05b4e43c566a]
reverse link Act to Com--><g id="link_Act_Com"><path d="M636.3,259.61 C639.06,278.92 642.06,299.92 644.55,317.34 " fill="none" id="Act-backto-Com" style="stroke:#181818;stroke-width:1.0;"/><polygon fill="none" points="629.34,260.36,633.44,239.57,643.2,258.38,629.34,260.36" style="stroke:#181818;stroke-width:1.0;"/></g><!--MD5=[e7a24dbc2551b3bb9f026d471a42152b]
reverse link Act to Adm--><g id="link_Act_Adm"><path d="M568.27,226.49 C494.15,257.51 369.52,309.67 303.72,337.2 " fill="none" id="Act-backto-Adm" style="stroke:#181818;stroke-width:1.0;"/><polygon fill="none" points="565.7,219.98,586.86,218.72,571.11,232.9,565.7,219.98" style="stroke:#181818;stroke-width:1.0;"/></g><!--MD5=[89da117dca9ae66b319012b078a3b63b]
link UC1 to recalcular precio--><g id="link_UC1_recalcular precio"><path d="M292,681.66 C292,705.77 292,734.67 292,754.08 " fill="none" id="UC1-to-recalcular precio" style="stroke:#181818;stroke-width:1.0;stroke-dasharray:7.0,7.0;"/><polygon fill="#181818" points="292,759.29,296,750.29,292,754.29,288,750.29,292,759.29" style="stroke:#181818;stroke-width:1.0;"/><text fill="#000000" font-family="sans-serif" font-size="13" lengthAdjust="spacing" textLength="57" x="293" y="725.9951">&lt;include&gt;</text></g><!--MD5=[1ec03da439871af1308229d17018818c]
link consultar to buscar elemento--><g id="link_consultar_buscar elemento"><path d="M1077.28,59.17 C1114.12,86.71 1197.36,148.94 1239.52,180.45 " fill="none" id="consultar-to-buscar elemento" style="stroke:#181818;stroke-width:1.0;stroke-dasharray:7.0,7.0;"/><polygon fill="#181818" points="1243.71,183.58,1238.8903,174.991,1239.7031,180.5892,1234.105,181.402,1243.71,183.58" style="stroke:#181818;stroke-width:1.0;"/><text fill="#000000" font-family="sans-serif" font-size="13" lengthAdjust="spacing" textLength="57" x="1169" y="127.9951">&lt;include&gt;</text></g><!--MD5=[15562b48d7cc7ed19450a780f95af6f3]
link consultar disponibilidad to mostrar calendario--><g id="link_consultar disponibilidad_mostrar calendario"><path d="M1059,222.27 C1059,251.02 1059,302.77 1059,332.61 " fill="none" id="consultar disponibilidad-to-mostrar calendario" style="stroke:#181818;stroke-width:1.0;stroke-dasharray:7.0,7.0;"/><polygon fill="#181818" points="1059,337.91,1063,328.91,1059,332.91,1055,328.91,1059,337.91" style="stroke:#181818;stroke-width:1.0;"/><text fill="#000000" font-family="sans-serif" font-size="13" lengthAdjust="spacing" textLength="57" x="1060" y="283.9951">&lt;include&gt;</text></g><!--MD5=[ebafa8d1de4bd07dc2e9b0e96a4c3b38]
link bloquear temporalmente una reserva to UC1--><g id="link_bloquear temporalmente una reserva_UC1"><path d="M468.88,513.57 C437.34,535.4 392.35,566.55 355.63,591.96 " fill="none" id="bloquear temporalmente una reserva-to-UC1" style="stroke:#181818;stroke-width:1.0;stroke-dasharray:7.0,7.0;"/><polygon fill="#181818" points="351.19,595.03,360.8682,593.2046,355.3035,592.1877,356.3205,586.623,351.19,595.03" style="stroke:#181818;stroke-width:1.0;"/><text fill="#000000" font-family="sans-serif" font-size="13" lengthAdjust="spacing" textLength="55" x="421" y="558.9951">&lt;extend&gt;</text></g><!--MD5=[8c30fd7c9a226fa60bc7c4b0fd398efa]
@startuml

:Administrador: as Adm
:Actor Comun: as Act
:Cliente: as Cli
:Comercial: as Com

Adm - -> (gestionar peticion)
Adm - -> (realizar oferta)
Cli - -> (visualizar ofertas)
Cli - -> (consultar disponibilidad)
Act - -> (consultar reservas)
Com - -> (gestionar nueva reserva)

usecase UC1 as "      realizar oferta del comercial
- -
     extension points
bloquear temporalmente una reserva"

(consultar) <|- - (consultar disponibilidad)
(consultar) <|- - (consultar reservas)
(realizar oferta) <|- - (UC1)
Cli <|- - Act
Act <|- - Com
Act <|- - Adm

(UC1) ..> (recalcular precio):<include>
(consultar) ..> (buscar elemento):<include>
(consultar disponibilidad) ..> (mostrar calendario):<include>

(bloquear temporalmente una reserva) ..> (UC1):<extend>

@enduml

PlantUML version 1.2022.7(Mon Aug 22 19:01:30 CEST 2022)
(GPL source distribution)
Java Runtime: OpenJDK Runtime Environment
JVM: OpenJDK 64-Bit Server VM
Default Encoding: Cp1252
Language: es
Country: ES
--></g></svg>