<?xml version="1.0" encoding="UTF-8" standalone="no"?><svg xmlns="http://www.w3.org/2000/svg" xmlns:xlink="http://www.w3.org/1999/xlink" contentStyleType="text/css" height="800px" preserveAspectRatio="none" style="width:1578px;height:800px;background:#FFFFFF;" version="1.1" viewBox="0 0 1578 800" width="1578px" zoomAndPan="magnify"><defs/><g><!--MD5=[dadd680571e2ee7a6b53223d26ce7e08]
entity Adm--><g id="elem_Adm"><ellipse cx="571.5" cy="326" fill="#F1F1F1" rx="8" ry="8" style="stroke:#181818;stroke-width:0.5;"/><path d="M571.5,334 L571.5,361 M558.5,342 L584.5,342 M571.5,361 L558.5,376 M571.5,361 L584.5,376 " fill="none" style="stroke:#181818;stroke-width:0.5;"/><text fill="#000000" font-family="sans-serif" font-size="14" lengthAdjust="spacing" textLength="87" x="528" y="392.0332">Administrador</text></g><!--MD5=[3fc30eeadc8e7b8684f8a978d56275df]
entity Act--><g id="elem_Act"><ellipse cx="733.5" cy="170" fill="#F1F1F1" rx="8" ry="8" style="stroke:#181818;stroke-width:0.5;"/><path d="M733.5,178 L733.5,205 M720.5,186 L746.5,186 M733.5,205 L720.5,220 M733.5,205 L746.5,220 " fill="none" style="stroke:#181818;stroke-width:0.5;"/><text fill="#000000" font-family="sans-serif" font-size="14" lengthAdjust="spacing" textLength="82" x="692.5" y="236.0332">Actor Comun</text></g><!--MD5=[17b342a17091e2dc73df905bcbb9a63c]
entity Cli--><g id="elem_Cli"><ellipse cx="886.5" cy="14" fill="#F1F1F1" rx="8" ry="8" style="stroke:#181818;stroke-width:0.5;"/><path d="M886.5,22 L886.5,49 M873.5,30 L899.5,30 M886.5,49 L873.5,64 M886.5,49 L899.5,64 " fill="none" style="stroke:#181818;stroke-width:0.5;"/><text fill="#000000" font-family="sans-serif" font-size="14" lengthAdjust="spacing" textLength="44" x="864.5" y="80.0332">Cliente</text></g><!--MD5=[b61a2244099fd844b2611609be369c21]
entity Com--><g id="elem_Com"><ellipse cx="733.5" cy="326" fill="#F1F1F1" rx="8" ry="8" style="stroke:#181818;stroke-width:0.5;"/><path d="M733.5,334 L733.5,361 M720.5,342 L746.5,342 M733.5,361 L720.5,376 M733.5,361 L746.5,376 " fill="none" style="stroke:#181818;stroke-width:0.5;"/><text fill="#000000" font-family="sans-serif" font-size="14" lengthAdjust="spacing" textLength="63" x="702" y="392.0332">Comercial</text></g><g id="elem_gestionar peticion"><ellipse cx="387.5785" cy="485.7157" fill="#F1F1F1" rx="79.0785" ry="18.2157" style="stroke:#181818;stroke-width:0.5;"/><text fill="#000000" font-family="sans-serif" font-size="14" lengthAdjust="spacing" textLength="112" x="330.1751" y="489.8395">gestionar peticion</text></g><g id="elem_realizar oferta"><ellipse cx="571.3041" cy="485.3608" fill="#F1F1F1" rx="69.8041" ry="16.3608" style="stroke:#181818;stroke-width:0.5;"/><text fill="#000000" font-family="sans-serif" font-size="14" lengthAdjust="spacing" textLength="87" x="524.8041" y="489.8774">realizar oferta</text></g><g id="elem_visualizar ofertas"><ellipse cx="886.7363" cy="200.7473" fill="#F1F1F1" rx="76.7363" ry="17.7473" style="stroke:#181818;stroke-width:0.5;"/><text fill="#000000" font-family="sans-serif" font-size="14" lengthAdjust="spacing" textLength="106" x="831.2006" y="205.1555">visualizar ofertas</text></g><g id="elem_consultar disponibilidad"><ellipse cx="1092.313" cy="200.2626" fill="#F1F1F1" rx="94.313" ry="21.2626" style="stroke:#181818;stroke-width:0.5;"/><text fill="#000000" font-family="sans-serif" font-size="14" lengthAdjust="spacing" textLength="148" x="1018.313" y="203.9911">consultar disponibilidad</text></g><g id="elem_consultar reserva"><ellipse cx="878.2877" cy="356.5575" fill="#F1F1F1" rx="78.2877" ry="18.0575" style="stroke:#181818;stroke-width:0.5;"/><text fill="#000000" font-family="sans-serif" font-size="14" lengthAdjust="spacing" textLength="110" x="821.5149" y="360.7774">consultar reserva</text></g><g id="elem_gestionar nueva reserva"><ellipse cx="773.4525" cy="485.2905" fill="#F1F1F1" rx="96.9525" ry="21.7905" style="stroke:#181818;stroke-width:0.5;"/><text fill="#000000" font-family="sans-serif" font-size="14" lengthAdjust="spacing" textLength="154" x="696.4525" y="489.019">gestionar nueva reserva</text></g><g id="elem_UC1"><ellipse cx="179.5601" cy="637.056" fill="#F1F1F1" rx="171.0601" ry="44.556" style="stroke:#181818;stroke-width:0.5;"/><text fill="#000000" font-family="sans-serif" font-size="14" lengthAdjust="spacing" textLength="174" x="92.5601" y="619.9632">realizar oferta del comercial</text><line style="stroke:#181818;stroke-width:1.0;" x1="18.1848" x2="340.9354" y1="623.0394" y2="623.0394"/><text fill="#000000" font-family="sans-serif" font-size="14" lengthAdjust="spacing" textLength="102" x="126.5601" y="641.5726">extension points</text><text fill="#000000" font-family="sans-serif" font-size="14" lengthAdjust="spacing" textLength="234" x="50.5601" y="659.182">bloquear temporalmente una reserva</text></g><g id="elem_consultar"><ellipse cx="1303.2806" cy="44.5229" fill="#F1F1F1" rx="52.7806" ry="15.5229" style="stroke:#181818;stroke-width:0.5;"/><text fill="#000000" font-family="sans-serif" font-size="14" lengthAdjust="spacing" textLength="58" x="1271.2806" y="49.0395">consultar</text></g><g id="elem_consultar reservas"><ellipse cx="1303.597" cy="200.6194" fill="#F1F1F1" rx="81.097" ry="18.6194" style="stroke:#181818;stroke-width:0.5;"/><text fill="#000000" font-family="sans-serif" font-size="14" lengthAdjust="spacing" textLength="117" x="1244.5843" y="204.4982">consultar reservas</text></g><g id="elem_recalcular precio"><ellipse cx="179.355" cy="777.171" fill="#F1F1F1" rx="76.355" ry="17.671" style="stroke:#181818;stroke-width:0.5;"/><text fill="#000000" font-family="sans-serif" font-size="14" lengthAdjust="spacing" textLength="105" x="124.1233" y="781.6255">recalcular precio</text></g><g id="elem_buscar elemento"><ellipse cx="1496.355" cy="200.671" fill="#F1F1F1" rx="76.355" ry="17.671" style="stroke:#181818;stroke-width:0.5;"/><text fill="#000000" font-family="sans-serif" font-size="14" lengthAdjust="spacing" textLength="105" x="1441.1233" y="205.1255">buscar elemento</text></g><g id="elem_mostrar calendario"><ellipse cx="1092.5075" cy="356.7015" fill="#F1F1F1" rx="81.5075" ry="18.7015" style="stroke:#181818;stroke-width:0.5;"/><text fill="#000000" font-family="sans-serif" font-size="14" lengthAdjust="spacing" textLength="118" x="1033.1675" y="360.5304">mostrar calendario</text></g><g id="elem_bloquear temporalmente una reserva"><ellipse cx="139.641" cy="485.6282" fill="#F1F1F1" rx="133.641" ry="29.1282" style="stroke:#181818;stroke-width:0.5;"/><text fill="#000000" font-family="sans-serif" font-size="14" lengthAdjust="spacing" textLength="234" x="22.641" y="489.3567">bloquear temporalmente una reserva</text></g><!--MD5=[8e576416b5a39cb99d0b34f0b4e2d475]
link Adm to gestionar peticion--><g id="link_Adm_gestionar peticion"><path d="M527.89,387.6 C493.05,411.65 445.26,444.63 415.39,465.25 " fill="none" id="Adm-to-gestionar peticion" style="stroke:#181818;stroke-width:1.0;"/><polygon fill="#181818" points="411.12,468.2,420.7982,466.3746,415.2335,465.3577,416.2505,459.793,411.12,468.2" style="stroke:#181818;stroke-width:1.0;"/></g><!--MD5=[373baf6525c55fe3565a79ae82f99213]
link Adm to realizar oferta--><g id="link_Adm_realizar oferta"><path d="M571.5,395.6 C571.5,417.85 571.5,445.08 571.5,463.49 " fill="none" id="Adm-to-realizar oferta" style="stroke:#181818;stroke-width:1.0;"/><polygon fill="#181818" points="571.5,468.91,575.5,459.91,571.5,463.91,567.5,459.91,571.5,468.91" style="stroke:#181818;stroke-width:1.0;"/></g><!--MD5=[6a20d15d6655569e1a6d6c0fca7c7db4]
link Cli to visualizar ofertas--><g id="link_Cli_visualizar ofertas"><path d="M886.5,83.57 C886.5,113.21 886.5,153.31 886.5,177.74 " fill="none" id="Cli-to-visualizar ofertas" style="stroke:#181818;stroke-width:1.0;"/><polygon fill="#181818" points="886.5,183,890.5,174,886.5,178,882.5,174,886.5,183" style="stroke:#181818;stroke-width:1.0;"/></g><!--MD5=[92fae212cdda24ed517cc71b623451a4]
link Cli to consultar disponibilidad--><g id="link_Cli_consultar disponibilidad"><path d="M908.55,61.98 C945.47,89.59 1019.91,145.23 1061.89,176.62 " fill="none" id="Cli-to-consultar disponibilidad" style="stroke:#181818;stroke-width:1.0;"/><polygon fill="#181818" points="1066.1,179.76,1061.3,171.16,1062.1,176.76,1056.5,177.56,1066.1,179.76" style="stroke:#181818;stroke-width:1.0;"/></g><!--MD5=[b9f0b09ef8e00b313adce9fe5c2c3e05]
link Act to consultar reserva--><g id="link_Act_consultar reserva"><path d="M769.34,239.57 C797.68,269.67 836.16,310.54 859.05,334.85 " fill="none" id="Act-to-consultar reserva" style="stroke:#181818;stroke-width:1.0;"/><polygon fill="#181818" points="862.59,338.6,859.3345,329.3047,859.1632,334.959,853.5089,334.7877,862.59,338.6" style="stroke:#181818;stroke-width:1.0;"/></g><!--MD5=[b86223a5ceeeea77b2c5949908425d9f]
link Com to gestionar nueva reserva--><g id="link_Com_gestionar nueva reserva"><path d="M745.5,395.6 C751.9,415.91 759.6,440.36 765.3,458.47 " fill="none" id="Com-to-gestionar nueva reserva" style="stroke:#181818;stroke-width:1.0;"/><polygon fill="#181818" points="766.86,463.4,767.9768,453.6147,765.3605,458.6301,760.345,456.0139,766.86,463.4" style="stroke:#181818;stroke-width:1.0;"/></g><!--MD5=[d8d302aa5a9cc5fe9d5ec00159be5f34]
reverse link consultar to consultar disponibilidad--><g id="link_consultar_consultar disponibilidad"><path d="M1268.44,71.09 C1226.65,101.59 1157.69,151.92 1119.7,179.65 " fill="none" id="consultar-backto-consultar disponibilidad" style="stroke:#181818;stroke-width:1.0;"/><polygon fill="none" points="1264.49,65.3,1284.78,59.17,1272.75,76.61,1264.49,65.3" style="stroke:#181818;stroke-width:1.0;"/></g><!--MD5=[038fa78ff4193e84dccf0eed36fc0a0e]
reverse link consultar to consultar reservas--><g id="link_consultar_consultar reservas"><path d="M1303.5,80.33 C1303.5,111.86 1303.5,157.04 1303.5,181.73 " fill="none" id="consultar-backto-consultar reservas" style="stroke:#181818;stroke-width:1.0;"/><polygon fill="none" points="1296.5,80.27,1303.5,60.27,1310.5,80.27,1296.5,80.27" style="stroke:#181818;stroke-width:1.0;"/></g><!--MD5=[dd8eb67fce8380a04b4b418c529d8ca7]
reverse link realizar oferta to UC1--><g id="link_realizar oferta_UC1"><path d="M517.6,507.06 C454.99,530.93 350.56,570.76 274.29,599.85 " fill="none" id="realizar oferta-backto-UC1" style="stroke:#181818;stroke-width:1.0;"/><polygon fill="none" points="515.19,500.49,536.37,499.9,520.17,513.57,515.19,500.49" style="stroke:#181818;stroke-width:1.0;"/></g><!--MD5=[5aead5c446a5c87a90a81cf6f84e1ca2]
reverse link Cli to Act--><g id="link_Cli_Act"><path d="M849.85,82.39 C826.17,106.23 795.41,137.18 771.47,161.28 " fill="none" id="Cli-backto-Act" style="stroke:#181818;stroke-width:1.0;"/><polygon fill="none" points="845.19,77.15,864.25,67.89,855.12,87.01,845.19,77.15" style="stroke:#181818;stroke-width:1.0;"/></g><!--MD5=[f39692ce027b8b117d0a05b4e43c566a]
reverse link Act to Com--><g id="link_Act_Com"><path d="M733.5,259.61 C733.5,278.92 733.5,299.92 733.5,317.34 " fill="none" id="Act-backto-Com" style="stroke:#181818;stroke-width:1.0;"/><polygon fill="none" points="726.5,259.57,733.5,239.57,740.5,259.57,726.5,259.57" style="stroke:#181818;stroke-width:1.0;"/></g><!--MD5=[e7a24dbc2551b3bb9f026d471a42152b]
reverse link Act to Adm--><g id="link_Act_Adm"><path d="M678.79,253.51 C656.8,274.41 631.91,298.07 611.65,317.34 " fill="none" id="Act-backto-Adm" style="stroke:#181818;stroke-width:1.0;"/><polygon fill="none" points="674.14,248.27,693.46,239.57,683.78,258.42,674.14,248.27" style="stroke:#181818;stroke-width:1.0;"/></g><!--MD5=[89da117dca9ae66b319012b078a3b63b]
link UC1 to recalcular precio--><g id="link_UC1_recalcular precio"><path d="M179.5,681.66 C179.5,705.77 179.5,734.67 179.5,754.08 " fill="none" id="UC1-to-recalcular precio" style="stroke:#181818;stroke-width:1.0;stroke-dasharray:7.0,7.0;"/><polygon fill="#181818" points="179.5,759.29,183.5,750.29,179.5,754.29,175.5,750.29,179.5,759.29" style="stroke:#181818;stroke-width:1.0;"/><text fill="#000000" font-family="sans-serif" font-size="13" lengthAdjust="spacing" textLength="57" x="180.5" y="725.9951">&lt;include&gt;</text></g><!--MD5=[1ec03da439871af1308229d17018818c]
link consultar to buscar elemento--><g id="link_consultar_buscar elemento"><path d="M1320.97,59.44 C1355.53,87.01 1432.69,148.58 1472.18,180.1 " fill="none" id="consultar-to-buscar elemento" style="stroke:#181818;stroke-width:1.0;stroke-dasharray:7.0,7.0;"/><polygon fill="#181818" points="1476.35,183.42,1471.7976,174.6864,1472.4373,180.307,1466.8167,180.9467,1476.35,183.42" style="stroke:#181818;stroke-width:1.0;"/><text fill="#000000" font-family="sans-serif" font-size="13" lengthAdjust="spacing" textLength="57" x="1407.5" y="127.9951">&lt;include&gt;</text></g><!--MD5=[15562b48d7cc7ed19450a780f95af6f3]
link consultar disponibilidad to mostrar calendario--><g id="link_consultar disponibilidad_mostrar calendario"><path d="M1092.5,222.27 C1092.5,251.02 1092.5,302.77 1092.5,332.61 " fill="none" id="consultar disponibilidad-to-mostrar calendario" style="stroke:#181818;stroke-width:1.0;stroke-dasharray:7.0,7.0;"/><polygon fill="#181818" points="1092.5,337.91,1096.5,328.91,1092.5,332.91,1088.5,328.91,1092.5,337.91" style="stroke:#181818;stroke-width:1.0;"/><text fill="#000000" font-family="sans-serif" font-size="13" lengthAdjust="spacing" textLength="57" x="1093.5" y="283.9951">&lt;include&gt;</text></g><!--MD5=[ebafa8d1de4bd07dc2e9b0e96a4c3b38]
link bloquear temporalmente una reserva to UC1--><g id="link_bloquear temporalmente una reserva_UC1"><path d="M147.02,514.62 C152.5,535.07 160.04,563.28 166.48,587.35 " fill="none" id="bloquear temporalmente una reserva-to-UC1" style="stroke:#181818;stroke-width:1.0;stroke-dasharray:7.0,7.0;"/><polygon fill="#181818" points="167.84,592.42,169.3627,582.6896,166.5401,587.5919,161.6378,584.7694,167.84,592.42" style="stroke:#181818;stroke-width:1.0;"/><text fill="#000000" font-family="sans-serif" font-size="13" lengthAdjust="spacing" textLength="55" x="160.5" y="558.9951">&lt;extend&gt;</text></g><!--MD5=[e39ec5db6a8b49a84c7f9b7f59cb2ce0]
@startuml

:Administrador: as Adm
:Actor Comun: as Act
:Cliente: as Cli
:Comercial: as Com

Adm - -> (gestionar peticion)
Adm - -> (realizar oferta)
Cli - -> (visualizar ofertas)
Cli - -> (consultar disponibilidad)
Act - -> (consultar reserva)
Com - -> (gestionar nueva reserva)

usecase UC1 as "      realizar oferta del comercial
- -
     extension points
bloquear temporalmente una reserva"

(consultar) <|- - (consultar disponibilidad)
(consultar) <|- - (consultar reservas)
(realizar oferta) <|- - (UC1)
Cli <|- - Act
Act <|- - Com
Act <|- - Adm

(UC1) ..> (recalcular precio):<include>
(consultar) ..> (buscar elemento):<include>
(consultar disponibilidad) ..> (mostrar calendario):<include>

(bloquear temporalmente una reserva) ..> (UC1):<extend>

@enduml

PlantUML version 1.2022.7(Mon Aug 22 19:01:30 CEST 2022)
(GPL source distribution)
Java Runtime: Java(TM) SE Runtime Environment
JVM: Java HotSpot(TM) 64-Bit Server VM
Default Encoding: Cp1252
Language: es
Country: ES
--></g></svg>