<?xml version="1.0" encoding="UTF-8" standalone="no"?><svg xmlns="http://www.w3.org/2000/svg" xmlns:xlink="http://www.w3.org/1999/xlink" contentStyleType="text/css" height="848px" preserveAspectRatio="none" style="width:1643px;height:848px;background:#FFFFFF;" version="1.1" viewBox="0 0 1643 848" width="1643px" zoomAndPan="magnify"><defs/><g><!--MD5=[d9f75b78703733959770a1bae7362de0]
entity Cliente--><g id="elem_Cliente"><ellipse cx="922.5" cy="153" fill="#F1F1F1" rx="8" ry="8" style="stroke:#181818;stroke-width:0.5;"/><path d="M922.5,161 L922.5,188 M909.5,169 L935.5,169 M922.5,188 L909.5,203 M922.5,188 L935.5,203 " fill="none" style="stroke:#181818;stroke-width:0.5;"/><text fill="#000000" font-family="sans-serif" font-size="14" lengthAdjust="spacing" textLength="44" x="900.5" y="219.0332">Cliente</text></g><!--MD5=[5a62faa15318e43aebb7f6e7fdd6d0f8]
entity AComun--><g id="elem_AComun"><ellipse cx="828.5" cy="327.5" fill="#F1F1F1" rx="8" ry="8" style="stroke:#181818;stroke-width:0.5;"/><path d="M828.5,335.5 L828.5,362.5 M815.5,343.5 L841.5,343.5 M828.5,362.5 L815.5,377.5 M828.5,362.5 L841.5,377.5 " fill="none" style="stroke:#181818;stroke-width:0.5;"/><text fill="#000000" font-family="sans-serif" font-size="14" lengthAdjust="spacing" textLength="79" x="789" y="393.5332">Actor comun</text></g><!--MD5=[89b33c3c429ae0b0ba5c18316cb1cdee]
entity ConFotos--><g id="elem_ConFotos"><ellipse cx="1277.5" cy="652" fill="#F1F1F1" rx="8" ry="8" style="stroke:#181818;stroke-width:0.5;"/><path d="M1277.5,660 L1277.5,687 M1264.5,668 L1290.5,668 M1277.5,687 L1264.5,702 M1277.5,687 L1290.5,702 " fill="none" style="stroke:#181818;stroke-width:0.5;"/><text fill="#000000" font-family="sans-serif" font-size="14" lengthAdjust="spacing" textLength="130" x="1212.5" y="718.0332">Controlador de fotos</text></g><!--MD5=[e261510253d963ef59730d9a89d45d2f]
entity Software--><g id="elem_Software"><ellipse cx="425.5" cy="153" fill="#F1F1F1" rx="8" ry="8" style="stroke:#181818;stroke-width:0.5;"/><path d="M425.5,161 L425.5,188 M412.5,169 L438.5,169 M425.5,188 L412.5,203 M425.5,188 L438.5,203 " fill="none" style="stroke:#181818;stroke-width:0.5;"/><text fill="#000000" font-family="sans-serif" font-size="14" lengthAdjust="spacing" textLength="129" x="361" y="219.0332">Software facturacion</text></g><!--MD5=[fda804f4b1e9f28a64af912045712f46]
entity Gestor--><g id="elem_Gestor"><ellipse cx="304.5" cy="153" fill="#F1F1F1" rx="8" ry="8" style="stroke:#181818;stroke-width:0.5;"/><path d="M304.5,161 L304.5,188 M291.5,169 L317.5,169 M304.5,188 L291.5,203 M304.5,188 L317.5,203 " fill="none" style="stroke:#181818;stroke-width:0.5;"/><text fill="#000000" font-family="sans-serif" font-size="14" lengthAdjust="spacing" textLength="43" x="283" y="219.0332">Gestor</text></g><!--MD5=[b518afe29adc4be238f77772235dec2a]
entity Vendedor--><g id="elem_Vendedor"><ellipse cx="1401.5" cy="153" fill="#F1F1F1" rx="8" ry="8" style="stroke:#181818;stroke-width:0.5;"/><path d="M1401.5,161 L1401.5,188 M1388.5,169 L1414.5,169 M1401.5,188 L1388.5,203 M1401.5,188 L1414.5,203 " fill="none" style="stroke:#181818;stroke-width:0.5;"/><text fill="#000000" font-family="sans-serif" font-size="14" lengthAdjust="spacing" textLength="62" x="1370.5" y="219.0332">Vendedor</text></g><!--MD5=[97ab183161fd5d1db7fba7485cf76add]
entity Admin--><g id="elem_Admin"><ellipse cx="543.5" cy="14" fill="#F1F1F1" rx="8" ry="8" style="stroke:#181818;stroke-width:0.5;"/><path d="M543.5,22 L543.5,49 M530.5,30 L556.5,30 M543.5,49 L530.5,64 M543.5,49 L556.5,64 " fill="none" style="stroke:#181818;stroke-width:0.5;"/><text fill="#000000" font-family="sans-serif" font-size="14" lengthAdjust="spacing" textLength="87" x="500" y="80.0332">Administrador</text></g><!--MD5=[3c77b48d5d1f297a188af68774d50314]
entity GCorreo--><g id="elem_GCorreo"><ellipse cx="821.5" cy="153" fill="#F1F1F1" rx="8" ry="8" style="stroke:#181818;stroke-width:0.5;"/><path d="M821.5,161 L821.5,188 M808.5,169 L834.5,169 M821.5,188 L808.5,203 M821.5,188 L834.5,203 " fill="none" style="stroke:#181818;stroke-width:0.5;"/><text fill="#000000" font-family="sans-serif" font-size="14" lengthAdjust="spacing" textLength="88" x="777.5" y="219.0332">Gestor correo</text></g><g id="elem_ConsultarFotos"><ellipse cx="1048.5109" cy="358.0022" fill="#F1F1F1" rx="73.0109" ry="17.0022" style="stroke:#181818;stroke-width:0.5;"/><text fill="#000000" font-family="sans-serif" font-size="14" lengthAdjust="spacing" textLength="96" x="997.5109" y="362.5188">Consultar fotos</text></g><g id="elem_DFoto"><ellipse cx="1032.4259" cy="682.2852" fill="#F1F1F1" rx="71.9259" ry="16.7852" style="stroke:#181818;stroke-width:0.5;"/><text fill="#000000" font-family="sans-serif" font-size="14" lengthAdjust="spacing" textLength="93" x="982.9259" y="686.8018">Denunciar foto</text></g><g id="elem_InExp"><ellipse cx="928.3923" cy="820.8785" fill="#F1F1F1" rx="87.3923" ry="19.8785" style="stroke:#181818;stroke-width:0.5;"/><text fill="#000000" font-family="sans-serif" font-size="14" lengthAdjust="spacing" textLength="132" x="862.3923" y="824.607">Introducir explicacion</text></g><g id="elem_UC1"><ellipse cx="1032.452" cy="521.6535" fill="#F1F1F1" rx="90.952" ry="44.1535" style="stroke:#181818;stroke-width:0.5;"/><text fill="#000000" font-family="sans-serif" font-size="14" lengthAdjust="spacing" textLength="95" x="979.202" y="503.7727">Visualizar fotos</text><line style="stroke:#181818;stroke-width:1.0;" x1="947.7651" x2="1117.139" y1="506.8488" y2="506.8488"/><text fill="#000000" font-family="sans-serif" font-size="14" font-weight="bold" lengthAdjust="spacing" textLength="118" x="967.702" y="525.382">extension points</text><text fill="#000000" font-family="sans-serif" font-size="14" lengthAdjust="spacing" textLength="93" x="980.202" y="542.9914">Denunciar foto</text></g><g id="elem_MProd"><ellipse cx="1135.5066" cy="821.2013" fill="#F1F1F1" rx="84.0066" ry="19.2013" style="stroke:#181818;stroke-width:0.5;"/><text fill="#000000" font-family="sans-serif" font-size="14" lengthAdjust="spacing" textLength="124" x="1073.5066" y="824.9298">Marcar un producto</text></g><g id="elem_EditInfo"><ellipse cx="1349.2514" cy="820.8503" fill="#F1F1F1" rx="94.7514" ry="21.3503" style="stroke:#181818;stroke-width:0.5;"/><text fill="#000000" font-family="sans-serif" font-size="14" lengthAdjust="spacing" textLength="149" x="1274.7514" y="824.5788">Editar informacion fotos</text></g><g id="elem_VOfertas"><ellipse cx="828.6463" cy="521.5942" fill="#F1F1F1" rx="61.6463" ry="15.5942" style="stroke:#181818;stroke-width:0.5;"/><text fill="#000000" font-family="sans-serif" font-size="14" lengthAdjust="spacing" textLength="70" x="790.6463" y="526.1108">Ver ofertas</text></g><g id="elem_BloqOFertas"><ellipse cx="260.355" cy="358.171" fill="#F1F1F1" rx="76.355" ry="17.671" style="stroke:#181818;stroke-width:0.5;"/><text fill="#000000" font-family="sans-serif" font-size="14" lengthAdjust="spacing" textLength="105" x="205.1233" y="362.6255">Bloquear ofertas</text></g><g id="elem_EmitFactura"><ellipse cx="440.4277" cy="358.0855" fill="#F1F1F1" rx="68.4277" ry="16.0855" style="stroke:#181818;stroke-width:0.5;"/><text fill="#000000" font-family="sans-serif" font-size="14" lengthAdjust="spacing" textLength="83" x="395.9277" y="362.6021">Emitir factura</text></g><g id="elem_EditFacturas"><ellipse cx="77.5677" cy="358.2135" fill="#F1F1F1" rx="71.5677" ry="16.7135" style="stroke:#181818;stroke-width:0.5;"/><text fill="#000000" font-family="sans-serif" font-size="14" lengthAdjust="spacing" textLength="92" x="28.5677" y="362.7301">Editar facturas</text></g><g id="elem_EditElemento"><ellipse cx="542.6111" cy="521.7222" fill="#F1F1F1" rx="74.1111" ry="17.2222" style="stroke:#181818;stroke-width:0.5;"/><text fill="#000000" font-family="sans-serif" font-size="14" lengthAdjust="spacing" textLength="99" x="490.1111" y="526.2388">Editar elemento</text></g><g id="elem_BDetalles"><ellipse cx="1277.5702" cy="358.114" fill="#F1F1F1" rx="96.0702" ry="21.614" style="stroke:#181818;stroke-width:0.5;"/><text fill="#000000" font-family="sans-serif" font-size="14" lengthAdjust="spacing" textLength="152" x="1201.5702" y="361.8426">Buscar detalles en fotos</text></g><g id="elem_Verif"><ellipse cx="1277.7025" cy="521.6405" fill="#F1F1F1" rx="118.7025" ry="26.1405" style="stroke:#181818;stroke-width:0.5;"/><text fill="#000000" font-family="sans-serif" font-size="14" lengthAdjust="spacing" textLength="202" x="1176.7025" y="525.369">Verificar informacion de entrada</text></g><g id="elem_EnviarCorreo"><ellipse cx="684.6119" cy="358.2224" fill="#F1F1F1" rx="69.1119" ry="16.2224" style="stroke:#181818;stroke-width:0.5;"/><text fill="#000000" font-family="sans-serif" font-size="14" lengthAdjust="spacing" textLength="85" x="639.1119" y="362.739">Enviar correo</text></g><g id="elem_EditUsuarios"><ellipse cx="562.6476" cy="269.4295" fill="#F1F1F1" rx="72.6476" ry="16.9295" style="stroke:#181818;stroke-width:0.5;"/><text fill="#000000" font-family="sans-serif" font-size="14" lengthAdjust="spacing" textLength="95" x="512.1476" y="273.9461">Editar usuarios</text></g><g id="elem_CrearUs"><ellipse cx="669.2859" cy="183.3572" fill="#F1F1F1" rx="72.2859" ry="16.8572" style="stroke:#181818;stroke-width:0.5;"/><text fill="#000000" font-family="sans-serif" font-size="14" lengthAdjust="spacing" textLength="94" x="619.2859" y="187.8738">Crear usuarios</text></g><g id="elem_UC2"><ellipse cx="1525.3404" cy="358.2167" fill="#F1F1F1" rx="111.8404" ry="41.7167" style="stroke:#181818;stroke-width:0.5;"/><text fill="#000000" font-family="sans-serif" font-size="14" lengthAdjust="spacing" textLength="78" x="1476.667" y="337.6965">Hacer oferta</text><line style="stroke:#181818;stroke-width:1.0;" x1="1424.7472" x2="1625.9335" y1="340.7727" y2="340.7727"/><text fill="#000000" font-family="sans-serif" font-size="14" font-weight="bold" lengthAdjust="spacing" textLength="118" x="1456.667" y="359.3059">extension points</text><text fill="#000000" font-family="sans-serif" font-size="14" lengthAdjust="spacing" textLength="159" x="1436.167" y="376.9153">Reducir precio productos</text></g><g id="elem_Reducir"><ellipse cx="1530.6681" cy="521.7336" fill="#F1F1F1" rx="99.1681" ry="22.2336" style="stroke:#181818;stroke-width:0.5;"/><text fill="#000000" font-family="sans-serif" font-size="14" lengthAdjust="spacing" textLength="159" x="1451.1681" y="525.4621">Reducir precio productos</text></g><!--MD5=[82400dd5884e2230b4d315fcc9777a64]
link Cliente to AComun--><g id="link_Cliente_AComun"><path d="M901.64,222.78 C889.1,245.79 872.93,275.46 858.98,301.06 " fill="none" id="Cliente-to-AComun" style="stroke:#181818;stroke-width:1.0;"/><polygon fill="none" points="865.02,304.61,849.3,318.82,852.73,297.91,865.02,304.61" style="stroke:#181818;stroke-width:1.0;"/></g><!--MD5=[c98a5719f05e886aa5a16cd798d320ac]
link Gestor to AComun--><g id="link_Gestor_AComun"><path d="M326.4,208.48 C331.69,213.5 337.55,218.48 343.5,222.5 C372.69,242.21 454.47,277.42 488.5,286.5 C610.28,319 652.44,272.36 770.5,316.5 C770.6,316.54 770.69,316.57 770.79,316.61 " fill="none" id="Gestor-to-AComun" style="stroke:#181818;stroke-width:1.0;"/><polygon fill="none" points="773.93,310.35,788.76,325.48,767.72,322.9,773.93,310.35" style="stroke:#181818;stroke-width:1.0;"/></g><!--MD5=[6e086300df0ae920fd693ae92771fb1c]
link Admin to Gestor--><g id="link_Admin_Gestor"><path d="M499.98,62.37 C457.94,79.71 393.46,109.13 343.5,144.5 C342.84,144.97 342.18,145.44 341.53,145.93 " fill="none" id="Admin-to-Gestor" style="stroke:#181818;stroke-width:1.0;"/><polygon fill="none" points="345.86,151.43,326.12,159.11,336.76,140.79,345.86,151.43" style="stroke:#181818;stroke-width:1.0;"/></g><!--MD5=[021d8c844eca224419ac36eb21b10668]
link Cliente to ConsultarFotos--><g id="link_Cliente_ConsultarFotos"><path d="M944.74,214.94 C971.58,251.7 1015.74,312.15 1036.72,340.87 " fill="none" id="Cliente-ConsultarFotos" style="stroke:#181818;stroke-width:1.0;"/></g><!--MD5=[e3607552411cc54365f659a5e343e33e]
link Cliente to UC1--><g id="link_Cliente_UC1"><path d="M924.2,222.55 C927.16,266.44 935.3,340.17 957.5,399.5 C968.24,428.2 986.17,457.49 1001.81,480.06 " fill="none" id="Cliente-UC1" style="stroke:#181818;stroke-width:1.0;"/></g><!--MD5=[0de2744767f4944aaed03782dd2a71bb]
link ConsultarFotos to UC1--><g id="link_ConsultarFotos_UC1"><path d="M1046.91,375.08 C1045.01,394.26 1041.71,427.51 1038.75,457.38 " fill="none" id="ConsultarFotos-to-UC1" style="stroke:#181818;stroke-width:1.0;"/><polygon fill="none" points="1045.72,458.09,1036.78,477.3,1031.79,456.71,1045.72,458.09" style="stroke:#181818;stroke-width:1.0;"/></g><!--MD5=[d579f9fce0a872e918b95111d1ad71bc]
reverse link UC1 to DFoto--><g id="link_UC1_DFoto"><path d="M1032.5,570.62 C1032.5,602.83 1032.5,643.21 1032.5,665.27 " fill="none" id="UC1-backto-DFoto" style="stroke:#181818;stroke-width:1.0;stroke-dasharray:7.0,7.0;"/><polygon fill="#181818" points="1032.5,565.53,1028.5,574.53,1032.5,570.53,1036.5,574.53,1032.5,565.53" style="stroke:#181818;stroke-width:1.0;"/><text fill="#000000" font-family="sans-serif" font-size="13" lengthAdjust="spacing" textLength="55" x="1033.5" y="609.9951">«Extend»</text></g><!--MD5=[5b44f322d120a9f9e82b1d5ff90d2200]
link DFoto to InExp--><g id="link_DFoto_InExp"><path d="M1020.37,699.43 C1002.06,723.46 967.27,769.12 946.15,796.84 " fill="none" id="DFoto-to-InExp" style="stroke:#181818;stroke-width:1.0;stroke-dasharray:7.0,7.0;"/><polygon fill="#181818" points="942.88,801.12,951.5182,796.389,945.9119,797.1442,945.1568,791.5379,942.88,801.12" style="stroke:#181818;stroke-width:1.0;"/><text fill="#000000" font-family="sans-serif" font-size="13" lengthAdjust="spacing" textLength="55" x="981.5" y="765.9951">«Include»</text></g><!--MD5=[ab43c9403d4d2bd43c6b64f0eecaa20a]
link ConFotos to EditInfo--><g id="link_ConFotos_EditInfo"><path d="M1297.56,721.52 C1310.87,746.77 1327.83,778.92 1338.68,799.49 " fill="none" id="ConFotos-EditInfo" style="stroke:#181818;stroke-width:1.0;"/></g><!--MD5=[a0e1b5e5bf790f7c148500f99822e1ee]
link ConFotos to MProd--><g id="link_ConFotos_MProd"><path d="M1237.95,721.52 C1210.54,747.87 1175.29,781.75 1154.1,802.12 " fill="none" id="ConFotos-MProd" style="stroke:#181818;stroke-width:1.0;"/></g><!--MD5=[5133be6ee186cd720faa177d8fabb33e]
link DFoto to MProd--><g id="link_DFoto_MProd"><path d="M1044.52,699.43 C1060.44,720.52 1088.94,758.3 1109.81,785.96 " fill="none" id="DFoto-to-MProd" style="stroke:#181818;stroke-width:1.0;"/><polygon fill="none" points="1115.47,781.84,1121.93,802.02,1104.3,790.27,1115.47,781.84" style="stroke:#181818;stroke-width:1.0;"/></g><!--MD5=[7f008349e5a99305f09de0f2a1206260]
link Vendedor to BDetalles--><g id="link_Vendedor_BDetalles"><path d="M1373.98,222.78 C1348.72,257.92 1312.27,308.63 1292.18,336.58 " fill="none" id="Vendedor-BDetalles" style="stroke:#181818;stroke-width:1.0;"/></g><!--MD5=[081602c4c6f43942501ffa6d706d498d]
link BDetalles to UC1--><g id="link_BDetalles_UC1"><path d="M1247.95,378.48 C1212.05,402.14 1150.32,442.83 1102.11,474.61 " fill="none" id="BDetalles-to-UC1" style="stroke:#181818;stroke-width:1.0;"/><polygon fill="none" points="1105.92,480.49,1085.36,485.65,1098.21,468.8,1105.92,480.49" style="stroke:#181818;stroke-width:1.0;"/></g><!--MD5=[2a4a0b581f895299f0f818be70ca83ad]
link BDetalles to Verif--><g id="link_BDetalles_Verif"><path d="M1277.5,379.78 C1277.5,407.84 1277.5,458.04 1277.5,490.27 " fill="none" id="BDetalles-to-Verif" style="stroke:#181818;stroke-width:1.0;stroke-dasharray:7.0,7.0;"/><polygon fill="#181818" points="1277.5,495.29,1281.5,486.29,1277.5,490.29,1273.5,486.29,1277.5,495.29" style="stroke:#181818;stroke-width:1.0;"/><text fill="#000000" font-family="sans-serif" font-size="13" lengthAdjust="spacing" textLength="55" x="1278.5" y="443.9951">«Include»</text></g><!--MD5=[c287c65093c9afe5a06117006c7437f2]
link Vendedor to UC2--><g id="link_Vendedor_UC2"><path d="M1429.02,222.78 C1449.28,250.97 1476.75,289.18 1497.2,317.63 " fill="none" id="Vendedor-UC2" style="stroke:#181818;stroke-width:1.0;"/></g><!--MD5=[c2a18f06cbcb022f62189a347129da48]
reverse link UC2 to Reducir--><g id="link_UC2_Reducir"><path d="M1526.93,405.03 C1527.88,435.93 1529.1,475.22 1529.84,499.09 " fill="none" id="UC2-backto-Reducir" style="stroke:#181818;stroke-width:1.0;stroke-dasharray:7.0,7.0;"/><polygon fill="#181818" points="1526.76,399.75,1523.0447,408.8712,1526.9171,404.7475,1531.0407,408.6199,1526.76,399.75" style="stroke:#181818;stroke-width:1.0;"/><text fill="#000000" font-family="sans-serif" font-size="13" lengthAdjust="spacing" textLength="55" x="1529.5" y="443.9951">«Extend»</text></g><!--MD5=[23158184d1c199f56a7a791bde524362]
link AComun to VOfertas--><g id="link_AComun_VOfertas"><path d="M828.5,397.27 C828.5,431.97 828.5,481.3 828.5,505.68 " fill="none" id="AComun-VOfertas" style="stroke:#181818;stroke-width:1.0;"/></g><!--MD5=[42f959a80bc57493435ee05ccbaba4ef]
link Gestor to BloqOFertas--><g id="link_Gestor_BloqOFertas"><path d="M294.73,222.78 C285.37,259.51 271.66,313.25 264.78,340.23 " fill="none" id="Gestor-BloqOFertas" style="stroke:#181818;stroke-width:1.0;"/></g><!--MD5=[bba1e821e39ff6b23d381e49750902a5]
link Gestor to EmitFactura--><g id="link_Gestor_EmitFactura"><path d="M326.05,211.83 C355.11,248.69 405.85,313.05 428.73,342.07 " fill="none" id="Gestor-EmitFactura" style="stroke:#181818;stroke-width:1.0;"/></g><!--MD5=[623e46a0412aa5906b191801943a9128]
link Gestor to EditFacturas--><g id="link_Gestor_EditFacturas"><path d="M282.73,201.04 C238.68,234.52 139.55,309.85 97.24,342 " fill="none" id="Gestor-EditFacturas" style="stroke:#181818;stroke-width:1.0;"/></g><!--MD5=[ba4214f4327aa23098702898a8b2bf2c]
link EditFacturas to EditElemento--><g id="link_EditFacturas_EditElemento"><path d="M106.4,373.18 C123.64,381.38 146.08,391.6 166.5,399.5 C274.15,441.15 402.78,480.34 478.27,502.3 " fill="none" id="EditFacturas-to-EditElemento" style="stroke:#181818;stroke-width:1.0;"/><polygon fill="none" points="480.37,495.62,497.64,507.89,476.48,509.07,480.37,495.62" style="stroke:#181818;stroke-width:1.0;"/></g><!--MD5=[0d34d2c3ee10257b717cdb1e2b4ce249]
link Admin to EditUsuarios--><g id="link_Admin_EditUsuarios"><path d="M546.74,83.58 C550.96,133.09 558.14,217.37 561.13,252.44 " fill="none" id="Admin-EditUsuarios" style="stroke:#181818;stroke-width:1.0;"/></g><!--MD5=[a622a82bf553d2892e0dab3553e52d2e]
link EditUsuarios to EditElemento--><g id="link_EditUsuarios_EditElemento"><path d="M561.22,286.52 C558.06,326.02 549.83,428.9 545.41,484.15 " fill="none" id="EditUsuarios-to-EditElemento" style="stroke:#181818;stroke-width:1.0;"/><polygon fill="none" points="552.37,484.91,543.8,504.29,538.41,483.8,552.37,484.91" style="stroke:#181818;stroke-width:1.0;"/></g><!--MD5=[368c2d865dc17d855309d262c5f6588e]
link Software to EmitFactura--><g id="link_Software_EmitFactura"><path d="M428.83,222.78 C432.09,260.3 436.9,315.58 439.19,341.94 " fill="none" id="Software-EmitFactura" style="stroke:#181818;stroke-width:1.0;"/></g><!--MD5=[acaea2afcf8ae554e7887568878d6086]
link Admin to CrearUs--><g id="link_Admin_CrearUs"><path d="M578.6,83.66 C603.79,111.06 636.45,146.56 654.98,166.71 " fill="none" id="Admin-CrearUs" style="stroke:#181818;stroke-width:1.0;"/></g><!--MD5=[e8aec211b8abf85365976cae731a236f]
link CrearUs to EnviarCorreo--><g id="link_CrearUs_EnviarCorreo"><path d="M670.91,200.73 C673.65,232.25 679.69,301.72 682.71,336.42 " fill="none" id="CrearUs-to-EnviarCorreo" style="stroke:#181818;stroke-width:1.0;stroke-dasharray:7.0,7.0;"/><polygon fill="#181818" points="683.17,341.68,686.358,332.3614,682.7276,336.6996,678.3894,333.0692,683.17,341.68" style="stroke:#181818;stroke-width:1.0;"/><text fill="#000000" font-family="sans-serif" font-size="13" lengthAdjust="spacing" textLength="55" x="679.5" y="274.9951">«Include»</text></g><!--MD5=[fc6bda1e84543cd2743610cbe1d999f8]
link GCorreo to EnviarCorreo--><g id="link_GCorreo_EnviarCorreo"><path d="M793,222.59 C778.4,241.89 760.21,265.61 743.5,286.5 C727.94,305.94 709.44,327.87 697.35,342.03 " fill="none" id="GCorreo-EnviarCorreo" style="stroke:#181818;stroke-width:1.0;"/></g><!--MD5=[5bd945e0e645dbfdb1293ba29af36247]
@startuml fotografiaOnline

:Cliente: as Cliente
:Actor comun: as AComun
:Controlador de fotos: as ConFotos
:Software facturacion: as Software
:Gestor: as Gestor
:Vendedor: as Vendedor
:Administrador: as Admin
:Gestor correo: as GCorreo


(Consultar fotos) as ConsultarFotos
(Denunciar foto) as DFoto
(Introducir explicacion) as InExp
usecase UC1 as "Visualizar fotos
- -
**extension points**
Denunciar foto"
(Marcar un producto) as MProd
(Editar informacion fotos) as EditInfo
(Ver ofertas) as VOfertas
(Bloquear ofertas) as BloqOFertas
(Emitir factura) as EmitFactura
(Editar facturas) as EditFacturas
(Editar elemento) as EditElemento
(Buscar detalles en fotos) as BDetalles
(Verificar informacion de entrada) as Verif
(Enviar correo) as EnviarCorreo
(Editar usuarios) as EditUsuarios
(Crear usuarios) as CrearUs
usecase UC2 as "Hacer oferta
- -
**extension points**
Reducir precio productos"
(Reducir precio productos) as Reducir


Cliente - -|> AComun
Gestor - -|> AComun
Admin - -|> Gestor

Cliente - - ConsultarFotos
Cliente - - UC1
ConsultarFotos - -|> UC1
UC1 <.. DFoto : <<Extend>>
DFoto ..> InExp : <<Include>>

ConFotos - - EditInfo
ConFotos - - MProd
DFoto - -|> MProd

Vendedor - - BDetalles
BDetalles - -|> UC1
BDetalles ..> Verif : <<Include>>
Vendedor - - UC2
UC2 <.. Reducir : <<Extend>>

AComun - - VOfertas

Gestor - - BloqOFertas
Gestor - - EmitFactura
Gestor - - EditFacturas
EditFacturas - -|> EditElemento

Admin - - EditUsuarios
EditUsuarios - -|> EditElemento

Software - - EmitFactura

Admin - - CrearUs
CrearUs ..> EnviarCorreo : <<Include>>

GCorreo - - EnviarCorreo












@enduml

PlantUML version 1.2022.7(Mon Aug 22 19:01:30 CEST 2022)
(GPL source distribution)
Java Runtime: OpenJDK Runtime Environment
JVM: OpenJDK 64-Bit Server VM
Default Encoding: Cp1252
Language: es
Country: ES
--></g></svg>