<?xml version="1.0" encoding="UTF-8" standalone="no"?><svg xmlns="http://www.w3.org/2000/svg" xmlns:xlink="http://www.w3.org/1999/xlink" contentStyleType="text/css" height="488px" preserveAspectRatio="none" style="width:1575px;height:488px;background:#FFFFFF;" version="1.1" viewBox="0 0 1575 488" width="1575px" zoomAndPan="magnify"><defs/><g><!--MD5=[2e903384ba6a94be9c906ea46910cc3f]
entity Administrador--><g id="elem_Administrador"><ellipse cx="976.5" cy="14" fill="#F1F1F1" rx="8" ry="8" style="stroke:#181818;stroke-width:0.5;"/><path d="M976.5,22 L976.5,49 M963.5,30 L989.5,30 M976.5,49 L963.5,64 M976.5,49 L989.5,64 " fill="none" style="stroke:#181818;stroke-width:0.5;"/><text fill="#000000" font-family="sans-serif" font-size="14" lengthAdjust="spacing" textLength="87" x="933" y="80.0332">Administrador</text></g><g id="elem_eliminarProducto"><ellipse cx="880.7363" cy="205.7473" fill="#F1F1F1" rx="76.7363" ry="17.7473" style="stroke:#181818;stroke-width:0.5;"/><text fill="#000000" font-family="sans-serif" font-size="14" lengthAdjust="spacing" textLength="106" x="825.2006" y="210.1555">eliminarProducto</text></g><!--MD5=[a46c3c6e38a726f7d5de49445d1f48e8]
entity Comun--><g id="elem_Comun"><ellipse cx="1014.5" cy="175" fill="#F1F1F1" rx="8" ry="8" style="stroke:#181818;stroke-width:0.5;"/><path d="M1014.5,183 L1014.5,210 M1001.5,191 L1027.5,191 M1014.5,210 L1001.5,225 M1014.5,210 L1027.5,225 " fill="none" style="stroke:#181818;stroke-width:0.5;"/><text fill="#000000" font-family="sans-serif" font-size="14" lengthAdjust="spacing" textLength="45" x="992" y="241.0332">Comun</text></g><!--MD5=[b518afe29adc4be238f77772235dec2a]
entity Vendedor--><g id="elem_Vendedor"><ellipse cx="823.5" cy="14" fill="#F1F1F1" rx="8" ry="8" style="stroke:#181818;stroke-width:0.5;"/><path d="M823.5,22 L823.5,49 M810.5,30 L836.5,30 M823.5,49 L810.5,64 M823.5,49 L836.5,64 " fill="none" style="stroke:#181818;stroke-width:0.5;"/><text fill="#000000" font-family="sans-serif" font-size="14" lengthAdjust="spacing" textLength="62" x="792.5" y="80.0332">Vendedor</text></g><g id="elem_ConsultarPrecio"><ellipse cx="851.3525" cy="347.8705" fill="#F1F1F1" rx="74.8525" ry="17.3705" style="stroke:#181818;stroke-width:0.5;"/><text fill="#000000" font-family="sans-serif" font-size="14" lengthAdjust="spacing" textLength="101" x="797.8525" y="352.3871">ConsultarPrecio</text></g><g id="elem_ConsultarOferta"><ellipse cx="1036.3525" cy="347.8705" fill="#F1F1F1" rx="74.8525" ry="17.3705" style="stroke:#181818;stroke-width:0.5;"/><text fill="#000000" font-family="sans-serif" font-size="14" lengthAdjust="spacing" textLength="101" x="982.8525" y="352.3871">ConsultarOferta</text></g><g id="elem_BuscarProducto"><ellipse cx="322.3525" cy="464.3705" fill="#F1F1F1" rx="74.8525" ry="17.3705" style="stroke:#181818;stroke-width:0.5;"/><text fill="#000000" font-family="sans-serif" font-size="14" lengthAdjust="spacing" textLength="101" x="268.8525" y="468.8871">BuscarProducto</text></g><!--MD5=[37c1e849c7fac2ab8f071c364d67cfa5]
entity Proveedor--><g id="elem_Proveedor"><ellipse cx="1223.5" cy="14" fill="#F1F1F1" rx="8" ry="8" style="stroke:#181818;stroke-width:0.5;"/><path d="M1223.5,22 L1223.5,49 M1210.5,30 L1236.5,30 M1223.5,49 L1210.5,64 M1223.5,49 L1236.5,64 " fill="none" style="stroke:#181818;stroke-width:0.5;"/><text fill="#000000" font-family="sans-serif" font-size="14" lengthAdjust="spacing" textLength="66" x="1190.5" y="80.0332">Proveedor</text></g><g id="elem_AvisarFinDeOferta"><ellipse cx="1223.597" cy="205.6194" fill="#F1F1F1" rx="81.097" ry="18.6194" style="stroke:#181818;stroke-width:0.5;"/><text fill="#000000" font-family="sans-serif" font-size="14" lengthAdjust="spacing" textLength="117" x="1164.5843" y="209.4982">AvisarFinDeOferta</text></g><g id="elem_UC1"><ellipse cx="1454.7257" cy="205.4401" fill="#F1F1F1" rx="114.7257" ry="43.9401" style="stroke:#181818;stroke-width:0.5;"/><text fill="#000000" font-family="sans-serif" font-size="14" lengthAdjust="spacing" textLength="154" x="1378.6305" y="190.204">AvisarDeNuevoProducto</text><line style="stroke:#181818;stroke-width:1.0;" x1="1345.4806" x2="1563.9707" y1="193.2801" y2="193.2801"/><text fill="#000000" font-family="sans-serif" font-size="14" font-weight="bold" lengthAdjust="spacing" textLength="118" x="1396.6305" y="211.8133">extension points</text><text fill="#000000" font-family="sans-serif" font-size="14" lengthAdjust="spacing" textLength="105" x="1403.1305" y="229.4227">IncorporarOferta</text></g><g id="elem_IncorporarOferta"><ellipse cx="1454.355" cy="44.671" fill="#F1F1F1" rx="76.355" ry="17.671" style="stroke:#181818;stroke-width:0.5;"/><text fill="#000000" font-family="sans-serif" font-size="14" lengthAdjust="spacing" textLength="105" x="1399.1233" y="49.1255">IncorporarOferta</text></g><g id="elem_AvisarProveedor"><ellipse cx="1223.355" cy="348.171" fill="#F1F1F1" rx="76.355" ry="17.671" style="stroke:#181818;stroke-width:0.5;"/><text fill="#000000" font-family="sans-serif" font-size="14" lengthAdjust="spacing" textLength="105" x="1168.1233" y="352.6255">AvisarProveedor</text></g><g id="elem_EnviarNotificacion"><ellipse cx="1223.5785" cy="464.7157" fill="#F1F1F1" rx="79.0785" ry="18.2157" style="stroke:#181818;stroke-width:0.5;"/><text fill="#000000" font-family="sans-serif" font-size="14" lengthAdjust="spacing" textLength="112" x="1166.1751" y="468.8395">EnviarNotificacion</text></g><g id="elem_EliminarOferta"><ellipse cx="1406.3567" cy="348.0713" fill="#F1F1F1" rx="70.8567" ry="16.5713" style="stroke:#181818;stroke-width:0.5;"/><text fill="#000000" font-family="sans-serif" font-size="14" lengthAdjust="spacing" textLength="90" x="1358.3567" y="352.5879">EliminarOferta</text></g><g id="elem_ConsultarProducto"><ellipse cx="273.5075" cy="205.7015" fill="#F1F1F1" rx="81.5075" ry="18.7015" style="stroke:#181818;stroke-width:0.5;"/><text fill="#000000" font-family="sans-serif" font-size="14" lengthAdjust="spacing" textLength="118" x="214.1675" y="209.5304">ConsultarProducto</text></g><!--MD5=[4e73d3d21f99b8c64cc90bc67774afb7]
entity Comprador--><g id="elem_Comprador"><ellipse cx="320.5" cy="14" fill="#F1F1F1" rx="8" ry="8" style="stroke:#181818;stroke-width:0.5;"/><path d="M320.5,22 L320.5,49 M307.5,30 L333.5,30 M320.5,49 L307.5,64 M320.5,49 L333.5,64 " fill="none" style="stroke:#181818;stroke-width:0.5;"/><text fill="#000000" font-family="sans-serif" font-size="14" lengthAdjust="spacing" textLength="71" x="285" y="80.0332">Comprador</text></g><g id="elem_AgregarProductos"><ellipse cx="474.5075" cy="205.7015" fill="#F1F1F1" rx="81.5075" ry="18.7015" style="stroke:#181818;stroke-width:0.5;"/><text fill="#000000" font-family="sans-serif" font-size="14" lengthAdjust="spacing" textLength="118" x="415.1675" y="209.5304">Agregar productos</text></g><g id="elem_Bloquear productos"><ellipse cx="480.5066" cy="348.2013" fill="#F1F1F1" rx="84.0066" ry="19.2013" style="stroke:#181818;stroke-width:0.5;"/><text fill="#000000" font-family="sans-serif" font-size="14" lengthAdjust="spacing" textLength="124" x="418.5066" y="351.9298">Bloquear productos</text></g><g id="elem_VerificarDisponibilidad"><ellipse cx="270.3297" cy="348.0659" fill="#F1F1F1" rx="90.8297" ry="20.5659" style="stroke:#181818;stroke-width:0.5;"/><text fill="#000000" font-family="sans-serif" font-size="14" lengthAdjust="spacing" textLength="140" x="200.3297" y="351.7945">VerificarDisponibilidad</text></g><g id="elem_FinalizarCompra"><ellipse cx="81.6002" cy="205.52" fill="#F1F1F1" rx="75.6002" ry="17.52" style="stroke:#181818;stroke-width:0.5;"/><text fill="#000000" font-family="sans-serif" font-size="14" lengthAdjust="spacing" textLength="103" x="27.1002" y="210.0366">FinalizarCompra</text></g><g id="elem_RealizarVenta"><ellipse cx="670.6531" cy="205.4306" fill="#F1F1F1" rx="70.1531" ry="16.4306" style="stroke:#181818;stroke-width:0.5;"/><text fill="#000000" font-family="sans-serif" font-size="14" lengthAdjust="spacing" textLength="88" x="623.6531" y="209.9472">RealizarVenta</text></g><g id="elem_ConsultarHistorico"><ellipse cx="670.2827" cy="44.4565" fill="#F1F1F1" rx="80.2827" ry="18.4565" style="stroke:#181818;stroke-width:0.5;"/><text fill="#000000" font-family="sans-serif" font-size="14" lengthAdjust="spacing" textLength="115" x="611.9192" y="48.4341">ConsultarHistorico</text></g><g id="elem_AcordarPrecio"><ellipse cx="670.3567" cy="348.0713" fill="#F1F1F1" rx="70.8567" ry="16.5713" style="stroke:#181818;stroke-width:0.5;"/><text fill="#000000" font-family="sans-serif" font-size="14" lengthAdjust="spacing" textLength="90" x="622.3567" y="352.5879">AcordarPrecio</text></g><!--MD5=[0ca9a999317a74d66d36824bf0e85c36]
link Administrador to eliminarProducto--><g id="link_Administrador_eliminarProducto"><path d="M953.51,83.58 C934.6,114.89 908.52,158.09 893.19,183.48 " fill="none" id="Administrador-to-eliminarProducto" style="stroke:#181818;stroke-width:1.0;"/><polygon fill="#181818" points="890.46,188.01,898.5343,182.3703,893.043,183.7288,891.6844,178.2375,890.46,188.01" style="stroke:#181818;stroke-width:1.0;"/></g><!--MD5=[5b6b7771fafa5d3e54b26030175fd4f9]
link Administrador to Comun--><g id="link_Administrador_Comun"><path d="M985.6,83.58 C990.12,102.49 995.68,125.74 1000.71,146.78 " fill="none" id="Administrador-to-Comun" style="stroke:#181818;stroke-width:1.0;"/><polygon fill="none" points="1007.57,145.37,1005.41,166.45,993.95,148.63,1007.57,145.37" style="stroke:#181818;stroke-width:1.0;"/></g><!--MD5=[773f343a7041d3c20ed60daade3e0bef]
link Vendedor to Comun--><g id="link_Vendedor_Comun"><path d="M854.77,67.19 C886.18,89.49 935.38,125.9 974.5,161.5 C975.6,162.5 976.71,163.53 977.82,164.58 " fill="none" id="Vendedor-to-Comun" style="stroke:#181818;stroke-width:1.0;"/><polygon fill="none" points="982.81,159.67,991.91,178.81,972.86,169.52,982.81,159.67" style="stroke:#181818;stroke-width:1.0;"/></g><!--MD5=[2ff9252fa9ef6a0541ce3bc8faf6f6b1]
link Comun to ConsultarPrecio--><g id="link_Comun_ConsultarPrecio"><path d="M991.85,232.13 C986.34,238 980.34,244.1 974.5,249.5 C942.9,278.69 903.5,308.96 877.94,327.87 " fill="none" id="Comun-to-ConsultarPrecio" style="stroke:#181818;stroke-width:1.0;"/><polygon fill="#181818" points="873.64,331.04,883.2573,328.9168,877.6638,328.0721,878.5086,322.4786,873.64,331.04" style="stroke:#181818;stroke-width:1.0;"/></g><!--MD5=[ba620605dc398a1db8659bd79ba0fa77]
link Comun to ConsultarOferta--><g id="link_Comun_ConsultarOferta"><path d="M1020.45,244.52 C1024.49,270.29 1029.68,303.45 1033.05,324.96 " fill="none" id="Comun-to-ConsultarOferta" style="stroke:#181818;stroke-width:1.0;"/><polygon fill="#181818" points="1033.86,330.17,1036.4243,320.6608,1033.089,325.2298,1028.52,321.8945,1033.86,330.17" style="stroke:#181818;stroke-width:1.0;"/></g><!--MD5=[ecc0951ca4acb02bbb55ee14669f0fba]
link ConsultarPrecio to BuscarProducto--><g id="link_ConsultarPrecio_BuscarProducto"><path d="M798.36,360.5 C698.64,382.09 484.25,428.49 380.75,450.89 " fill="none" id="ConsultarPrecio-to-BuscarProducto" style="stroke:#181818;stroke-width:1.0;stroke-dasharray:7.0,7.0;"/><polygon fill="#181818" points="375.61,452,385.2524,454.0062,380.4969,450.9426,383.5605,446.1871,375.61,452" style="stroke:#181818;stroke-width:1.0;"/><text fill="#000000" font-family="sans-serif" font-size="13" lengthAdjust="spacing" textLength="57" x="620.5" y="412.9951">&lt;include&gt;</text></g><!--MD5=[999804e013fc8e111b3739481b13d0fb]
link Proveedor to Comun--><g id="link_Proveedor_Comun"><path d="M1190.38,70.69 C1153.08,99.07 1092.55,145.13 1053.13,175.12 " fill="none" id="Proveedor-to-Comun" style="stroke:#181818;stroke-width:1.0;"/><polygon fill="none" points="1057.31,180.73,1037.16,187.26,1048.83,169.58,1057.31,180.73" style="stroke:#181818;stroke-width:1.0;"/></g><!--MD5=[9ab143f5b5b3349a6c4981140bebffa7]
link Proveedor to AvisarFinDeOferta--><g id="link_Proveedor_AvisarFinDeOferta"><path d="M1223.5,83.58 C1223.5,114.12 1223.5,155.96 1223.5,181.57 " fill="none" id="Proveedor-to-AvisarFinDeOferta" style="stroke:#181818;stroke-width:1.0;"/><polygon fill="#181818" points="1223.5,186.77,1227.5,177.77,1223.5,181.77,1219.5,177.77,1223.5,186.77" style="stroke:#181818;stroke-width:1.0;"/></g><!--MD5=[174af1b9965bb3a72f42d9d18a498a38]
link Proveedor to UC1--><g id="link_Proveedor_UC1"><path d="M1256.6,68.28 C1292.73,93.15 1351.32,133.48 1395.39,163.82 " fill="none" id="Proveedor-to-UC1" style="stroke:#181818;stroke-width:1.0;"/><polygon fill="#181818" points="1399.61,166.72,1394.4659,158.3213,1395.4919,163.8843,1389.9288,164.9103,1399.61,166.72" style="stroke:#181818;stroke-width:1.0;"/></g><!--MD5=[08e2c5f507dfadb83da1ad943db298aa]
link IncorporarOferta to UC1--><g id="link_IncorporarOferta_UC1"><path d="M1454.5,62.22 C1454.5,84.39 1454.5,124.46 1454.5,156.44 " fill="none" id="IncorporarOferta-to-UC1" style="stroke:#181818;stroke-width:1.0;stroke-dasharray:7.0,7.0;"/><polygon fill="#181818" points="1454.5,161.5,1458.5,152.5,1454.5,156.5,1450.5,152.5,1454.5,161.5" style="stroke:#181818;stroke-width:1.0;"/><text fill="#000000" font-family="sans-serif" font-size="13" lengthAdjust="spacing" textLength="55" x="1455.5" y="127.9951">&lt;extend&gt;</text></g><!--MD5=[91f041db9c7591adea58c423c82d0ba3]
link AvisarProveedor to EnviarNotificacion--><g id="link_AvisarProveedor_EnviarNotificacion"><path d="M1223.5,365.89 C1223.5,385.82 1223.5,419.02 1223.5,441.08 " fill="none" id="AvisarProveedor-to-EnviarNotificacion" style="stroke:#181818;stroke-width:1.0;stroke-dasharray:7.0,7.0;"/><polygon fill="#181818" points="1223.5,446.16,1227.5,437.16,1223.5,441.16,1219.5,437.16,1223.5,446.16" style="stroke:#181818;stroke-width:1.0;"/><text fill="#000000" font-family="sans-serif" font-size="13" lengthAdjust="spacing" textLength="57" x="1224.5" y="412.9951">&lt;include&gt;</text></g><!--MD5=[9d407c7a2d24b83212a33f8066d69e71]
link AvisarFinDeOferta to EliminarOferta--><g id="link_AvisarFinDeOferta_EliminarOferta"><path d="M1245.57,223.45 C1280.2,250.03 1346.99,301.31 1382.67,328.7 " fill="none" id="AvisarFinDeOferta-to-EliminarOferta" style="stroke:#181818;stroke-width:1.0;stroke-dasharray:7.0,7.0;"/><polygon fill="#181818" points="1386.86,331.92,1382.1637,323.2629,1382.8963,328.8721,1377.2871,329.6048,1386.86,331.92" style="stroke:#181818;stroke-width:1.0;"/><text fill="#000000" font-family="sans-serif" font-size="13" lengthAdjust="spacing" textLength="57" x="1338.5" y="293.9951">&lt;include&gt;</text></g><!--MD5=[1f4db6cbf0d626f5e2e6a9ba40a22bb9]
link AvisarFinDeOferta to AvisarProveedor--><g id="link_AvisarFinDeOferta_AvisarProveedor"><path d="M1223.5,224.01 C1223.5,245.38 1223.5,282.1 1223.5,309.86 " fill="none" id="AvisarFinDeOferta-to-AvisarProveedor" style="stroke:#181818;stroke-width:1.0;"/><polygon fill="none" points="1230.5,310.15,1223.5,330.15,1216.5,310.15,1230.5,310.15" style="stroke:#181818;stroke-width:1.0;"/></g><!--MD5=[0446eac066a737fe356a94e77c648c2d]
link ConsultarProducto to BuscarProducto--><g id="link_ConsultarProducto_BuscarProducto"><path d="M246.91,223.13 C204.57,251.8 129.71,312.83 161.5,368.5 C182.21,404.76 222.77,428.57 258,443.29 " fill="none" id="ConsultarProducto-to-BuscarProducto" style="stroke:#181818;stroke-width:1.0;"/><polygon fill="none" points="260.71,436.83,276.87,450.55,255.69,449.9,260.71,436.83" style="stroke:#181818;stroke-width:1.0;"/></g><!--MD5=[a7351c1aac2e417755d8f1cda0fe8077]
link Comprador to ConsultarProducto--><g id="link_Comprador_ConsultarProducto"><path d="M309.24,83.58 C300.18,114.25 287.74,156.31 280.18,181.89 " fill="none" id="Comprador-to-ConsultarProducto" style="stroke:#181818;stroke-width:1.0;"/><polygon fill="#181818" points="278.74,186.77,285.1411,179.2849,280.1663,181.9777,277.4735,177.0029,278.74,186.77" style="stroke:#181818;stroke-width:1.0;"/></g><!--MD5=[3d148d5d50755d28e4082f60aa98a15a]
link Comprador to AgregarProductos--><g id="link_Comprador_AgregarProductos"><path d="M356.22,82.38 C386.71,113.86 429.45,157.99 454.34,183.68 " fill="none" id="Comprador-to-AgregarProductos" style="stroke:#181818;stroke-width:1.0;"/><polygon fill="#181818" points="457.87,187.33,454.4648,178.0885,454.3848,183.7448,448.7285,183.6648,457.87,187.33" style="stroke:#181818;stroke-width:1.0;"/></g><!--MD5=[7a51ff77e5bac74442c9fc5b56eb049e]
link AgregarProductos to Bloquear productos--><g id="link_AgregarProductos_Bloquear productos"><path d="M475.25,224.01 C476.32,249.22 478.31,295.78 479.51,323.81 " fill="none" id="AgregarProductos-to-Bloquear productos" style="stroke:#181818;stroke-width:1.0;stroke-dasharray:7.0,7.0;"/><polygon fill="#181818" points="479.72,328.82,483.331,319.657,479.5059,323.8246,475.3383,319.9995,479.72,328.82" style="stroke:#181818;stroke-width:1.0;"/><text fill="#000000" font-family="sans-serif" font-size="13" lengthAdjust="spacing" textLength="55" x="479.5" y="293.9951">«Include»</text></g><!--MD5=[803e9999cdc390f8b4c1dd5ef7fc8972]
link ConsultarProducto to VerificarDisponibilidad--><g id="link_ConsultarProducto_VerificarDisponibilidad"><path d="M273.13,224.01 C272.6,248.8 271.63,294.25 271.03,322.41 " fill="none" id="ConsultarProducto-to-VerificarDisponibilidad" style="stroke:#181818;stroke-width:1.0;stroke-dasharray:7.0,7.0;"/><polygon fill="#181818" points="270.92,327.46,275.1246,318.5538,271.0343,322.4613,267.1267,318.3709,270.92,327.46" style="stroke:#181818;stroke-width:1.0;"/><text fill="#000000" font-family="sans-serif" font-size="13" lengthAdjust="spacing" textLength="57" x="273.5" y="293.9951">&lt;include&gt;</text></g><!--MD5=[520f07797bdc09c1f4a8493f172dae93]
link Comprador to FinalizarCompra--><g id="link_Comprador_FinalizarCompra"><path d="M284.98,69.13 C237.2,100.91 153.23,156.78 109.6,185.81 " fill="none" id="Comprador-to-FinalizarCompra" style="stroke:#181818;stroke-width:1.0;"/><polygon fill="#181818" points="105.25,188.7,114.9573,187.0359,109.4103,185.9265,110.5197,180.3795,105.25,188.7" style="stroke:#181818;stroke-width:1.0;"/></g><!--MD5=[2522cab97019644fec37fe2e7b548112]
link Comprador to RealizarVenta--><g id="link_Comprador_RealizarVenta"><path d="M356.31,61.77 C423.52,92.3 567.8,157.84 634.87,188.31 " fill="none" id="Comprador-to-RealizarVenta" style="stroke:#181818;stroke-width:1.0;"/><polygon fill="#181818" points="639.56,190.44,633.0219,183.0743,635.0082,188.371,629.7115,190.3572,639.56,190.44" style="stroke:#181818;stroke-width:1.0;"/></g><!--MD5=[69dbd76b1d7a3f01bdc3407d1eb5407f]
link ConsultarHistorico to RealizarVenta--><g id="link_ConsultarHistorico_RealizarVenta"><path d="M670.5,63.12 C670.5,92.63 670.5,151.88 670.5,183.5 " fill="none" id="ConsultarHistorico-to-RealizarVenta" style="stroke:#181818;stroke-width:1.0;stroke-dasharray:7.0,7.0;"/><polygon fill="#181818" points="670.5,188.7,674.5,179.7,670.5,183.7,666.5,179.7,670.5,188.7" style="stroke:#181818;stroke-width:1.0;"/><text fill="#000000" font-family="sans-serif" font-size="13" lengthAdjust="spacing" textLength="57" x="671.5" y="127.9951">&lt;Extend&gt;</text></g><!--MD5=[d07fd4371a404d80f3318e827c92c2a6]
link RealizarVenta to AcordarPrecio--><g id="link_RealizarVenta_AcordarPrecio"><path d="M670.5,222.07 C670.5,247.5 670.5,297.93 670.5,326.32 " fill="none" id="RealizarVenta-to-AcordarPrecio" style="stroke:#181818;stroke-width:1.0;stroke-dasharray:7.0,7.0;"/><polygon fill="#181818" points="670.5,331.36,674.5,322.36,670.5,326.36,666.5,322.36,670.5,331.36" style="stroke:#181818;stroke-width:1.0;"/><text fill="#000000" font-family="sans-serif" font-size="13" lengthAdjust="spacing" textLength="57" x="671.5" y="293.9951">&lt;include&gt;</text></g><!--MD5=[9d633c0c55c2b5a9291ab7394b790c41]
link Vendedor to RealizarVenta--><g id="link_Vendedor_RealizarVenta"><path d="M792.17,78.06 C761,110.45 714.26,159.03 688.73,185.55 " fill="none" id="Vendedor-to-RealizarVenta" style="stroke:#181818;stroke-width:1.0;"/><polygon fill="#181818" points="685.13,189.3,694.2566,185.5979,688.6007,185.7008,688.4978,180.0449,685.13,189.3" style="stroke:#181818;stroke-width:1.0;"/></g><!--MD5=[0d70279aeab974f02ee097b1a4168026]
@startuml
:Administrador: - ->(eliminarProducto) 
:Comun:
Administrador- -|>Comun
:Vendedor:
Vendedor - -|> Comun
Comun - ->(ConsultarPrecio)
Comun - ->(ConsultarOferta)
(ConsultarPrecio)..>(BuscarProducto):<include>
:Proveedor: - -|> Comun
Proveedor - ->(AvisarFinDeOferta)

usecase UC1 as "AvisarDeNuevoProducto
- -
**extension points**
IncorporarOferta"

Proveedor- ->UC1
(IncorporarOferta)..>UC1:<extend>
(AvisarProveedor)..>(EnviarNotificacion):<include>
(AvisarFinDeOferta)..>(EliminarOferta):<include>
(AvisarFinDeOferta)- -|>(AvisarProveedor)
(ConsultarProducto)- -|>(BuscarProducto)
:Comprador: - -> (ConsultarProducto)
(Agregar productos) as AgregarProductos
Comprador - -> AgregarProductos
AgregarProductos ..> (Bloquear productos) : <<Include>>
(ConsultarProducto)..>(VerificarDisponibilidad):<include>
Comprador- ->(FinalizarCompra)
Comprador- ->(RealizarVenta)
(ConsultarHistorico)..>(RealizarVenta):<Extend>
(RealizarVenta)..>(AcordarPrecio):<include>
Vendedor- ->(RealizarVenta)

@enduml

PlantUML version 1.2022.7(Mon Aug 22 19:01:30 CEST 2022)
(GPL source distribution)
Java Runtime: OpenJDK Runtime Environment
JVM: OpenJDK 64-Bit Server VM
Default Encoding: Cp1252
Language: es
Country: ES
--></g></svg>