<?xml version="1.0" encoding="UTF-8" standalone="no"?><svg xmlns="http://www.w3.org/2000/svg" xmlns:xlink="http://www.w3.org/1999/xlink" contentStyleType="text/css" height="478px" preserveAspectRatio="none" style="width:1288px;height:478px;background:#FFFFFF;" version="1.1" viewBox="0 0 1288 478" width="1288px" zoomAndPan="magnify"><defs/><g><!--MD5=[2e903384ba6a94be9c906ea46910cc3f]
entity Administrador--><g id="elem_Administrador"><ellipse cx="651.5" cy="14" fill="#F1F1F1" rx="8" ry="8" style="stroke:#181818;stroke-width:0.5;"/><path d="M651.5,22 L651.5,49 M638.5,30 L664.5,30 M651.5,49 L638.5,64 M651.5,49 L664.5,64 " fill="none" style="stroke:#181818;stroke-width:0.5;"/><text fill="#000000" font-family="sans-serif" font-size="14" lengthAdjust="spacing" textLength="87" x="608" y="80.0332">Administrador</text></g><g id="elem_eliminarProducto"><ellipse cx="646.7363" cy="200.7473" fill="#F1F1F1" rx="76.7363" ry="17.7473" style="stroke:#181818;stroke-width:0.5;"/><text fill="#000000" font-family="sans-serif" font-size="14" lengthAdjust="spacing" textLength="106" x="591.2006" y="205.1555">eliminarProducto</text></g><!--MD5=[a46c3c6e38a726f7d5de49445d1f48e8]
entity Comun--><g id="elem_Comun"><ellipse cx="780.5" cy="170" fill="#F1F1F1" rx="8" ry="8" style="stroke:#181818;stroke-width:0.5;"/><path d="M780.5,178 L780.5,205 M767.5,186 L793.5,186 M780.5,205 L767.5,220 M780.5,205 L793.5,220 " fill="none" style="stroke:#181818;stroke-width:0.5;"/><text fill="#000000" font-family="sans-serif" font-size="14" lengthAdjust="spacing" textLength="45" x="758" y="236.0332">Comun</text></g><!--MD5=[b518afe29adc4be238f77772235dec2a]
entity Vendedor--><g id="elem_Vendedor"><ellipse cx="767.5" cy="14" fill="#F1F1F1" rx="8" ry="8" style="stroke:#181818;stroke-width:0.5;"/><path d="M767.5,22 L767.5,49 M754.5,30 L780.5,30 M767.5,49 L754.5,64 M767.5,49 L780.5,64 " fill="none" style="stroke:#181818;stroke-width:0.5;"/><text fill="#000000" font-family="sans-serif" font-size="14" lengthAdjust="spacing" textLength="62" x="736.5" y="80.0332">Vendedor</text></g><g id="elem_ConsultarPrecio"><ellipse cx="791.3525" cy="337.8705" fill="#F1F1F1" rx="74.8525" ry="17.3705" style="stroke:#181818;stroke-width:0.5;"/><text fill="#000000" font-family="sans-serif" font-size="14" lengthAdjust="spacing" textLength="101" x="737.8525" y="342.3871">ConsultarPrecio</text></g><g id="elem_ConsultarOferta"><ellipse cx="606.3525" cy="337.8705" fill="#F1F1F1" rx="74.8525" ry="17.3705" style="stroke:#181818;stroke-width:0.5;"/><text fill="#000000" font-family="sans-serif" font-size="14" lengthAdjust="spacing" textLength="101" x="552.8525" y="342.3871">ConsultarOferta</text></g><g id="elem_BuscarProducto"><ellipse cx="276.3525" cy="454.3705" fill="#F1F1F1" rx="74.8525" ry="17.3705" style="stroke:#181818;stroke-width:0.5;"/><text fill="#000000" font-family="sans-serif" font-size="14" lengthAdjust="spacing" textLength="101" x="222.8525" y="458.8871">BuscarProducto</text></g><!--MD5=[37c1e849c7fac2ab8f071c364d67cfa5]
entity Proveedor--><g id="elem_Proveedor"><ellipse cx="972.5" cy="14" fill="#F1F1F1" rx="8" ry="8" style="stroke:#181818;stroke-width:0.5;"/><path d="M972.5,22 L972.5,49 M959.5,30 L985.5,30 M972.5,49 L959.5,64 M972.5,49 L985.5,64 " fill="none" style="stroke:#181818;stroke-width:0.5;"/><text fill="#000000" font-family="sans-serif" font-size="14" lengthAdjust="spacing" textLength="66" x="939.5" y="80.0332">Proveedor</text></g><g id="elem_AvisarFinDeOferta"><ellipse cx="972.597" cy="200.6194" fill="#F1F1F1" rx="81.097" ry="18.6194" style="stroke:#181818;stroke-width:0.5;"/><text fill="#000000" font-family="sans-serif" font-size="14" lengthAdjust="spacing" textLength="117" x="913.5843" y="204.4982">AvisarFinDeOferta</text></g><g id="elem_AvisarDeNuevoProducto"><ellipse cx="1185.4525" cy="200.2905" fill="#F1F1F1" rx="96.9525" ry="21.7905" style="stroke:#181818;stroke-width:0.5;"/><text fill="#000000" font-family="sans-serif" font-size="14" lengthAdjust="spacing" textLength="154" x="1108.4525" y="204.019">AvisarDeNuevoProducto</text></g><g id="elem_IncorporarOferta"><ellipse cx="1185.355" cy="44.671" fill="#F1F1F1" rx="76.355" ry="17.671" style="stroke:#181818;stroke-width:0.5;"/><text fill="#000000" font-family="sans-serif" font-size="14" lengthAdjust="spacing" textLength="105" x="1130.1233" y="49.1255">IncorporarOferta</text></g><g id="elem_AvisarProveedor"><ellipse cx="1155.355" cy="338.171" fill="#F1F1F1" rx="76.355" ry="17.671" style="stroke:#181818;stroke-width:0.5;"/><text fill="#000000" font-family="sans-serif" font-size="14" lengthAdjust="spacing" textLength="105" x="1100.1233" y="342.6255">AvisarProveedor</text></g><g id="elem_EnviarNotificacion"><ellipse cx="1155.5785" cy="454.7157" fill="#F1F1F1" rx="79.0785" ry="18.2157" style="stroke:#181818;stroke-width:0.5;"/><text fill="#000000" font-family="sans-serif" font-size="14" lengthAdjust="spacing" textLength="112" x="1098.1751" y="458.8395">EnviarNotificacion</text></g><g id="elem_EliminarOferta"><ellipse cx="972.3567" cy="338.0713" fill="#F1F1F1" rx="70.8567" ry="16.5713" style="stroke:#181818;stroke-width:0.5;"/><text fill="#000000" font-family="sans-serif" font-size="14" lengthAdjust="spacing" textLength="90" x="924.3567" y="342.5879">EliminarOferta</text></g><g id="elem_ConsultarProducto"><ellipse cx="87.5075" cy="200.7015" fill="#F1F1F1" rx="81.5075" ry="18.7015" style="stroke:#181818;stroke-width:0.5;"/><text fill="#000000" font-family="sans-serif" font-size="14" lengthAdjust="spacing" textLength="118" x="28.1675" y="204.5304">ConsultarProducto</text></g><!--MD5=[4e73d3d21f99b8c64cc90bc67774afb7]
entity Comprador--><g id="elem_Comprador"><ellipse cx="279.5" cy="14" fill="#F1F1F1" rx="8" ry="8" style="stroke:#181818;stroke-width:0.5;"/><path d="M279.5,22 L279.5,49 M266.5,30 L292.5,30 M279.5,49 L266.5,64 M279.5,49 L292.5,64 " fill="none" style="stroke:#181818;stroke-width:0.5;"/><text fill="#000000" font-family="sans-serif" font-size="14" lengthAdjust="spacing" textLength="71" x="244" y="80.0332">Comprador</text></g><g id="elem_VerificarDisponibilidad"><ellipse cx="228.3297" cy="338.0659" fill="#F1F1F1" rx="90.8297" ry="20.5659" style="stroke:#181818;stroke-width:0.5;"/><text fill="#000000" font-family="sans-serif" font-size="14" lengthAdjust="spacing" textLength="140" x="158.3297" y="341.7945">VerificarDisponibilidad</text></g><g id="elem_FinalizarCompra"><ellipse cx="279.6002" cy="200.52" fill="#F1F1F1" rx="75.6002" ry="17.52" style="stroke:#181818;stroke-width:0.5;"/><text fill="#000000" font-family="sans-serif" font-size="14" lengthAdjust="spacing" textLength="103" x="225.1002" y="205.0366">FinalizarCompra</text></g><g id="elem_RealizarVenta"><ellipse cx="460.6531" cy="200.4306" fill="#F1F1F1" rx="70.1531" ry="16.4306" style="stroke:#181818;stroke-width:0.5;"/><text fill="#000000" font-family="sans-serif" font-size="14" lengthAdjust="spacing" textLength="88" x="413.6531" y="204.9472">RealizarVenta</text></g><g id="elem_ConsultarHistorico"><ellipse cx="460.2827" cy="44.4565" fill="#F1F1F1" rx="80.2827" ry="18.4565" style="stroke:#181818;stroke-width:0.5;"/><text fill="#000000" font-family="sans-serif" font-size="14" lengthAdjust="spacing" textLength="115" x="401.9192" y="48.4341">ConsultarHistorico</text></g><g id="elem_AcordarPrecio"><ellipse cx="425.3567" cy="338.0713" fill="#F1F1F1" rx="70.8567" ry="16.5713" style="stroke:#181818;stroke-width:0.5;"/><text fill="#000000" font-family="sans-serif" font-size="14" lengthAdjust="spacing" textLength="90" x="377.3567" y="342.5879">AcordarPrecio</text></g><!--MD5=[0ca9a999317a74d66d36824bf0e85c36]
link Administrador to eliminarProducto--><g id="link_Administrador_eliminarProducto"><path d="M650.26,83.57 C649.3,113.21 648,153.31 647.21,177.74 " fill="none" id="Administrador-to-eliminarProducto" style="stroke:#181818;stroke-width:1.0;"/><polygon fill="#181818" points="647.04,183,651.346,174.1423,647.2113,178.0029,643.3507,173.8682,647.04,183" style="stroke:#181818;stroke-width:1.0;"/></g><!--MD5=[5b6b7771fafa5d3e54b26030175fd4f9]
link Administrador to Comun--><g id="link_Administrador_Comun"><path d="M683.39,83.57 C702,105.79 725.53,133.87 744.76,156.84 " fill="none" id="Administrador-to-Comun" style="stroke:#181818;stroke-width:1.0;"/><polygon fill="none" points="750.4,152.67,757.88,172.5,739.67,161.66,750.4,152.67" style="stroke:#181818;stroke-width:1.0;"/></g><!--MD5=[773f343a7041d3c20ed60daade3e0bef]
link Vendedor to Comun--><g id="link_Vendedor_Comun"><path d="M770.71,83.57 C772.18,100.97 773.95,121.97 775.59,141.28 " fill="none" id="Vendedor-to-Comun" style="stroke:#181818;stroke-width:1.0;"/><polygon fill="none" points="782.57,140.82,777.28,161.34,768.62,142,782.57,140.82" style="stroke:#181818;stroke-width:1.0;"/></g><!--MD5=[2ff9252fa9ef6a0541ce3bc8faf6f6b1]
link Comun to ConsultarPrecio--><g id="link_Comun_ConsultarPrecio"><path d="M783.59,239.6 C785.58,264.04 788.08,294.87 789.73,315.23 " fill="none" id="Comun-to-ConsultarPrecio" style="stroke:#181818;stroke-width:1.0;"/><polygon fill="#181818" points="790.15,320.42,793.4153,311.1282,789.749,315.4361,785.4411,311.7698,790.15,320.42" style="stroke:#181818;stroke-width:1.0;"/></g><!--MD5=[ba620605dc398a1db8659bd79ba0fa77]
link Comun to ConsultarOferta--><g id="link_Comun_ConsultarOferta"><path d="M757.7,224.13 C752.2,229.32 746.24,234.72 740.5,239.5 C705.24,268.86 661.91,299.47 634.25,318.39 " fill="none" id="Comun-to-ConsultarOferta" style="stroke:#181818;stroke-width:1.0;"/><polygon fill="#181818" points="629.95,321.32,639.6354,319.5331,634.0748,318.494,635.1138,312.9334,629.95,321.32" style="stroke:#181818;stroke-width:1.0;"/></g><!--MD5=[ecc0951ca4acb02bbb55ee14669f0fba]
link ConsultarPrecio to BuscarProducto--><g id="link_ConsultarPrecio_BuscarProducto"><path d="M739.28,350.61 C642.22,372.19 434.7,418.33 333.87,440.75 " fill="none" id="ConsultarPrecio-to-BuscarProducto" style="stroke:#181818;stroke-width:1.0;stroke-dasharray:7.0,7.0;"/><polygon fill="#181818" points="328.85,441.86,338.5046,443.8064,333.7303,440.7723,336.7643,435.998,328.85,441.86" style="stroke:#181818;stroke-width:1.0;"/><text fill="#000000" font-family="sans-serif" font-size="13" lengthAdjust="spacing" textLength="57" x="566.5" y="402.9951">&lt;include&gt;</text></g><!--MD5=[999804e013fc8e111b3739481b13d0fb]
link Proveedor to Comun--><g id="link_Proveedor_Comun"><path d="M939.49,71.97 C906.05,98.8 854.33,140.28 819.03,168.59 " fill="none" id="Proveedor-to-Comun" style="stroke:#181818;stroke-width:1.0;"/><polygon fill="none" points="823.15,174.26,803.17,181.32,814.39,163.34,823.15,174.26" style="stroke:#181818;stroke-width:1.0;"/></g><!--MD5=[9ab143f5b5b3349a6c4981140bebffa7]
link Proveedor to AvisarFinDeOferta--><g id="link_Proveedor_AvisarFinDeOferta"><path d="M972.5,83.57 C972.5,112.72 972.5,151.96 972.5,176.49 " fill="none" id="Proveedor-to-AvisarFinDeOferta" style="stroke:#181818;stroke-width:1.0;"/><polygon fill="#181818" points="972.5,181.8,976.5,172.8,972.5,176.8,968.5,172.8,972.5,181.8" style="stroke:#181818;stroke-width:1.0;"/></g><!--MD5=[ba9d614f63d1b3538491dc0513ba8255]
link Proveedor to AvisarDeNuevoProducto--><g id="link_Proveedor_AvisarDeNuevoProducto"><path d="M1005.78,69.56 C1046.08,98.7 1113.5,147.44 1153.31,176.22 " fill="none" id="Proveedor-to-AvisarDeNuevoProducto" style="stroke:#181818;stroke-width:1.0;"/><polygon fill="#181818" points="1157.54,179.29,1152.5837,170.7791,1153.4859,176.3636,1147.9014,177.2658,1157.54,179.29" style="stroke:#181818;stroke-width:1.0;"/></g><!--MD5=[f98b7c0df43b232249ba68432249d4ea]
link IncorporarOferta to AvisarDeNuevoProducto--><g id="link_IncorporarOferta_AvisarDeNuevoProducto"><path d="M1185.5,62.27 C1185.5,88.95 1185.5,141.27 1185.5,173.04 " fill="none" id="IncorporarOferta-to-AvisarDeNuevoProducto" style="stroke:#181818;stroke-width:1.0;stroke-dasharray:7.0,7.0;"/><polygon fill="#181818" points="1185.5,178.33,1189.5,169.33,1185.5,173.33,1181.5,169.33,1185.5,178.33" style="stroke:#181818;stroke-width:1.0;"/><text fill="#000000" font-family="sans-serif" font-size="13" lengthAdjust="spacing" textLength="55" x="1186.5" y="127.9951">&lt;extend&gt;</text></g><!--MD5=[91f041db9c7591adea58c423c82d0ba3]
link AvisarProveedor to EnviarNotificacion--><g id="link_AvisarProveedor_EnviarNotificacion"><path d="M1155.5,355.89 C1155.5,375.82 1155.5,409.02 1155.5,431.08 " fill="none" id="AvisarProveedor-to-EnviarNotificacion" style="stroke:#181818;stroke-width:1.0;stroke-dasharray:7.0,7.0;"/><polygon fill="#181818" points="1155.5,436.16,1159.5,427.16,1155.5,431.16,1151.5,427.16,1155.5,436.16" style="stroke:#181818;stroke-width:1.0;"/><text fill="#000000" font-family="sans-serif" font-size="13" lengthAdjust="spacing" textLength="57" x="1156.5" y="402.9951">&lt;include&gt;</text></g><!--MD5=[9d407c7a2d24b83212a33f8066d69e71]
link AvisarFinDeOferta to EliminarOferta--><g id="link_AvisarFinDeOferta_EliminarOferta"><path d="M972.5,219.21 C972.5,244.23 972.5,289.82 972.5,316.34 " fill="none" id="AvisarFinDeOferta-to-EliminarOferta" style="stroke:#181818;stroke-width:1.0;stroke-dasharray:7.0,7.0;"/><polygon fill="#181818" points="972.5,321.38,976.5,312.38,972.5,316.38,968.5,312.38,972.5,321.38" style="stroke:#181818;stroke-width:1.0;"/><text fill="#000000" font-family="sans-serif" font-size="13" lengthAdjust="spacing" textLength="57" x="973.5" y="283.9951">&lt;include&gt;</text></g><!--MD5=[1f4db6cbf0d626f5e2e6a9ba40a22bb9]
link AvisarFinDeOferta to AvisarProveedor--><g id="link_AvisarFinDeOferta_AvisarProveedor"><path d="M995.31,218.39 C1029.56,243.75 1094.07,291.51 1129.89,318.04 " fill="none" id="AvisarFinDeOferta-to-AvisarProveedor" style="stroke:#181818;stroke-width:1.0;"/><polygon fill="#181818" points="1134.11,321.16,1129.2611,312.5875,1130.093,318.1828,1124.4976,319.0147,1134.11,321.16" style="stroke:#181818;stroke-width:1.0;"/></g><!--MD5=[0446eac066a737fe356a94e77c648c2d]
link ConsultarProducto to BuscarProducto--><g id="link_ConsultarProducto_BuscarProducto"><path d="M86.71,219.3 C86.21,250.43 89.22,315.52 119.5,358.5 C143.39,392.4 183.58,416.39 217.31,431.78 " fill="none" id="ConsultarProducto-to-BuscarProducto" style="stroke:#181818;stroke-width:1.0;"/><polygon fill="none" points="220.11,425.36,235.75,439.66,214.61,438.24,220.11,425.36" style="stroke:#181818;stroke-width:1.0;"/></g><!--MD5=[a7351c1aac2e417755d8f1cda0fe8077]
link Comprador to ConsultarProducto--><g id="link_Comprador_ConsultarProducto"><path d="M243.84,74.11 C209.88,101.34 158.99,142.16 124.58,169.76 " fill="none" id="Comprador-to-ConsultarProducto" style="stroke:#181818;stroke-width:1.0;"/><polygon fill="none" points="128.69,175.44,108.7,182.49,119.93,164.52,128.69,175.44" style="stroke:#181818;stroke-width:1.0;"/></g><!--MD5=[803e9999cdc390f8b4c1dd5ef7fc8972]
link ConsultarProducto to VerificarDisponibilidad--><g id="link_ConsultarProducto_VerificarDisponibilidad"><path d="M105.36,218.66 C130.61,242.92 176.78,287.3 204.85,314.27 " fill="none" id="ConsultarProducto-to-VerificarDisponibilidad" style="stroke:#181818;stroke-width:1.0;stroke-dasharray:7.0,7.0;"/><polygon fill="#181818" points="208.52,317.8,204.8179,308.6734,204.9208,314.3293,199.2649,314.4322,208.52,317.8" style="stroke:#181818;stroke-width:1.0;"/><text fill="#000000" font-family="sans-serif" font-size="13" lengthAdjust="spacing" textLength="57" x="176.5" y="283.9951">&lt;include&gt;</text></g><!--MD5=[520f07797bdc09c1f4a8493f172dae93]
link Comprador to FinalizarCompra--><g id="link_Comprador_FinalizarCompra"><path d="M279.5,83.57 C279.5,113.21 279.5,153.31 279.5,177.74 " fill="none" id="Comprador-to-FinalizarCompra" style="stroke:#181818;stroke-width:1.0;"/><polygon fill="#181818" points="279.5,183,283.5,174,279.5,178,275.5,174,279.5,183" style="stroke:#181818;stroke-width:1.0;"/></g><!--MD5=[2522cab97019644fec37fe2e7b548112]
link Comprador to RealizarVenta--><g id="link_Comprador_RealizarVenta"><path d="M315.26,75.93 C351.94,107.13 407.83,154.69 438.49,180.77 " fill="none" id="Comprador-to-RealizarVenta" style="stroke:#181818;stroke-width:1.0;"/><polygon fill="#181818" points="442.46,184.15,438.1912,175.2743,438.6496,180.9126,433.0113,181.371,442.46,184.15" style="stroke:#181818;stroke-width:1.0;"/></g><!--MD5=[69dbd76b1d7a3f01bdc3407d1eb5407f]
link ConsultarHistorico to RealizarVenta--><g id="link_ConsultarHistorico_RealizarVenta"><path d="M460.5,63.17 C460.5,91.84 460.5,148.39 460.5,178.87 " fill="none" id="ConsultarHistorico-to-RealizarVenta" style="stroke:#181818;stroke-width:1.0;stroke-dasharray:7.0,7.0;"/><polygon fill="#181818" points="460.5,183.89,464.5,174.89,460.5,178.89,456.5,174.89,460.5,183.89" style="stroke:#181818;stroke-width:1.0;"/><text fill="#000000" font-family="sans-serif" font-size="13" lengthAdjust="spacing" textLength="57" x="461.5" y="127.9951">&lt;Extend&gt;</text></g><!--MD5=[d07fd4371a404d80f3318e827c92c2a6]
link RealizarVenta to AcordarPrecio--><g id="link_RealizarVenta_AcordarPrecio"><path d="M456.49,217.04 C450.16,241.52 437.88,289.06 430.83,316.37 " fill="none" id="RealizarVenta-to-AcordarPrecio" style="stroke:#181818;stroke-width:1.0;stroke-dasharray:7.0,7.0;"/><polygon fill="#181818" points="429.58,321.22,435.713,313.5138,430.8363,316.3804,427.9697,311.5037,429.58,321.22" style="stroke:#181818;stroke-width:1.0;"/><text fill="#000000" font-family="sans-serif" font-size="13" lengthAdjust="spacing" textLength="57" x="443.5" y="283.9951">&lt;include&gt;</text></g><!--MD5=[9d633c0c55c2b5a9291ab7394b790c41]
link Vendedor to RealizarVenta--><g id="link_Vendedor_RealizarVenta"><path d="M736.4,68.37 C728.75,73.6 720.47,78.96 712.5,83.5 C673.43,105.77 557.26,157.28 497.27,183.52 " fill="none" id="Vendedor-to-RealizarVenta" style="stroke:#181818;stroke-width:1.0;"/><polygon fill="#181818" points="492.34,185.67,502.1888,185.7128,496.9178,183.6592,498.9714,178.3882,492.34,185.67" style="stroke:#181818;stroke-width:1.0;"/></g><!--MD5=[0806d17fa52e4cc1a2ea17eee88da578]
@startuml
:Administrador: - ->(eliminarProducto) 
:Comun:
Administrador- -|>Comun
:Vendedor:
Vendedor - -|> Comun
Comun - ->(ConsultarPrecio)
Comun - ->(ConsultarOferta)
(ConsultarPrecio)..>(BuscarProducto):<include>
:Proveedor: - -|> Comun
Proveedor - ->(AvisarFinDeOferta)
Proveedor- ->(AvisarDeNuevoProducto)
(IncorporarOferta)..>(AvisarDeNuevoProducto):<extend>
(AvisarProveedor)..>(EnviarNotificacion):<include>
(AvisarFinDeOferta)..>(EliminarOferta):<include>
(AvisarFinDeOferta)- ->(AvisarProveedor)
(ConsultarProducto)- -|>(BuscarProducto)
:Comprador: - -|> (ConsultarProducto)
(ConsultarProducto)..>(VerificarDisponibilidad):<include>
Comprador- ->(FinalizarCompra)
Comprador- ->(RealizarVenta)
(ConsultarHistorico)..>(RealizarVenta):<Extend>
(RealizarVenta)..>(AcordarPrecio):<include>
Vendedor- ->(RealizarVenta)

@enduml

PlantUML version 1.2022.7(Mon Aug 22 19:01:30 CEST 2022)
(GPL source distribution)
Java Runtime: Java(TM) SE Runtime Environment
JVM: Java HotSpot(TM) 64-Bit Server VM
Default Encoding: Cp1252
Language: es
Country: ES
--></g></svg>