<?xml version="1.0" encoding="UTF-8" standalone="no"?><svg xmlns="http://www.w3.org/2000/svg" xmlns:xlink="http://www.w3.org/1999/xlink" contentStyleType="text/css" height="478px" preserveAspectRatio="none" style="width:1363px;height:478px;background:#FFFFFF;" version="1.1" viewBox="0 0 1363 478" width="1363px" zoomAndPan="magnify"><defs/><g><!--MD5=[2e903384ba6a94be9c906ea46910cc3f]
entity Administrador--><g id="elem_Administrador"><ellipse cx="248.5" cy="14" fill="#F1F1F1" rx="8" ry="8" style="stroke:#181818;stroke-width:0.5;"/><path d="M248.5,22 L248.5,49 M235.5,30 L261.5,30 M248.5,49 L235.5,64 M248.5,49 L261.5,64 " fill="none" style="stroke:#181818;stroke-width:0.5;"/><text fill="#000000" font-family="sans-serif" font-size="14" lengthAdjust="spacing" textLength="87" x="205" y="80.0332">Administrador</text></g><g id="elem_eliminarProducto"><ellipse cx="82.7363" cy="200.7473" fill="#F1F1F1" rx="76.7363" ry="17.7473" style="stroke:#181818;stroke-width:0.5;"/><text fill="#000000" font-family="sans-serif" font-size="14" lengthAdjust="spacing" textLength="106" x="27.2006" y="205.1555">eliminarProducto</text></g><!--MD5=[a46c3c6e38a726f7d5de49445d1f48e8]
entity Comun--><g id="elem_Comun"><ellipse cx="645.5" cy="170" fill="#F1F1F1" rx="8" ry="8" style="stroke:#181818;stroke-width:0.5;"/><path d="M645.5,178 L645.5,205 M632.5,186 L658.5,186 M645.5,205 L632.5,220 M645.5,205 L658.5,220 " fill="none" style="stroke:#181818;stroke-width:0.5;"/><text fill="#000000" font-family="sans-serif" font-size="14" lengthAdjust="spacing" textLength="45" x="623" y="236.0332">Comun</text></g><!--MD5=[b518afe29adc4be238f77772235dec2a]
entity Vendedor--><g id="elem_Vendedor"><ellipse cx="645.5" cy="14" fill="#F1F1F1" rx="8" ry="8" style="stroke:#181818;stroke-width:0.5;"/><path d="M645.5,22 L645.5,49 M632.5,30 L658.5,30 M645.5,49 L632.5,64 M645.5,49 L658.5,64 " fill="none" style="stroke:#181818;stroke-width:0.5;"/><text fill="#000000" font-family="sans-serif" font-size="14" lengthAdjust="spacing" textLength="62" x="614.5" y="80.0332">Vendedor</text></g><g id="elem_ConsultarPrecio"><ellipse cx="653.3525" cy="337.8705" fill="#F1F1F1" rx="74.8525" ry="17.3705" style="stroke:#181818;stroke-width:0.5;"/><text fill="#000000" font-family="sans-serif" font-size="14" lengthAdjust="spacing" textLength="101" x="599.8525" y="342.3871">ConsultarPrecio</text></g><g id="elem_ConsultarOferta"><ellipse cx="468.3525" cy="337.8705" fill="#F1F1F1" rx="74.8525" ry="17.3705" style="stroke:#181818;stroke-width:0.5;"/><text fill="#000000" font-family="sans-serif" font-size="14" lengthAdjust="spacing" textLength="101" x="414.8525" y="342.3871">ConsultarOferta</text></g><g id="elem_BuscarProducto"><ellipse cx="270.3525" cy="454.3705" fill="#F1F1F1" rx="74.8525" ry="17.3705" style="stroke:#181818;stroke-width:0.5;"/><text fill="#000000" font-family="sans-serif" font-size="14" lengthAdjust="spacing" textLength="101" x="216.8525" y="458.8871">BuscarProducto</text></g><!--MD5=[37c1e849c7fac2ab8f071c364d67cfa5]
entity Proveedor--><g id="elem_Proveedor"><ellipse cx="993.5" cy="14" fill="#F1F1F1" rx="8" ry="8" style="stroke:#181818;stroke-width:0.5;"/><path d="M993.5,22 L993.5,49 M980.5,30 L1006.5,30 M993.5,49 L980.5,64 M993.5,49 L1006.5,64 " fill="none" style="stroke:#181818;stroke-width:0.5;"/><text fill="#000000" font-family="sans-serif" font-size="14" lengthAdjust="spacing" textLength="66" x="960.5" y="80.0332">Proveedor</text></g><g id="elem_AvisarFinDeOferta"><ellipse cx="993.597" cy="200.6194" fill="#F1F1F1" rx="81.097" ry="18.6194" style="stroke:#181818;stroke-width:0.5;"/><text fill="#000000" font-family="sans-serif" font-size="14" lengthAdjust="spacing" textLength="117" x="934.5843" y="204.4982">AvisarFinDeOferta</text></g><g id="elem_AvisarDeNuevoProducto"><ellipse cx="1206.4525" cy="200.2905" fill="#F1F1F1" rx="96.9525" ry="21.7905" style="stroke:#181818;stroke-width:0.5;"/><text fill="#000000" font-family="sans-serif" font-size="14" lengthAdjust="spacing" textLength="154" x="1129.4525" y="204.019">AvisarDeNuevoProducto</text></g><g id="elem_IncorporarOferta"><ellipse cx="1281.355" cy="44.671" fill="#F1F1F1" rx="76.355" ry="17.671" style="stroke:#181818;stroke-width:0.5;"/><text fill="#000000" font-family="sans-serif" font-size="14" lengthAdjust="spacing" textLength="105" x="1226.1233" y="49.1255">IncorporarOferta</text></g><g id="elem_AvisarProveedor"><ellipse cx="1211.355" cy="338.171" fill="#F1F1F1" rx="76.355" ry="17.671" style="stroke:#181818;stroke-width:0.5;"/><text fill="#000000" font-family="sans-serif" font-size="14" lengthAdjust="spacing" textLength="105" x="1156.1233" y="342.6255">AvisarProveedor</text></g><g id="elem_EnviarNotificacion"><ellipse cx="1211.5785" cy="454.7157" fill="#F1F1F1" rx="79.0785" ry="18.2157" style="stroke:#181818;stroke-width:0.5;"/><text fill="#000000" font-family="sans-serif" font-size="14" lengthAdjust="spacing" textLength="112" x="1154.1751" y="458.8395">EnviarNotificacion</text></g><g id="elem_EliminarOferta"><ellipse cx="1011.3567" cy="338.0713" fill="#F1F1F1" rx="70.8567" ry="16.5713" style="stroke:#181818;stroke-width:0.5;"/><text fill="#000000" font-family="sans-serif" font-size="14" lengthAdjust="spacing" textLength="90" x="963.3567" y="342.5879">EliminarOferta</text></g><g id="elem_ConsultarProducto"><ellipse cx="275.5075" cy="200.7015" fill="#F1F1F1" rx="81.5075" ry="18.7015" style="stroke:#181818;stroke-width:0.5;"/><text fill="#000000" font-family="sans-serif" font-size="14" lengthAdjust="spacing" textLength="118" x="216.1675" y="204.5304">ConsultarProducto</text></g><!--MD5=[4e73d3d21f99b8c64cc90bc67774afb7]
entity Comprador--><g id="elem_Comprador"><ellipse cx="497.5" cy="14" fill="#F1F1F1" rx="8" ry="8" style="stroke:#181818;stroke-width:0.5;"/><path d="M497.5,22 L497.5,49 M484.5,30 L510.5,30 M497.5,49 L484.5,64 M497.5,49 L510.5,64 " fill="none" style="stroke:#181818;stroke-width:0.5;"/><text fill="#000000" font-family="sans-serif" font-size="14" lengthAdjust="spacing" textLength="71" x="462" y="80.0332">Comprador</text></g><g id="elem_VerificarDisponibilidad"><ellipse cx="267.3297" cy="338.0659" fill="#F1F1F1" rx="90.8297" ry="20.5659" style="stroke:#181818;stroke-width:0.5;"/><text fill="#000000" font-family="sans-serif" font-size="14" lengthAdjust="spacing" textLength="140" x="197.3297" y="341.7945">VerificarDisponibilidad</text></g><g id="elem_FinalizarCompra"><ellipse cx="497.6002" cy="200.52" fill="#F1F1F1" rx="75.6002" ry="17.52" style="stroke:#181818;stroke-width:0.5;"/><text fill="#000000" font-family="sans-serif" font-size="14" lengthAdjust="spacing" textLength="103" x="443.1002" y="205.0366">FinalizarCompra</text></g><g id="elem_RealizarVenta"><ellipse cx="782.6531" cy="200.4306" fill="#F1F1F1" rx="70.1531" ry="16.4306" style="stroke:#181818;stroke-width:0.5;"/><text fill="#000000" font-family="sans-serif" font-size="14" lengthAdjust="spacing" textLength="88" x="735.6531" y="204.9472">RealizarVenta</text></g><g id="elem_ConsultarHistorico"><ellipse cx="792.2827" cy="44.4565" fill="#F1F1F1" rx="80.2827" ry="18.4565" style="stroke:#181818;stroke-width:0.5;"/><text fill="#000000" font-family="sans-serif" font-size="14" lengthAdjust="spacing" textLength="115" x="733.9192" y="48.4341">ConsultarHistorico</text></g><g id="elem_AcordarPrecio"><ellipse cx="834.3567" cy="338.0713" fill="#F1F1F1" rx="70.8567" ry="16.5713" style="stroke:#181818;stroke-width:0.5;"/><text fill="#000000" font-family="sans-serif" font-size="14" lengthAdjust="spacing" textLength="90" x="786.3567" y="342.5879">AcordarPrecio</text></g><!--MD5=[0ca9a999317a74d66d36824bf0e85c36]
link Administrador to eliminarProducto--><g id="link_Administrador_eliminarProducto"><path d="M207.47,83.57 C174.52,114.13 129.61,155.8 103.57,179.96 " fill="none" id="Administrador-to-eliminarProducto" style="stroke:#181818;stroke-width:1.0;"/><polygon fill="#181818" points="99.86,183.39,109.175,180.1915,103.5219,179.9856,103.7279,174.3324,99.86,183.39" style="stroke:#181818;stroke-width:1.0;"/></g><!--MD5=[5b6b7771fafa5d3e54b26030175fd4f9]
link Administrador to Comun--><g id="link_Administrador_Comun"><path d="M292.15,56.13 C358.7,73.24 488.55,110.25 590.5,161.5 C595.75,164.14 601.07,167.22 606.24,170.47 " fill="none" id="Administrador-to-Comun" style="stroke:#181818;stroke-width:1.0;"/><polygon fill="none" points="610.22,164.71,622.84,181.73,602.36,176.29,610.22,164.71" style="stroke:#181818;stroke-width:1.0;"/></g><!--MD5=[773f343a7041d3c20ed60daade3e0bef]
link Vendedor to Comun--><g id="link_Vendedor_Comun"><path d="M645.5,83.57 C645.5,100.97 645.5,121.97 645.5,141.28 " fill="none" id="Vendedor-to-Comun" style="stroke:#181818;stroke-width:1.0;"/><polygon fill="none" points="652.5,141.34,645.5,161.34,638.5,141.34,652.5,141.34" style="stroke:#181818;stroke-width:1.0;"/></g><!--MD5=[2ff9252fa9ef6a0541ce3bc8faf6f6b1]
link Comun to ConsultarPrecio--><g id="link_Comun_ConsultarPrecio"><path d="M647.75,239.6 C649.19,264.04 651.01,294.87 652.21,315.23 " fill="none" id="Comun-to-ConsultarPrecio" style="stroke:#181818;stroke-width:1.0;"/><polygon fill="#181818" points="652.52,320.42,655.9985,311.2059,652.2339,315.4282,648.0116,311.6636,652.52,320.42" style="stroke:#181818;stroke-width:1.0;"/></g><!--MD5=[ba620605dc398a1db8659bd79ba0fa77]
link Comun to ConsultarOferta--><g id="link_Comun_ConsultarOferta"><path d="M622.72,218.94 C589.44,244.42 527.73,291.66 493.32,318 " fill="none" id="Comun-to-ConsultarOferta" style="stroke:#181818;stroke-width:1.0;"/><polygon fill="#181818" points="489.27,321.1,498.8469,318.8014,493.239,318.059,493.9813,312.4511,489.27,321.1" style="stroke:#181818;stroke-width:1.0;"/></g><!--MD5=[ecc0951ca4acb02bbb55ee14669f0fba]
link ConsultarPrecio to BuscarProducto--><g id="link_ConsultarPrecio_BuscarProducto"><path d="M609.19,352.25 C537.03,373.82 394.66,416.38 319.55,438.83 " fill="none" id="ConsultarPrecio-to-BuscarProducto" style="stroke:#181818;stroke-width:1.0;stroke-dasharray:7.0,7.0;"/><polygon fill="#181818" points="314.71,440.28,324.4815,441.5118,319.4972,438.8367,322.1723,433.8523,314.71,440.28" style="stroke:#181818;stroke-width:1.0;"/><text fill="#000000" font-family="sans-serif" font-size="13" lengthAdjust="spacing" textLength="57" x="486.5" y="402.9951">&lt;include&gt;</text></g><!--MD5=[999804e013fc8e111b3739481b13d0fb]
link Proveedor to Comun--><g id="link_Proveedor_Comun"><path d="M960.24,71.22 C933.4,90.69 893.92,116.57 855.5,131.5 C787.66,157.87 760.9,131.69 694.5,161.5 C691.33,162.92 688.17,164.59 685.09,166.43 " fill="none" id="Proveedor-to-Comun" style="stroke:#181818;stroke-width:1.0;"/><polygon fill="none" points="688.84,172.34,668.44,178.09,680.81,160.88,688.84,172.34" style="stroke:#181818;stroke-width:1.0;"/></g><!--MD5=[9ab143f5b5b3349a6c4981140bebffa7]
link Proveedor to AvisarFinDeOferta--><g id="link_Proveedor_AvisarFinDeOferta"><path d="M993.5,83.57 C993.5,112.72 993.5,151.96 993.5,176.49 " fill="none" id="Proveedor-to-AvisarFinDeOferta" style="stroke:#181818;stroke-width:1.0;"/><polygon fill="#181818" points="993.5,181.8,997.5,172.8,993.5,176.8,989.5,172.8,993.5,181.8" style="stroke:#181818;stroke-width:1.0;"/></g><!--MD5=[ba9d614f63d1b3538491dc0513ba8255]
link Proveedor to AvisarDeNuevoProducto--><g id="link_Proveedor_AvisarDeNuevoProducto"><path d="M1026.78,69.56 C1067.08,98.7 1134.5,147.44 1174.31,176.22 " fill="none" id="Proveedor-to-AvisarDeNuevoProducto" style="stroke:#181818;stroke-width:1.0;"/><polygon fill="#181818" points="1178.54,179.29,1173.5837,170.7791,1174.4859,176.3636,1168.9014,177.2658,1178.54,179.29" style="stroke:#181818;stroke-width:1.0;"/></g><!--MD5=[f98b7c0df43b232249ba68432249d4ea]
link IncorporarOferta to AvisarDeNuevoProducto--><g id="link_IncorporarOferta_AvisarDeNuevoProducto"><path d="M1273.47,61.98 C1260.4,88.83 1234.41,142.19 1218.93,173.97 " fill="none" id="IncorporarOferta-to-AvisarDeNuevoProducto" style="stroke:#181818;stroke-width:1.0;stroke-dasharray:7.0,7.0;"/><polygon fill="#181818" points="1216.73,178.5,1224.2844,172.1809,1218.9317,174.0108,1217.1017,168.6582,1216.73,178.5" style="stroke:#181818;stroke-width:1.0;"/></g><!--MD5=[4b5d0ad9b1ef865c81952619f8e1b6d0]
link IncorporarOferta to AvisarProveedor--><g id="link_IncorporarOferta_AvisarProveedor"><path d="M1291.47,62.08 C1310.82,96.55 1349.23,177.88 1321.5,239.5 C1305.71,274.59 1270.36,302.17 1243.97,318.91 " fill="none" id="IncorporarOferta-to-AvisarProveedor" style="stroke:#181818;stroke-width:1.0;"/><polygon fill="#181818" points="1239.49,321.71,1249.2441,320.3468,1243.734,319.0664,1245.0143,313.5564,1239.49,321.71" style="stroke:#181818;stroke-width:1.0;"/></g><!--MD5=[91f041db9c7591adea58c423c82d0ba3]
link AvisarProveedor to EnviarNotificacion--><g id="link_AvisarProveedor_EnviarNotificacion"><path d="M1211.5,355.89 C1211.5,375.82 1211.5,409.02 1211.5,431.08 " fill="none" id="AvisarProveedor-to-EnviarNotificacion" style="stroke:#181818;stroke-width:1.0;stroke-dasharray:7.0,7.0;"/><polygon fill="#181818" points="1211.5,436.16,1215.5,427.16,1211.5,431.16,1207.5,427.16,1211.5,436.16" style="stroke:#181818;stroke-width:1.0;"/><text fill="#000000" font-family="sans-serif" font-size="13" lengthAdjust="spacing" textLength="57" x="1212.5" y="402.9951">&lt;include&gt;</text></g><!--MD5=[9d407c7a2d24b83212a33f8066d69e71]
link AvisarFinDeOferta to EliminarOferta--><g id="link_AvisarFinDeOferta_EliminarOferta"><path d="M995.85,219.21 C999.18,244.23 1005.23,289.82 1008.76,316.34 " fill="none" id="AvisarFinDeOferta-to-EliminarOferta" style="stroke:#181818;stroke-width:1.0;stroke-dasharray:7.0,7.0;"/><polygon fill="#181818" points="1009.43,321.38,1012.2126,311.9324,1008.7729,316.4234,1004.282,312.9837,1009.43,321.38" style="stroke:#181818;stroke-width:1.0;"/><text fill="#000000" font-family="sans-serif" font-size="13" lengthAdjust="spacing" textLength="57" x="1006.5" y="283.9951">&lt;include&gt;</text></g><!--MD5=[1f4db6cbf0d626f5e2e6a9ba40a22bb9]
link AvisarFinDeOferta to AvisarProveedor--><g id="link_AvisarFinDeOferta_AvisarProveedor"><path d="M1020.23,218.11 C1061.23,243.6 1139.36,292.16 1181.98,318.65 " fill="none" id="AvisarFinDeOferta-to-AvisarProveedor" style="stroke:#181818;stroke-width:1.0;"/><polygon fill="#181818" points="1186.24,321.3,1180.7034,313.1547,1181.992,318.6628,1176.4839,319.9515,1186.24,321.3" style="stroke:#181818;stroke-width:1.0;"/></g><!--MD5=[0446eac066a737fe356a94e77c648c2d]
link ConsultarProducto to BuscarProducto--><g id="link_ConsultarProducto_BuscarProducto"><path d="M249.06,218.18 C220.54,237.91 176.76,273.67 158.5,317.5 C138.09,366.47 196.75,411.51 236.71,435.47 " fill="none" id="ConsultarProducto-to-BuscarProducto" style="stroke:#181818;stroke-width:1.0;"/><polygon fill="#181818" points="241.48,438.29,235.7693,430.2658,237.1762,435.7449,231.6971,437.1519,241.48,438.29" style="stroke:#181818;stroke-width:1.0;"/></g><!--MD5=[a7351c1aac2e417755d8f1cda0fe8077]
link Comprador to ConsultarProducto--><g id="link_Comprador_ConsultarProducto"><path d="M461.83,70.24 C422.13,97.78 358.09,142.21 316.39,171.13 " fill="none" id="Comprador-to-ConsultarProducto" style="stroke:#181818;stroke-width:1.0;"/><polygon fill="none" points="320.19,177.02,299.77,182.67,312.21,165.52,320.19,177.02" style="stroke:#181818;stroke-width:1.0;"/></g><!--MD5=[803e9999cdc390f8b4c1dd5ef7fc8972]
link ConsultarProducto to VerificarDisponibilidad--><g id="link_ConsultarProducto_VerificarDisponibilidad"><path d="M274.45,219.21 C273.06,242.89 270.57,284.97 268.98,311.91 " fill="none" id="ConsultarProducto-to-VerificarDisponibilidad" style="stroke:#181818;stroke-width:1.0;stroke-dasharray:7.0,7.0;"/><polygon fill="#181818" points="268.68,317.08,273.2118,308.3357,268.9795,312.089,265.2262,307.8566,268.68,317.08" style="stroke:#181818;stroke-width:1.0;"/><text fill="#000000" font-family="sans-serif" font-size="13" lengthAdjust="spacing" textLength="57" x="272.5" y="283.9951">&lt;include&gt;</text></g><!--MD5=[520f07797bdc09c1f4a8493f172dae93]
link Comprador to FinalizarCompra--><g id="link_Comprador_FinalizarCompra"><path d="M497.5,83.57 C497.5,113.21 497.5,153.31 497.5,177.74 " fill="none" id="Comprador-to-FinalizarCompra" style="stroke:#181818;stroke-width:1.0;"/><polygon fill="#181818" points="497.5,183,501.5,174,497.5,178,493.5,174,497.5,183" style="stroke:#181818;stroke-width:1.0;"/></g><!--MD5=[2522cab97019644fec37fe2e7b548112]
link Comprador to RealizarVenta--><g id="link_Comprador_RealizarVenta"><path d="M533.02,64.69 C589.22,95.06 697.74,153.7 751.19,182.58 " fill="none" id="Comprador-to-RealizarVenta" style="stroke:#181818;stroke-width:1.0;"/><polygon fill="#181818" points="755.88,185.11,749.8552,177.3189,751.4786,182.7378,746.0596,184.3612,755.88,185.11" style="stroke:#181818;stroke-width:1.0;"/></g><!--MD5=[69dbd76b1d7a3f01bdc3407d1eb5407f]
link ConsultarHistorico to RealizarVenta--><g id="link_ConsultarHistorico_RealizarVenta"><path d="M791.35,63.17 C789.49,91.84 785.82,148.39 783.84,178.87 " fill="none" id="ConsultarHistorico-to-RealizarVenta" style="stroke:#181818;stroke-width:1.0;stroke-dasharray:7.0,7.0;"/><polygon fill="#181818" points="783.51,183.89,788.0932,175.1725,783.8388,178.9008,780.1105,174.6464,783.51,183.89" style="stroke:#181818;stroke-width:1.0;"/><text fill="#000000" font-family="sans-serif" font-size="13" lengthAdjust="spacing" textLength="57" x="789.5" y="127.9951">&lt;Extend&gt;</text></g><!--MD5=[d07fd4371a404d80f3318e827c92c2a6]
link RealizarVenta to AcordarPrecio--><g id="link_RealizarVenta_AcordarPrecio"><path d="M788.47,217.04 C797.86,241.52 816.1,289.06 826.58,316.37 " fill="none" id="RealizarVenta-to-AcordarPrecio" style="stroke:#181818;stroke-width:1.0;stroke-dasharray:7.0,7.0;"/><polygon fill="#181818" points="828.44,321.22,828.9627,311.385,826.6547,316.5496,821.4901,314.2415,828.44,321.22" style="stroke:#181818;stroke-width:1.0;"/><text fill="#000000" font-family="sans-serif" font-size="13" lengthAdjust="spacing" textLength="57" x="816.5" y="283.9951">&lt;include&gt;</text></g><!--MD5=[9d633c0c55c2b5a9291ab7394b790c41]
link Vendedor to RealizarVenta--><g id="link_Vendedor_RealizarVenta"><path d="M676.59,80.44 C700.42,107.23 732.97,143.82 755.67,169.34 " fill="none" id="Vendedor-to-RealizarVenta" style="stroke:#181818;stroke-width:1.0;"/><polygon fill="none" points="760.91,164.7,768.97,184.29,750.45,174,760.91,164.7" style="stroke:#181818;stroke-width:1.0;"/></g><!--MD5=[8ece9ab0ac16d37415d8d5acf0e77257]
@startuml
:Administrador: - ->(eliminarProducto) 
:Comun:
Administrador- -|>Comun
:Vendedor:
Vendedor - -|> Comun
Comun - ->(ConsultarPrecio)
Comun - ->(ConsultarOferta)
(ConsultarPrecio)..>(BuscarProducto):<include>
:Proveedor: - -|> Comun
Proveedor - ->(AvisarFinDeOferta)
Proveedor- ->(AvisarDeNuevoProducto)
(IncorporarOferta)..>(AvisarDeNuevoProducto)
(IncorporarOferta)- ->(AvisarProveedor)
(AvisarProveedor)..>(EnviarNotificacion):<include>
(AvisarFinDeOferta)..>(EliminarOferta):<include>
(AvisarFinDeOferta)- ->(AvisarProveedor)
(ConsultarProducto)- ->(BuscarProducto)
:Comprador: - -|> (ConsultarProducto)
(ConsultarProducto)..>(VerificarDisponibilidad):<include>
Comprador- ->(FinalizarCompra)
Comprador- ->(RealizarVenta)
(ConsultarHistorico)..>(RealizarVenta):<Extend>
(RealizarVenta)..>(AcordarPrecio):<include>
Vendedor- -|>(RealizarVenta)


@enduml

PlantUML version 1.2022.7(Mon Aug 22 19:01:30 CEST 2022)
(GPL source distribution)
Java Runtime: Java(TM) SE Runtime Environment
JVM: Java HotSpot(TM) 64-Bit Server VM
Default Encoding: Cp1252
Language: es
Country: ES
--></g></svg>